<svg width="24" height="24" viewBox="0 0 24 24" fill="none" xmlns="http://www.w3.org/2000/svg">
<g clip-path="url(#clip0)">
<path d="M20.5289 14.8116C21.6809 14.8116 22.6344 15.7504 22.6344 16.9254C22.6344 17.7344 22.0333 19.0321 20.522 19.0322C19.3689 19.0322 18.417 18.0923 18.417 16.9186C18.417 16.7913 18.4285 16.6635 18.4519 16.5366L17.0931 15.7521C16.071 17.1356 14.4996 18.0894 12.7037 18.2888V19.9022C13.5221 20.1924 14.1099 20.974 14.1099 21.8906C14.1099 23.0537 13.1637 24 12.0006 24C10.8375 24 9.8912 23.0537 9.8912 21.8906C9.8912 20.974 10.4791 20.1924 11.2974 19.9022V18.2888C9.50153 18.0894 7.93014 17.1356 6.90807 15.7521L5.55034 16.536C5.57392 16.6622 5.58582 16.7903 5.58582 16.9191C5.58582 18.0938 4.63187 19.0321 3.47907 19.0321C2.32595 19.0321 1.3667 18.1028 1.3667 16.9254C1.3667 15.7546 2.31775 14.8116 3.47228 14.8116C3.79736 14.8116 4.35151 14.8935 4.84717 15.3181L6.20312 14.5352C5.8622 13.7586 5.67245 12.9011 5.67245 12C5.67245 11.0989 5.86215 10.2414 6.20321 9.46477L4.84726 8.68191C4.35151 9.1065 3.79731 9.18844 3.47223 9.18844C2.32018 9.18844 1.36679 8.24944 1.36679 7.07461C1.36679 6.25097 1.98006 4.96786 3.47912 4.96786C4.27023 4.96786 5.58587 5.55652 5.58587 7.08089C5.58587 7.20961 5.57397 7.33781 5.55039 7.46405L6.90812 8.24794C7.93018 6.86442 9.50162 5.91061 11.2975 5.71116V4.09781C10.4791 3.80756 9.89125 3.02602 9.89125 2.10938C9.89125 0.946266 10.8375 0 12.0006 0C13.1637 0 14.11 0.946266 14.11 2.10938C14.11 3.02602 13.5221 3.80756 12.7037 4.09781V5.7112C14.4997 5.91066 16.0711 6.86447 17.0931 8.24798L18.452 7.46344C18.4285 7.33659 18.417 7.20872 18.417 7.08141C18.417 5.90995 19.3683 4.96786 20.5221 4.96786C21.6684 4.96786 22.6345 5.88938 22.6345 7.07461C22.6345 8.24442 21.6873 9.18839 20.529 9.18844C20.2038 9.18844 19.6497 9.10645 19.154 8.68191L17.798 9.46477C18.1389 10.2414 18.3287 11.0989 18.3287 12C18.3287 12.9011 18.139 13.7586 17.798 14.5353L19.1539 15.3181C19.6497 14.8935 20.2039 14.8116 20.5289 14.8116Z" fill="url(#paint0_linear)"/>
</g>
<defs>
<linearGradient id="paint0_linear" x1="12.0006" y1="0" x2="12.0006" y2="24" gradientUnits="userSpaceOnUse">
<stop stop-color="#5040B6"/>
<stop offset="1" stop-color="#3D80D4"/>
</linearGradient>
<clipPath id="clip0">
<rect width="24" height="24" fill="white"/>
</clipPath>
</defs>
</svg>
