<svg width="24" height="24" viewBox="0 0 24 24" fill="none" xmlns="http://www.w3.org/2000/svg">
<path d="M21.9533 12.469C21.9723 12.314 22.0003 12.161 22.0003 12C22.0003 11.839 21.9723 11.686 21.9533 11.531L22.8543 10.849C23.0553 10.697 23.1113 10.419 22.9853 10.2L22.1763 8.8C22.0503 8.582 21.7813 8.491 21.5493 8.589L20.5123 9.026C20.2593 8.833 19.9903 8.663 19.6933 8.539L19.5553 7.438C19.5233 7.188 19.3113 7 19.0593 7H17.4423C17.1903 7 16.9773 7.188 16.9463 7.438L16.8083 8.539C16.5113 8.663 16.2413 8.834 15.9893 9.026L14.9523 8.589C14.7193 8.491 14.4503 8.581 14.3243 8.8L13.5163 10.2C13.3903 10.418 13.4463 10.696 13.6473 10.849L14.5483 11.531C14.5283 11.686 14.5003 11.839 14.5003 12C14.5003 12.161 14.5283 12.314 14.5473 12.469L13.6463 13.151C13.4453 13.303 13.3893 13.581 13.5153 13.8L14.3243 15.201C14.4503 15.419 14.7193 15.51 14.9513 15.412L15.9883 14.974C16.2413 15.167 16.5103 15.337 16.8073 15.461L16.9453 16.562C16.9773 16.812 17.1893 17 17.4413 17H19.0583C19.3103 17 19.5233 16.812 19.5543 16.562L19.6923 15.461C19.9893 15.337 20.2593 15.166 20.5113 14.974L21.5483 15.411C21.7803 15.509 22.0493 15.419 22.1753 15.2L22.9843 13.799C23.1103 13.581 23.0543 13.303 22.8533 13.15L21.9533 12.469ZM18.2503 14C17.1453 14 16.2503 13.105 16.2503 12C16.2503 10.895 17.1453 10 18.2503 10C19.3553 10 20.2503 10.895 20.2503 12C20.2503 13.105 19.3553 14 18.2503 14Z" fill="#F1F2F2"/>
<path d="M14 18V21C14 21.552 13.552 22 13 22H3C2.448 22 2 21.552 2 21V3C2 2.448 2.448 2 3 2H3.5C4.056 2 4.507 2.454 4.5 3.012C4.493 3.56 4.952 4 5.5 4H10.5C11.048 4 11.507 3.56 11.5 3.012C11.493 2.454 11.944 2 12.5 2H13C13.552 2 14 2.448 14 3V6C14 6.552 14.448 7 15 7C15.552 7 16 6.552 16 6V3C16 1.343 14.657 0 13 0H3C1.343 0 0 1.343 0 3V21C0 22.657 1.343 24 3 24H13C14.657 24 16 22.657 16 21V18C16 17.448 15.552 17 15 17C14.448 17 14 17.448 14 18Z" fill="#F1F2F2"/>
</svg>
