<svg width="24" height="24" viewBox="0 0 24 24" fill="none" xmlns="http://www.w3.org/2000/svg">
<g clip-path="url(#clip0)">
<path d="M23.9724 9.21193C23.9077 9.0241 23.7429 8.88846 23.5467 8.86234L15.9896 7.86058L12.4667 0.798148C12.2914 0.4444 11.7081 0.4444 11.5328 0.798148L8.00997 7.86058L0.452922 8.86234C0.256727 8.88841 0.0908098 9.0241 0.0271724 9.21193C-0.0364649 9.39976 0.0115199 9.6074 0.152393 9.74827L5.69442 15.2903L4.18449 22.8422C4.1459 23.0384 4.22103 23.2376 4.37961 23.3597C4.53824 23.4808 4.75317 23.5006 4.92955 23.4119L12.0003 19.8765L19.0711 23.4119C19.1452 23.4485 19.2245 23.4672 19.3049 23.4672C19.4166 23.4672 19.5293 23.4307 19.6221 23.3598C19.7797 23.2387 19.8559 23.0384 19.8172 22.8422L18.3073 15.2904L23.8493 9.74837C23.987 9.60843 24.035 9.40079 23.9724 9.21193Z" fill="url(#paint0_linear)"/>
</g>
<defs>
<linearGradient id="paint0_linear" x1="11.9995" y1="0.532837" x2="11.9995" y2="23.4672" gradientUnits="userSpaceOnUse">
<stop stop-color="#5040B6"/>
<stop offset="1" stop-color="#3D80D4"/>
</linearGradient>
<clipPath id="clip0">
<rect width="24" height="24" fill="white"/>
</clipPath>
</defs>
</svg>
