<svg width="24" height="24" viewBox="0 0 24 24" fill="none" xmlns="http://www.w3.org/2000/svg">
<path d="M4.6965 15.2527C4.51626 14.9403 4.1159 14.8316 3.80151 15.0129L0.494105 16.9222C0.180933 17.1034 0.0734952 17.504 0.254292 17.8176L3.63464 23.6723C3.81557 23.9854 4.21589 24.0929 4.52962 23.9122L7.83703 22.0025C8.15067 21.8216 8.25768 21.4211 8.07684 21.1075L4.6965 15.2527Z" fill="url(#paint0_linear)"/>
<path d="M23.6475 14.0841C23.3293 13.6421 22.7133 13.5422 22.2718 13.8605C20.9321 14.8256 18.3596 16.6791 18.1552 16.8267C18.061 16.9069 17.9621 16.9796 17.8589 17.0438C17.4544 17.2983 16.9852 17.4342 16.4954 17.4342H13.1274C12.7393 17.4342 12.4243 17.1197 12.4243 16.7311C12.4243 16.3421 12.7397 16.028 13.1274 16.028H16.7293C17.2585 16.028 17.6822 15.5874 17.6602 15.0572C17.6396 14.5542 17.2102 14.1642 16.7068 14.1642H13.965C13.7794 13.9678 13.576 13.7878 13.358 13.6271C12.6085 13.0744 11.6822 12.7477 10.6796 12.7477C8.89691 12.7477 7.12316 13.8708 6.3877 15.3699L9.26395 20.3513H14.6593C15.7186 20.3513 16.7621 20.0803 17.6804 19.5521C17.9986 19.3692 18.3394 19.1494 18.7088 18.8841C20.2566 17.7722 23.4211 15.4622 23.4235 15.4608C23.866 15.143 23.9663 14.5261 23.6475 14.0841V14.0841Z" fill="url(#paint1_linear)"/>
<path d="M17.8002 0C16.2074 0 14.9116 1.37393 14.9116 3.06271C14.9116 4.75149 16.2074 6.12542 17.8002 6.12542C19.3931 6.12542 20.6889 4.75149 20.6889 3.06271C20.6889 1.37393 19.3931 0 17.8002 0Z" fill="url(#paint2_linear)"/>
<path d="M22.5928 10.3166C22.5053 8.9074 21.791 7.66793 20.7249 6.87355C19.9494 6.29554 18.9875 5.95337 17.9455 5.95337H17.6568C15.0849 5.9534 13 8.03822 13 10.6102V11.1629H22.6021V10.6102C22.6021 10.5116 22.599 10.4136 22.5928 10.3166Z" fill="url(#paint3_linear)"/>
<defs>
<linearGradient id="paint0_linear" x1="4.16563" y1="14.925" x2="4.16563" y2="23.9999" gradientUnits="userSpaceOnUse">
<stop stop-color="#5040B6"/>
<stop offset="1" stop-color="#3D80D4"/>
</linearGradient>
<linearGradient id="paint1_linear" x1="15.1108" y1="12.7477" x2="15.1108" y2="20.3513" gradientUnits="userSpaceOnUse">
<stop stop-color="#5040B6"/>
<stop offset="1" stop-color="#3D80D4"/>
</linearGradient>
<linearGradient id="paint2_linear" x1="17.8003" y1="0" x2="17.8003" y2="6.12542" gradientUnits="userSpaceOnUse">
<stop stop-color="#5040B6"/>
<stop offset="1" stop-color="#3D80D4"/>
</linearGradient>
<linearGradient id="paint3_linear" x1="17.801" y1="5.95337" x2="17.801" y2="11.1629" gradientUnits="userSpaceOnUse">
<stop stop-color="#5040B6"/>
<stop offset="1" stop-color="#3D80D4"/>
</linearGradient>
</defs>
</svg>
