<svg width="24" height="24" viewBox="0 0 24 24" fill="none" xmlns="http://www.w3.org/2000/svg">
<g clip-path="url(#clip0)">
<path d="M12 3.457C11.586 3.457 11.25 3.121 11.25 2.707V0.75C11.25 0.336 11.586 0 12 0C12.414 0 12.75 0.336 12.75 0.75V2.707C12.75 3.121 12.414 3.457 12 3.457Z" fill="url(#paint0_linear)"/>
<path d="M18.571 6.17894C18.379 6.17894 18.187 6.10594 18.041 5.95894C17.748 5.66594 17.748 5.19094 18.041 4.89794L19.425 3.51394C19.718 3.22094 20.193 3.22094 20.486 3.51394C20.779 3.80694 20.779 4.28194 20.486 4.57494L19.102 5.95894C18.955 6.10494 18.763 6.17894 18.571 6.17894Z" fill="url(#paint1_linear)"/>
<path d="M23.2495 12.75H21.2925C20.8785 12.75 20.5425 12.414 20.5425 12C20.5425 11.586 20.8785 11.25 21.2925 11.25H23.2495C23.6635 11.25 23.9995 11.586 23.9995 12C23.9995 12.414 23.6635 12.75 23.2495 12.75Z" fill="url(#paint2_linear)"/>
<path d="M19.955 20.7051C19.763 20.7051 19.571 20.6321 19.425 20.4851L18.041 19.1011C17.748 18.8081 17.748 18.3331 18.041 18.0401C18.334 17.7471 18.809 17.7471 19.102 18.0401L20.486 19.4241C20.779 19.7171 20.779 20.1921 20.486 20.4851C20.339 20.6321 20.147 20.7051 19.955 20.7051Z" fill="url(#paint3_linear)"/>
<path d="M4.04467 20.7051C3.85267 20.7051 3.66067 20.6321 3.51467 20.4851C3.22167 20.1921 3.22167 19.7171 3.51467 19.4241L4.89867 18.0401C5.19167 17.7471 5.66667 17.7471 5.95967 18.0401C6.25266 18.3331 6.25266 18.8081 5.95967 19.1011L4.57567 20.4851C4.42867 20.6321 4.23667 20.7051 4.04467 20.7051Z" fill="url(#paint4_linear)"/>
<path d="M2.707 12.75H0.75C0.336 12.75 0 12.414 0 12C0 11.586 0.336 11.25 0.75 11.25H2.707C3.121 11.25 3.457 11.586 3.457 12C3.457 12.414 3.121 12.75 2.707 12.75Z" fill="url(#paint5_linear)"/>
<path d="M5.42867 6.17894C5.23667 6.17894 5.04467 6.10594 4.89867 5.95894L3.51467 4.57494C3.22167 4.28194 3.22167 3.80694 3.51467 3.51394C3.80767 3.22094 4.28267 3.22094 4.57567 3.51394L5.95967 4.89794C6.25266 5.19094 6.25266 5.66594 5.95967 5.95894C5.81167 6.10494 5.62067 6.17894 5.42867 6.17894Z" fill="url(#paint6_linear)"/>
<path d="M15 21V22.25C15 23.21 14.21 24 13.25 24H10.75C9.91 24 9 23.36 9 21.96V21H15Z" fill="url(#paint7_linear)"/>
<path d="M16.4098 6.55997C14.7698 5.22997 12.6098 4.70997 10.4998 5.15997C7.84982 5.70997 5.69982 7.86997 5.14982 10.52C4.58982 13.24 5.60982 15.94 7.78982 17.59C8.37982 18.03 8.78982 18.71 8.92982 19.5V19.51C8.94982 19.5 8.97982 19.5 8.99982 19.5H14.9998C15.0198 19.5 15.0298 19.5 15.0498 19.51V19.5C15.1898 18.74 15.6398 18.04 16.3298 17.5C18.0198 16.16 18.9998 14.16 18.9998 12C18.9998 9.87997 18.0598 7.89997 16.4098 6.55997ZM15.7498 12.5C15.3398 12.5 14.9998 12.16 14.9998 11.75C14.9998 10.23 13.7698 8.99997 12.2498 8.99997C11.8398 8.99997 11.4998 8.65997 11.4998 8.24997C11.4998 7.83997 11.8398 7.49997 12.2498 7.49997C14.5898 7.49997 16.4998 9.40997 16.4998 11.75C16.4998 12.16 16.1598 12.5 15.7498 12.5Z" fill="url(#paint8_linear)"/>
<path d="M8.92969 19.5H8.99968C8.97968 19.5 8.94969 19.5 8.92969 19.51V19.5Z" fill="url(#paint9_linear)"/>
<path d="M15.05 19.5V19.51C15.03 19.5 15.02 19.5 15 19.5H15.05Z" fill="url(#paint10_linear)"/>
</g>
<defs>
<linearGradient id="paint0_linear" x1="12" y1="0" x2="12" y2="3.457" gradientUnits="userSpaceOnUse">
<stop stop-color="#5040B6"/>
<stop offset="1" stop-color="#3D80D4"/>
</linearGradient>
<linearGradient id="paint1_linear" x1="19.2635" y1="3.29419" x2="19.2635" y2="6.17894" gradientUnits="userSpaceOnUse">
<stop stop-color="#5040B6"/>
<stop offset="1" stop-color="#3D80D4"/>
</linearGradient>
<linearGradient id="paint2_linear" x1="22.271" y1="11.25" x2="22.271" y2="12.75" gradientUnits="userSpaceOnUse">
<stop stop-color="#5040B6"/>
<stop offset="1" stop-color="#3D80D4"/>
</linearGradient>
<linearGradient id="paint3_linear" x1="19.2635" y1="17.8203" x2="19.2635" y2="20.7051" gradientUnits="userSpaceOnUse">
<stop stop-color="#5040B6"/>
<stop offset="1" stop-color="#3D80D4"/>
</linearGradient>
<linearGradient id="paint4_linear" x1="4.73717" y1="17.8203" x2="4.73717" y2="20.7051" gradientUnits="userSpaceOnUse">
<stop stop-color="#5040B6"/>
<stop offset="1" stop-color="#3D80D4"/>
</linearGradient>
<linearGradient id="paint5_linear" x1="1.7285" y1="11.25" x2="1.7285" y2="12.75" gradientUnits="userSpaceOnUse">
<stop stop-color="#5040B6"/>
<stop offset="1" stop-color="#3D80D4"/>
</linearGradient>
<linearGradient id="paint6_linear" x1="4.73717" y1="3.29419" x2="4.73717" y2="6.17894" gradientUnits="userSpaceOnUse">
<stop stop-color="#5040B6"/>
<stop offset="1" stop-color="#3D80D4"/>
</linearGradient>
<linearGradient id="paint7_linear" x1="12" y1="21" x2="12" y2="24" gradientUnits="userSpaceOnUse">
<stop stop-color="#5040B6"/>
<stop offset="1" stop-color="#3D80D4"/>
</linearGradient>
<linearGradient id="paint8_linear" x1="11.9992" y1="5.00134" x2="11.9992" y2="19.51" gradientUnits="userSpaceOnUse">
<stop stop-color="#5040B6"/>
<stop offset="1" stop-color="#3D80D4"/>
</linearGradient>
<linearGradient id="paint9_linear" x1="8.96468" y1="19.5" x2="8.96468" y2="19.51" gradientUnits="userSpaceOnUse">
<stop stop-color="#5040B6"/>
<stop offset="1" stop-color="#3D80D4"/>
</linearGradient>
<linearGradient id="paint10_linear" x1="15.025" y1="19.5" x2="15.025" y2="19.51" gradientUnits="userSpaceOnUse">
<stop stop-color="#5040B6"/>
<stop offset="1" stop-color="#3D80D4"/>
</linearGradient>
<clipPath id="clip0">
<rect width="24" height="24" fill="white"/>
</clipPath>
</defs>
</svg>
