<svg width="64" height="64" viewBox="0 0 64 64" fill="none" xmlns="http://www.w3.org/2000/svg">
<g filter="url(#filter0_b)">
<circle cx="32" cy="32" r="32" fill="url(#paint0_linear)"/>
<circle cx="32" cy="32" r="31.75" stroke="url(#paint1_linear)" stroke-width="0.5"/>
</g>
<g clip-path="url(#clip0)">
<g clip-path="url(#clip1)">
<path d="M47.4563 41.0321L45.2834 38.9192L45.2806 38.8428C45.1798 35.9078 44.1162 33.1264 42.2599 30.8875V32.36C42.2599 33.8488 41.0487 35.06 39.5599 35.06C38.9051 35.06 38.2899 34.8842 37.7599 34.5765V34.7607C39.3549 36.2432 39.5271 39.1928 37.6878 41.0321L36.1981 42.5237C35.5955 43.1258 34.9451 43.6672 34.2603 44.1531C35.6864 44.721 37.1939 45.0655 38.745 45.1093L41.0321 47.4564C41.2078 47.6321 41.438 47.72 41.6684 47.72C41.8985 47.72 42.1289 47.6321 42.3047 47.4564L47.456 42.3048C47.8078 41.9532 47.8078 41.3837 47.4563 41.0321Z" fill="#F1F2F2"/>
<path d="M36.0718 40.1032C35.6042 40.3425 35.0954 40.4599 34.61 40.4599C33.7292 40.4599 32.9321 40.0969 32.36 39.5126C31.7879 40.0969 30.9905 40.4599 30.11 40.4599C28.3733 40.4599 26.96 39.0467 26.96 37.3099V36.556C26.5503 36.751 26.0926 36.8599 25.61 36.8599C23.8733 36.8599 22.46 35.4467 22.46 33.7099V30.9422C22.46 30.9228 22.4619 30.9047 22.4619 30.8853C20.6045 33.1245 19.5399 35.9067 19.4391 38.8428L17.2637 41.0321C16.9121 41.3836 16.9121 41.9531 17.2637 42.3047L22.4152 47.4563C22.7666 47.8078 23.3363 47.8078 23.6879 47.4563L25.9747 45.1092C29.3558 45.0143 32.5217 43.6531 34.9245 41.251L36.0718 40.1032Z" fill="#F1F2F2"/>
<path d="M25.6098 35.06C26.3553 35.06 26.9598 34.4555 26.9598 33.71V30.4616C26.9598 29.9722 27.3563 29.5756 27.8457 29.5756H27.8738C28.3632 29.5756 28.7598 29.9722 28.7598 30.4616V37.31C28.7598 38.0555 29.3642 38.66 30.1098 38.66C30.8553 38.66 31.4598 38.0555 31.4598 37.31V30.4756C31.4598 29.3865 33.2598 29.382 33.2598 30.4756V37.31C33.2598 38.0555 33.8642 38.66 34.6098 38.66C35.405 38.66 35.9598 38.1758 35.9598 36.86C35.9598 33.7545 35.9598 31.5629 35.9598 28.6756C35.9598 27.5865 37.7598 27.582 37.7598 28.6756V31.46C37.7598 32.454 38.5653 33.2598 39.5598 33.26C40.0573 33.26 40.4598 32.8573 40.4598 32.36V30.0045C40.4598 26.6516 39.2002 23.4559 36.9125 21.0036L36.8598 17.9C36.8598 17.4027 36.4571 17 35.9598 17H28.7598C28.2622 17 27.8598 17.4027 27.8598 17.9V21.1944C25.1492 24.0608 24.2598 27.2921 24.2598 30.9427V33.71C24.2598 34.4555 24.8642 35.06 25.6098 35.06Z" fill="#F1F2F2"/>
</g>
</g>
<defs>
<filter id="filter0_b" x="-50" y="-50" width="164" height="164" filterUnits="userSpaceOnUse" color-interpolation-filters="sRGB">
<feFlood flood-opacity="0" result="BackgroundImageFix"/>
<feGaussianBlur in="BackgroundImage" stdDeviation="25"/>
<feComposite in2="SourceAlpha" operator="in" result="effect1_backgroundBlur"/>
<feBlend mode="normal" in="SourceGraphic" in2="effect1_backgroundBlur" result="shape"/>
</filter>
<linearGradient id="paint0_linear" x1="32" y1="0" x2="32" y2="64" gradientUnits="userSpaceOnUse">
<stop stop-color="#5040B6"/>
<stop offset="1" stop-color="#3D80D4"/>
</linearGradient>
<linearGradient id="paint1_linear" x1="32" y1="0" x2="32" y2="64" gradientUnits="userSpaceOnUse">
<stop stop-color="#5040B6"/>
<stop offset="1" stop-color="#3D80D4"/>
</linearGradient>
<clipPath id="clip0">
<rect width="30.72" height="30.72" fill="white" transform="translate(17 17)"/>
</clipPath>
<clipPath id="clip1">
<rect width="30.72" height="30.72" fill="white" transform="translate(17 17)"/>
</clipPath>
</defs>
</svg>
