<svg width="64" height="64" viewBox="0 0 64 64" fill="none" xmlns="http://www.w3.org/2000/svg">
<g filter="url(#filter0_b)">
<circle cx="32" cy="32" r="32" fill="url(#paint0_linear)"/>
<circle cx="32" cy="32" r="31.75" stroke="url(#paint1_linear)" stroke-width="0.5"/>
</g>
<path d="M32.4178 22.1201C29.9543 22.1201 27.9502 24.2451 27.9502 26.8569C27.9502 29.4688 29.9543 31.5938 32.4178 31.5938C34.8812 31.5938 36.8854 29.4688 36.8854 26.8569C36.8854 24.2451 34.8813 22.1201 32.4178 22.1201Z" fill="#F1F2F2"/>
<path d="M41.7196 23.8357C41.7108 23.8357 41.7019 23.8357 41.6932 23.8358C40.7932 23.8432 39.9526 24.2232 39.3262 24.9058C38.7108 25.5763 38.3762 26.4609 38.3839 27.3966C38.3917 28.3322 38.7408 29.2112 39.3672 29.8715C39.9985 30.5369 40.8347 30.9024 41.7247 30.9024C41.7336 30.9024 41.7426 30.9024 41.7515 30.9023C42.6515 30.8949 43.4921 30.5148 44.1185 29.8323C44.7339 29.1618 45.0685 28.2772 45.0608 27.3415C45.0448 25.4025 43.5485 23.8357 41.7196 23.8357Z" fill="#F1F2F2"/>
<path d="M41.8834 30.7078H41.5605C40.0566 30.7078 38.6841 31.2795 37.6479 32.2167C37.9072 32.4156 38.154 32.6324 38.3878 32.8663C39.0778 33.5563 39.6196 34.3602 39.9983 35.2558C40.3396 36.0623 40.5343 36.912 40.5797 37.7872H47.7202V36.5441C47.7202 33.3261 45.1019 30.7078 41.8834 30.7078Z" fill="#F1F2F2"/>
<path d="M39.8285 38.0758C39.6932 35.8964 38.5884 33.9794 36.9396 32.7508C35.7402 31.8568 34.2525 31.3276 32.641 31.3276H32.1945C28.2166 31.3277 24.9922 34.5521 24.9922 38.53V39.3847H39.8428V38.53C39.8428 38.3775 39.8381 38.2259 39.8285 38.0758Z" fill="#F1F2F2"/>
<path d="M23.0014 23.6187C23.0102 23.6187 23.0191 23.6187 23.0279 23.6187C23.9279 23.6262 24.7685 24.0062 25.3949 24.6888C26.0103 25.3593 26.345 26.2439 26.3373 27.1795C26.3295 28.1152 25.9803 28.9941 25.354 29.6545C24.7227 30.3199 23.8864 30.6854 22.9964 30.6854C22.9874 30.6854 22.9785 30.6853 22.9695 30.6853C22.0695 30.6778 21.2289 30.2978 20.6025 29.6153C19.9871 28.9447 19.6524 28.0601 19.6601 27.1244C19.6762 25.1855 21.1725 23.6187 23.0014 23.6187Z" fill="#F1F2F2"/>
<path d="M22.8371 30.491H23.16C24.664 30.491 26.0365 31.0627 27.0728 31.9999C26.8135 32.1988 26.5667 32.4156 26.3328 32.6495C25.6428 33.3395 25.101 34.1434 24.7223 35.039C24.381 35.8455 24.1863 36.6952 24.1409 37.5704H17V36.3273C17 33.1093 19.6185 30.491 22.8371 30.491Z" fill="#F1F2F2"/>
<defs>
<filter id="filter0_b" x="-50" y="-50" width="164" height="164" filterUnits="userSpaceOnUse" color-interpolation-filters="sRGB">
<feFlood flood-opacity="0" result="BackgroundImageFix"/>
<feGaussianBlur in="BackgroundImage" stdDeviation="25"/>
<feComposite in2="SourceAlpha" operator="in" result="effect1_backgroundBlur"/>
<feBlend mode="normal" in="SourceGraphic" in2="effect1_backgroundBlur" result="shape"/>
</filter>
<linearGradient id="paint0_linear" x1="32" y1="0" x2="32" y2="64" gradientUnits="userSpaceOnUse">
<stop stop-color="#5040B6"/>
<stop offset="1" stop-color="#3D80D4"/>
</linearGradient>
<linearGradient id="paint1_linear" x1="32" y1="0" x2="32" y2="64" gradientUnits="userSpaceOnUse">
<stop stop-color="#5040B6"/>
<stop offset="1" stop-color="#3D80D4"/>
</linearGradient>
</defs>
</svg>
