<svg width="24" height="24" viewBox="0 0 24 24" fill="none" xmlns="http://www.w3.org/2000/svg">
<path d="M16.3126 21.41L16.009 22.7808C15.0982 23.1779 14.3707 23.4801 13.829 23.6879C13.2867 23.8963 12.6565 24 11.9385 24C10.836 24 9.9784 23.7017 9.36675 23.1091C8.7551 22.5141 8.44918 21.7602 8.44918 20.8456C8.44918 20.4915 8.47138 20.1274 8.51753 19.7563C8.56407 19.3849 8.63807 18.9665 8.73933 18.4989L9.87753 14.0489C9.97879 13.6228 10.0649 13.2191 10.1338 12.8373C10.2037 12.4578 10.2374 12.1087 10.2374 11.7945C10.2374 11.2262 10.1309 10.8287 9.91881 10.6052C9.70675 10.3824 9.3021 10.2692 8.70136 10.2692C8.40712 10.2692 8.1047 10.3213 7.79645 10.4219C7.48683 10.523 7.22219 10.6207 7 10.7115L7.30436 9.33956C8.04998 9.00422 8.7627 8.71706 9.44445 8.47874C10.1262 8.23976 10.7704 8.12017 11.3797 8.12017C12.4746 8.12017 13.3196 8.41249 13.9129 8.99712C14.5063 9.58219 14.8028 10.3406 14.8028 11.2752C14.8028 11.4686 14.7834 11.8093 14.7415 12.2963C14.7006 12.7844 14.6245 13.2315 14.5135 13.6383L13.3801 18.0704C13.2873 18.4264 13.2037 18.8333 13.1311 19.2913C13.0561 19.7462 13.0203 20.0938 13.0203 20.327C13.0203 20.9155 13.1391 21.3173 13.3772 21.5309C13.6171 21.7445 14.0303 21.8507 14.6173 21.8507C14.8928 21.8507 15.2063 21.7967 15.5547 21.6907C15.9021 21.5847 16.1554 21.4915 16.3126 21.41ZM16.6 2.80273C16.6 3.57493 16.3365 4.23442 15.8071 4.77668C15.2789 5.32088 14.6426 5.5932 13.8981 5.5932C13.1513 5.5932 12.5134 5.32088 11.9792 4.77668C11.4461 4.23421 11.1789 3.57493 11.1789 2.80273C11.1789 2.03203 11.4461 1.37147 11.9792 0.82232C12.5124 0.274035 13.1515 0 13.8981 0C14.6424 0 15.2789 0.27468 15.8071 0.82232C16.3369 1.37147 16.6 2.03225 16.6 2.80273Z" fill="#F1F2F2"/>
</svg>
