<svg width="358" height="176" viewBox="0 0 358 176" fill="none" xmlns="http://www.w3.org/2000/svg">
<path d="M116.395 6.80757L83.0826 6.61719L36.0059 128.357L72.3338 128.532L74.2462 120.681C76.5139 114.977 76.2871 114.375 78.0257 108.055H120.552L127.476 128.532L164.862 128.22L116.395 6.80757ZM86.484 82.2916L98.7294 47.0703L99.5458 44.8771L112.608 82.1926L86.484 82.2916Z" fill="#243B98"/>
<path d="M259.356 36.2723L259.991 38.6559C263.695 52.6683 275.215 61.6849 289.365 61.6849H289.615C293.629 61.6744 297.6 60.8505 301.292 59.2623C304.984 57.674 308.321 55.3538 311.104 52.4398C316.748 46.6112 319.883 38.7754 319.827 30.6329C319.772 22.4905 316.532 14.6985 310.81 8.94812V8.90243C305.109 3.2311 297.43 0.0353134 289.418 0H289.138C275.026 0.106616 263.68 9.03952 260.241 22.7625L259.712 24.8948H274.603L274.678 24.6816C276.946 18.2313 282.131 14.6521 289.274 14.5988H289.388C291.453 14.6036 293.496 15.0215 295.4 15.8281C297.303 16.6347 299.029 17.8139 300.477 19.2975C301.983 20.7909 303.182 22.5687 304.006 24.5293C304.829 26.49 305.261 28.595 305.276 30.724C305.292 32.8529 304.891 34.964 304.096 36.9366C303.301 38.9092 302.127 40.7045 300.643 42.2199C299.205 43.7407 297.478 44.955 295.566 45.7909C293.653 46.6268 291.593 47.0673 289.509 47.0862H289.365C282.267 47.0862 276.644 43.1642 274.308 36.5616L274.202 36.2723H259.356Z" fill="#243B98"/>
<path d="M240.881 109.749L240.246 112.132C236.542 126.145 225.022 135.161 210.872 135.161H210.623C206.608 135.151 202.637 134.327 198.945 132.739C195.253 131.151 191.916 128.83 189.133 125.916C183.489 120.088 180.355 112.252 180.41 104.11C180.465 95.9671 183.705 88.1751 189.428 82.4247L189.465 82.379C195.166 76.7077 202.845 73.5119 210.857 73.4766H211.069C225.181 73.5832 236.527 82.5161 239.966 96.2391L240.495 98.3714H225.635L225.559 98.1582C223.291 91.7079 218.106 88.1287 210.963 88.0754H210.849C208.784 88.0802 206.741 88.4981 204.837 89.3046C202.934 90.1112 201.208 91.2905 199.761 92.7741C198.254 94.2674 197.055 96.0453 196.232 98.0059C195.408 99.9666 194.976 102.072 194.961 104.201C194.945 106.329 195.347 108.441 196.142 110.413C196.937 112.386 198.11 114.181 199.594 115.696C201.032 117.217 202.759 118.432 204.671 119.267C206.584 120.103 208.644 120.544 210.728 120.563H210.872C217.97 120.563 223.594 116.641 225.929 110.038L226.035 109.749H240.881Z" fill="#243B98"/>
<path d="M280.756 129.687L232.818 4.85547H219.031L266.923 129.687H280.756Z" fill="#243B98"/>
<path d="M52.6467 167.906H43.2812C42.2683 170.312 40.9606 173.48 40.1367 175.666H36.0625L46.5769 148.943H49.3283L59.8276 175.689H55.7836L52.6467 167.906ZM44.672 164.319H51.1878L47.9677 155.013L44.672 164.319Z" fill="#243B98"/>
<path d="M69.2544 153.08C70.4276 151.846 71.8354 150.863 73.3938 150.19C74.9521 149.516 76.6292 149.165 78.3251 149.158C84.3117 149.158 89.0284 152.966 90.5251 158.891H86.7834C86.2146 157.102 85.0795 155.55 83.5518 154.473C82.0241 153.396 80.1881 152.853 78.3251 152.928C77.1183 152.937 75.926 153.192 74.8202 153.679C73.7145 154.166 72.7185 154.874 71.8925 155.761C70.1612 157.574 69.1942 159.992 69.1942 162.508C69.1942 165.024 70.1612 167.442 71.8925 169.255C72.9701 170.397 74.324 171.237 75.8212 171.692C77.3183 172.148 78.9073 172.203 80.4321 171.853C81.9569 171.503 83.365 170.759 84.5183 169.695C85.6716 168.63 86.5303 167.282 87.0102 165.783H90.714C89.2023 171.776 84.4251 175.85 78.3251 175.85C76.6279 175.852 74.9483 175.505 73.3888 174.831C71.8292 174.156 70.4225 173.169 69.2544 171.928C66.8519 169.388 65.5117 166.013 65.5117 162.504C65.5117 158.995 66.8519 155.621 69.2544 153.08Z" fill="#243B98"/>
<path d="M123.399 162.537C123.367 166.035 122.016 169.389 119.62 171.92C118.452 173.16 117.045 174.147 115.486 174.822C113.926 175.496 112.246 175.843 110.549 175.841C104.449 175.841 99.6646 171.767 98.168 165.774H101.872C102.35 167.275 103.208 168.625 104.361 169.69C105.514 170.756 106.923 171.501 108.448 171.851C109.974 172.202 111.564 172.146 113.061 171.689C114.559 171.232 115.913 170.391 116.989 169.247C118.721 167.433 119.688 165.015 119.688 162.499C119.688 159.983 118.721 157.565 116.989 155.752C116.165 154.864 115.169 154.155 114.063 153.668C112.957 153.181 111.764 152.926 110.557 152.919C108.701 152.863 106.877 153.419 105.363 154.502C103.849 155.585 102.727 157.136 102.167 158.92H98.3872C99.8989 152.957 104.601 149.188 110.587 149.188C112.283 149.194 113.96 149.545 115.518 150.219C117.077 150.893 118.485 151.876 119.658 153.109C122.045 155.661 123.382 159.031 123.399 162.537Z" fill="#243B98"/>
<path d="M134.697 152.92C135.93 151.656 137.401 150.653 139.023 149.968C140.645 149.283 142.387 148.93 144.146 148.93C145.905 148.93 147.646 149.283 149.268 149.968C150.891 150.653 152.361 151.656 153.594 152.92C156.076 155.458 157.467 158.877 157.467 162.439C157.467 166.002 156.076 169.421 153.594 171.959C152.362 173.224 150.892 174.229 149.27 174.916C147.647 175.602 145.905 175.955 144.146 175.955C142.386 175.955 140.644 175.602 139.022 174.916C137.399 174.229 135.929 173.224 134.697 171.959C132.215 169.421 130.824 166.002 130.824 162.439C130.824 158.877 132.215 155.458 134.697 152.92ZM150.896 155.639C150.005 154.734 148.945 154.015 147.778 153.523C146.61 153.032 145.358 152.778 144.093 152.775C142.844 152.78 141.608 153.035 140.458 153.527C139.308 154.019 138.267 154.736 137.396 155.639C136.506 156.535 135.8 157.598 135.319 158.769C134.838 159.94 134.59 161.195 134.59 162.462C134.59 163.729 134.838 164.984 135.319 166.155C135.8 167.326 136.506 168.39 137.396 169.286C138.268 170.186 139.309 170.903 140.459 171.395C141.608 171.887 142.844 172.143 144.093 172.149C145.986 172.137 147.834 171.564 149.406 170.5C150.978 169.436 152.203 167.929 152.929 166.167C153.655 164.405 153.85 162.467 153.488 160.594C153.126 158.721 152.225 156.998 150.896 155.639Z" fill="#243B98"/>
<path d="M166.059 167.74V149.303H169.876V167.778C169.876 170.679 172.982 172.111 175.749 172.111C178.515 172.111 181.584 170.641 181.584 167.74V149.303H185.401V167.778C185.401 173.109 180.239 175.919 175.749 175.919C171.146 175.919 166.059 173.131 166.059 167.74Z" fill="#243B98"/>
<path d="M194.246 175.685V149.26L197.164 149.298L209.923 167.887V149.275H213.703V175.685H210.679L198.026 157.256V175.685H194.246Z" fill="#243B98"/>
<path d="M228.988 175.766V153.11H221.059V149.303H240.666V153.11H232.767V175.766H228.988Z" fill="#243B98"/>
<path d="M259.845 167.906H250.457C249.444 170.312 248.136 173.48 247.312 175.666H243.23L253.745 148.943H256.512L267.026 175.689H262.99L259.845 167.906ZM251.855 164.319H258.364L255.143 155.013L251.855 164.319Z" fill="#243B98"/>
<path d="M273.596 175.685V149.26L276.513 149.298L289.273 167.887V149.275H293.052V175.685H290.029L277.383 157.256V175.685H273.596Z" fill="#243B98"/>
<path d="M308.392 175.766V153.11H300.463V149.303H320.071V153.11H312.172V175.766H308.392Z" fill="#243B98"/>
</svg>
