<svg width="285" height="186" viewBox="0 0 285 186" fill="none" xmlns="http://www.w3.org/2000/svg">
<path d="M80.3887 7.6552L47.0767 7.45508L0 135.421L36.328 135.605L38.2404 127.352C40.508 121.356 40.2813 120.724 42.0198 114.08H84.5461L91.47 135.605L128.856 135.276L80.3887 7.6552ZM50.4782 86.9992L62.7236 49.9768L63.5399 47.6714L76.6017 86.8951L50.4782 86.9992Z" fill="#F1F2F2"/>
<path d="M223.35 38.6271L223.985 41.1326C227.689 55.8615 239.209 65.3393 253.359 65.3393H253.609C257.623 65.3282 261.594 64.4622 265.286 62.7927C268.978 61.1233 272.315 58.6844 275.099 55.6214C280.742 49.4947 283.877 41.2582 283.822 32.6994C283.766 24.1406 280.526 15.9501 274.804 9.90569V9.85767C269.103 3.89633 261.424 0.537119 253.412 0.5H253.132C239.02 0.612068 227.674 10.0018 224.235 24.4265L223.706 26.6678H238.597L238.672 26.4437C240.94 19.6636 246.125 15.9013 253.269 15.8453H253.382C255.447 15.8504 257.49 16.2896 259.394 17.1375C261.297 17.9853 263.023 19.2249 264.471 20.7843C265.977 22.354 267.176 24.2228 268 26.2837C268.823 28.3446 269.255 30.5573 269.271 32.7951C269.286 35.0329 268.885 37.252 268.09 39.3254C267.295 41.3989 266.121 43.286 264.637 44.8789C263.199 46.4774 261.473 47.7539 259.56 48.6325C257.647 49.5112 255.588 49.9741 253.503 49.994H253.359C246.261 49.994 240.638 45.8715 238.302 38.9313L238.196 38.6271H223.35Z" fill="#F1F2F2"/>
<path d="M204.875 115.861L204.24 118.367C200.536 133.096 189.016 142.574 174.866 142.574H174.617C170.603 142.563 166.631 141.697 162.939 140.027C159.248 138.358 155.911 135.919 153.127 132.856C147.483 126.729 144.349 118.493 144.404 109.934C144.459 101.375 147.699 93.1845 153.422 87.1401L153.46 87.092C159.16 81.1307 166.84 77.7715 174.851 77.7344H175.063C189.175 77.8464 200.521 87.2361 203.96 101.661L204.489 103.902H189.629L189.553 103.678C187.286 96.898 182.1 93.1357 174.957 93.0797H174.844C172.779 93.0848 170.735 93.524 168.832 94.3718C166.928 95.2197 165.202 96.4592 163.755 98.0187C162.249 99.5884 161.049 101.457 160.226 103.518C159.402 105.579 158.97 107.792 158.955 110.029C158.939 112.267 159.341 114.486 160.136 116.56C160.931 118.633 162.104 120.52 163.588 122.113C165.026 123.712 166.753 124.988 168.666 125.867C170.578 126.746 172.638 127.208 174.723 127.228H174.866C181.964 127.228 187.588 123.106 189.924 116.166L190.029 115.861H204.875Z" fill="#F1F2F2"/>
<path d="M244.75 136.819L196.812 5.60352H183.025L230.917 136.819H244.75Z" fill="#F1F2F2"/>
<path d="M16.6408 176.995H7.27536C6.26247 179.524 4.95478 182.854 4.13086 185.152H0.0566406L10.571 157.062H13.3225L23.8218 185.176H19.7777L16.6408 176.995ZM8.66619 173.224H15.1819L11.9619 163.442L8.66619 173.224Z" fill="#F1F2F2"/>
<path d="M33.2486 161.408C34.4218 160.111 35.8295 159.078 37.3879 158.369C38.9463 157.661 40.6234 157.292 42.3192 157.285C48.3058 157.285 53.0225 161.288 54.5192 167.515H50.7776C50.2088 165.635 49.0736 164.004 47.5459 162.872C46.0183 161.74 44.1823 161.169 42.3192 161.248C41.1125 161.257 39.9201 161.526 38.8144 162.037C37.7086 162.549 36.7126 163.294 35.8866 164.225C34.1554 166.131 33.1883 168.673 33.1883 171.318C33.1883 173.962 34.1554 176.504 35.8866 178.41C36.9643 179.61 38.3182 180.493 39.8153 180.972C41.3125 181.45 42.9015 181.509 44.4263 181.14C45.951 180.772 47.3592 179.99 48.5124 178.872C49.6657 177.753 50.5245 176.336 51.0044 174.76H54.7082C53.1964 181.06 48.4192 185.342 42.3192 185.342C40.6221 185.344 38.9425 184.979 37.3829 184.27C35.8234 183.562 34.4166 182.524 33.2486 181.22C30.846 178.549 29.5059 175.002 29.5059 171.314C29.5059 167.625 30.846 164.078 33.2486 161.408Z" fill="#F1F2F2"/>
<path d="M87.3935 171.349C87.3615 175.025 86.0104 178.551 83.6141 181.211C82.4461 182.515 81.0393 183.553 79.4798 184.261C77.9202 184.97 76.2406 185.335 74.5435 185.333C68.4435 185.333 63.6588 181.051 62.1621 174.751H65.8659C66.344 176.329 67.2018 177.748 68.3549 178.868C69.5081 179.988 70.9168 180.771 72.4424 181.139C73.968 181.507 75.5579 181.449 77.0555 180.969C78.5532 180.488 79.907 179.604 80.9836 178.401C82.7149 176.495 83.6819 173.953 83.6819 171.309C83.6819 168.664 82.7149 166.123 80.9836 164.217C80.1587 163.283 79.1629 162.538 78.057 162.026C76.951 161.514 75.758 161.246 74.551 161.239C72.6949 161.18 70.8714 161.765 69.3572 162.903C67.843 164.041 66.7208 165.672 66.1607 167.547H62.3813C63.8931 161.279 68.5947 157.316 74.5813 157.316C76.2771 157.324 77.9542 157.692 79.5126 158.401C81.071 159.109 82.4787 160.142 83.6519 161.439C86.0392 164.121 87.3764 167.663 87.3935 171.349Z" fill="#F1F2F2"/>
<path d="M98.6912 161.239C99.9244 159.911 101.395 158.856 103.017 158.136C104.64 157.416 106.381 157.045 108.14 157.045C109.899 157.045 111.64 157.416 113.262 158.136C114.885 158.856 116.355 159.911 117.589 161.239C120.07 163.907 121.461 167.501 121.461 171.245C121.461 174.99 120.07 178.584 117.589 181.251C116.356 182.582 114.886 183.638 113.264 184.36C111.641 185.081 109.899 185.453 108.14 185.453C106.38 185.453 104.638 185.081 103.016 184.36C101.394 183.638 99.9234 182.582 98.6912 181.251C96.2095 178.584 94.8184 174.99 94.8184 171.245C94.8184 167.501 96.2095 163.907 98.6912 161.239ZM114.89 164.097C113.999 163.146 112.939 162.39 111.772 161.873C110.605 161.357 109.352 161.09 108.087 161.087C106.838 161.092 105.602 161.36 104.452 161.877C103.302 162.394 102.261 163.149 101.39 164.097C100.5 165.039 99.7946 166.157 99.3132 167.388C98.8317 168.618 98.5839 169.937 98.5839 171.269C98.5839 172.601 98.8317 173.92 99.3132 175.151C99.7946 176.382 100.5 177.5 101.39 178.442C102.262 179.389 103.303 180.142 104.453 180.659C105.603 181.176 106.838 181.445 108.087 181.452C109.98 181.44 111.829 180.837 113.4 179.718C114.972 178.6 116.197 177.016 116.923 175.164C117.649 173.312 117.844 171.274 117.482 169.306C117.12 167.337 116.219 165.526 114.89 164.097Z" fill="#F1F2F2"/>
<path d="M130.053 176.814V157.435H133.87V176.854C133.87 179.904 136.977 181.409 139.743 181.409C142.51 181.409 145.578 179.864 145.578 176.814V157.435H149.396V176.854C149.396 182.458 144.233 185.411 139.743 185.411C135.14 185.411 130.053 182.482 130.053 176.814Z" fill="#F1F2F2"/>
<path d="M158.24 185.166V157.39L161.158 157.43L173.917 176.969V157.406H177.697V185.166H174.673L162.02 165.795V185.166H158.24Z" fill="#F1F2F2"/>
<path d="M192.982 185.251V161.437H185.053V157.435H204.66V161.437H196.761V185.251H192.982Z" fill="#F1F2F2"/>
<path d="M223.839 176.995H214.451C213.438 179.524 212.13 182.854 211.306 185.152H207.225L217.739 157.062H220.506L231.02 185.176H226.984L223.839 176.995ZM215.849 173.224H222.358L219.138 163.442L215.849 173.224Z" fill="#F1F2F2"/>
<path d="M237.59 185.166V157.39L240.508 157.43L253.267 176.969V157.406H257.046V185.166H254.023L241.377 165.795V185.166H237.59Z" fill="#F1F2F2"/>
<path d="M272.386 185.251V161.437H264.457V157.435H284.065V161.437H276.166V185.251H272.386Z" fill="#F1F2F2"/>
</svg>
