  <svg
    width="48"
    height="48"
    viewBox="0 0 48 48"
    fill="none"
    xmlns="http://www.w3.org/2000/svg"
  >
    <g clipPath="url(#clip0)">
      <circle cx="24" cy="24" r="12" fill="#F1F2F2" />
      <path
        d="M24.11 0C24.0972 0 24.0714 0 24.0329 0C11.0179 0 0.433594 10.5843 0.433594 23.5992C0.433594 28.9107 2.24694 34.0678 5.56499 38.2218L2.1312 46.2082C1.84826 46.8641 2.15692 47.6229 2.79995 47.893C3.03144 47.9958 3.28865 48.0216 3.53301 47.983L16.1236 45.771C18.6443 46.6841 21.2935 47.147 23.9686 47.1342C36.9835 47.1342 47.5678 36.5499 47.5678 23.5349C47.5935 10.5586 37.0864 0.0128606 24.11 0ZM16.0335 18.8537H22.9783C23.6856 18.8537 24.2643 19.4324 24.2643 20.1397C24.2643 20.8471 23.6856 21.4258 22.9783 21.4258H16.0335C15.3262 21.4258 14.7475 20.8471 14.7475 20.1397C14.7475 19.4324 15.3262 18.8537 16.0335 18.8537ZM31.9807 27.8561H16.0335C15.3262 27.8561 14.7475 27.2774 14.7475 26.57C14.7475 25.8627 15.3262 25.284 16.0335 25.284H31.9807C32.6881 25.284 33.2668 25.8627 33.2668 26.57C33.2668 27.2774 32.6881 27.8561 31.9807 27.8561Z"
        fill="url(#paint0_linear)"
      />
    </g>
    <defs>
      <linearGradient
        id="paint0_linear"
        x1="24.0007"
        y1="0"
        x2="24.0007"
        y2="48"
        gradientUnits="userSpaceOnUse"
      >
        <stop stopColor="#5040B6" />
        <stop offset="1" stopColor="#3D80D4" />
      </linearGradient>
      <clipPath id="clip0">
        <rect width="48" height="48" fill="white" />
      </clipPath>
    </defs>
  </svg>
