<svg width="48" height="48" viewBox="0 0 48 48" fill="none" xmlns="http://www.w3.org/2000/svg">
<path fill-rule="evenodd" clip-rule="evenodd" d="M33.914 14.8536C34.1093 14.6583 34.1093 14.3417 33.914 14.1464C33.7188 13.9512 33.4022 13.9512 33.2069 14.1464L24.0331 23.3203L14.8479 14.1815C14.6508 13.9854 14.3349 13.9847 14.1422 14.1798C13.9495 14.375 13.9531 14.6922 14.1502 14.8883L23.3309 24.0225L14.2069 33.1465C14.0117 33.3417 14.0117 33.6583 14.2069 33.8536C14.4022 34.0488 14.7188 34.0488 14.914 33.8536L24.0397 24.7279L33.2116 33.8534C33.4087 34.0495 33.7247 34.0502 33.9173 33.8551C34.11 33.6599 34.1065 33.3427 33.9094 33.1466L24.742 24.0256L33.914 14.8536Z" fill="url(#paint0_linear)"/>
<defs>
<linearGradient id="paint0_linear" x1="24.0302" y1="14" x2="24.0302" y2="34.0009" gradientUnits="userSpaceOnUse">
<stop stop-color="#5040B6"/>
<stop offset="1" stop-color="#3D80D4"/>
</linearGradient>
</defs>
</svg>
