<svg width="357" height="90" viewBox="0 0 357 90" fill="none" xmlns="http://www.w3.org/2000/svg">
<path d="M109.235 63.9491C109.818 78.0916 101.089 88.5447 88.2139 88.5447H75.1968V39.3535H88.2034C101.089 39.3535 109.834 49.0196 109.235 63.9491ZM79.7688 83.7609H88.2034C98.5719 83.7609 105.193 73.6828 104.605 63.9491C105.193 52.8811 98.5719 44.2111 88.2034 44.2111H79.7688V83.7609Z" fill="#6179BF"/>
<path d="M115.673 74.7954C115.673 66.5681 121.648 59.8535 128.622 59.8535C135.595 59.8535 141.565 66.5681 141.565 74.7954C141.565 83.0226 135.585 89.6634 128.622 89.6634C121.659 89.6634 115.673 82.9488 115.673 74.7954ZM137.219 74.7954C137.219 68.9662 133.588 64.3422 128.611 64.3422C123.634 64.3422 119.94 68.9354 119.94 74.7954C119.94 80.6553 123.619 85.144 128.611 85.144C133.604 85.144 137.23 80.5507 137.23 74.7954H137.219Z" fill="#6179BF"/>
<path d="M165.992 61.8413L170.196 60.1934V88.5459H165.992V84.2417C164.646 86.9841 161.362 89.6528 157.378 89.6528C156.145 89.6717 154.92 89.4017 153.777 88.8586C152.634 88.3155 151.595 87.5103 150.722 86.4904C149.849 85.4705 149.159 84.2565 148.693 82.92C148.227 81.5834 147.994 80.1512 148.008 78.7077V61.8413L152.213 60.1934V78.0928C152.213 82.2003 154.73 85.4223 159.123 85.4223C162.581 85.4223 165.955 82.3479 165.955 78.0928L165.992 61.8413Z" fill="#6179BF"/>
<path d="M191.409 59.7803C199.376 59.7803 203.891 66.8454 203.891 75.0665C203.891 83.2876 199.439 89.5964 191.762 89.5964C187.957 89.5964 184.089 86.7863 182.628 83.3614V88.5449H178.424V38.4682L182.628 36.8203V66.0891C183.475 64.2142 184.737 62.6398 186.282 61.5301C187.826 60.4204 189.597 59.8161 191.409 59.7803ZM199.555 74.7222C199.555 68.6224 195.981 64.3059 191.12 64.3059C186.259 64.3059 182.628 68.6101 182.628 74.7222C182.628 80.6866 186.196 85.0769 191.12 85.0769C196.045 85.0769 199.555 80.6866 199.555 74.7222Z" fill="#6179BF"/>
<path d="M210.334 38.4682L214.538 36.8203V88.5449H210.334V38.4682Z" fill="#6179BF"/>
<path d="M243.841 81.922V86.5152C241.113 88.6168 237.91 89.7134 234.644 89.6634C227.287 89.6634 220.981 84.32 220.981 75.4103C220.981 65.6765 226.84 59.8535 233.341 59.8535C240.662 59.8535 245.759 65.6765 245.586 76.9844H225.327C225.973 81.9896 229.253 85.2116 234.639 85.2116C239.327 85.2116 241.497 83.5637 243.841 81.922ZM225.39 72.6002H241.087C241.087 69.2429 238.57 64.4406 233.357 64.4406C229.484 64.4406 226.147 67.0231 225.385 72.6002H225.39Z" fill="#6179BF"/>
<path d="M251.724 64.0355C251.723 58.9651 253.007 54.0083 255.413 49.7919C257.82 45.5755 261.241 42.2888 265.245 40.3476C269.248 38.4065 273.653 37.8979 277.904 38.8864C282.154 39.8748 286.058 42.3158 289.123 45.9006C292.187 49.4855 294.274 54.0531 295.12 59.026C295.966 63.9988 295.532 69.1534 293.874 73.8379C292.216 78.5224 289.408 82.5264 285.805 85.3434C282.202 88.1605 277.966 89.6641 273.633 89.6641C267.826 89.6511 262.261 86.947 258.155 82.1437C254.049 77.3404 251.736 70.8292 251.724 64.0355ZM290.854 64.0355C290.854 52.7953 283.239 43.3321 273.633 43.3321C264.026 43.3321 256.453 52.7953 256.453 64.0355C256.453 75.2757 264.068 84.7327 273.675 84.7327C283.281 84.7327 290.875 75.3433 290.875 64.0355H290.854Z" fill="#6179BF"/>
<path d="M316.531 59.8536C317.769 59.8331 318.998 60.1022 320.146 60.645C321.294 61.1879 322.338 61.9936 323.216 63.0148C324.095 64.0361 324.79 65.2523 325.261 66.5922C325.732 67.932 325.969 69.3684 325.959 70.8171V88.5444H321.755V71.5058C321.755 67.3922 319.175 64.1271 314.839 64.1271C311.386 64.1271 308.007 67.2016 308.007 71.5058V88.5444H303.803V61.7721L308.007 60.1242V65.1786C309.326 62.5223 312.606 59.8536 316.531 59.8536Z" fill="#6179BF"/>
<path d="M355.251 81.9219V86.5152C352.907 88.1569 350.332 89.6634 346.055 89.6634C338.697 89.6634 332.391 84.32 332.391 75.4102C332.391 65.6765 338.251 59.8535 344.751 59.8535C352.072 59.8535 357.169 65.6765 356.996 76.9844H336.737C337.384 81.9896 340.663 85.2116 346.049 85.2116C350.737 85.2116 352.902 83.5637 355.251 81.9219ZM336.8 72.6002H352.497C352.497 69.2429 349.98 64.4406 344.767 64.4406C340.894 64.4406 337.557 67.0231 336.795 72.6002H336.8Z" fill="#6179BF"/>
<path d="M50.8752 0H50.8699C43.4544 0 37.4429 7.0338 37.4429 15.7104V73.1781C37.4429 81.8547 43.4544 88.8885 50.8699 88.8885H50.8752C58.2907 88.8885 64.3022 81.8547 64.3022 73.1781V15.7104C64.3022 7.0338 58.2907 0 50.8752 0Z" fill="#6179BF"/>
<path d="M14.5832 88.605C10.7168 88.6001 7.00989 86.8008 4.27592 83.6019C1.54195 80.403 0.00417315 76.0657 0 71.5418L0 37.403C0 32.8776 1.53644 28.5375 4.27131 25.3375C7.00619 22.1376 10.7155 20.3398 14.5832 20.3398C18.4509 20.3398 22.1601 22.1376 24.895 25.3375C27.6299 28.5375 29.1663 32.8776 29.1663 37.403V71.5418C29.1622 76.0657 27.6244 80.403 24.8904 83.6019C22.1564 86.8008 18.4496 88.6001 14.5832 88.605ZM14.5832 23.0392C11.3286 23.0441 8.20855 24.559 5.90724 27.2517C3.60592 29.9444 2.3112 33.595 2.30703 37.403V71.5418C2.30703 75.3513 3.60041 79.0048 5.90263 81.6985C8.20485 84.3923 11.3273 85.9056 14.5832 85.9056C17.839 85.9056 20.9615 84.3923 23.2637 81.6985C25.5659 79.0048 26.8593 75.3513 26.8593 71.5418V37.403C26.8551 33.595 25.5604 29.9444 23.2591 27.2517C20.9578 24.559 17.8377 23.0441 14.5832 23.0392Z" fill="#6179BF"/>
</svg>
