<svg width="38" height="37" viewBox="0 0 38 37" fill="none" xmlns="http://www.w3.org/2000/svg">
<path d="M36.9438 11.345C36.7382 11.0725 36.4157 10.9121 36.0733 10.9121H28.2884C27.7685 7.84002 25.0783 5.49219 21.8472 5.49219C18.6162 5.49219 15.926 7.84002 15.4061 10.9121H8.63888L7.21627 0.93172C7.14013 0.397244 6.68061 0 6.13835 0H1.08873C0.487462 0 0 0.485336 0 1.08398C0 1.68263 0.487462 2.16797 1.08873 2.16797H5.19325L6.61579 12.1481V12.1482V12.1484L8.25927 23.6747C8.43761 24.9175 9.04461 26.0579 9.97206 26.9038C9.24595 27.5007 8.78244 28.4036 8.78244 29.4121C8.78244 30.9097 9.80476 32.1733 11.1908 32.5494C11.0424 32.9207 10.9599 33.3248 10.9599 33.748C10.9599 35.5412 12.4251 37 14.2261 37C16.0271 37 17.4923 35.5412 17.4923 33.748C17.4923 33.3681 17.4259 33.0033 17.305 32.6641H26.3894C26.2686 33.0033 26.2022 33.3681 26.2022 33.748C26.2022 35.5412 27.6674 37 29.4684 37C31.2693 37 32.7346 35.5412 32.7346 33.748C32.7346 31.9549 31.2693 30.4961 29.4684 30.4961H12.0486C11.4483 30.4961 10.9599 30.0098 10.9599 29.4121C10.9599 28.8144 11.4483 28.3281 12.0486 28.3281H28.3609C30.7785 28.3281 32.9309 26.7117 33.5939 24.4013L37.119 12.298C37.2143 11.9706 37.1494 11.6176 36.9438 11.345Z" fill="url(#paint0_linear_2337:677)"/>
<path d="M21.8477 4.40625C17.6454 4.40625 14.2266 7.81018 14.2266 11.9941C14.2266 16.1781 17.6454 19.582 21.8477 19.582C26.05 19.582 29.4688 16.1781 29.4688 11.9941C29.4688 7.81018 26.05 4.40625 21.8477 4.40625ZM22.9364 14.1621C22.9364 14.7608 22.449 15.2461 21.8477 15.2461C21.2464 15.2461 20.759 14.7608 20.759 14.1621V11.849C20.2659 12.133 19.6292 11.9901 19.3087 11.5114C18.9752 11.0133 19.1104 10.3403 19.6107 10.0082L21.2438 8.92422C21.5779 8.70251 22.0074 8.68177 22.3614 8.87046C22.7154 9.05907 22.9364 9.4264 22.9364 9.82617V14.1621Z" fill="url(#paint1_linear_2337:677)"/>
<defs>
<linearGradient id="paint0_linear_2337:677" x1="18.581" y1="37" x2="18.581" y2="0" gradientUnits="userSpaceOnUse">
<stop stop-color="#43A800"/>
<stop offset="1" stop-color="#1FD23C"/>
</linearGradient>
<linearGradient id="paint1_linear_2337:677" x1="21.8477" y1="19.582" x2="21.8477" y2="4.40625" gradientUnits="userSpaceOnUse">
<stop stop-color="#4FFF8B"/>
<stop offset="1" stop-color="#68FDA3"/>
</linearGradient>
</defs>
</svg>
