<svg width="225" height="57" viewBox="0 0 225 57" fill="none" xmlns="http://www.w3.org/2000/svg">
<mask id="path-1-outside-1" maskUnits="userSpaceOnUse" x="68.4482" y="7.99023" width="156" height="50" fill="black">
<rect fill="white" x="68.4482" y="7.99023" width="156" height="50"/>
<path d="M98.1474 39.2371C98.4272 39.2371 98.672 39.3508 98.8819 39.5781L100.902 41.7555C99.3628 43.5394 97.4915 44.9297 95.2879 45.9266C93.1018 46.9234 90.4523 47.4219 87.3393 47.4219C84.646 47.4219 82.1976 46.9584 79.994 46.0315C77.7904 45.0871 75.9104 43.7755 74.3538 42.0965C72.7973 40.4001 71.5906 38.3714 70.7337 36.0104C69.8767 33.6494 69.4482 31.0524 69.4482 28.2192C69.4482 25.386 69.8942 22.7889 70.7861 20.4279C71.6781 18.0669 72.9285 16.0382 74.5375 14.3418C76.1639 12.6454 78.1052 11.3337 80.3613 10.4068C82.6173 9.46243 85.1095 8.99023 87.8377 8.99023C90.5135 8.99023 92.8745 9.41871 94.9207 10.2757C96.9669 11.1326 98.7682 12.2956 100.325 13.7647L98.6458 16.0994C98.5409 16.2743 98.4009 16.423 98.2261 16.5454C98.0687 16.6503 97.85 16.7028 97.5702 16.7028C97.2554 16.7028 96.8707 16.5367 96.416 16.2044C95.9613 15.8546 95.3666 15.4698 94.6321 15.0501C93.8976 14.6304 92.9794 14.2544 91.8776 13.9221C90.7758 13.5723 89.4204 13.3974 87.8115 13.3974C85.8702 13.3974 84.0951 13.7384 82.4861 14.4205C80.8772 15.0851 79.4868 16.0557 78.3151 17.3324C77.1608 18.6091 76.2601 20.1656 75.613 22.0019C74.966 23.8382 74.6424 25.9106 74.6424 28.2192C74.6424 30.5627 74.9747 32.6526 75.6393 34.4889C76.3213 36.3252 77.2395 37.8817 78.3938 39.1584C79.5655 40.4176 80.9384 41.3795 82.5124 42.0441C84.1039 42.7086 85.8178 43.0409 87.6541 43.0409C88.7734 43.0409 89.779 42.9797 90.6709 42.8573C91.5803 42.7174 92.411 42.5075 93.1631 42.2277C93.9326 41.9479 94.6409 41.5981 95.2879 41.1784C95.9525 40.7411 96.6083 40.2252 97.2554 39.6306C97.5527 39.3683 97.85 39.2371 98.1474 39.2371Z"/>
<path d="M109.981 25.7532C110.82 23.9344 111.852 22.5178 113.076 21.5035C114.3 20.4716 115.796 19.9557 117.562 19.9557C118.122 19.9557 118.655 20.0169 119.162 20.1393C119.687 20.2618 120.15 20.4541 120.553 20.7165L120.212 24.2055C120.107 24.6427 119.844 24.8613 119.425 24.8613C119.18 24.8613 118.821 24.8089 118.349 24.7039C117.877 24.599 117.343 24.5465 116.749 24.5465C115.909 24.5465 115.157 24.6689 114.493 24.9138C113.846 25.1586 113.26 25.5259 112.735 26.0156C112.228 26.4878 111.764 27.0824 111.345 27.7994C110.942 28.499 110.575 29.3035 110.243 30.2129V47.0021H105.547V20.4279H108.223C108.73 20.4279 109.08 20.5241 109.272 20.7165C109.465 20.9089 109.596 21.2411 109.666 21.7133L109.981 25.7532Z"/>
<path d="M147.586 20.4279L132.765 54.8459C132.607 55.1956 132.406 55.4755 132.161 55.6853C131.934 55.8952 131.575 56.0001 131.086 56.0001H127.623L132.476 45.4544L121.51 20.4279H125.55C125.953 20.4279 126.267 20.5328 126.495 20.7427C126.74 20.9351 126.906 21.1537 126.993 21.3985L134.102 38.1353C134.382 38.8698 134.618 39.6394 134.811 40.4438C135.056 39.6219 135.318 38.8436 135.598 38.1091L142.497 21.3985C142.602 21.1187 142.777 20.8914 143.022 20.7165C143.284 20.5241 143.573 20.4279 143.887 20.4279H147.586Z"/>
<path d="M156.407 40.6012C157.264 41.7555 158.2 42.5687 159.214 43.0409C160.228 43.5131 161.365 43.7492 162.624 43.7492C165.108 43.7492 167.014 42.866 168.343 41.0997C169.672 39.3333 170.337 36.8149 170.337 33.5445C170.337 31.8131 170.18 30.3266 169.865 29.0849C169.568 27.8432 169.13 26.8288 168.553 26.0418C167.976 25.2373 167.268 24.6515 166.428 24.2842C165.589 23.9169 164.636 23.7333 163.569 23.7333C162.047 23.7333 160.709 24.0831 159.555 24.7826C158.418 25.4822 157.369 26.4703 156.407 27.747V40.6012ZM156.171 24.5465C157.29 23.1649 158.585 22.0544 160.054 21.2149C161.523 20.3754 163.202 19.9557 165.09 19.9557C166.629 19.9557 168.02 20.253 169.261 20.8476C170.503 21.4248 171.561 22.2905 172.436 23.4447C173.31 24.5815 173.983 25.9981 174.456 27.6945C174.928 29.3909 175.164 31.3409 175.164 33.5445C175.164 35.5033 174.902 37.3308 174.377 39.0272C173.852 40.7062 173.091 42.1665 172.095 43.4082C171.115 44.6324 169.909 45.603 168.474 46.3201C167.058 47.0196 165.458 47.3694 163.674 47.3694C162.047 47.3694 160.648 47.0983 159.476 46.5562C158.322 45.9965 157.299 45.227 156.407 44.2477V56.0001H151.711V20.4279H154.518C155.183 20.4279 155.594 20.7515 155.751 21.3985L156.171 24.5465Z"/>
<path d="M188.921 47.4219C186.823 47.4219 185.205 46.836 184.068 45.6642C182.949 44.4925 182.389 42.8048 182.389 40.6012V24.3367H179.189C178.909 24.3367 178.673 24.258 178.48 24.1006C178.288 23.9257 178.192 23.6633 178.192 23.3136V21.451L182.547 20.9001L183.622 12.6891C183.675 12.4268 183.788 12.2169 183.963 12.0595C184.155 11.8846 184.4 11.7972 184.698 11.7972H187.059V20.9526H194.745V24.3367H187.059V40.2864C187.059 41.4057 187.33 42.2364 187.872 42.7786C188.414 43.3207 189.114 43.5918 189.971 43.5918C190.46 43.5918 190.88 43.5306 191.23 43.4082C191.597 43.2683 191.912 43.1196 192.174 42.9622C192.436 42.8048 192.655 42.6649 192.83 42.5425C193.022 42.4026 193.188 42.3326 193.328 42.3326C193.573 42.3326 193.792 42.4813 193.984 42.7786L195.348 45.0084C194.544 45.7604 193.573 46.355 192.436 46.7923C191.3 47.212 190.128 47.4219 188.921 47.4219Z"/>
<path d="M210.614 20.0082C212.556 20.0082 214.305 20.3317 215.861 20.9788C217.418 21.6259 218.747 22.5441 219.848 23.7333C220.95 24.9225 221.79 26.3654 222.367 28.0618C222.961 29.7407 223.259 31.6207 223.259 33.7019C223.259 35.8006 222.961 37.6894 222.367 39.3683C221.79 41.0472 220.95 42.4813 219.848 43.6705C218.747 44.8598 217.418 45.7779 215.861 46.425C214.305 47.0546 212.556 47.3694 210.614 47.3694C208.656 47.3694 206.889 47.0546 205.315 46.425C203.759 45.7779 202.43 44.8598 201.328 43.6705C200.226 42.4813 199.378 41.0472 198.783 39.3683C198.206 37.6894 197.918 35.8006 197.918 33.7019C197.918 31.6207 198.206 29.7407 198.783 28.0618C199.378 26.3654 200.226 24.9225 201.328 23.7333C202.43 22.5441 203.759 21.6259 205.315 20.9788C206.889 20.3317 208.656 20.0082 210.614 20.0082ZM210.614 43.723C213.238 43.723 215.196 42.8485 216.491 41.0997C217.785 39.3333 218.432 36.8761 218.432 33.7281C218.432 30.5627 217.785 28.0967 216.491 26.3304C215.196 24.564 213.238 23.6808 210.614 23.6808C209.285 23.6808 208.122 23.9082 207.125 24.3629C206.146 24.8176 205.324 25.4734 204.659 26.3304C204.012 27.1873 203.523 28.2454 203.19 29.5046C202.876 30.7463 202.718 32.1541 202.718 33.7281C202.718 36.8761 203.365 39.3333 204.659 41.0997C205.971 42.8485 207.956 43.723 210.614 43.723Z"/>
</mask>
<path d="M98.1474 39.2371C98.4272 39.2371 98.672 39.3508 98.8819 39.5781L100.902 41.7555C99.3628 43.5394 97.4915 44.9297 95.2879 45.9266C93.1018 46.9234 90.4523 47.4219 87.3393 47.4219C84.646 47.4219 82.1976 46.9584 79.994 46.0315C77.7904 45.0871 75.9104 43.7755 74.3538 42.0965C72.7973 40.4001 71.5906 38.3714 70.7337 36.0104C69.8767 33.6494 69.4482 31.0524 69.4482 28.2192C69.4482 25.386 69.8942 22.7889 70.7861 20.4279C71.6781 18.0669 72.9285 16.0382 74.5375 14.3418C76.1639 12.6454 78.1052 11.3337 80.3613 10.4068C82.6173 9.46243 85.1095 8.99023 87.8377 8.99023C90.5135 8.99023 92.8745 9.41871 94.9207 10.2757C96.9669 11.1326 98.7682 12.2956 100.325 13.7647L98.6458 16.0994C98.5409 16.2743 98.4009 16.423 98.2261 16.5454C98.0687 16.6503 97.85 16.7028 97.5702 16.7028C97.2554 16.7028 96.8707 16.5367 96.416 16.2044C95.9613 15.8546 95.3666 15.4698 94.6321 15.0501C93.8976 14.6304 92.9794 14.2544 91.8776 13.9221C90.7758 13.5723 89.4204 13.3974 87.8115 13.3974C85.8702 13.3974 84.0951 13.7384 82.4861 14.4205C80.8772 15.0851 79.4868 16.0557 78.3151 17.3324C77.1608 18.6091 76.2601 20.1656 75.613 22.0019C74.966 23.8382 74.6424 25.9106 74.6424 28.2192C74.6424 30.5627 74.9747 32.6526 75.6393 34.4889C76.3213 36.3252 77.2395 37.8817 78.3938 39.1584C79.5655 40.4176 80.9384 41.3795 82.5124 42.0441C84.1039 42.7086 85.8178 43.0409 87.6541 43.0409C88.7734 43.0409 89.779 42.9797 90.6709 42.8573C91.5803 42.7174 92.411 42.5075 93.1631 42.2277C93.9326 41.9479 94.6409 41.5981 95.2879 41.1784C95.9525 40.7411 96.6083 40.2252 97.2554 39.6306C97.5527 39.3683 97.85 39.2371 98.1474 39.2371Z" fill="#878585"/>
<path d="M109.981 25.7532C110.82 23.9344 111.852 22.5178 113.076 21.5035C114.3 20.4716 115.796 19.9557 117.562 19.9557C118.122 19.9557 118.655 20.0169 119.162 20.1393C119.687 20.2618 120.15 20.4541 120.553 20.7165L120.212 24.2055C120.107 24.6427 119.844 24.8613 119.425 24.8613C119.18 24.8613 118.821 24.8089 118.349 24.7039C117.877 24.599 117.343 24.5465 116.749 24.5465C115.909 24.5465 115.157 24.6689 114.493 24.9138C113.846 25.1586 113.26 25.5259 112.735 26.0156C112.228 26.4878 111.764 27.0824 111.345 27.7994C110.942 28.499 110.575 29.3035 110.243 30.2129V47.0021H105.547V20.4279H108.223C108.73 20.4279 109.08 20.5241 109.272 20.7165C109.465 20.9089 109.596 21.2411 109.666 21.7133L109.981 25.7532Z" fill="#878585"/>
<path d="M147.586 20.4279L132.765 54.8459C132.607 55.1956 132.406 55.4755 132.161 55.6853C131.934 55.8952 131.575 56.0001 131.086 56.0001H127.623L132.476 45.4544L121.51 20.4279H125.55C125.953 20.4279 126.267 20.5328 126.495 20.7427C126.74 20.9351 126.906 21.1537 126.993 21.3985L134.102 38.1353C134.382 38.8698 134.618 39.6394 134.811 40.4438C135.056 39.6219 135.318 38.8436 135.598 38.1091L142.497 21.3985C142.602 21.1187 142.777 20.8914 143.022 20.7165C143.284 20.5241 143.573 20.4279 143.887 20.4279H147.586Z" fill="#878585"/>
<path d="M156.407 40.6012C157.264 41.7555 158.2 42.5687 159.214 43.0409C160.228 43.5131 161.365 43.7492 162.624 43.7492C165.108 43.7492 167.014 42.866 168.343 41.0997C169.672 39.3333 170.337 36.8149 170.337 33.5445C170.337 31.8131 170.18 30.3266 169.865 29.0849C169.568 27.8432 169.13 26.8288 168.553 26.0418C167.976 25.2373 167.268 24.6515 166.428 24.2842C165.589 23.9169 164.636 23.7333 163.569 23.7333C162.047 23.7333 160.709 24.0831 159.555 24.7826C158.418 25.4822 157.369 26.4703 156.407 27.747V40.6012ZM156.171 24.5465C157.29 23.1649 158.585 22.0544 160.054 21.2149C161.523 20.3754 163.202 19.9557 165.09 19.9557C166.629 19.9557 168.02 20.253 169.261 20.8476C170.503 21.4248 171.561 22.2905 172.436 23.4447C173.31 24.5815 173.983 25.9981 174.456 27.6945C174.928 29.3909 175.164 31.3409 175.164 33.5445C175.164 35.5033 174.902 37.3308 174.377 39.0272C173.852 40.7062 173.091 42.1665 172.095 43.4082C171.115 44.6324 169.909 45.603 168.474 46.3201C167.058 47.0196 165.458 47.3694 163.674 47.3694C162.047 47.3694 160.648 47.0983 159.476 46.5562C158.322 45.9965 157.299 45.227 156.407 44.2477V56.0001H151.711V20.4279H154.518C155.183 20.4279 155.594 20.7515 155.751 21.3985L156.171 24.5465Z" fill="#878585"/>
<path d="M188.921 47.4219C186.823 47.4219 185.205 46.836 184.068 45.6642C182.949 44.4925 182.389 42.8048 182.389 40.6012V24.3367H179.189C178.909 24.3367 178.673 24.258 178.48 24.1006C178.288 23.9257 178.192 23.6633 178.192 23.3136V21.451L182.547 20.9001L183.622 12.6891C183.675 12.4268 183.788 12.2169 183.963 12.0595C184.155 11.8846 184.4 11.7972 184.698 11.7972H187.059V20.9526H194.745V24.3367H187.059V40.2864C187.059 41.4057 187.33 42.2364 187.872 42.7786C188.414 43.3207 189.114 43.5918 189.971 43.5918C190.46 43.5918 190.88 43.5306 191.23 43.4082C191.597 43.2683 191.912 43.1196 192.174 42.9622C192.436 42.8048 192.655 42.6649 192.83 42.5425C193.022 42.4026 193.188 42.3326 193.328 42.3326C193.573 42.3326 193.792 42.4813 193.984 42.7786L195.348 45.0084C194.544 45.7604 193.573 46.355 192.436 46.7923C191.3 47.212 190.128 47.4219 188.921 47.4219Z" fill="#878585"/>
<path d="M210.614 20.0082C212.556 20.0082 214.305 20.3317 215.861 20.9788C217.418 21.6259 218.747 22.5441 219.848 23.7333C220.95 24.9225 221.79 26.3654 222.367 28.0618C222.961 29.7407 223.259 31.6207 223.259 33.7019C223.259 35.8006 222.961 37.6894 222.367 39.3683C221.79 41.0472 220.95 42.4813 219.848 43.6705C218.747 44.8598 217.418 45.7779 215.861 46.425C214.305 47.0546 212.556 47.3694 210.614 47.3694C208.656 47.3694 206.889 47.0546 205.315 46.425C203.759 45.7779 202.43 44.8598 201.328 43.6705C200.226 42.4813 199.378 41.0472 198.783 39.3683C198.206 37.6894 197.918 35.8006 197.918 33.7019C197.918 31.6207 198.206 29.7407 198.783 28.0618C199.378 26.3654 200.226 24.9225 201.328 23.7333C202.43 22.5441 203.759 21.6259 205.315 20.9788C206.889 20.3317 208.656 20.0082 210.614 20.0082ZM210.614 43.723C213.238 43.723 215.196 42.8485 216.491 41.0997C217.785 39.3333 218.432 36.8761 218.432 33.7281C218.432 30.5627 217.785 28.0967 216.491 26.3304C215.196 24.564 213.238 23.6808 210.614 23.6808C209.285 23.6808 208.122 23.9082 207.125 24.3629C206.146 24.8176 205.324 25.4734 204.659 26.3304C204.012 27.1873 203.523 28.2454 203.19 29.5046C202.876 30.7463 202.718 32.1541 202.718 33.7281C202.718 36.8761 203.365 39.3333 204.659 41.0997C205.971 42.8485 207.956 43.723 210.614 43.723Z" fill="#878585"/>
<path d="M98.1474 39.2371C98.4272 39.2371 98.672 39.3508 98.8819 39.5781L100.902 41.7555C99.3628 43.5394 97.4915 44.9297 95.2879 45.9266C93.1018 46.9234 90.4523 47.4219 87.3393 47.4219C84.646 47.4219 82.1976 46.9584 79.994 46.0315C77.7904 45.0871 75.9104 43.7755 74.3538 42.0965C72.7973 40.4001 71.5906 38.3714 70.7337 36.0104C69.8767 33.6494 69.4482 31.0524 69.4482 28.2192C69.4482 25.386 69.8942 22.7889 70.7861 20.4279C71.6781 18.0669 72.9285 16.0382 74.5375 14.3418C76.1639 12.6454 78.1052 11.3337 80.3613 10.4068C82.6173 9.46243 85.1095 8.99023 87.8377 8.99023C90.5135 8.99023 92.8745 9.41871 94.9207 10.2757C96.9669 11.1326 98.7682 12.2956 100.325 13.7647L98.6458 16.0994C98.5409 16.2743 98.4009 16.423 98.2261 16.5454C98.0687 16.6503 97.85 16.7028 97.5702 16.7028C97.2554 16.7028 96.8707 16.5367 96.416 16.2044C95.9613 15.8546 95.3666 15.4698 94.6321 15.0501C93.8976 14.6304 92.9794 14.2544 91.8776 13.9221C90.7758 13.5723 89.4204 13.3974 87.8115 13.3974C85.8702 13.3974 84.0951 13.7384 82.4861 14.4205C80.8772 15.0851 79.4868 16.0557 78.3151 17.3324C77.1608 18.6091 76.2601 20.1656 75.613 22.0019C74.966 23.8382 74.6424 25.9106 74.6424 28.2192C74.6424 30.5627 74.9747 32.6526 75.6393 34.4889C76.3213 36.3252 77.2395 37.8817 78.3938 39.1584C79.5655 40.4176 80.9384 41.3795 82.5124 42.0441C84.1039 42.7086 85.8178 43.0409 87.6541 43.0409C88.7734 43.0409 89.779 42.9797 90.6709 42.8573C91.5803 42.7174 92.411 42.5075 93.1631 42.2277C93.9326 41.9479 94.6409 41.5981 95.2879 41.1784C95.9525 40.7411 96.6083 40.2252 97.2554 39.6306C97.5527 39.3683 97.85 39.2371 98.1474 39.2371Z" stroke="#878585" stroke-width="2" mask="url(#path-1-outside-1)"/>
<path d="M109.981 25.7532C110.82 23.9344 111.852 22.5178 113.076 21.5035C114.3 20.4716 115.796 19.9557 117.562 19.9557C118.122 19.9557 118.655 20.0169 119.162 20.1393C119.687 20.2618 120.15 20.4541 120.553 20.7165L120.212 24.2055C120.107 24.6427 119.844 24.8613 119.425 24.8613C119.18 24.8613 118.821 24.8089 118.349 24.7039C117.877 24.599 117.343 24.5465 116.749 24.5465C115.909 24.5465 115.157 24.6689 114.493 24.9138C113.846 25.1586 113.26 25.5259 112.735 26.0156C112.228 26.4878 111.764 27.0824 111.345 27.7994C110.942 28.499 110.575 29.3035 110.243 30.2129V47.0021H105.547V20.4279H108.223C108.73 20.4279 109.08 20.5241 109.272 20.7165C109.465 20.9089 109.596 21.2411 109.666 21.7133L109.981 25.7532Z" stroke="#878585" stroke-width="2" mask="url(#path-1-outside-1)"/>
<path d="M147.586 20.4279L132.765 54.8459C132.607 55.1956 132.406 55.4755 132.161 55.6853C131.934 55.8952 131.575 56.0001 131.086 56.0001H127.623L132.476 45.4544L121.51 20.4279H125.55C125.953 20.4279 126.267 20.5328 126.495 20.7427C126.74 20.9351 126.906 21.1537 126.993 21.3985L134.102 38.1353C134.382 38.8698 134.618 39.6394 134.811 40.4438C135.056 39.6219 135.318 38.8436 135.598 38.1091L142.497 21.3985C142.602 21.1187 142.777 20.8914 143.022 20.7165C143.284 20.5241 143.573 20.4279 143.887 20.4279H147.586Z" stroke="#878585" stroke-width="2" mask="url(#path-1-outside-1)"/>
<path d="M156.407 40.6012C157.264 41.7555 158.2 42.5687 159.214 43.0409C160.228 43.5131 161.365 43.7492 162.624 43.7492C165.108 43.7492 167.014 42.866 168.343 41.0997C169.672 39.3333 170.337 36.8149 170.337 33.5445C170.337 31.8131 170.18 30.3266 169.865 29.0849C169.568 27.8432 169.13 26.8288 168.553 26.0418C167.976 25.2373 167.268 24.6515 166.428 24.2842C165.589 23.9169 164.636 23.7333 163.569 23.7333C162.047 23.7333 160.709 24.0831 159.555 24.7826C158.418 25.4822 157.369 26.4703 156.407 27.747V40.6012ZM156.171 24.5465C157.29 23.1649 158.585 22.0544 160.054 21.2149C161.523 20.3754 163.202 19.9557 165.09 19.9557C166.629 19.9557 168.02 20.253 169.261 20.8476C170.503 21.4248 171.561 22.2905 172.436 23.4447C173.31 24.5815 173.983 25.9981 174.456 27.6945C174.928 29.3909 175.164 31.3409 175.164 33.5445C175.164 35.5033 174.902 37.3308 174.377 39.0272C173.852 40.7062 173.091 42.1665 172.095 43.4082C171.115 44.6324 169.909 45.603 168.474 46.3201C167.058 47.0196 165.458 47.3694 163.674 47.3694C162.047 47.3694 160.648 47.0983 159.476 46.5562C158.322 45.9965 157.299 45.227 156.407 44.2477V56.0001H151.711V20.4279H154.518C155.183 20.4279 155.594 20.7515 155.751 21.3985L156.171 24.5465Z" stroke="#878585" stroke-width="2" mask="url(#path-1-outside-1)"/>
<path d="M188.921 47.4219C186.823 47.4219 185.205 46.836 184.068 45.6642C182.949 44.4925 182.389 42.8048 182.389 40.6012V24.3367H179.189C178.909 24.3367 178.673 24.258 178.48 24.1006C178.288 23.9257 178.192 23.6633 178.192 23.3136V21.451L182.547 20.9001L183.622 12.6891C183.675 12.4268 183.788 12.2169 183.963 12.0595C184.155 11.8846 184.4 11.7972 184.698 11.7972H187.059V20.9526H194.745V24.3367H187.059V40.2864C187.059 41.4057 187.33 42.2364 187.872 42.7786C188.414 43.3207 189.114 43.5918 189.971 43.5918C190.46 43.5918 190.88 43.5306 191.23 43.4082C191.597 43.2683 191.912 43.1196 192.174 42.9622C192.436 42.8048 192.655 42.6649 192.83 42.5425C193.022 42.4026 193.188 42.3326 193.328 42.3326C193.573 42.3326 193.792 42.4813 193.984 42.7786L195.348 45.0084C194.544 45.7604 193.573 46.355 192.436 46.7923C191.3 47.212 190.128 47.4219 188.921 47.4219Z" stroke="#878585" stroke-width="2" mask="url(#path-1-outside-1)"/>
<path d="M210.614 20.0082C212.556 20.0082 214.305 20.3317 215.861 20.9788C217.418 21.6259 218.747 22.5441 219.848 23.7333C220.95 24.9225 221.79 26.3654 222.367 28.0618C222.961 29.7407 223.259 31.6207 223.259 33.7019C223.259 35.8006 222.961 37.6894 222.367 39.3683C221.79 41.0472 220.95 42.4813 219.848 43.6705C218.747 44.8598 217.418 45.7779 215.861 46.425C214.305 47.0546 212.556 47.3694 210.614 47.3694C208.656 47.3694 206.889 47.0546 205.315 46.425C203.759 45.7779 202.43 44.8598 201.328 43.6705C200.226 42.4813 199.378 41.0472 198.783 39.3683C198.206 37.6894 197.918 35.8006 197.918 33.7019C197.918 31.6207 198.206 29.7407 198.783 28.0618C199.378 26.3654 200.226 24.9225 201.328 23.7333C202.43 22.5441 203.759 21.6259 205.315 20.9788C206.889 20.3317 208.656 20.0082 210.614 20.0082ZM210.614 43.723C213.238 43.723 215.196 42.8485 216.491 41.0997C217.785 39.3333 218.432 36.8761 218.432 33.7281C218.432 30.5627 217.785 28.0967 216.491 26.3304C215.196 24.564 213.238 23.6808 210.614 23.6808C209.285 23.6808 208.122 23.9082 207.125 24.3629C206.146 24.8176 205.324 25.4734 204.659 26.3304C204.012 27.1873 203.523 28.2454 203.19 29.5046C202.876 30.7463 202.718 32.1541 202.718 33.7281C202.718 36.8761 203.365 39.3333 204.659 41.0997C205.971 42.8485 207.956 43.723 210.614 43.723Z" stroke="#878585" stroke-width="2" mask="url(#path-1-outside-1)"/>
<path d="M52.6482 34.4658C49.0785 48.7839 34.5766 57.4977 20.2569 53.9271C5.94294 50.3574 -2.77086 35.8547 0.800522 21.5375C4.36856 7.21768 18.8704 -1.49696 33.186 2.07275C47.505 5.64246 56.2179 20.1468 52.6482 34.4658Z" fill="#F7931A"/>
<path d="M38.5025 24.1929C39.0345 20.6366 36.3267 18.7248 32.6242 17.4494L33.8253 12.6319L30.8928 11.9011L29.7235 16.5916C28.9526 16.3995 28.1608 16.2183 27.3741 16.0387L28.5517 11.3172L25.6209 10.5864L24.4191 15.4023C23.781 15.257 23.1545 15.1133 22.5465 14.9621L22.5499 14.9471L18.5057 13.9373L17.7256 17.0694C17.7256 17.0694 19.9014 17.568 19.8554 17.5989C21.0431 17.8954 21.2578 18.6813 21.2219 19.3044L19.8538 24.7926C19.9356 24.8135 20.0417 24.8436 20.1586 24.8903C20.0609 24.8661 19.9565 24.8394 19.8488 24.8135L17.9311 32.5017C17.7858 32.8625 17.4175 33.4037 16.5873 33.1982C16.6165 33.2408 14.4558 32.6662 14.4558 32.6662L13 36.0229L16.8161 36.9742C17.526 37.1521 18.2218 37.3384 18.9066 37.5138L17.6931 42.3864L20.6222 43.1172L21.824 38.2964C22.6242 38.5135 23.4009 38.714 24.161 38.9028L22.9633 43.7011L25.8957 44.4319L27.1093 39.5684C32.1097 40.5147 35.8699 40.133 37.4526 35.6103C38.728 31.9688 37.3891 29.8682 34.7582 28.4985C36.6742 28.0566 38.1174 26.7963 38.5025 24.1929ZM31.8024 33.5883C30.8962 37.2298 24.7648 35.2612 22.777 34.7676L24.3873 28.3122C26.3751 28.8083 32.7495 29.7905 31.8024 33.5883ZM32.7094 24.1403C31.8826 27.4528 26.7794 25.7698 25.124 25.3572L26.5839 19.5024C28.2393 19.915 33.5705 20.685 32.7094 24.1403Z" fill="white"/>
</svg>
