<svg width="271" height="56" viewBox="0 0 271 56" fill="none" xmlns="http://www.w3.org/2000/svg">
<g clip-path="url(#clip0)">
<path d="M31.2812 56H24.7188C22.0048 56 19.7969 53.792 19.7969 51.0781V41.0156C19.7969 40.1096 20.5314 39.375 21.4375 39.375H34.5625C35.4686 39.375 36.2031 40.1096 36.2031 41.0156V51.0781C36.2031 53.792 33.9952 56 31.2812 56Z" fill="#8A8A8A"/>
<path d="M36.2031 51.0781V41.0156C36.2031 40.1096 35.4686 39.375 34.5625 39.375H28V56H31.2812C33.9952 56 36.2031 53.792 36.2031 51.0781Z" fill="#8A8A8A"/>
<path d="M34.5625 42.6562H21.4375C19.3267 42.6562 17.6094 40.939 17.6094 38.8281V37.8558C17.6094 34.9828 16.5713 32.2679 14.6864 30.211C11.6341 26.8803 9.95312 22.5603 9.95312 18.0469C9.95312 8.09583 18.049 0 28 0C37.951 0 46.0469 8.09583 46.0469 18.0469C46.0469 22.5603 44.3659 26.8803 41.3136 30.2111C39.4287 32.2679 38.3906 34.9829 38.3906 37.8558V38.8281C38.3906 40.939 36.6733 42.6562 34.5625 42.6562Z" fill="#FFCD00"/>
<path d="M34.5625 42.6562C36.6733 42.6562 38.3906 40.939 38.3906 38.8281V37.8558C38.3906 34.9828 39.4287 32.2679 41.3136 30.211C44.3659 26.8803 46.0469 22.5603 46.0469 18.0469C46.0469 8.09583 37.951 0 28 0V42.6562H34.5625Z" fill="#FFCD00"/>
<path d="M54.25 19.6875H50.9688C50.0627 19.6875 49.3281 18.9529 49.3281 18.0469C49.3281 17.1408 50.0627 16.4062 50.9688 16.4062H54.25C55.1561 16.4062 55.8906 17.1408 55.8906 18.0469C55.8906 18.9529 55.1561 19.6875 54.25 19.6875Z" fill="#FFCD00"/>
<path d="M5.03125 19.6875H1.75C0.843937 19.6875 0.109375 18.9529 0.109375 18.0469C0.109375 17.1408 0.843937 16.4062 1.75 16.4062H5.03125C5.93731 16.4062 6.67188 17.1408 6.67188 18.0469C6.67188 18.9529 5.93731 19.6875 5.03125 19.6875Z" fill="#FFCD00"/>
<path d="M48.0413 10.7523C47.7314 9.90077 48.1703 8.95938 49.0218 8.64941L52.1052 7.52711C52.9567 7.21725 53.8981 7.65617 54.2081 8.50766C54.5179 9.35914 54.079 10.3005 53.2275 10.6105L50.1441 11.7328C49.2926 12.0427 48.3512 11.6037 48.0413 10.7523Z" fill="#FFCD00"/>
<path d="M1.79176 27.5862C1.4819 26.7348 1.92082 25.7934 2.77231 25.4834L5.8557 24.3611C6.70718 24.0512 7.64857 24.4902 7.95854 25.3416C8.2684 26.1931 7.82948 27.1345 6.97799 27.4445L3.8946 28.5668C3.04312 28.8768 2.10173 28.4377 1.79176 27.5862Z" fill="#FFCD00"/>
<path d="M52.1052 28.5668L49.0218 27.4445C48.1703 27.1346 47.7314 26.1931 48.0413 25.3416C48.3511 24.4902 49.2926 24.0512 50.1441 24.3611L53.2275 25.4834C54.079 25.7933 54.5179 26.7348 54.2081 27.5862C53.8981 28.4377 52.9567 28.8768 52.1052 28.5668Z" fill="#FFCD00"/>
<path d="M5.8557 11.7327L2.77231 10.6104C1.92082 10.3006 1.4819 9.35908 1.79176 8.50759C2.10173 7.65622 3.04312 7.21719 3.8946 7.52716L6.97799 8.64945C7.82948 8.95931 8.2684 9.90081 7.95854 10.7523C7.64857 11.6037 6.70718 12.0426 5.8557 11.7327Z" fill="#FFCD00"/>
<path d="M36.75 45.9375H28V49.2188H36.75C37.6561 49.2188 38.3906 48.4842 38.3906 47.5781C38.3906 46.6721 37.6561 45.9375 36.75 45.9375Z" fill="#8A8A8A"/>
<path d="M30.216 17.7535C29.9015 17.6423 29.5802 17.5264 29.2593 17.4061V11.961C29.9713 12.1553 30.3338 12.5139 30.3591 12.5399C30.8559 13.1037 31.7157 13.1613 32.283 12.6668C32.8524 12.1708 32.9118 11.3072 32.4158 10.7379C31.8983 10.1441 30.809 9.39521 29.2593 9.16946V8.20303C29.2593 7.48432 28.7045 6.89643 28 6.84131V31.4397C28.7045 31.3846 29.2593 30.7966 29.2593 30.078V28.806C30.2786 28.5775 31.2042 28.0961 31.9832 27.3804C32.9864 26.4586 33.6635 25.2096 33.8898 23.8638C34.3537 21.1047 32.9116 18.7063 30.216 17.7535ZM31.1933 23.4104C31.027 24.4001 30.3704 25.448 29.2593 25.9392V20.3154C29.2747 20.3209 29.2894 20.3261 29.3047 20.3316C31.4122 21.0765 31.2831 22.8764 31.1933 23.4104Z" fill="#FFCD00"/>
<path d="M30.2157 17.7536C29.9011 17.6424 29.5799 17.5265 29.259 17.4062V11.9611C29.9709 12.1554 30.3335 12.514 30.3588 12.54C30.8556 13.1038 31.7153 13.1614 32.2827 12.6669C32.8521 12.1709 32.9115 11.3073 32.4155 10.738C31.898 10.1442 30.8086 9.39531 29.259 9.16956V8.20312C29.259 7.44811 28.6468 6.83594 27.8918 6.83594C27.1368 6.83594 26.5246 7.44811 26.5246 8.20312V9.32827C26.3829 9.36316 26.2399 9.40078 26.0941 9.44464C24.3122 9.98134 22.981 11.5046 22.6201 13.4199C22.29 15.1714 22.8547 16.8631 24.0938 17.8351C24.7167 18.3237 25.4836 18.7713 26.5246 19.2407V26.185C25.6773 26.101 25.0973 25.8617 24.1433 25.2376C23.5116 24.8242 22.6641 25.0014 22.2508 25.6333C21.8375 26.2652 22.0146 27.1125 22.6465 27.526C24.1614 28.5169 25.2115 28.8366 26.5247 28.9277V30.0781C26.5247 30.8331 27.1369 31.4453 27.8919 31.4453C28.6469 31.4453 29.2591 30.8331 29.2591 30.0781V28.8061C30.2784 28.5776 31.204 28.0963 31.983 27.3805C32.9862 26.4587 33.6633 25.2097 33.8896 23.8639C34.3534 21.1048 32.9113 18.7064 30.2157 17.7536ZM25.7813 15.6836C25.3551 15.3494 25.1689 14.6595 25.3072 13.9264C25.4233 13.3097 25.8031 12.5801 26.5246 12.2083V16.1773C26.2494 16.0176 25.9977 15.8533 25.7813 15.6836ZM31.193 23.4105C31.0266 24.4002 30.37 25.4481 29.259 25.9393V20.3155C29.2743 20.321 29.2891 20.3263 29.3044 20.3317C31.4118 21.0766 31.2828 22.8765 31.193 23.4105Z" fill="#FFF36C"/>
<path d="M36.75 49.2188H19.25C18.3439 49.2188 17.6094 48.4842 17.6094 47.5781C17.6094 46.6721 18.3439 45.9375 19.25 45.9375H36.75C37.6561 45.9375 38.3906 46.6721 38.3906 47.5781C38.3906 48.4842 37.6561 49.2188 36.75 49.2188Z" fill="#3F4A4A"/>
</g>
<mask id="path-15-outside-1" maskUnits="userSpaceOnUse" x="68.1343" y="10.5054" width="199" height="40" fill="black">
<rect fill="white" x="68.1343" y="10.5054" width="199" height="40"/>
<path d="M82.3525 44.4643C83.6933 44.4643 84.8665 44.2883 85.8721 43.9364C86.8777 43.5844 87.7073 43.0816 88.361 42.4279C89.0314 41.7743 89.5342 40.9866 89.8694 40.0647C90.2046 39.1429 90.3722 38.1038 90.3722 36.9473C90.3722 35.3551 89.8359 34.0897 88.7632 33.1512C87.7073 32.1958 86.09 31.7182 83.9112 31.7182H76.8467L75.288 44.4643H82.3525ZM78.8077 15.8546L77.2741 28.3997H83.0815C84.4391 28.3997 85.6207 28.2237 86.6263 27.8717C87.6487 27.503 88.4951 27.0002 89.1655 26.3633C89.8526 25.7096 90.3638 24.9303 90.699 24.0252C91.0342 23.1202 91.2018 22.123 91.2018 21.0335C91.2018 19.3072 90.6823 18.0167 89.6431 17.1619C88.604 16.2904 86.995 15.8546 84.8162 15.8546H78.8077ZM85.2436 12.159C87.104 12.159 88.7046 12.3518 90.0454 12.7372C91.403 13.106 92.5175 13.6423 93.389 14.3462C94.2606 15.0334 94.9058 15.8798 95.3249 16.8854C95.7439 17.8742 95.9534 18.9804 95.9534 20.2039C95.9534 21.2598 95.7941 22.2822 95.4757 23.271C95.174 24.2431 94.7131 25.1398 94.093 25.961C93.4896 26.7823 92.7186 27.5114 91.7801 28.1482C90.8583 28.7851 89.7772 29.2963 88.537 29.6818C90.699 30.1679 92.3164 31.0142 93.389 32.221C94.4785 33.4277 95.0232 34.978 95.0232 36.8719C95.0232 38.5312 94.7215 40.0564 94.1181 41.4475C93.5315 42.8218 92.6767 44.0118 91.5538 45.0174C90.4309 46.023 89.0565 46.8023 87.4308 47.3554C85.8218 47.9085 84.0033 48.1851 81.9754 48.1851H70.1343L74.559 12.159H85.2436Z"/>
<path d="M121.938 22.7179L118.871 48.1851H116.659C115.569 48.1851 115.025 47.6487 115.025 46.5761L115.402 41.9251C114.061 44.104 112.544 45.7548 110.851 46.8778C109.175 47.9839 107.449 48.537 105.672 48.537C104.6 48.537 103.653 48.3275 102.832 47.9085C102.01 47.4728 101.34 46.8442 100.82 46.023C100.318 45.2017 99.974 44.1961 99.7896 43.0062C99.6052 41.8162 99.6136 40.4502 99.8148 38.9083L101.725 22.7179H106.175L104.265 38.9083C104.03 40.9028 104.147 42.386 104.617 43.3581C105.103 44.3302 106.008 44.8163 107.332 44.8163C108.103 44.8163 108.899 44.6068 109.72 44.1878C110.541 43.7687 111.329 43.1738 112.083 42.4028C112.837 41.6318 113.541 40.7016 114.195 39.6122C114.865 38.506 115.435 37.2826 115.905 35.9417L117.488 22.7179H121.938Z"/>
<path d="M141.94 26.7907C141.806 26.9918 141.672 27.1426 141.537 27.2432C141.403 27.327 141.236 27.3689 141.035 27.3689C140.8 27.3689 140.54 27.2767 140.255 27.0924C139.987 26.908 139.652 26.7069 139.25 26.489C138.864 26.2543 138.387 26.0448 137.817 25.8605C137.247 25.6594 136.56 25.5588 135.755 25.5588C135.001 25.5588 134.314 25.6677 133.694 25.8856C133.074 26.0867 132.537 26.3717 132.085 26.7404C131.649 27.1091 131.305 27.5449 131.054 28.0477C130.819 28.5337 130.702 29.0533 130.702 29.6064C130.702 30.3941 130.962 31.0226 131.481 31.4919C132.001 31.9612 132.655 32.3718 133.442 32.7238C134.23 33.059 135.076 33.3858 135.981 33.7043C136.886 34.0227 137.733 34.4249 138.521 34.911C139.308 35.397 139.962 36.0172 140.482 36.7714C141.001 37.5256 141.261 38.506 141.261 39.7128C141.261 40.886 141.026 42.0089 140.557 43.0816C140.104 44.1542 139.442 45.1012 138.571 45.9224C137.716 46.7269 136.677 47.3722 135.453 47.8582C134.247 48.3443 132.889 48.5873 131.381 48.5873C129.755 48.5873 128.314 48.3024 127.057 47.7325C125.816 47.1459 124.802 46.4001 124.015 45.495L125.121 43.7855C125.272 43.5676 125.431 43.4 125.598 43.2827C125.783 43.1654 126.017 43.1067 126.302 43.1067C126.571 43.1067 126.839 43.224 127.107 43.4587C127.375 43.6933 127.71 43.9615 128.113 44.2632C128.515 44.5481 129.018 44.8079 129.621 45.0425C130.241 45.2772 131.02 45.3945 131.959 45.3945C132.78 45.3945 133.518 45.2688 134.171 45.0174C134.842 44.766 135.403 44.4308 135.856 44.0118C136.325 43.5928 136.677 43.1067 136.912 42.5536C137.163 41.9838 137.289 41.3804 137.289 40.7435C137.289 39.8888 137.029 39.21 136.509 38.7072C135.99 38.2044 135.336 37.7854 134.548 37.4502C133.761 37.115 132.914 36.8049 132.009 36.52C131.104 36.2183 130.258 35.8412 129.47 35.3887C128.682 34.9194 128.029 34.316 127.509 33.5786C126.99 32.8411 126.73 31.8606 126.73 30.6371C126.73 29.5645 126.939 28.5337 127.358 27.5449C127.794 26.5393 128.414 25.651 129.219 24.88C130.023 24.109 130.995 23.4973 132.135 23.0448C133.291 22.5755 134.59 22.3408 136.032 22.3408C137.557 22.3408 138.898 22.6006 140.054 23.1202C141.227 23.623 142.233 24.3102 143.071 25.1817L141.94 26.7907Z"/>
<path d="M162.072 26.7907C161.937 26.9918 161.803 27.1426 161.669 27.2432C161.535 27.327 161.368 27.3689 161.166 27.3689C160.932 27.3689 160.672 27.2767 160.387 27.0924C160.119 26.908 159.784 26.7069 159.382 26.489C158.996 26.2543 158.518 26.0448 157.949 25.8605C157.379 25.6594 156.692 25.5588 155.887 25.5588C155.133 25.5588 154.446 25.6677 153.826 25.8856C153.205 26.0867 152.669 26.3717 152.217 26.7404C151.781 27.1091 151.437 27.5449 151.186 28.0477C150.951 28.5337 150.834 29.0533 150.834 29.6064C150.834 30.3941 151.094 31.0226 151.613 31.4919C152.133 31.9612 152.786 32.3718 153.574 32.7238C154.362 33.059 155.208 33.3858 156.113 33.7043C157.018 34.0227 157.865 34.4249 158.652 34.911C159.44 35.397 160.094 36.0172 160.613 36.7714C161.133 37.5256 161.393 38.506 161.393 39.7128C161.393 40.886 161.158 42.0089 160.689 43.0816C160.236 44.1542 159.574 45.1012 158.703 45.9224C157.848 46.7269 156.809 47.3722 155.585 47.8582C154.379 48.3443 153.021 48.5873 151.513 48.5873C149.887 48.5873 148.446 48.3024 147.188 47.7325C145.948 47.1459 144.934 46.4001 144.147 45.495L145.253 43.7855C145.404 43.5676 145.563 43.4 145.73 43.2827C145.915 43.1654 146.149 43.1067 146.434 43.1067C146.702 43.1067 146.971 43.224 147.239 43.4587C147.507 43.6933 147.842 43.9615 148.244 44.2632C148.647 44.5481 149.149 44.8079 149.753 45.0425C150.373 45.2772 151.152 45.3945 152.091 45.3945C152.912 45.3945 153.65 45.2688 154.303 45.0174C154.974 44.766 155.535 44.4308 155.988 44.0118C156.457 43.5928 156.809 43.1067 157.043 42.5536C157.295 41.9838 157.421 41.3804 157.421 40.7435C157.421 39.8888 157.161 39.21 156.641 38.7072C156.122 38.2044 155.468 37.7854 154.68 37.4502C153.893 37.115 153.046 36.8049 152.141 36.52C151.236 36.2183 150.39 35.8412 149.602 35.3887C148.814 34.9194 148.161 34.316 147.641 33.5786C147.121 32.8411 146.862 31.8606 146.862 30.6371C146.862 29.5645 147.071 28.5337 147.49 27.5449C147.926 26.5393 148.546 25.651 149.351 24.88C150.155 24.109 151.127 23.4973 152.267 23.0448C153.423 22.5755 154.722 22.3408 156.164 22.3408C157.689 22.3408 159.03 22.6006 160.186 23.1202C161.359 23.623 162.365 24.3102 163.203 25.1817L162.072 26.7907Z"/>
<path d="M173.505 22.7179L170.438 48.1851H166.038L169.105 22.7179H173.505ZM175.214 14.7233C175.214 15.1591 175.122 15.5697 174.938 15.9552C174.77 16.3239 174.536 16.6591 174.234 16.9608C173.949 17.2457 173.614 17.472 173.228 17.6396C172.86 17.8072 172.474 17.891 172.072 17.891C171.686 17.891 171.309 17.8072 170.941 17.6396C170.572 17.472 170.245 17.2457 169.96 16.9608C169.692 16.6591 169.474 16.3239 169.306 15.9552C169.139 15.5697 169.055 15.1591 169.055 14.7233C169.055 14.2876 169.139 13.8769 169.306 13.4915C169.474 13.106 169.7 12.7708 169.985 12.4858C170.27 12.1842 170.597 11.9495 170.966 11.7819C171.334 11.5976 171.712 11.5054 172.097 11.5054C172.499 11.5054 172.885 11.5892 173.253 11.7568C173.639 11.9244 173.974 12.159 174.259 12.4607C174.544 12.7456 174.77 13.0892 174.938 13.4915C175.122 13.8769 175.214 14.2876 175.214 14.7233Z"/>
<path d="M183.786 29.1539C185.143 26.908 186.677 25.2152 188.386 24.0755C190.096 22.9191 191.856 22.3408 193.666 22.3408C194.738 22.3408 195.677 22.5587 196.482 22.9945C197.303 23.4135 197.965 24.0336 198.468 24.8549C198.987 25.6761 199.339 26.6901 199.523 27.8968C199.708 29.0868 199.708 30.4444 199.523 31.9696L197.613 48.1851H193.163L195.074 31.9696C195.308 29.9583 195.183 28.4751 194.697 27.5197C194.211 26.5476 193.314 26.0616 192.007 26.0616C191.202 26.0616 190.381 26.2795 189.543 26.7153C188.722 27.151 187.925 27.7711 187.154 28.5756C186.384 29.3801 185.663 30.3522 184.992 31.4919C184.339 32.6148 183.777 33.8719 183.308 35.263L181.85 48.1851H177.375L180.442 22.6928H182.654C183.66 22.6928 184.163 23.1956 184.163 24.2012L183.786 29.1539Z"/>
<path d="M216.985 25.5839C215.929 25.5839 214.957 25.8018 214.068 26.2376C213.18 26.6734 212.392 27.2767 211.705 28.0477C211.018 28.8019 210.431 29.6986 209.945 30.7377C209.459 31.7601 209.082 32.8662 208.814 34.0562C211.395 33.7378 213.465 33.3774 215.024 32.9752C216.582 32.5562 217.781 32.112 218.619 31.6427C219.457 31.1567 220.01 30.6371 220.278 30.084C220.546 29.531 220.68 28.9527 220.68 28.3494C220.68 28.0477 220.613 27.7376 220.479 27.4192C220.345 27.084 220.127 26.7823 219.825 26.5141C219.541 26.246 219.163 26.0281 218.694 25.8605C218.225 25.6761 217.655 25.5839 216.985 25.5839ZM224.074 43.4838C223.219 44.3721 222.381 45.1347 221.56 45.7716C220.739 46.3917 219.901 46.9113 219.046 47.3303C218.208 47.7493 217.32 48.051 216.381 48.2353C215.459 48.4365 214.462 48.537 213.39 48.537C211.931 48.537 210.624 48.294 209.468 47.808C208.311 47.3219 207.331 46.6347 206.526 45.7465C205.722 44.8414 205.102 43.752 204.666 42.4782C204.23 41.2044 204.012 39.7798 204.012 38.2044C204.012 36.8971 204.146 35.5982 204.414 34.3076C204.699 33.0003 205.102 31.7601 205.621 30.5869C206.158 29.4136 206.803 28.3242 207.557 27.3186C208.328 26.313 209.2 25.4499 210.172 24.7292C211.16 23.9917 212.241 23.4135 213.415 22.9945C214.605 22.5755 215.878 22.366 217.236 22.366C218.527 22.366 219.641 22.5503 220.58 22.9191C221.518 23.2878 222.289 23.7571 222.893 24.3269C223.496 24.8968 223.94 25.5253 224.225 26.2124C224.527 26.8996 224.678 27.5533 224.678 28.1734C224.678 29.2796 224.451 30.3019 223.999 31.2405C223.546 32.1623 222.717 33.0003 221.51 33.7545C220.303 34.492 218.644 35.1372 216.532 35.6903C214.42 36.2434 211.705 36.6876 208.387 37.0228C208.387 37.2071 208.378 37.3915 208.361 37.5759C208.361 37.7435 208.361 37.9194 208.361 38.1038C208.361 40.3497 208.848 42.0676 209.82 43.2576C210.808 44.4308 212.292 45.0174 214.269 45.0174C215.074 45.0174 215.786 44.9336 216.406 44.766C217.043 44.5984 217.605 44.3973 218.091 44.1626C218.594 43.9112 219.029 43.643 219.398 43.3581C219.784 43.0564 220.127 42.7883 220.429 42.5536C220.747 42.3022 221.041 42.0927 221.309 41.9251C221.577 41.7575 221.845 41.6737 222.113 41.6737C222.432 41.6737 222.717 41.8162 222.968 42.1011L224.074 43.4838Z"/>
<path d="M244.514 26.7907C244.38 26.9918 244.246 27.1426 244.112 27.2432C243.978 27.327 243.81 27.3689 243.609 27.3689C243.374 27.3689 243.115 27.2767 242.83 27.0924C242.561 26.908 242.226 26.7069 241.824 26.489C241.439 26.2543 240.961 26.0448 240.391 25.8605C239.821 25.6594 239.134 25.5588 238.33 25.5588C237.575 25.5588 236.888 25.6677 236.268 25.8856C235.648 26.0867 235.112 26.3717 234.659 26.7404C234.223 27.1091 233.88 27.5449 233.628 28.0477C233.394 28.5337 233.276 29.0533 233.276 29.6064C233.276 30.3941 233.536 31.0226 234.056 31.4919C234.575 31.9612 235.229 32.3718 236.017 32.7238C236.804 33.059 237.651 33.3858 238.556 33.7043C239.461 34.0227 240.307 34.4249 241.095 34.911C241.883 35.397 242.536 36.0172 243.056 36.7714C243.575 37.5256 243.835 38.506 243.835 39.7128C243.835 40.886 243.601 42.0089 243.131 43.0816C242.679 44.1542 242.017 45.1012 241.145 45.9224C240.29 46.7269 239.251 47.3722 238.028 47.8582C236.821 48.3443 235.464 48.5873 233.955 48.5873C232.329 48.5873 230.888 48.3024 229.631 47.7325C228.391 47.1459 227.377 46.4001 226.589 45.495L227.695 43.7855C227.846 43.5676 228.005 43.4 228.173 43.2827C228.357 43.1654 228.592 43.1067 228.877 43.1067C229.145 43.1067 229.413 43.224 229.681 43.4587C229.949 43.6933 230.285 43.9615 230.687 44.2632C231.089 44.5481 231.592 44.8079 232.195 45.0425C232.815 45.2772 233.595 45.3945 234.533 45.3945C235.355 45.3945 236.092 45.2688 236.746 45.0174C237.416 44.766 237.978 44.4308 238.43 44.0118C238.899 43.5928 239.251 43.1067 239.486 42.5536C239.737 41.9838 239.863 41.3804 239.863 40.7435C239.863 39.8888 239.603 39.21 239.084 38.7072C238.564 38.2044 237.91 37.7854 237.123 37.4502C236.335 37.115 235.489 36.8049 234.584 36.52C233.679 36.2183 232.832 35.8412 232.044 35.3887C231.257 34.9194 230.603 34.316 230.083 33.5786C229.564 32.8411 229.304 31.8606 229.304 30.6371C229.304 29.5645 229.514 28.5337 229.933 27.5449C230.368 26.5393 230.989 25.651 231.793 24.88C232.598 24.109 233.57 23.4973 234.709 23.0448C235.866 22.5755 237.165 22.3408 238.606 22.3408C240.131 22.3408 241.472 22.6006 242.628 23.1202C243.802 23.623 244.807 24.3102 245.645 25.1817L244.514 26.7907Z"/>
<path d="M264.646 26.7907C264.512 26.9918 264.378 27.1426 264.244 27.2432C264.11 27.327 263.942 27.3689 263.741 27.3689C263.506 27.3689 263.246 27.2767 262.961 27.0924C262.693 26.908 262.358 26.7069 261.956 26.489C261.57 26.2543 261.093 26.0448 260.523 25.8605C259.953 25.6594 259.266 25.5588 258.461 25.5588C257.707 25.5588 257.02 25.6677 256.4 25.8856C255.78 26.0867 255.243 26.3717 254.791 26.7404C254.355 27.1091 254.012 27.5449 253.76 28.0477C253.525 28.5337 253.408 29.0533 253.408 29.6064C253.408 30.3941 253.668 31.0226 254.188 31.4919C254.707 31.9612 255.361 32.3718 256.148 32.7238C256.936 33.059 257.783 33.3858 258.688 33.7043C259.593 34.0227 260.439 34.4249 261.227 34.911C262.015 35.397 262.668 36.0172 263.188 36.7714C263.707 37.5256 263.967 38.506 263.967 39.7128C263.967 40.886 263.732 42.0089 263.263 43.0816C262.811 44.1542 262.149 45.1012 261.277 45.9224C260.422 46.7269 259.383 47.3722 258.16 47.8582C256.953 48.3443 255.595 48.5873 254.087 48.5873C252.461 48.5873 251.02 48.3024 249.763 47.7325C248.523 47.1459 247.509 46.4001 246.721 45.495L247.827 43.7855C247.978 43.5676 248.137 43.4 248.305 43.2827C248.489 43.1654 248.724 43.1067 249.009 43.1067C249.277 43.1067 249.545 43.224 249.813 43.4587C250.081 43.6933 250.416 43.9615 250.819 44.2632C251.221 44.5481 251.724 44.8079 252.327 45.0425C252.947 45.2772 253.727 45.3945 254.665 45.3945C255.486 45.3945 256.224 45.2688 256.878 45.0174C257.548 44.766 258.109 44.4308 258.562 44.0118C259.031 43.5928 259.383 43.1067 259.618 42.5536C259.869 41.9838 259.995 41.3804 259.995 40.7435C259.995 39.8888 259.735 39.21 259.216 38.7072C258.696 38.2044 258.042 37.7854 257.255 37.4502C256.467 37.115 255.621 36.8049 254.715 36.52C253.81 36.2183 252.964 35.8412 252.176 35.3887C251.389 34.9194 250.735 34.316 250.215 33.5786C249.696 32.8411 249.436 31.8606 249.436 30.6371C249.436 29.5645 249.646 28.5337 250.065 27.5449C250.5 26.5393 251.12 25.651 251.925 24.88C252.729 24.109 253.701 23.4973 254.841 23.0448C255.998 22.5755 257.297 22.3408 258.738 22.3408C260.263 22.3408 261.604 22.6006 262.76 23.1202C263.934 23.623 264.939 24.3102 265.777 25.1817L264.646 26.7907Z"/>
</mask>
<path d="M82.3525 44.4643C83.6933 44.4643 84.8665 44.2883 85.8721 43.9364C86.8777 43.5844 87.7073 43.0816 88.361 42.4279C89.0314 41.7743 89.5342 40.9866 89.8694 40.0647C90.2046 39.1429 90.3722 38.1038 90.3722 36.9473C90.3722 35.3551 89.8359 34.0897 88.7632 33.1512C87.7073 32.1958 86.09 31.7182 83.9112 31.7182H76.8467L75.288 44.4643H82.3525ZM78.8077 15.8546L77.2741 28.3997H83.0815C84.4391 28.3997 85.6207 28.2237 86.6263 27.8717C87.6487 27.503 88.4951 27.0002 89.1655 26.3633C89.8526 25.7096 90.3638 24.9303 90.699 24.0252C91.0342 23.1202 91.2018 22.123 91.2018 21.0335C91.2018 19.3072 90.6823 18.0167 89.6431 17.1619C88.604 16.2904 86.995 15.8546 84.8162 15.8546H78.8077ZM85.2436 12.159C87.104 12.159 88.7046 12.3518 90.0454 12.7372C91.403 13.106 92.5175 13.6423 93.389 14.3462C94.2606 15.0334 94.9058 15.8798 95.3249 16.8854C95.7439 17.8742 95.9534 18.9804 95.9534 20.2039C95.9534 21.2598 95.7941 22.2822 95.4757 23.271C95.174 24.2431 94.7131 25.1398 94.093 25.961C93.4896 26.7823 92.7186 27.5114 91.7801 28.1482C90.8583 28.7851 89.7772 29.2963 88.537 29.6818C90.699 30.1679 92.3164 31.0142 93.389 32.221C94.4785 33.4277 95.0232 34.978 95.0232 36.8719C95.0232 38.5312 94.7215 40.0564 94.1181 41.4475C93.5315 42.8218 92.6767 44.0118 91.5538 45.0174C90.4309 46.023 89.0565 46.8023 87.4308 47.3554C85.8218 47.9085 84.0033 48.1851 81.9754 48.1851H70.1343L74.559 12.159H85.2436Z" fill="#878585"/>
<path d="M121.938 22.7179L118.871 48.1851H116.659C115.569 48.1851 115.025 47.6487 115.025 46.5761L115.402 41.9251C114.061 44.104 112.544 45.7548 110.851 46.8778C109.175 47.9839 107.449 48.537 105.672 48.537C104.6 48.537 103.653 48.3275 102.832 47.9085C102.01 47.4728 101.34 46.8442 100.82 46.023C100.318 45.2017 99.974 44.1961 99.7896 43.0062C99.6052 41.8162 99.6136 40.4502 99.8148 38.9083L101.725 22.7179H106.175L104.265 38.9083C104.03 40.9028 104.147 42.386 104.617 43.3581C105.103 44.3302 106.008 44.8163 107.332 44.8163C108.103 44.8163 108.899 44.6068 109.72 44.1878C110.541 43.7687 111.329 43.1738 112.083 42.4028C112.837 41.6318 113.541 40.7016 114.195 39.6122C114.865 38.506 115.435 37.2826 115.905 35.9417L117.488 22.7179H121.938Z" fill="#878585"/>
<path d="M141.94 26.7907C141.806 26.9918 141.672 27.1426 141.537 27.2432C141.403 27.327 141.236 27.3689 141.035 27.3689C140.8 27.3689 140.54 27.2767 140.255 27.0924C139.987 26.908 139.652 26.7069 139.25 26.489C138.864 26.2543 138.387 26.0448 137.817 25.8605C137.247 25.6594 136.56 25.5588 135.755 25.5588C135.001 25.5588 134.314 25.6677 133.694 25.8856C133.074 26.0867 132.537 26.3717 132.085 26.7404C131.649 27.1091 131.305 27.5449 131.054 28.0477C130.819 28.5337 130.702 29.0533 130.702 29.6064C130.702 30.3941 130.962 31.0226 131.481 31.4919C132.001 31.9612 132.655 32.3718 133.442 32.7238C134.23 33.059 135.076 33.3858 135.981 33.7043C136.886 34.0227 137.733 34.4249 138.521 34.911C139.308 35.397 139.962 36.0172 140.482 36.7714C141.001 37.5256 141.261 38.506 141.261 39.7128C141.261 40.886 141.026 42.0089 140.557 43.0816C140.104 44.1542 139.442 45.1012 138.571 45.9224C137.716 46.7269 136.677 47.3722 135.453 47.8582C134.247 48.3443 132.889 48.5873 131.381 48.5873C129.755 48.5873 128.314 48.3024 127.057 47.7325C125.816 47.1459 124.802 46.4001 124.015 45.495L125.121 43.7855C125.272 43.5676 125.431 43.4 125.598 43.2827C125.783 43.1654 126.017 43.1067 126.302 43.1067C126.571 43.1067 126.839 43.224 127.107 43.4587C127.375 43.6933 127.71 43.9615 128.113 44.2632C128.515 44.5481 129.018 44.8079 129.621 45.0425C130.241 45.2772 131.02 45.3945 131.959 45.3945C132.78 45.3945 133.518 45.2688 134.171 45.0174C134.842 44.766 135.403 44.4308 135.856 44.0118C136.325 43.5928 136.677 43.1067 136.912 42.5536C137.163 41.9838 137.289 41.3804 137.289 40.7435C137.289 39.8888 137.029 39.21 136.509 38.7072C135.99 38.2044 135.336 37.7854 134.548 37.4502C133.761 37.115 132.914 36.8049 132.009 36.52C131.104 36.2183 130.258 35.8412 129.47 35.3887C128.682 34.9194 128.029 34.316 127.509 33.5786C126.99 32.8411 126.73 31.8606 126.73 30.6371C126.73 29.5645 126.939 28.5337 127.358 27.5449C127.794 26.5393 128.414 25.651 129.219 24.88C130.023 24.109 130.995 23.4973 132.135 23.0448C133.291 22.5755 134.59 22.3408 136.032 22.3408C137.557 22.3408 138.898 22.6006 140.054 23.1202C141.227 23.623 142.233 24.3102 143.071 25.1817L141.94 26.7907Z" fill="#878585"/>
<path d="M162.072 26.7907C161.937 26.9918 161.803 27.1426 161.669 27.2432C161.535 27.327 161.368 27.3689 161.166 27.3689C160.932 27.3689 160.672 27.2767 160.387 27.0924C160.119 26.908 159.784 26.7069 159.382 26.489C158.996 26.2543 158.518 26.0448 157.949 25.8605C157.379 25.6594 156.692 25.5588 155.887 25.5588C155.133 25.5588 154.446 25.6677 153.826 25.8856C153.205 26.0867 152.669 26.3717 152.217 26.7404C151.781 27.1091 151.437 27.5449 151.186 28.0477C150.951 28.5337 150.834 29.0533 150.834 29.6064C150.834 30.3941 151.094 31.0226 151.613 31.4919C152.133 31.9612 152.786 32.3718 153.574 32.7238C154.362 33.059 155.208 33.3858 156.113 33.7043C157.018 34.0227 157.865 34.4249 158.652 34.911C159.44 35.397 160.094 36.0172 160.613 36.7714C161.133 37.5256 161.393 38.506 161.393 39.7128C161.393 40.886 161.158 42.0089 160.689 43.0816C160.236 44.1542 159.574 45.1012 158.703 45.9224C157.848 46.7269 156.809 47.3722 155.585 47.8582C154.379 48.3443 153.021 48.5873 151.513 48.5873C149.887 48.5873 148.446 48.3024 147.188 47.7325C145.948 47.1459 144.934 46.4001 144.147 45.495L145.253 43.7855C145.404 43.5676 145.563 43.4 145.73 43.2827C145.915 43.1654 146.149 43.1067 146.434 43.1067C146.702 43.1067 146.971 43.224 147.239 43.4587C147.507 43.6933 147.842 43.9615 148.244 44.2632C148.647 44.5481 149.149 44.8079 149.753 45.0425C150.373 45.2772 151.152 45.3945 152.091 45.3945C152.912 45.3945 153.65 45.2688 154.303 45.0174C154.974 44.766 155.535 44.4308 155.988 44.0118C156.457 43.5928 156.809 43.1067 157.043 42.5536C157.295 41.9838 157.421 41.3804 157.421 40.7435C157.421 39.8888 157.161 39.21 156.641 38.7072C156.122 38.2044 155.468 37.7854 154.68 37.4502C153.893 37.115 153.046 36.8049 152.141 36.52C151.236 36.2183 150.39 35.8412 149.602 35.3887C148.814 34.9194 148.161 34.316 147.641 33.5786C147.121 32.8411 146.862 31.8606 146.862 30.6371C146.862 29.5645 147.071 28.5337 147.49 27.5449C147.926 26.5393 148.546 25.651 149.351 24.88C150.155 24.109 151.127 23.4973 152.267 23.0448C153.423 22.5755 154.722 22.3408 156.164 22.3408C157.689 22.3408 159.03 22.6006 160.186 23.1202C161.359 23.623 162.365 24.3102 163.203 25.1817L162.072 26.7907Z" fill="#878585"/>
<path d="M173.505 22.7179L170.438 48.1851H166.038L169.105 22.7179H173.505ZM175.214 14.7233C175.214 15.1591 175.122 15.5697 174.938 15.9552C174.77 16.3239 174.536 16.6591 174.234 16.9608C173.949 17.2457 173.614 17.472 173.228 17.6396C172.86 17.8072 172.474 17.891 172.072 17.891C171.686 17.891 171.309 17.8072 170.941 17.6396C170.572 17.472 170.245 17.2457 169.96 16.9608C169.692 16.6591 169.474 16.3239 169.306 15.9552C169.139 15.5697 169.055 15.1591 169.055 14.7233C169.055 14.2876 169.139 13.8769 169.306 13.4915C169.474 13.106 169.7 12.7708 169.985 12.4858C170.27 12.1842 170.597 11.9495 170.966 11.7819C171.334 11.5976 171.712 11.5054 172.097 11.5054C172.499 11.5054 172.885 11.5892 173.253 11.7568C173.639 11.9244 173.974 12.159 174.259 12.4607C174.544 12.7456 174.77 13.0892 174.938 13.4915C175.122 13.8769 175.214 14.2876 175.214 14.7233Z" fill="#878585"/>
<path d="M183.786 29.1539C185.143 26.908 186.677 25.2152 188.386 24.0755C190.096 22.9191 191.856 22.3408 193.666 22.3408C194.738 22.3408 195.677 22.5587 196.482 22.9945C197.303 23.4135 197.965 24.0336 198.468 24.8549C198.987 25.6761 199.339 26.6901 199.523 27.8968C199.708 29.0868 199.708 30.4444 199.523 31.9696L197.613 48.1851H193.163L195.074 31.9696C195.308 29.9583 195.183 28.4751 194.697 27.5197C194.211 26.5476 193.314 26.0616 192.007 26.0616C191.202 26.0616 190.381 26.2795 189.543 26.7153C188.722 27.151 187.925 27.7711 187.154 28.5756C186.384 29.3801 185.663 30.3522 184.992 31.4919C184.339 32.6148 183.777 33.8719 183.308 35.263L181.85 48.1851H177.375L180.442 22.6928H182.654C183.66 22.6928 184.163 23.1956 184.163 24.2012L183.786 29.1539Z" fill="#878585"/>
<path d="M216.985 25.5839C215.929 25.5839 214.957 25.8018 214.068 26.2376C213.18 26.6734 212.392 27.2767 211.705 28.0477C211.018 28.8019 210.431 29.6986 209.945 30.7377C209.459 31.7601 209.082 32.8662 208.814 34.0562C211.395 33.7378 213.465 33.3774 215.024 32.9752C216.582 32.5562 217.781 32.112 218.619 31.6427C219.457 31.1567 220.01 30.6371 220.278 30.084C220.546 29.531 220.68 28.9527 220.68 28.3494C220.68 28.0477 220.613 27.7376 220.479 27.4192C220.345 27.084 220.127 26.7823 219.825 26.5141C219.541 26.246 219.163 26.0281 218.694 25.8605C218.225 25.6761 217.655 25.5839 216.985 25.5839ZM224.074 43.4838C223.219 44.3721 222.381 45.1347 221.56 45.7716C220.739 46.3917 219.901 46.9113 219.046 47.3303C218.208 47.7493 217.32 48.051 216.381 48.2353C215.459 48.4365 214.462 48.537 213.39 48.537C211.931 48.537 210.624 48.294 209.468 47.808C208.311 47.3219 207.331 46.6347 206.526 45.7465C205.722 44.8414 205.102 43.752 204.666 42.4782C204.23 41.2044 204.012 39.7798 204.012 38.2044C204.012 36.8971 204.146 35.5982 204.414 34.3076C204.699 33.0003 205.102 31.7601 205.621 30.5869C206.158 29.4136 206.803 28.3242 207.557 27.3186C208.328 26.313 209.2 25.4499 210.172 24.7292C211.16 23.9917 212.241 23.4135 213.415 22.9945C214.605 22.5755 215.878 22.366 217.236 22.366C218.527 22.366 219.641 22.5503 220.58 22.9191C221.518 23.2878 222.289 23.7571 222.893 24.3269C223.496 24.8968 223.94 25.5253 224.225 26.2124C224.527 26.8996 224.678 27.5533 224.678 28.1734C224.678 29.2796 224.451 30.3019 223.999 31.2405C223.546 32.1623 222.717 33.0003 221.51 33.7545C220.303 34.492 218.644 35.1372 216.532 35.6903C214.42 36.2434 211.705 36.6876 208.387 37.0228C208.387 37.2071 208.378 37.3915 208.361 37.5759C208.361 37.7435 208.361 37.9194 208.361 38.1038C208.361 40.3497 208.848 42.0676 209.82 43.2576C210.808 44.4308 212.292 45.0174 214.269 45.0174C215.074 45.0174 215.786 44.9336 216.406 44.766C217.043 44.5984 217.605 44.3973 218.091 44.1626C218.594 43.9112 219.029 43.643 219.398 43.3581C219.784 43.0564 220.127 42.7883 220.429 42.5536C220.747 42.3022 221.041 42.0927 221.309 41.9251C221.577 41.7575 221.845 41.6737 222.113 41.6737C222.432 41.6737 222.717 41.8162 222.968 42.1011L224.074 43.4838Z" fill="#878585"/>
<path d="M244.514 26.7907C244.38 26.9918 244.246 27.1426 244.112 27.2432C243.978 27.327 243.81 27.3689 243.609 27.3689C243.374 27.3689 243.115 27.2767 242.83 27.0924C242.561 26.908 242.226 26.7069 241.824 26.489C241.439 26.2543 240.961 26.0448 240.391 25.8605C239.821 25.6594 239.134 25.5588 238.33 25.5588C237.575 25.5588 236.888 25.6677 236.268 25.8856C235.648 26.0867 235.112 26.3717 234.659 26.7404C234.223 27.1091 233.88 27.5449 233.628 28.0477C233.394 28.5337 233.276 29.0533 233.276 29.6064C233.276 30.3941 233.536 31.0226 234.056 31.4919C234.575 31.9612 235.229 32.3718 236.017 32.7238C236.804 33.059 237.651 33.3858 238.556 33.7043C239.461 34.0227 240.307 34.4249 241.095 34.911C241.883 35.397 242.536 36.0172 243.056 36.7714C243.575 37.5256 243.835 38.506 243.835 39.7128C243.835 40.886 243.601 42.0089 243.131 43.0816C242.679 44.1542 242.017 45.1012 241.145 45.9224C240.29 46.7269 239.251 47.3722 238.028 47.8582C236.821 48.3443 235.464 48.5873 233.955 48.5873C232.329 48.5873 230.888 48.3024 229.631 47.7325C228.391 47.1459 227.377 46.4001 226.589 45.495L227.695 43.7855C227.846 43.5676 228.005 43.4 228.173 43.2827C228.357 43.1654 228.592 43.1067 228.877 43.1067C229.145 43.1067 229.413 43.224 229.681 43.4587C229.949 43.6933 230.285 43.9615 230.687 44.2632C231.089 44.5481 231.592 44.8079 232.195 45.0425C232.815 45.2772 233.595 45.3945 234.533 45.3945C235.355 45.3945 236.092 45.2688 236.746 45.0174C237.416 44.766 237.978 44.4308 238.43 44.0118C238.899 43.5928 239.251 43.1067 239.486 42.5536C239.737 41.9838 239.863 41.3804 239.863 40.7435C239.863 39.8888 239.603 39.21 239.084 38.7072C238.564 38.2044 237.91 37.7854 237.123 37.4502C236.335 37.115 235.489 36.8049 234.584 36.52C233.679 36.2183 232.832 35.8412 232.044 35.3887C231.257 34.9194 230.603 34.316 230.083 33.5786C229.564 32.8411 229.304 31.8606 229.304 30.6371C229.304 29.5645 229.514 28.5337 229.933 27.5449C230.368 26.5393 230.989 25.651 231.793 24.88C232.598 24.109 233.57 23.4973 234.709 23.0448C235.866 22.5755 237.165 22.3408 238.606 22.3408C240.131 22.3408 241.472 22.6006 242.628 23.1202C243.802 23.623 244.807 24.3102 245.645 25.1817L244.514 26.7907Z" fill="#878585"/>
<path d="M264.646 26.7907C264.512 26.9918 264.378 27.1426 264.244 27.2432C264.11 27.327 263.942 27.3689 263.741 27.3689C263.506 27.3689 263.246 27.2767 262.961 27.0924C262.693 26.908 262.358 26.7069 261.956 26.489C261.57 26.2543 261.093 26.0448 260.523 25.8605C259.953 25.6594 259.266 25.5588 258.461 25.5588C257.707 25.5588 257.02 25.6677 256.4 25.8856C255.78 26.0867 255.243 26.3717 254.791 26.7404C254.355 27.1091 254.012 27.5449 253.76 28.0477C253.525 28.5337 253.408 29.0533 253.408 29.6064C253.408 30.3941 253.668 31.0226 254.188 31.4919C254.707 31.9612 255.361 32.3718 256.148 32.7238C256.936 33.059 257.783 33.3858 258.688 33.7043C259.593 34.0227 260.439 34.4249 261.227 34.911C262.015 35.397 262.668 36.0172 263.188 36.7714C263.707 37.5256 263.967 38.506 263.967 39.7128C263.967 40.886 263.732 42.0089 263.263 43.0816C262.811 44.1542 262.149 45.1012 261.277 45.9224C260.422 46.7269 259.383 47.3722 258.16 47.8582C256.953 48.3443 255.595 48.5873 254.087 48.5873C252.461 48.5873 251.02 48.3024 249.763 47.7325C248.523 47.1459 247.509 46.4001 246.721 45.495L247.827 43.7855C247.978 43.5676 248.137 43.4 248.305 43.2827C248.489 43.1654 248.724 43.1067 249.009 43.1067C249.277 43.1067 249.545 43.224 249.813 43.4587C250.081 43.6933 250.416 43.9615 250.819 44.2632C251.221 44.5481 251.724 44.8079 252.327 45.0425C252.947 45.2772 253.727 45.3945 254.665 45.3945C255.486 45.3945 256.224 45.2688 256.878 45.0174C257.548 44.766 258.109 44.4308 258.562 44.0118C259.031 43.5928 259.383 43.1067 259.618 42.5536C259.869 41.9838 259.995 41.3804 259.995 40.7435C259.995 39.8888 259.735 39.21 259.216 38.7072C258.696 38.2044 258.042 37.7854 257.255 37.4502C256.467 37.115 255.621 36.8049 254.715 36.52C253.81 36.2183 252.964 35.8412 252.176 35.3887C251.389 34.9194 250.735 34.316 250.215 33.5786C249.696 32.8411 249.436 31.8606 249.436 30.6371C249.436 29.5645 249.646 28.5337 250.065 27.5449C250.5 26.5393 251.12 25.651 251.925 24.88C252.729 24.109 253.701 23.4973 254.841 23.0448C255.998 22.5755 257.297 22.3408 258.738 22.3408C260.263 22.3408 261.604 22.6006 262.76 23.1202C263.934 23.623 264.939 24.3102 265.777 25.1817L264.646 26.7907Z" fill="#878585"/>
<path d="M82.3525 44.4643C83.6933 44.4643 84.8665 44.2883 85.8721 43.9364C86.8777 43.5844 87.7073 43.0816 88.361 42.4279C89.0314 41.7743 89.5342 40.9866 89.8694 40.0647C90.2046 39.1429 90.3722 38.1038 90.3722 36.9473C90.3722 35.3551 89.8359 34.0897 88.7632 33.1512C87.7073 32.1958 86.09 31.7182 83.9112 31.7182H76.8467L75.288 44.4643H82.3525ZM78.8077 15.8546L77.2741 28.3997H83.0815C84.4391 28.3997 85.6207 28.2237 86.6263 27.8717C87.6487 27.503 88.4951 27.0002 89.1655 26.3633C89.8526 25.7096 90.3638 24.9303 90.699 24.0252C91.0342 23.1202 91.2018 22.123 91.2018 21.0335C91.2018 19.3072 90.6823 18.0167 89.6431 17.1619C88.604 16.2904 86.995 15.8546 84.8162 15.8546H78.8077ZM85.2436 12.159C87.104 12.159 88.7046 12.3518 90.0454 12.7372C91.403 13.106 92.5175 13.6423 93.389 14.3462C94.2606 15.0334 94.9058 15.8798 95.3249 16.8854C95.7439 17.8742 95.9534 18.9804 95.9534 20.2039C95.9534 21.2598 95.7941 22.2822 95.4757 23.271C95.174 24.2431 94.7131 25.1398 94.093 25.961C93.4896 26.7823 92.7186 27.5114 91.7801 28.1482C90.8583 28.7851 89.7772 29.2963 88.537 29.6818C90.699 30.1679 92.3164 31.0142 93.389 32.221C94.4785 33.4277 95.0232 34.978 95.0232 36.8719C95.0232 38.5312 94.7215 40.0564 94.1181 41.4475C93.5315 42.8218 92.6767 44.0118 91.5538 45.0174C90.4309 46.023 89.0565 46.8023 87.4308 47.3554C85.8218 47.9085 84.0033 48.1851 81.9754 48.1851H70.1343L74.559 12.159H85.2436Z" stroke="#878585" stroke-width="2" mask="url(#path-15-outside-1)"/>
<path d="M121.938 22.7179L118.871 48.1851H116.659C115.569 48.1851 115.025 47.6487 115.025 46.5761L115.402 41.9251C114.061 44.104 112.544 45.7548 110.851 46.8778C109.175 47.9839 107.449 48.537 105.672 48.537C104.6 48.537 103.653 48.3275 102.832 47.9085C102.01 47.4728 101.34 46.8442 100.82 46.023C100.318 45.2017 99.974 44.1961 99.7896 43.0062C99.6052 41.8162 99.6136 40.4502 99.8148 38.9083L101.725 22.7179H106.175L104.265 38.9083C104.03 40.9028 104.147 42.386 104.617 43.3581C105.103 44.3302 106.008 44.8163 107.332 44.8163C108.103 44.8163 108.899 44.6068 109.72 44.1878C110.541 43.7687 111.329 43.1738 112.083 42.4028C112.837 41.6318 113.541 40.7016 114.195 39.6122C114.865 38.506 115.435 37.2826 115.905 35.9417L117.488 22.7179H121.938Z" stroke="#878585" stroke-width="2" mask="url(#path-15-outside-1)"/>
<path d="M141.94 26.7907C141.806 26.9918 141.672 27.1426 141.537 27.2432C141.403 27.327 141.236 27.3689 141.035 27.3689C140.8 27.3689 140.54 27.2767 140.255 27.0924C139.987 26.908 139.652 26.7069 139.25 26.489C138.864 26.2543 138.387 26.0448 137.817 25.8605C137.247 25.6594 136.56 25.5588 135.755 25.5588C135.001 25.5588 134.314 25.6677 133.694 25.8856C133.074 26.0867 132.537 26.3717 132.085 26.7404C131.649 27.1091 131.305 27.5449 131.054 28.0477C130.819 28.5337 130.702 29.0533 130.702 29.6064C130.702 30.3941 130.962 31.0226 131.481 31.4919C132.001 31.9612 132.655 32.3718 133.442 32.7238C134.23 33.059 135.076 33.3858 135.981 33.7043C136.886 34.0227 137.733 34.4249 138.521 34.911C139.308 35.397 139.962 36.0172 140.482 36.7714C141.001 37.5256 141.261 38.506 141.261 39.7128C141.261 40.886 141.026 42.0089 140.557 43.0816C140.104 44.1542 139.442 45.1012 138.571 45.9224C137.716 46.7269 136.677 47.3722 135.453 47.8582C134.247 48.3443 132.889 48.5873 131.381 48.5873C129.755 48.5873 128.314 48.3024 127.057 47.7325C125.816 47.1459 124.802 46.4001 124.015 45.495L125.121 43.7855C125.272 43.5676 125.431 43.4 125.598 43.2827C125.783 43.1654 126.017 43.1067 126.302 43.1067C126.571 43.1067 126.839 43.224 127.107 43.4587C127.375 43.6933 127.71 43.9615 128.113 44.2632C128.515 44.5481 129.018 44.8079 129.621 45.0425C130.241 45.2772 131.02 45.3945 131.959 45.3945C132.78 45.3945 133.518 45.2688 134.171 45.0174C134.842 44.766 135.403 44.4308 135.856 44.0118C136.325 43.5928 136.677 43.1067 136.912 42.5536C137.163 41.9838 137.289 41.3804 137.289 40.7435C137.289 39.8888 137.029 39.21 136.509 38.7072C135.99 38.2044 135.336 37.7854 134.548 37.4502C133.761 37.115 132.914 36.8049 132.009 36.52C131.104 36.2183 130.258 35.8412 129.47 35.3887C128.682 34.9194 128.029 34.316 127.509 33.5786C126.99 32.8411 126.73 31.8606 126.73 30.6371C126.73 29.5645 126.939 28.5337 127.358 27.5449C127.794 26.5393 128.414 25.651 129.219 24.88C130.023 24.109 130.995 23.4973 132.135 23.0448C133.291 22.5755 134.59 22.3408 136.032 22.3408C137.557 22.3408 138.898 22.6006 140.054 23.1202C141.227 23.623 142.233 24.3102 143.071 25.1817L141.94 26.7907Z" stroke="#878585" stroke-width="2" mask="url(#path-15-outside-1)"/>
<path d="M162.072 26.7907C161.937 26.9918 161.803 27.1426 161.669 27.2432C161.535 27.327 161.368 27.3689 161.166 27.3689C160.932 27.3689 160.672 27.2767 160.387 27.0924C160.119 26.908 159.784 26.7069 159.382 26.489C158.996 26.2543 158.518 26.0448 157.949 25.8605C157.379 25.6594 156.692 25.5588 155.887 25.5588C155.133 25.5588 154.446 25.6677 153.826 25.8856C153.205 26.0867 152.669 26.3717 152.217 26.7404C151.781 27.1091 151.437 27.5449 151.186 28.0477C150.951 28.5337 150.834 29.0533 150.834 29.6064C150.834 30.3941 151.094 31.0226 151.613 31.4919C152.133 31.9612 152.786 32.3718 153.574 32.7238C154.362 33.059 155.208 33.3858 156.113 33.7043C157.018 34.0227 157.865 34.4249 158.652 34.911C159.44 35.397 160.094 36.0172 160.613 36.7714C161.133 37.5256 161.393 38.506 161.393 39.7128C161.393 40.886 161.158 42.0089 160.689 43.0816C160.236 44.1542 159.574 45.1012 158.703 45.9224C157.848 46.7269 156.809 47.3722 155.585 47.8582C154.379 48.3443 153.021 48.5873 151.513 48.5873C149.887 48.5873 148.446 48.3024 147.188 47.7325C145.948 47.1459 144.934 46.4001 144.147 45.495L145.253 43.7855C145.404 43.5676 145.563 43.4 145.73 43.2827C145.915 43.1654 146.149 43.1067 146.434 43.1067C146.702 43.1067 146.971 43.224 147.239 43.4587C147.507 43.6933 147.842 43.9615 148.244 44.2632C148.647 44.5481 149.149 44.8079 149.753 45.0425C150.373 45.2772 151.152 45.3945 152.091 45.3945C152.912 45.3945 153.65 45.2688 154.303 45.0174C154.974 44.766 155.535 44.4308 155.988 44.0118C156.457 43.5928 156.809 43.1067 157.043 42.5536C157.295 41.9838 157.421 41.3804 157.421 40.7435C157.421 39.8888 157.161 39.21 156.641 38.7072C156.122 38.2044 155.468 37.7854 154.68 37.4502C153.893 37.115 153.046 36.8049 152.141 36.52C151.236 36.2183 150.39 35.8412 149.602 35.3887C148.814 34.9194 148.161 34.316 147.641 33.5786C147.121 32.8411 146.862 31.8606 146.862 30.6371C146.862 29.5645 147.071 28.5337 147.49 27.5449C147.926 26.5393 148.546 25.651 149.351 24.88C150.155 24.109 151.127 23.4973 152.267 23.0448C153.423 22.5755 154.722 22.3408 156.164 22.3408C157.689 22.3408 159.03 22.6006 160.186 23.1202C161.359 23.623 162.365 24.3102 163.203 25.1817L162.072 26.7907Z" stroke="#878585" stroke-width="2" mask="url(#path-15-outside-1)"/>
<path d="M173.505 22.7179L170.438 48.1851H166.038L169.105 22.7179H173.505ZM175.214 14.7233C175.214 15.1591 175.122 15.5697 174.938 15.9552C174.77 16.3239 174.536 16.6591 174.234 16.9608C173.949 17.2457 173.614 17.472 173.228 17.6396C172.86 17.8072 172.474 17.891 172.072 17.891C171.686 17.891 171.309 17.8072 170.941 17.6396C170.572 17.472 170.245 17.2457 169.96 16.9608C169.692 16.6591 169.474 16.3239 169.306 15.9552C169.139 15.5697 169.055 15.1591 169.055 14.7233C169.055 14.2876 169.139 13.8769 169.306 13.4915C169.474 13.106 169.7 12.7708 169.985 12.4858C170.27 12.1842 170.597 11.9495 170.966 11.7819C171.334 11.5976 171.712 11.5054 172.097 11.5054C172.499 11.5054 172.885 11.5892 173.253 11.7568C173.639 11.9244 173.974 12.159 174.259 12.4607C174.544 12.7456 174.77 13.0892 174.938 13.4915C175.122 13.8769 175.214 14.2876 175.214 14.7233Z" stroke="#878585" stroke-width="2" mask="url(#path-15-outside-1)"/>
<path d="M183.786 29.1539C185.143 26.908 186.677 25.2152 188.386 24.0755C190.096 22.9191 191.856 22.3408 193.666 22.3408C194.738 22.3408 195.677 22.5587 196.482 22.9945C197.303 23.4135 197.965 24.0336 198.468 24.8549C198.987 25.6761 199.339 26.6901 199.523 27.8968C199.708 29.0868 199.708 30.4444 199.523 31.9696L197.613 48.1851H193.163L195.074 31.9696C195.308 29.9583 195.183 28.4751 194.697 27.5197C194.211 26.5476 193.314 26.0616 192.007 26.0616C191.202 26.0616 190.381 26.2795 189.543 26.7153C188.722 27.151 187.925 27.7711 187.154 28.5756C186.384 29.3801 185.663 30.3522 184.992 31.4919C184.339 32.6148 183.777 33.8719 183.308 35.263L181.85 48.1851H177.375L180.442 22.6928H182.654C183.66 22.6928 184.163 23.1956 184.163 24.2012L183.786 29.1539Z" stroke="#878585" stroke-width="2" mask="url(#path-15-outside-1)"/>
<path d="M216.985 25.5839C215.929 25.5839 214.957 25.8018 214.068 26.2376C213.18 26.6734 212.392 27.2767 211.705 28.0477C211.018 28.8019 210.431 29.6986 209.945 30.7377C209.459 31.7601 209.082 32.8662 208.814 34.0562C211.395 33.7378 213.465 33.3774 215.024 32.9752C216.582 32.5562 217.781 32.112 218.619 31.6427C219.457 31.1567 220.01 30.6371 220.278 30.084C220.546 29.531 220.68 28.9527 220.68 28.3494C220.68 28.0477 220.613 27.7376 220.479 27.4192C220.345 27.084 220.127 26.7823 219.825 26.5141C219.541 26.246 219.163 26.0281 218.694 25.8605C218.225 25.6761 217.655 25.5839 216.985 25.5839ZM224.074 43.4838C223.219 44.3721 222.381 45.1347 221.56 45.7716C220.739 46.3917 219.901 46.9113 219.046 47.3303C218.208 47.7493 217.32 48.051 216.381 48.2353C215.459 48.4365 214.462 48.537 213.39 48.537C211.931 48.537 210.624 48.294 209.468 47.808C208.311 47.3219 207.331 46.6347 206.526 45.7465C205.722 44.8414 205.102 43.752 204.666 42.4782C204.23 41.2044 204.012 39.7798 204.012 38.2044C204.012 36.8971 204.146 35.5982 204.414 34.3076C204.699 33.0003 205.102 31.7601 205.621 30.5869C206.158 29.4136 206.803 28.3242 207.557 27.3186C208.328 26.313 209.2 25.4499 210.172 24.7292C211.16 23.9917 212.241 23.4135 213.415 22.9945C214.605 22.5755 215.878 22.366 217.236 22.366C218.527 22.366 219.641 22.5503 220.58 22.9191C221.518 23.2878 222.289 23.7571 222.893 24.3269C223.496 24.8968 223.94 25.5253 224.225 26.2124C224.527 26.8996 224.678 27.5533 224.678 28.1734C224.678 29.2796 224.451 30.3019 223.999 31.2405C223.546 32.1623 222.717 33.0003 221.51 33.7545C220.303 34.492 218.644 35.1372 216.532 35.6903C214.42 36.2434 211.705 36.6876 208.387 37.0228C208.387 37.2071 208.378 37.3915 208.361 37.5759C208.361 37.7435 208.361 37.9194 208.361 38.1038C208.361 40.3497 208.848 42.0676 209.82 43.2576C210.808 44.4308 212.292 45.0174 214.269 45.0174C215.074 45.0174 215.786 44.9336 216.406 44.766C217.043 44.5984 217.605 44.3973 218.091 44.1626C218.594 43.9112 219.029 43.643 219.398 43.3581C219.784 43.0564 220.127 42.7883 220.429 42.5536C220.747 42.3022 221.041 42.0927 221.309 41.9251C221.577 41.7575 221.845 41.6737 222.113 41.6737C222.432 41.6737 222.717 41.8162 222.968 42.1011L224.074 43.4838Z" stroke="#878585" stroke-width="2" mask="url(#path-15-outside-1)"/>
<path d="M244.514 26.7907C244.38 26.9918 244.246 27.1426 244.112 27.2432C243.978 27.327 243.81 27.3689 243.609 27.3689C243.374 27.3689 243.115 27.2767 242.83 27.0924C242.561 26.908 242.226 26.7069 241.824 26.489C241.439 26.2543 240.961 26.0448 240.391 25.8605C239.821 25.6594 239.134 25.5588 238.33 25.5588C237.575 25.5588 236.888 25.6677 236.268 25.8856C235.648 26.0867 235.112 26.3717 234.659 26.7404C234.223 27.1091 233.88 27.5449 233.628 28.0477C233.394 28.5337 233.276 29.0533 233.276 29.6064C233.276 30.3941 233.536 31.0226 234.056 31.4919C234.575 31.9612 235.229 32.3718 236.017 32.7238C236.804 33.059 237.651 33.3858 238.556 33.7043C239.461 34.0227 240.307 34.4249 241.095 34.911C241.883 35.397 242.536 36.0172 243.056 36.7714C243.575 37.5256 243.835 38.506 243.835 39.7128C243.835 40.886 243.601 42.0089 243.131 43.0816C242.679 44.1542 242.017 45.1012 241.145 45.9224C240.29 46.7269 239.251 47.3722 238.028 47.8582C236.821 48.3443 235.464 48.5873 233.955 48.5873C232.329 48.5873 230.888 48.3024 229.631 47.7325C228.391 47.1459 227.377 46.4001 226.589 45.495L227.695 43.7855C227.846 43.5676 228.005 43.4 228.173 43.2827C228.357 43.1654 228.592 43.1067 228.877 43.1067C229.145 43.1067 229.413 43.224 229.681 43.4587C229.949 43.6933 230.285 43.9615 230.687 44.2632C231.089 44.5481 231.592 44.8079 232.195 45.0425C232.815 45.2772 233.595 45.3945 234.533 45.3945C235.355 45.3945 236.092 45.2688 236.746 45.0174C237.416 44.766 237.978 44.4308 238.43 44.0118C238.899 43.5928 239.251 43.1067 239.486 42.5536C239.737 41.9838 239.863 41.3804 239.863 40.7435C239.863 39.8888 239.603 39.21 239.084 38.7072C238.564 38.2044 237.91 37.7854 237.123 37.4502C236.335 37.115 235.489 36.8049 234.584 36.52C233.679 36.2183 232.832 35.8412 232.044 35.3887C231.257 34.9194 230.603 34.316 230.083 33.5786C229.564 32.8411 229.304 31.8606 229.304 30.6371C229.304 29.5645 229.514 28.5337 229.933 27.5449C230.368 26.5393 230.989 25.651 231.793 24.88C232.598 24.109 233.57 23.4973 234.709 23.0448C235.866 22.5755 237.165 22.3408 238.606 22.3408C240.131 22.3408 241.472 22.6006 242.628 23.1202C243.802 23.623 244.807 24.3102 245.645 25.1817L244.514 26.7907Z" stroke="#878585" stroke-width="2" mask="url(#path-15-outside-1)"/>
<path d="M264.646 26.7907C264.512 26.9918 264.378 27.1426 264.244 27.2432C264.11 27.327 263.942 27.3689 263.741 27.3689C263.506 27.3689 263.246 27.2767 262.961 27.0924C262.693 26.908 262.358 26.7069 261.956 26.489C261.57 26.2543 261.093 26.0448 260.523 25.8605C259.953 25.6594 259.266 25.5588 258.461 25.5588C257.707 25.5588 257.02 25.6677 256.4 25.8856C255.78 26.0867 255.243 26.3717 254.791 26.7404C254.355 27.1091 254.012 27.5449 253.76 28.0477C253.525 28.5337 253.408 29.0533 253.408 29.6064C253.408 30.3941 253.668 31.0226 254.188 31.4919C254.707 31.9612 255.361 32.3718 256.148 32.7238C256.936 33.059 257.783 33.3858 258.688 33.7043C259.593 34.0227 260.439 34.4249 261.227 34.911C262.015 35.397 262.668 36.0172 263.188 36.7714C263.707 37.5256 263.967 38.506 263.967 39.7128C263.967 40.886 263.732 42.0089 263.263 43.0816C262.811 44.1542 262.149 45.1012 261.277 45.9224C260.422 46.7269 259.383 47.3722 258.16 47.8582C256.953 48.3443 255.595 48.5873 254.087 48.5873C252.461 48.5873 251.02 48.3024 249.763 47.7325C248.523 47.1459 247.509 46.4001 246.721 45.495L247.827 43.7855C247.978 43.5676 248.137 43.4 248.305 43.2827C248.489 43.1654 248.724 43.1067 249.009 43.1067C249.277 43.1067 249.545 43.224 249.813 43.4587C250.081 43.6933 250.416 43.9615 250.819 44.2632C251.221 44.5481 251.724 44.8079 252.327 45.0425C252.947 45.2772 253.727 45.3945 254.665 45.3945C255.486 45.3945 256.224 45.2688 256.878 45.0174C257.548 44.766 258.109 44.4308 258.562 44.0118C259.031 43.5928 259.383 43.1067 259.618 42.5536C259.869 41.9838 259.995 41.3804 259.995 40.7435C259.995 39.8888 259.735 39.21 259.216 38.7072C258.696 38.2044 258.042 37.7854 257.255 37.4502C256.467 37.115 255.621 36.8049 254.715 36.52C253.81 36.2183 252.964 35.8412 252.176 35.3887C251.389 34.9194 250.735 34.316 250.215 33.5786C249.696 32.8411 249.436 31.8606 249.436 30.6371C249.436 29.5645 249.646 28.5337 250.065 27.5449C250.5 26.5393 251.12 25.651 251.925 24.88C252.729 24.109 253.701 23.4973 254.841 23.0448C255.998 22.5755 257.297 22.3408 258.738 22.3408C260.263 22.3408 261.604 22.6006 262.76 23.1202C263.934 23.623 264.939 24.3102 265.777 25.1817L264.646 26.7907Z" stroke="#878585" stroke-width="2" mask="url(#path-15-outside-1)"/>
<defs>
<clipPath id="clip0">
<rect width="56" height="56" fill="white"/>
</clipPath>
</defs>
</svg>
