<svg width="327" height="56" viewBox="0 0 327 56" fill="none" xmlns="http://www.w3.org/2000/svg">
<path d="M55.6711 17.1709C55.3612 16.7583 54.8753 16.5156 54.3594 16.5156H42.6281C41.8447 11.866 37.7908 8.3125 32.9219 8.3125C28.0529 8.3125 23.9991 11.866 23.2156 16.5156H13.018L10.8743 1.41017C10.7595 0.601234 10.0671 0 9.24995 0H1.64062C0.734562 0 0 0.734562 0 1.64062C0 2.54669 0.734562 3.28125 1.64062 3.28125H7.82578L9.96942 18.3864V18.3865V18.3868L12.446 35.832C12.7147 37.7129 13.6294 39.439 15.027 40.7193C13.9328 41.6228 13.2344 42.9892 13.2344 44.5156C13.2344 46.7822 14.7749 48.6947 16.8635 49.264C16.64 49.8259 16.5156 50.4376 16.5156 51.0781C16.5156 53.792 18.7236 56 21.4375 56C24.1514 56 26.3594 53.792 26.3594 51.0781C26.3594 50.503 26.2593 49.951 26.0772 49.4375H39.7666C39.5844 49.951 39.4844 50.503 39.4844 51.0781C39.4844 53.792 41.6923 56 44.4062 56C47.1202 56 49.3281 53.792 49.3281 51.0781C49.3281 48.3642 47.1202 46.1562 44.4062 46.1562H18.1562C17.2516 46.1562 16.5156 45.4203 16.5156 44.5156C16.5156 43.611 17.2516 42.875 18.1562 42.875H42.7374C46.3806 42.875 49.624 40.4285 50.6231 36.9317L55.9351 18.6132C56.0787 18.1176 55.981 17.5833 55.6711 17.1709Z" fill="url(#paint0_linear)"/>
<path d="M32.9219 6.67188C26.5894 6.67188 21.4375 11.8238 21.4375 18.1562C21.4375 24.4887 26.5894 29.6406 32.9219 29.6406C39.2544 29.6406 44.4062 24.4887 44.4062 18.1562C44.4062 11.8238 39.2544 6.67188 32.9219 6.67188ZM34.5625 21.4375C34.5625 22.3436 33.8279 23.0781 32.9219 23.0781C32.0158 23.0781 31.2812 22.3436 31.2812 21.4375V17.9365C30.5383 18.3665 29.5788 18.1501 29.0958 17.4256C28.5932 16.6717 28.797 15.6531 29.5509 15.1505L32.0119 13.5099C32.5153 13.1743 33.1626 13.1429 33.696 13.4285C34.2295 13.714 34.5625 14.2699 34.5625 14.875V21.4375Z" fill="url(#paint1_linear)"/>
<path d="M73.947 19.0894V28.0596H84.3617V32.1489H73.947V41.5149H85.6636V45.6043H69V15H85.6636V19.0894H73.947Z" fill="#878585"/>
<path d="M90.1078 33.4681C90.1078 30.9764 90.5996 28.7924 91.5832 26.9163C92.5957 25.0109 93.9844 23.5452 95.7491 22.5191C97.5138 21.4931 99.5389 20.9801 101.824 20.9801C104.717 20.9801 107.104 21.6837 108.984 23.0908C110.894 24.4686 112.181 26.4473 112.847 29.027H107.509C107.075 27.8251 106.381 26.887 105.426 26.2128C104.471 25.5385 103.271 25.2014 101.824 25.2014C99.7993 25.2014 98.1792 25.9343 96.9641 27.4C95.778 28.8364 95.185 30.8591 95.185 33.4681C95.185 36.0771 95.778 38.1144 96.9641 39.5801C98.1792 41.0459 99.7993 41.7787 101.824 41.7787C104.688 41.7787 106.583 40.5035 107.509 37.9532H112.847C112.152 40.4156 110.85 42.3797 108.941 43.8454C107.032 45.2818 104.659 46 101.824 46C99.5389 46 97.5138 45.487 95.7491 44.461C93.9844 43.4057 92.5957 41.94 91.5832 40.0638C90.5996 38.1584 90.1078 35.9598 90.1078 33.4681Z" fill="#878585"/>
<path d="M128.148 46C125.891 46 123.852 45.487 122.029 44.461C120.207 43.4057 118.775 41.94 117.733 40.0638C116.692 38.1584 116.171 35.9598 116.171 33.4681C116.171 31.0057 116.706 28.8218 117.777 26.9163C118.847 25.0109 120.308 23.5452 122.159 22.5191C124.011 21.4931 126.079 20.9801 128.365 20.9801C130.65 20.9801 132.719 21.4931 134.57 22.5191C136.422 23.5452 137.883 25.0109 138.953 26.9163C140.024 28.8218 140.559 31.0057 140.559 33.4681C140.559 35.9305 140.009 38.1144 138.91 40.0199C137.811 41.9253 136.306 43.4057 134.397 44.461C132.516 45.487 130.433 46 128.148 46ZM128.148 41.6468C129.421 41.6468 130.607 41.339 131.706 40.7234C132.835 40.1078 133.746 39.1844 134.44 37.9532C135.134 36.722 135.482 35.227 135.482 33.4681C135.482 31.7092 135.149 30.2288 134.484 29.027C133.818 27.7957 132.936 26.8723 131.837 26.2567C130.737 25.6411 129.551 25.3333 128.278 25.3333C127.005 25.3333 125.819 25.6411 124.72 26.2567C123.649 26.8723 122.796 27.7957 122.159 29.027C121.523 30.2288 121.205 31.7092 121.205 33.4681C121.205 36.0771 121.856 38.0998 123.158 39.5362C124.488 40.9433 126.152 41.6468 128.148 41.6468Z" fill="#878585"/>
<path d="M174.393 20.9801C176.274 20.9801 177.952 21.3759 179.427 22.1674C180.932 22.9589 182.103 24.1314 182.942 25.6851C183.81 27.2388 184.244 29.1149 184.244 31.3135V45.6043H179.34V32.061C179.34 29.8917 178.805 28.2355 177.735 27.0922C176.664 25.9196 175.203 25.3333 173.352 25.3333C171.5 25.3333 170.025 25.9196 168.926 27.0922C167.855 28.2355 167.32 29.8917 167.32 32.061V45.6043H162.417V32.061C162.417 29.8917 161.881 28.2355 160.811 27.0922C159.741 25.9196 158.28 25.3333 156.428 25.3333C154.577 25.3333 153.101 25.9196 152.002 27.0922C150.931 28.2355 150.396 29.8917 150.396 32.061V45.6043H145.449V21.3759H150.396V24.1461C151.206 23.1494 152.233 22.3726 153.477 21.8156C154.721 21.2586 156.052 20.9801 157.47 20.9801C159.379 20.9801 161.086 21.3905 162.59 22.2113C164.094 23.0322 165.252 24.2194 166.062 25.7731C166.785 24.3073 167.913 23.1494 169.446 22.2993C170.98 21.4199 172.629 20.9801 174.393 20.9801Z" fill="#878585"/>
<path d="M219.483 20.9801C221.364 20.9801 223.042 21.3759 224.517 22.1674C226.021 22.9589 227.193 24.1314 228.032 25.6851C228.9 27.2388 229.334 29.1149 229.334 31.3135V45.6043H224.43V32.061C224.43 29.8917 223.895 28.2355 222.825 27.0922C221.754 25.9196 220.293 25.3333 218.442 25.3333C216.59 25.3333 215.115 25.9196 214.016 27.0922C212.945 28.2355 212.41 29.8917 212.41 32.061V45.6043H207.506V32.061C207.506 29.8917 206.971 28.2355 205.901 27.0922C204.83 25.9196 203.369 25.3333 201.518 25.3333C199.666 25.3333 198.191 25.9196 197.092 27.0922C196.021 28.2355 195.486 29.8917 195.486 32.061V45.6043H190.539V21.3759H195.486V24.1461C196.296 23.1494 197.323 22.3726 198.567 21.8156C199.811 21.2586 201.142 20.9801 202.559 20.9801C204.469 20.9801 206.176 21.3905 207.68 22.2113C209.184 23.0322 210.341 24.2194 211.151 25.7731C211.875 24.3073 213.003 23.1494 214.536 22.2993C216.07 21.4199 217.719 20.9801 219.483 20.9801Z" fill="#878585"/>
<path d="M257.543 32.8965C257.543 33.8052 257.485 34.626 257.37 35.3589H239.1C239.245 37.2936 239.954 38.8473 241.227 40.0199C242.5 41.1924 244.062 41.7787 245.913 41.7787C248.575 41.7787 250.455 40.6501 251.555 38.3929H256.892C256.169 40.6208 254.853 42.453 252.943 43.8894C251.063 45.2965 248.719 46 245.913 46C243.628 46 241.574 45.487 239.751 44.461C237.958 43.4057 236.54 41.94 235.499 40.0638C234.486 38.1584 233.98 35.9598 233.98 33.4681C233.98 30.9764 234.472 28.7924 235.455 26.9163C236.468 25.0109 237.871 23.5452 239.664 22.5191C241.487 21.4931 243.57 20.9801 245.913 20.9801C248.17 20.9801 250.18 21.4785 251.945 22.4752C253.71 23.4719 255.084 24.879 256.068 26.6965C257.051 28.4846 257.543 30.5513 257.543 32.8965ZM252.379 31.3135C252.35 29.4667 251.699 27.9863 250.426 26.8723C249.153 25.7584 247.577 25.2014 245.696 25.2014C243.99 25.2014 242.529 25.7584 241.313 26.8723C240.098 27.957 239.375 29.4374 239.144 31.3135H252.379Z" fill="#878585"/>
<path d="M267.358 24.8936C268.082 23.6624 269.036 22.7097 270.222 22.0355C271.438 21.3319 272.87 20.9801 274.519 20.9801V26.1688H273.26C271.322 26.1688 269.846 26.6671 268.834 27.6638C267.85 28.6605 267.358 30.3901 267.358 32.8525V45.6043H262.411V21.3759H267.358V24.8936Z" fill="#878585"/>
<path d="M277.417 33.4681C277.417 30.9764 277.909 28.7924 278.892 26.9163C279.905 25.0109 281.293 23.5452 283.058 22.5191C284.823 21.4931 286.848 20.9801 289.133 20.9801C292.026 20.9801 294.413 21.6837 296.294 23.0908C298.203 24.4686 299.49 26.4473 300.156 29.027H294.818C294.384 27.8251 293.69 26.887 292.735 26.2128C291.78 25.5385 290.58 25.2014 289.133 25.2014C287.108 25.2014 285.488 25.9343 284.273 27.4C283.087 28.8364 282.494 30.8591 282.494 33.4681C282.494 36.0771 283.087 38.1144 284.273 39.5801C285.488 41.0459 287.108 41.7787 289.133 41.7787C291.997 41.7787 293.892 40.5035 294.818 37.9532H300.156C299.461 40.4156 298.16 42.3797 296.25 43.8454C294.341 45.2818 291.969 46 289.133 46C286.848 46 284.823 45.487 283.058 44.461C281.293 43.4057 279.905 41.94 278.892 40.0638C277.909 38.1584 277.417 35.9598 277.417 33.4681Z" fill="#878585"/>
<path d="M327 32.8965C327 33.8052 326.942 34.626 326.826 35.3589H308.557C308.702 37.2936 309.411 38.8473 310.684 40.0199C311.957 41.1924 313.519 41.7787 315.37 41.7787C318.032 41.7787 319.912 40.6501 321.012 38.3929H326.349C325.626 40.6208 324.31 42.453 322.4 43.8894C320.52 45.2965 318.176 46 315.37 46C313.085 46 311.031 45.487 309.208 44.461C307.415 43.4057 305.997 41.94 304.956 40.0638C303.943 38.1584 303.437 35.9598 303.437 33.4681C303.437 30.9764 303.929 28.7924 304.912 26.9163C305.925 25.0109 307.328 23.5452 309.121 22.5191C310.944 21.4931 313.027 20.9801 315.37 20.9801C317.627 20.9801 319.637 21.4785 321.402 22.4752C323.167 23.4719 324.541 24.879 325.525 26.6965C326.508 28.4846 327 30.5513 327 32.8965ZM321.836 31.3135C321.807 29.4667 321.156 27.9863 319.883 26.8723C318.61 25.7584 317.034 25.2014 315.153 25.2014C313.446 25.2014 311.985 25.7584 310.77 26.8723C309.555 27.957 308.832 29.4374 308.601 31.3135H321.836Z" fill="#878585"/>
<defs>
<linearGradient id="paint0_linear" x1="28" y1="56" x2="28" y2="0" gradientUnits="userSpaceOnUse">
<stop stop-color="#43A800"/>
<stop offset="1" stop-color="#1FD23C"/>
</linearGradient>
<linearGradient id="paint1_linear" x1="32.9219" y1="29.6406" x2="32.9219" y2="6.67188" gradientUnits="userSpaceOnUse">
<stop stop-color="#4FFF8B"/>
<stop offset="1" stop-color="#68FDA3"/>
</linearGradient>
</defs>
</svg>


