<svg width="143" height="63" viewBox="0 0 143 63" fill="none" xmlns="http://www.w3.org/2000/svg">
<path d="M18.5004 10.6049V8.55168H24.766V31.1586L18.5004 31.0316V22.2682C17.7384 22.748 16.8423 23.1008 15.8121 23.3266C14.782 23.5383 13.6389 23.6441 12.383 23.6441C8.1495 23.6441 5.02376 22.6493 3.00579 20.6595C1.00193 18.6556 0 15.2195 0 10.3509V0H6.26559V9.88524C6.26559 12.4253 6.44904 14.2246 6.81594 15.283C7.19696 16.3272 7.81787 17.1245 8.67869 17.6749C9.55361 18.2252 10.7884 18.5004 12.383 18.5004C13.9212 18.5004 15.1277 18.2394 16.0027 17.7172C16.8776 17.1951 17.5126 16.4331 17.9077 15.4311C18.3029 14.4292 18.5004 12.8205 18.5004 10.6049Z" fill="#E30000"/>
<path d="M25.775 37.0583C25.205 36.8081 24.482 36.6204 23.6061 36.4952C22.7441 36.3701 21.7917 36.3076 20.749 36.3076H18.4966V31.0312H22.4382C23.8146 31.0312 25.0173 31.1216 26.0461 31.3024C27.075 31.4831 28.0065 31.7542 28.8407 32.1157L40.4569 37.3503V43.6068L33.7624 40.6245C33.3453 40.5133 32.9213 40.4299 32.4903 40.3743C32.0732 40.3187 31.663 40.2908 31.2598 40.2908C28.9519 40.2908 27.0541 41.1042 25.5664 42.7309C24.0788 44.3437 23.335 46.6308 23.335 49.5922C23.335 52.0808 23.8494 53.9369 24.8782 55.1604C25.9071 56.3839 27.4781 56.9957 29.5914 56.9957C31.6908 56.9957 33.248 56.4395 34.263 55.3273C35.2779 54.215 35.7854 52.4701 35.7854 50.0927C35.7854 49.8424 35.7784 49.6478 35.7645 49.5087L41.9584 48.0697C42.0419 48.7788 42.0836 49.5226 42.0836 50.3012C42.0836 54.0134 40.9713 56.9053 38.7468 58.9769C36.5361 61.0346 33.4844 62.0634 29.5914 62.0634C25.5873 62.0634 22.473 60.9859 20.2484 58.8309C18.0378 56.662 16.9325 53.638 16.9325 49.759C16.9325 46.3666 17.8223 43.5442 19.6019 41.2919C21.3816 39.0396 23.6825 37.7396 26.5049 37.392L25.775 37.0583Z" fill="#1D2077"/>
<path d="M33.1609 18.8396V30.7075H28.9839V18.5291C28.9839 15.2834 29.6518 12.9974 30.9877 11.6709C32.3331 10.3349 34.4169 9.66699 37.2392 9.66699C40.0616 9.66699 42.1407 10.3302 43.4766 11.6567C44.8219 12.9832 45.4946 15.274 45.4946 18.5291V30.7075H41.3175V18.8396C41.3175 17.1368 41.1905 15.9467 40.9365 15.2693C40.6919 14.5826 40.2826 14.051 39.7088 13.6747C39.1349 13.289 38.3117 13.0961 37.2392 13.0961C36.1667 13.0961 35.3436 13.289 34.7697 13.6747C34.1958 14.051 33.7819 14.5826 33.5278 15.2693C33.2832 15.9467 33.1609 17.1368 33.1609 18.8396Z" fill="#1D2077"/>
<path d="M62.0617 10.0198H69.7667V13.5195H66.2387V22.1982C66.2387 25.4439 65.5661 27.7347 64.2208 29.0706C62.8849 30.3971 60.8057 31.0603 57.9834 31.0603C55.1611 31.0603 53.0772 30.3971 51.7319 29.0706C50.396 27.7347 49.7281 25.4439 49.7281 22.1982V10.0198H53.9051V21.8877C53.9051 23.4776 54.0274 24.6536 54.272 25.4156C54.5166 26.1777 54.9306 26.7374 55.5139 27.0949C56.0971 27.4524 56.9203 27.6312 57.9834 27.6312C59.0465 27.6312 59.8697 27.4524 60.4529 27.0949C61.0362 26.7374 61.4502 26.1777 61.6948 25.4156C61.9394 24.6536 62.0617 23.4776 62.0617 21.8877V10.0198Z" fill="#1D2077"/>
<path d="M84.217 21.8877V10.0198H88.3941V22.1982C88.3941 25.4439 87.7214 27.7347 86.3761 29.0706C85.0402 30.3971 82.9611 31.0603 80.1388 31.0603C77.3164 31.0603 75.2326 30.3971 73.8873 29.0706C72.5514 27.7347 71.8834 25.4439 71.8834 22.1982V10.0198H76.0605V21.8877C76.0605 23.5905 76.1875 24.79 76.4415 25.4862C76.6955 26.173 77.1047 26.7045 77.6692 27.0808C78.2431 27.4477 79.0663 27.6312 80.1388 27.6312C81.2112 27.6312 82.0297 27.4477 82.5942 27.0808C83.1681 26.7045 83.582 26.173 83.836 25.4862C84.09 24.79 84.217 23.5905 84.217 21.8877Z" fill="#1D2077"/>
<path d="M50.4618 55.671V62.3176H46.2848V41.6299H50.4618V47.8955C51.0545 47.585 51.6708 47.3545 52.3105 47.204C52.9596 47.0535 53.7028 46.9782 54.5401 46.9782C57.3625 46.9782 59.4416 47.6415 60.7775 48.968C62.1228 50.2945 62.7955 52.5853 62.7955 55.8404V57.054H58.6184V56.1508C58.6184 54.4574 58.4914 53.2673 58.2374 52.5806C57.9928 51.8844 57.5788 51.3481 56.9956 50.9718C56.4217 50.5955 55.6032 50.4074 54.5401 50.4074C53.5241 50.4074 52.7291 50.5814 52.1553 50.9295C51.5814 51.2682 51.158 51.7574 50.8852 52.3971C50.6218 53.0368 50.4807 54.1281 50.4618 55.671Z" fill="#1D2077"/>
<path d="M71.7564 53.4978C71.7564 55.0877 71.8787 56.2637 72.1233 57.0257C72.3679 57.7878 72.7818 58.3475 73.3651 58.705C73.9484 59.0625 74.7716 59.2413 75.8347 59.2413C76.8977 59.2413 77.7209 59.0625 78.3042 58.705C78.8875 58.3475 79.3014 57.7878 79.546 57.0257C79.7906 56.2637 79.9129 55.0877 79.9129 53.4978V52.8769H84.09V53.8083C84.09 57.0634 83.4173 59.3542 82.072 60.6807C80.7361 62.0072 78.657 62.6704 75.8347 62.6704C73.0123 62.6704 70.9285 62.0072 69.5832 60.6807C68.2473 59.3448 67.5793 57.054 67.5793 53.8083V45.1296H64.0655V41.6299H71.7564V53.4978Z" fill="#1D2077"/>
<path d="M100.377 55.2823V45.2968H103.892V55.5435C103.892 58.2744 103.326 60.2018 102.194 61.3259C101.07 62.442 99.3206 63 96.9459 63C94.5712 63 92.8179 62.442 91.686 61.3259C90.562 60.2018 90 58.2744 90 55.5435V45.2968H93.5145V55.2823C93.5145 56.715 93.6214 57.7243 93.8351 58.31C94.0488 58.8879 94.3931 59.3351 94.8681 59.6517C95.3509 59.9604 96.0435 60.1148 96.9459 60.1148C97.8483 60.1148 98.5369 59.9604 99.0119 59.6517C99.4947 59.3351 99.843 58.8879 100.057 58.31C100.27 57.7243 100.377 56.715 100.377 55.2823Z" fill="#E30000"/>
<path d="M117.344 57.2296H113.83V48.2058C112.516 48.3325 111.59 48.6609 111.051 49.1913C110.513 49.7216 110.244 50.5567 110.244 51.6966C110.244 51.8311 110.248 51.9301 110.256 51.9934L106.706 52.8008C106.674 52.6108 106.65 52.4169 106.635 52.219C106.627 52.0132 106.623 51.8074 106.623 51.6016C106.623 49.4644 107.383 47.8338 108.902 46.7098C110.43 45.5858 112.67 45.0237 115.623 45.0237C118.536 45.0237 120.748 45.5818 122.26 46.6979C123.78 47.814 124.54 49.4485 124.54 51.6016V62.7032H120.918V51.6016C120.918 50.5884 120.689 49.8127 120.23 49.2744C119.77 48.7361 118.809 48.3799 117.344 48.2058V57.2296Z" fill="#E30000"/>
<path d="M131.628 52.7177V59.7586H142.48V62.7032H128.113V52.4565C128.113 49.7256 128.675 47.8021 129.799 46.686C130.931 45.562 132.685 45 135.059 45C137.434 45 139.183 45.558 140.307 46.6741C141.439 47.7902 142.005 49.7177 142.005 52.4565V53.4776H138.491V52.7177C138.491 51.2929 138.384 50.2916 138.17 49.7137C137.964 49.128 137.616 48.6768 137.125 48.3602C136.642 48.0435 135.954 47.8852 135.059 47.8852C134.165 47.8852 133.472 48.0435 132.982 48.3602C132.499 48.6768 132.15 49.128 131.937 49.7137C131.731 50.2916 131.628 51.2929 131.628 52.7177Z" fill="#E30000"/>
</svg>
