<svg width="357" height="176" viewBox="0 0 357 176" fill="none" xmlns="http://www.w3.org/2000/svg">
<path d="M253.263 100.031L253.353 100.093L253.263 100.031Z" fill="#BF9425"/>
<path d="M245.565 99.1719C245.391 99.2692 245.218 99.3665 245.059 99.4776C245.218 99.3665 245.391 99.2761 245.565 99.1719Z" fill="#BF9425"/>
<path d="M243.959 100.432C244.077 100.287 244.195 100.149 244.313 100.031C244.195 100.149 244.07 100.287 243.959 100.432Z" fill="#BF9425"/>
<path d="M125.744 88.5156C125.509 88.7372 125.19 89.0418 124.872 89.3464C125.183 89.0487 125.509 88.7372 125.744 88.5156Z" fill="#BF9425"/>
<path d="M71.21 46.7101L71.3278 46.5851V46.5781C71.2862 46.6267 71.2446 46.6684 71.21 46.7101Z" fill="#BF9425"/>
<path d="M21.5984 88.3568C23.46 87.8299 25.2039 87.3099 26.851 86.7969C25.4669 87.2198 24.0206 87.6496 22.4981 88.0795C17.986 89.3621 12.8165 90.7001 1.64697 92.6483C1.76462 92.6691 1.88919 92.683 2.02067 92.7038C12.2974 90.8735 17.2593 89.5839 21.5984 88.3568Z" fill="#BF9425"/>
<path d="M69.6613 46.9219C69.6267 46.9566 69.5851 46.9984 69.5435 47.0471L69.6613 46.9219Z" fill="#BF9425"/>
<path d="M75.091 30.8809C68.3644 33.1829 61.8384 38.2655 56.5513 44.1939C56.8834 44.0275 57.1949 43.875 57.4855 43.7293C59.6516 42.6615 60.662 42.2108 61.5547 41.8433C62.2052 41.5729 62.7935 41.351 63.3194 41.1708C63.0011 41.2886 62.6758 41.4204 62.3159 41.566C61.4578 41.9196 60.482 42.3495 58.4959 43.3272C58.399 43.4312 58.3021 43.5352 58.2122 43.6392C61.0357 42.2247 62.2052 41.7047 63.2156 41.2886C63.6101 41.1291 63.9699 40.9835 64.3229 40.8518C64.9388 40.6784 65.4578 40.5883 66.0114 40.519C66.6273 40.4496 67.2917 40.408 67.8938 40.4496C68.4958 40.4912 69.0356 40.6091 69.4785 40.8587C69.9284 41.1083 70.2813 41.4897 70.4958 41.878C70.7104 42.2663 70.7796 42.6546 70.745 43.2232C70.7104 43.7848 70.565 44.5337 69.6585 47.0229C70.0945 46.5584 70.482 46.0869 70.8211 45.6084C73.8384 41.358 72.918 36.8856 66.1844 38.4457C67.6377 37.3502 69.2363 36.5251 70.918 35.9565C78.3989 33.4048 87.4646 35.8455 92.6618 41.3649C98.2396 47.2864 101.105 57.1117 101.61 64.6974C101.638 65.1203 101.665 65.5433 101.679 65.9524C94.4819 57.077 86.5442 53.0901 74.8903 51.9252C74.1498 51.8489 73.3955 51.7865 72.6204 51.731C91.9559 57.4376 97.9351 68.5942 102.89 84.4312C103.056 84.0498 103.215 83.6684 103.375 83.2801C108.766 69.8908 108.35 51.6478 99.4507 39.3055C92.385 29.4872 83.5754 27.9756 75.091 30.8809Z" fill="#BF9425"/>
<path d="M95.8555 74.9925C95.5025 73.7929 95.0458 72.6419 94.4783 71.47C93.9109 70.2982 93.2327 69.1125 92.4783 68.0585C91.724 67.0046 90.8797 66.0824 89.9247 65.0769C88.9628 64.0785 87.8763 62.9898 86.513 61.8665C85.1497 60.7432 83.5026 59.5714 81.3988 58.2747C79.8694 57.3317 78.0909 56.3332 76.0217 55.2377C75.2466 54.8286 74.43 54.4056 73.5649 53.9688C74.8106 55.0782 75.9802 56.1599 77.0874 57.2485C78.1947 58.3371 79.2397 59.4327 80.2569 60.5976C81.2742 61.7556 82.2639 62.9829 83.2258 64.2865C84.1946 65.5901 85.1289 66.9699 86.0147 68.3844C86.9005 69.792 87.724 71.2274 88.4991 73.0094C89.2742 74.7845 90.0008 76.9063 90.4714 79.1667C90.942 81.4341 91.1496 83.8402 91.0458 86.385C90.942 88.9297 90.5268 91.6062 89.8763 94.9484C90.1739 94.6711 90.4576 94.3937 90.7413 94.1163C92.8659 92.0084 94.6513 89.7133 95.6063 87.2795C96.6859 84.5197 96.6998 81.5867 96.5821 79.5065C96.4714 77.4263 96.2153 76.1851 95.8555 74.9925Z" fill="#BF9425"/>
<path d="M78.7272 85.0428C78.6165 86.1869 78.485 87.2687 78.2912 88.3781C78.1044 89.4876 77.8483 90.6317 77.44 91.9978C77.0317 93.3638 76.4643 94.9586 75.6269 96.9765C74.7895 98.9943 73.6892 101.442 72.2705 104.417C72.5819 104.23 72.8726 104.042 73.1632 103.862C74.312 103.134 75.3293 102.399 76.3259 101.463C77.5784 100.291 78.8241 98.7863 79.7376 97.3717C80.6511 95.9572 81.2255 94.6189 81.7376 93.2112C82.2428 91.8036 82.6857 90.3266 83.004 88.8982C83.3224 87.4698 83.5161 86.0968 83.6615 84.6614C83.8068 83.2261 83.8967 81.7283 83.9175 80.2097C83.9383 78.6911 83.8829 77.1517 83.703 75.5777C83.523 74.0036 83.2047 72.388 82.6511 70.6545C82.0974 68.9209 81.2947 67.0626 80.1251 64.9476C79.3224 63.4915 78.3328 61.9174 77.1425 60.1908C76.6027 59.4073 76.0283 58.6029 75.3985 57.75C76.0075 59.3518 76.5196 60.8218 76.9556 62.2017C77.3916 63.5886 77.7445 64.8922 78.0352 66.1611C78.3258 67.4301 78.5542 68.6644 78.7203 69.9125C78.8933 71.1606 79.011 72.4157 79.0802 73.6985C79.1494 74.9814 79.1701 76.285 79.1563 77.5886C79.1424 78.8922 79.0871 80.1889 79.011 81.444C78.9348 82.6991 78.8379 83.9056 78.7272 85.0428Z" fill="#BF9425"/>
<path d="M45.5162 91.0387C45.7999 90.9554 46.0422 90.796 46.2567 90.6157C46.575 90.3453 46.8449 90.0124 47.0733 89.6865C47.4608 89.1318 47.7861 88.6187 48.0906 88.1056C48.3951 87.5925 48.6927 87.0863 49.2255 86.3236C49.7446 85.5816 50.492 84.5901 51.7307 82.3296C51.7653 82.2672 51.793 82.2187 51.8276 82.1562C48.146 84.1047 45.9453 85.124 44.1529 85.9977C42.3605 86.8713 40.9695 87.5925 40.0422 88.1957C39.1079 88.792 38.6443 89.2636 38.4021 89.8529C38.1668 90.4423 38.1668 91.1496 38.2913 91.9609C38.4159 92.7721 38.6719 93.6805 39.1149 94.7344C39.5578 95.7884 40.1875 97.0019 40.9834 98.1737C41.7792 99.3455 42.7342 100.476 43.8761 101.759C45.0179 103.034 46.3328 104.456 47.5508 105.635C48.7688 106.813 49.8899 107.749 50.8311 108.484C51.7722 109.219 52.5266 109.746 53.5023 110.329C54.4781 110.911 55.6684 111.549 57.5092 112.465C59.35 113.38 61.8483 114.586 63.9037 114.857C60.8794 113.484 59.2186 112.693 58.1321 112.118C57.3362 111.695 56.8379 111.397 56.3466 111.078C55.184 110.329 54.0144 109.49 52.9764 108.699C51.9383 107.909 51.0387 107.16 50.2636 106.46C49.4885 105.766 48.838 105.122 48.1252 104.359C47.4124 103.596 46.6373 102.722 45.9245 101.821C45.2117 100.913 44.5681 99.9765 44.0629 99.0543C43.5577 98.1321 43.1979 97.2307 42.928 96.357C42.6581 95.4833 42.4643 94.6304 42.3674 93.8261C42.2705 93.0148 42.2636 92.2521 42.2982 91.5448C42.3397 90.8306 42.4159 90.1719 42.6166 89.5825C42.8173 88.9931 43.1287 88.4731 43.4609 88.0986C43.793 87.7312 44.139 87.5093 44.402 87.3914C44.5681 87.322 44.7065 87.2943 44.8242 87.3012C44.8934 87.3082 44.9626 87.3151 45.0249 87.3429C45.2048 87.4053 45.3709 87.5439 45.447 87.8005C45.53 88.057 45.5162 88.4315 45.4885 89.0625C45.4816 89.7004 45.4401 90.5949 45.5162 91.0387Z" fill="#BF9425"/>
<path d="M82.2637 120.545C81.2534 120.198 80.6374 119.997 80.2568 119.726C79.8762 119.456 79.7378 119.116 79.7309 118.742C79.724 118.36 79.8624 117.931 80.243 117.189C80.6098 116.474 81.2118 115.448 81.4333 113.715C81.4402 113.652 81.454 113.597 81.461 113.534C81.0457 113.694 80.6374 114.02 80.0838 114.422C79.5371 114.817 78.8451 115.282 78.07 115.795C77.3087 116.308 76.4645 116.863 75.551 117.251C75.544 117.258 75.5371 117.258 75.5233 117.265C74.596 117.653 73.5856 117.861 72.4991 118.007C71.4126 118.152 70.2569 118.229 68.9282 118.222C67.5994 118.215 66.1116 118.132 64.8797 118.028C63.6479 117.931 62.6791 117.813 61.205 117.466C59.7379 117.112 57.7725 116.516 55.994 115.878C54.2154 115.233 52.6307 114.547 51.0251 113.777C49.4127 113.014 47.7726 112.175 46.3885 111.343C45.0044 110.511 43.8833 109.672 42.6376 108.722C41.392 107.772 40.0148 106.697 38.7968 105.616C37.5788 104.527 36.5131 103.431 35.4404 102.19C34.3885 100.977 33.3297 99.6385 32.3816 98.1616C32.3609 98.1269 32.3332 98.0922 32.3124 98.0576C31.3436 96.5321 30.4924 94.861 29.7173 92.4688C29.9872 94.2439 30.527 95.7832 31.0598 97.1145C31.5927 98.4459 32.1117 99.5692 32.8176 100.762C33.5304 101.955 34.4301 103.216 35.3643 104.478C36.2986 105.74 37.2674 107.002 38.3055 108.167C39.3435 109.332 40.4439 110.4 41.5857 111.454C42.7207 112.508 43.8902 113.541 45.3366 114.561C46.7829 115.573 48.4992 116.571 49.8764 117.32C51.2535 118.076 52.2916 118.575 53.7933 119.158C55.295 119.733 57.2673 120.371 59.2189 120.912C61.1773 121.446 63.1289 121.869 65.0804 122.174C67.032 122.472 68.9904 122.653 70.7067 122.791C72.423 122.93 73.9039 123.02 75.288 123.048C76.6721 123.076 77.9731 123.02 79.5786 122.902C81.1842 122.784 83.1011 122.59 85.371 121.744C85.3641 121.744 85.3571 121.737 85.3502 121.737C84.6582 121.377 83.2672 120.891 82.2637 120.545Z" fill="#BF9425"/>
<path d="M28.678 83.9934C28.5811 83.1613 28.5258 82.4679 28.4981 81.8508C28.4358 80.4432 28.5258 79.5279 28.6642 78.786C28.8649 77.7113 29.1624 76.9693 29.5569 76.2412C29.9514 75.5062 30.4496 74.7782 31.1278 73.8906C31.806 73.0031 32.6572 71.9422 35.3216 70.07C35.1555 70.0978 34.9825 70.1324 34.8164 70.181C33.6884 70.493 32.6503 71.2072 31.8268 71.8798C31.0725 72.4969 30.4842 73.0932 29.4669 74.2443C29.2178 74.5286 28.9479 74.8337 28.6365 75.2012C28.9618 71.9977 29.3493 70.4999 29.7161 69.3073C30.0829 68.1147 30.4358 67.241 30.8649 66.2841C31.2939 65.3272 31.7991 64.301 32.2905 63.5382C32.7818 62.7686 33.2662 62.2624 34.0136 61.5135C34.761 60.7577 35.7783 59.7662 37.9444 58.206C37.8544 58.2338 37.7645 58.2684 37.6745 58.2962C36.2628 58.7469 34.934 59.5374 34.0136 60.2377C33.6676 60.5012 33.377 60.7577 33.1624 60.9727C33.5015 59.0312 34.159 57.6652 34.5811 56.743C35.0032 55.8208 35.197 55.3492 35.55 54.7044C35.896 54.0595 36.4012 53.2483 36.8648 52.5063C37.3285 51.7644 37.7506 51.0987 38.3112 50.4469C38.8717 49.7951 39.5707 49.1711 40.1312 48.658C40.6918 48.1449 41.1139 47.7496 41.7991 47.2643C42.4842 46.7719 43.4253 46.1895 44.2212 45.5377C42.6503 45.7735 42.2558 45.7388 41.979 45.6486C41.7022 45.5585 41.5499 45.4198 41.4946 45.1009C41.4392 44.775 41.4669 44.2619 41.6607 43.7141C41.8544 43.1663 42.2143 42.57 42.5741 42.0915C42.9409 41.6131 43.3008 41.2386 43.8544 40.6839C44.408 40.1292 45.1485 39.3873 46.0274 38.6453C46.9063 37.9104 47.9305 37.1754 48.9063 36.5097C49.8821 35.851 50.8232 35.2685 51.6122 34.8039C52.4011 34.3463 53.0378 33.9996 53.8059 33.6321C54.5741 33.2577 55.4807 32.8486 56.2973 32.5019C56.9201 32.2384 57.5014 32.0234 58.1035 31.8085C58.2973 31.7391 58.4841 31.6698 58.6848 31.6005C59.5152 31.3231 60.4426 31.0388 61.446 30.7753C62.4495 30.5118 63.5291 30.2691 64.4079 30.0819C65.2868 29.8947 65.9581 29.7699 66.8024 29.652C67.6467 29.5341 68.6571 29.4301 69.5567 29.333C70.4564 29.236 71.2522 29.1389 72.401 29.1112C73.5567 29.0834 75.0653 29.125 76.401 29.125C76.1172 29.0141 75.8197 28.9239 75.5152 28.8338C74.1864 28.4663 72.7193 28.3276 71.5636 28.2306C70.1519 28.1127 69.2245 28.0433 68.0619 28.0225C66.8993 28.0017 65.4875 28.0295 64.3664 28.0849C63.2453 28.1335 62.4149 28.2167 61.2107 28.39C60.0066 28.5634 58.4287 28.8407 56.8716 29.2706C56.0066 29.5064 55.1554 29.7907 54.3803 30.068C53.7506 30.2899 53.1762 30.5118 52.6917 30.699C51.6122 31.1151 51.0032 31.3716 50.1174 31.7946C49.2316 32.2176 48.0828 32.8139 46.8925 33.542C45.7022 34.277 44.4772 35.1437 43.453 36.0521C42.4357 36.9535 41.626 37.8965 40.9963 38.7424C40.3665 39.5884 39.9098 40.3511 39.5638 41.0168C39.2178 41.6824 38.9825 42.2579 38.8164 42.8681C38.6503 43.4783 38.5465 44.1301 38.4773 44.6918C38.415 45.2534 38.3804 45.7318 38.152 46.2727C37.9236 46.8135 37.5015 47.4168 37.024 48.0478C36.5534 48.6788 36.0344 49.3514 35.4946 50.1557C34.9548 50.9601 34.3873 51.8961 33.8683 52.8114C33.3493 53.7267 32.8787 54.6142 32.4635 55.4671C32.0482 56.32 31.6884 57.1382 31.4116 57.8801C31.1348 58.6221 30.9341 59.2877 30.6088 60.2446C30.2766 61.2084 29.8199 62.4704 29.4808 63.4342C29.1417 64.405 28.9202 65.0845 28.6573 66.0206C28.3943 66.9567 28.0829 68.1563 27.8545 69.2934C27.6261 70.4375 27.4739 71.5192 27.3701 72.3374C27.2663 73.1487 27.2109 73.6965 27.1417 74.4523C27.0794 75.2081 27.0033 76.1858 27.0102 77.1635C27.0171 78.1412 27.1002 79.1258 27.2732 80.2352C27.46 81.3446 27.7161 82.5789 28.678 83.9934Z" fill="#BF9425"/>
<path d="M45.9744 56.7483C45.829 56.8454 45.6768 56.9494 45.5314 57.0534C45.3861 57.1574 45.2616 57.2545 45.1854 57.3585C45.1093 57.4625 45.0885 57.5735 45.1301 57.6913C45.1716 57.8092 45.2823 57.934 45.4484 58.0658C45.6145 58.1975 45.829 58.3293 46.0782 58.4541C46.3273 58.5789 46.6041 58.6968 46.8948 58.7869C47.1785 58.8771 47.4692 58.9464 47.746 58.9811C48.0228 59.0157 48.2927 59.0157 48.5349 58.9741C48.7771 58.9325 49.0055 58.8424 49.2131 58.7106L49.22 58.7037C49.4207 58.572 49.6076 58.3917 49.7806 58.1698C49.9536 57.9479 50.1266 57.6775 50.2927 57.3793C50.4588 57.0811 50.6248 56.7552 50.8048 56.4224C50.9847 56.0896 51.1716 55.7429 51.3861 55.41C51.6006 55.0772 51.8428 54.7513 52.1335 54.4393C52.4241 54.1272 52.7702 53.836 53.1923 53.5586C53.6145 53.2813 54.1058 53.0247 54.694 52.7751C53.8705 52.8236 53.1023 52.99 52.5556 53.1148C52.0089 53.2327 51.6837 53.2951 51.3792 53.3159C51.0816 53.3298 50.7979 53.2951 50.5487 53.205C50.2996 53.1148 50.0781 52.9692 49.9882 52.7543C49.9051 52.5393 49.9536 52.255 50.0851 52.047C50.2165 51.832 50.4242 51.6934 50.7079 51.5269C50.9916 51.3605 51.3446 51.1733 51.6075 50.8543C50.0228 50.8959 49.5037 50.8335 48.8948 50.7018C48.2927 50.577 47.6006 50.3897 47.047 50.2511C46.4934 50.1193 46.0712 50.043 45.656 50.0222C45.2546 50.0014 44.8602 50.0292 44.4657 50.1124C44.4588 50.1124 44.4519 50.1124 44.438 50.1193C44.0366 50.2164 43.6422 50.3759 43.2477 50.674C42.8533 50.9722 42.4796 51.4021 42.3481 51.9777C42.2166 52.5532 42.3342 53.2743 42.6941 53.6765C42.7979 53.1911 42.9225 52.7889 43.0816 52.4492C43.22 52.1649 43.3792 51.9152 43.5937 51.728C43.8982 51.4576 44.2927 51.2912 44.6872 51.2218C44.9017 51.1802 45.1093 51.1594 45.31 51.1733C45.8705 51.2218 46.2996 51.5131 46.5626 51.7904C46.8256 52.0747 46.9155 52.3452 46.9709 52.6225C47.0263 52.8999 47.0539 53.1703 47.0124 53.4477C46.964 53.7181 46.8532 53.9885 46.6733 54.2243C46.5557 54.3907 46.3965 54.5363 46.1958 54.6611C46.1058 54.7166 46.009 54.7721 45.8982 54.8206C45.7183 54.8969 45.5038 54.9662 45.2062 54.9385C44.9155 54.9108 44.5349 54.7929 44.0297 54.5086C44.2097 55.2297 44.6664 55.3823 45.0055 55.4863C45.3515 55.5903 45.5799 55.6458 45.7806 55.7151C45.9813 55.7845 46.1543 55.8746 46.2442 55.9994C46.3342 56.1312 46.3481 56.3045 46.2927 56.4293C46.2373 56.5611 46.1128 56.6512 45.9744 56.7483Z" fill="#BF9425"/>
<path d="M33.5638 88.9958C35.6538 88.2192 37.7438 87.3455 39.986 86.3886C42.3596 85.3693 44.8994 84.2599 47.28 83.0534C49.6606 81.8469 51.889 80.5502 54.2004 79.2259C56.5118 77.9015 58.9132 76.5563 60.6848 75.5301C62.4634 74.5038 63.6191 73.7896 65.2523 72.6733C66.8855 71.5569 68.9893 70.0314 71.9858 68.0483C71.9443 68.1593 71.8751 68.2772 71.8128 68.395C71.4183 69.1855 70.7678 70.073 70.1242 70.8913C69.3837 71.8343 68.664 72.6733 67.9028 73.6094C67.1415 74.5385 66.3388 75.5578 65.5291 76.4523C64.7263 77.3468 63.9235 78.1164 63.0516 78.9208C62.1796 79.7251 61.2454 80.5572 59.7367 81.6944C58.2281 82.8385 56.1381 84.2877 52.0136 86.4233C54.3873 85.7646 56.0482 85.2307 57.3077 84.7522C58.1658 84.4263 58.844 84.1351 59.4322 83.8508C60.8786 83.1505 61.799 82.5264 62.7678 81.833C63.7298 81.1396 64.7402 80.3838 65.709 79.4547C66.6779 78.5255 67.5983 77.423 68.3526 76.4662C69.1069 75.5093 69.6882 74.698 70.2626 73.7342C70.837 72.7634 71.3906 71.6401 72.0066 70.3157C72.6225 68.9913 73.2522 68.1177 74.1865 62.9172C74.2211 64.2277 74.2349 65.2262 74.2349 66.0583C74.2349 67.5422 74.1865 68.4713 74.1034 69.5599C73.965 71.2588 73.7782 72.6941 73.536 74.1294C73.2937 75.5647 73.0031 76.9931 72.6017 78.3869C72.2003 79.7806 71.6882 81.1466 70.9339 82.7067C70.1796 84.2738 69.183 86.0489 68.2419 87.609C67.3007 89.1692 66.408 90.5143 65.1 92.2756C63.799 94.0299 62.0897 96.2002 60.2004 98.7727C61.3492 98.7172 62.3526 98.4607 63.2454 98.0862C64.1242 97.7187 64.8993 97.2472 65.6121 96.741C67.0516 95.7217 68.2349 94.5846 69.3145 93.2533C70.401 91.9219 71.3768 90.4034 72.2488 88.7739C73.1207 87.1375 73.882 85.3901 74.5187 83.5457C75.1553 81.7082 75.6674 79.7875 76.0411 78.0124C76.4148 76.2373 76.6501 74.6078 76.7609 72.916C76.8716 71.231 76.8577 69.4767 76.6847 67.9166C76.5186 66.3564 76.1934 64.9835 75.8612 63.7701C75.5221 62.5566 75.1761 61.5027 74.7055 60.2199C74.2349 58.9371 73.702 57.3839 73.0031 56.1843C72.2626 54.9224 71.6329 54.0071 70.6502 53.0224C70.1519 52.5232 69.5844 52.0101 68.8024 51.4346C68.0412 50.8729 67.0792 50.2419 65.7782 49.5C68.4356 52.0586 69.1415 52.8214 69.6467 53.4801C70.1519 54.1457 70.4564 54.7143 70.6848 55.2829C70.9131 55.8446 71.0515 56.3993 71.1415 57.169C71.2246 57.9386 71.2592 58.9302 71.2107 59.7831C71.1692 60.6359 71.0515 61.3501 70.754 62.1059C70.4564 62.8617 70.1657 63.3887 69.7782 64.1029C69.4045 64.8032 68.6917 65.5036 68.2211 65.9196C67.7505 66.3426 67.1346 66.6754 66.6986 66.8973C66.6017 66.9458 66.5118 66.9874 66.4218 67.029C66.0965 67.1816 65.7921 67.2925 65.3284 67.3896C64.754 67.5075 63.9858 67.5352 63.0101 67.5907C62.0343 67.6531 60.8578 67.7224 59.7782 67.8542C58.6987 67.9859 57.716 68.1801 56.2835 68.5684C55.5983 68.7487 54.8163 68.9775 54.0551 69.241C53.5153 69.4282 52.9824 69.6293 52.5049 69.8512C52.242 69.976 51.9859 70.1008 51.7575 70.2256C51.5776 69.0954 51.6814 68.4366 51.889 67.7571C52.0828 67.1192 52.3804 66.4466 53.4807 64.4773C53.5361 64.3803 53.5845 64.2971 53.6399 64.1931C51.5776 65.3718 50.2004 66.6199 49.1831 67.8334C48.1658 69.0468 47.5153 70.2256 46.9617 71.5708C46.4081 72.9229 45.9444 74.4414 44.5396 78.2066C44.8648 77.9639 45.1624 77.7489 45.4461 77.5409C47.2039 76.2512 48.2697 75.5301 49.3769 74.8159C50.6641 73.9838 52.0205 73.1725 55.3769 71.2657C55.28 71.3766 55.197 71.4737 55.107 71.5777C52.9686 74.0393 51.3354 75.3637 49.2731 76.7227C47.1278 78.1442 44.505 79.6211 41.723 80.9802C39.1071 82.2491 36.3458 83.414 33.204 84.565C33.0033 84.6413 32.8026 84.7106 32.6019 84.7869C29.204 86.0073 25.3563 87.2346 20.8442 88.5174C16.5051 89.7516 11.5294 91.0413 1.20415 92.8719C0.802764 92.9412 0.415223 93.0106 0 93.0868C2.81659 93.5375 7.52937 93.3781 11.1141 93.1215C14.6989 92.858 17.0726 92.5876 19.4601 92.2686C21.8407 91.9497 24.2352 91.5891 26.5051 91.1037C28.7749 90.6184 30.9964 89.925 33.204 89.1137C33.3147 89.0929 33.4393 89.0443 33.5638 88.9958Z" fill="#BF9425"/>
<path d="M294.671 146.489C294.525 146.316 294.311 146.163 294.096 146.039C293.875 145.907 293.653 145.81 293.404 145.72C293.155 145.629 292.878 145.546 292.498 145.442C292.117 145.338 291.626 145.213 291.079 145.075C290.532 144.943 289.923 144.797 289.328 144.645C288.726 144.492 288.138 144.319 287.529 144.125C286.92 143.931 286.29 143.709 285.674 143.494C285.058 143.279 284.47 143.078 283.889 142.863C283.307 142.655 282.74 142.433 282.235 142.204C281.729 141.975 281.287 141.726 280.83 141.414C280.373 141.095 279.902 140.713 279.48 140.339C279.058 139.972 278.678 139.611 278.318 139.299C277.958 138.98 277.619 138.71 277.245 138.439C276.871 138.169 276.463 137.912 276.082 137.69C275.702 137.475 275.356 137.309 275.031 137.149C274.698 136.99 274.394 136.831 274.089 136.692C273.785 136.553 273.48 136.421 273.107 136.283C272.733 136.144 272.297 135.999 271.819 135.846C271.342 135.7 270.823 135.555 270.145 135.409C269.467 135.264 268.622 135.111 267.646 134.972C266.671 134.834 265.543 134.702 264.525 134.619C263.501 134.535 262.574 134.487 261.771 134.466C260.961 134.438 260.276 134.431 259.598 134.425C258.92 134.418 258.249 134.418 257.55 134.438C256.844 134.452 256.103 134.494 255.307 134.556C254.505 134.619 253.647 134.702 252.823 134.813C251.999 134.91 251.217 135.028 250.408 135.16C249.598 135.291 248.761 135.437 247.896 135.603C247.024 135.777 246.117 135.971 245.266 136.186C244.415 136.394 243.619 136.629 242.782 136.893C241.944 137.156 241.072 137.455 240.325 137.725C239.577 137.995 238.961 138.238 238.318 138.495C237.667 138.751 236.996 139.029 236.373 139.292C235.75 139.556 235.176 139.805 234.539 140.082C233.903 140.367 233.211 140.679 232.574 140.935C231.937 141.192 231.356 141.386 230.844 141.532C230.332 141.677 229.889 141.774 229.439 141.844C228.989 141.906 228.532 141.934 228.096 141.934C227.66 141.941 227.245 141.927 226.823 141.857C226.401 141.788 225.972 141.677 225.564 141.532C225.155 141.386 224.761 141.213 224.422 141.025C224.083 140.838 223.799 140.63 223.467 140.339C223.135 140.048 222.754 139.68 222.422 139.306C222.09 138.938 221.806 138.564 221.529 138.106C221.259 137.649 220.996 137.094 220.768 136.553C220.546 136.019 220.353 135.492 220.18 135C220.007 134.508 219.847 134.057 219.702 133.634C219.557 133.211 219.432 132.816 219.287 132.448C219.148 132.081 218.982 131.734 218.802 131.318C218.616 130.902 218.408 130.41 218.124 129.883C217.84 129.363 217.494 128.801 217.183 128.351C216.872 127.9 216.609 127.553 216.318 127.186C216.027 126.818 215.702 126.43 215.37 126.083C215.038 125.737 214.706 125.438 214.283 125.085C213.861 124.738 213.363 124.35 212.885 124.031C212.415 123.712 211.972 123.469 211.543 123.254C211.121 123.039 210.712 122.845 210.221 122.651C209.73 122.457 209.155 122.256 208.616 122.069C208.076 121.888 207.564 121.722 206.906 121.563C206.249 121.403 205.446 121.244 204.602 121.098C203.764 120.952 202.879 120.828 201.889 120.724C200.899 120.626 199.806 120.55 198.664 120.529C197.522 120.509 196.325 120.543 195.19 120.613C194.055 120.682 192.976 120.793 191.868 120.952C190.761 121.112 189.626 121.32 188.657 121.535C187.688 121.75 186.879 121.972 185.854 122.284C184.83 122.596 183.592 122.998 182.498 123.372C181.412 123.74 180.484 124.079 179.73 124.343C178.976 124.606 178.408 124.794 177.868 124.946C177.329 125.099 176.823 125.224 176.242 125.279C175.661 125.334 175.01 125.328 174.443 125.244C173.875 125.161 173.398 125.009 172.865 124.766C172.332 124.523 171.73 124.204 171.169 123.83C170.602 123.462 170.076 123.039 169.446 122.45C168.816 121.861 168.076 121.091 167.391 120.259C166.706 119.427 166.062 118.533 165.453 117.694C164.844 116.855 164.256 116.071 163.64 115.184C163.024 114.296 162.374 113.298 161.751 112.334C161.128 111.363 160.54 110.42 159.945 109.456C159.349 108.486 158.761 107.494 158.159 106.399C157.557 105.303 156.941 104.11 156.367 102.987C155.792 101.857 155.266 100.803 154.754 99.7353C154.242 98.6675 153.744 97.6066 153.259 96.5665C152.775 95.5334 152.304 94.5211 151.834 93.4603C151.363 92.3925 150.886 91.2692 150.388 90.0489C149.889 88.8355 149.363 87.5319 148.9 86.3601C148.436 85.1883 148.028 84.1483 147.661 83.1706C147.287 82.193 146.955 81.2847 146.644 80.411C146.332 79.5443 146.048 78.7123 145.792 77.9704C145.536 77.2285 145.301 76.5698 145.121 76.0151C144.948 75.4673 144.83 75.0235 144.754 74.6838C144.671 74.344 144.616 74.1083 144.581 73.8517C144.547 73.5952 144.526 73.3109 144.561 73.0613C144.595 72.8117 144.678 72.5829 144.768 72.3818C144.858 72.1807 144.955 72.0005 145.1 71.7924C145.246 71.5844 145.439 71.3487 145.695 71.0644C145.945 70.7801 146.256 70.4473 146.54 70.1492C146.824 69.8441 147.08 69.5667 147.329 69.2824C147.571 68.9912 147.806 68.6931 148.111 68.3325C148.422 67.965 148.803 67.5421 149.183 67.0983C149.564 66.6546 149.952 66.19 150.394 65.67C150.837 65.15 151.336 64.5675 151.813 64.0128C152.298 63.4581 152.761 62.9312 153.28 62.321C153.799 61.7108 154.36 61.0105 154.955 60.2825C155.55 59.5545 156.166 58.7917 156.782 57.9944C157.398 57.2039 158.007 56.3788 158.602 55.5606C159.204 54.7494 159.785 53.9451 160.436 53.0506C161.086 52.1562 161.792 51.1716 162.498 50.1801C163.197 49.1816 163.882 48.1763 164.533 47.1986C165.183 46.214 165.785 45.2641 166.277 44.439C166.768 43.6139 167.149 42.9205 167.474 42.2895C167.799 41.6516 168.069 41.0761 168.277 40.5977C168.484 40.1193 168.623 39.7379 168.74 39.3497C168.865 38.9614 168.969 38.5661 169.038 38.1917C169.107 37.8104 169.142 37.4429 169.059 37.1725C168.983 36.9021 168.789 36.7287 168.637 36.6316C168.484 36.5346 168.353 36.5207 168.173 36.5554C168.194 36.5346 168.207 36.5068 168.228 36.493C168.256 36.4722 168.284 36.4583 168.311 36.4375C168.256 36.4375 168.201 36.4444 168.138 36.4583C167.938 36.4999 167.682 36.597 167.446 36.7981C167.211 36.9991 167.017 37.3042 166.837 37.6925C166.664 38.0877 166.505 38.5731 166.304 39.2248C166.097 39.8766 165.841 40.6948 165.509 41.5476C165.169 42.4005 164.761 43.2811 164.381 44.0507C164 44.8203 163.654 45.4721 163.287 46.1447C162.92 46.8242 162.519 47.5245 162.048 48.2733C161.578 49.0222 161.031 49.8265 160.512 50.6031C159.986 51.3796 159.481 52.1354 158.9 52.9466C158.311 53.7648 157.647 54.6454 156.962 55.5537C156.27 56.462 155.564 57.3911 154.92 58.2024C154.277 59.0136 153.689 59.7139 153.1 60.4073C152.505 61.1007 151.903 61.7871 151.176 62.6053C150.443 63.4235 149.578 64.3664 148.872 65.143C148.166 65.9196 147.619 66.5159 147.128 67.0359C146.637 67.5559 146.208 67.9928 145.875 68.2909C145.661 68.4781 145.495 68.596 145.343 68.6931C145.253 68.7485 145.17 68.7901 145.093 68.8317C144.879 68.9288 144.685 68.9774 144.526 68.9912H144.45C144.332 68.9912 144.235 68.9635 144.145 68.908C144.028 68.8387 143.917 68.7277 143.799 68.5059C143.689 68.2909 143.578 67.9789 143.495 67.3965C143.419 66.814 143.377 65.9681 143.315 65.0945C143.253 64.2208 143.163 63.3264 143.038 62.3695C142.914 61.4196 142.74 60.4073 142.533 59.395C142.325 58.3757 142.076 57.3565 141.827 56.4898C141.585 55.6231 141.343 54.9227 141.107 54.4166C141.031 54.264 140.962 54.1323 140.893 54.0144C140.851 53.9382 140.803 53.8688 140.761 53.8134C140.651 53.6608 140.547 53.5637 140.422 53.5221L140.339 53.5083C140.242 53.5083 140.152 53.5776 140.111 53.6747C140.069 53.7718 140.048 53.8896 140.048 54.056C140.048 54.1392 140.055 54.2363 140.062 54.3472C140.125 54.9366 140.353 55.9004 140.554 56.8572C140.754 57.8141 140.927 58.771 141.087 59.8179C141.239 60.8719 141.37 62.0229 141.453 63.0976C141.536 64.1654 141.571 65.1569 141.619 66.2247C141.661 67.1122 141.709 68.0482 141.709 68.8526C141.709 69.012 141.709 69.1715 141.702 69.3171C141.675 70.2185 141.564 70.8841 141.377 71.4804C141.183 72.0698 140.907 72.5829 140.526 73.089C140.145 73.5883 139.661 74.0736 139.149 74.559C138.637 75.0443 138.104 75.5297 137.495 76.0151C136.886 76.5004 136.194 76.9927 135.55 77.4434C134.914 77.8941 134.339 78.2962 133.799 78.5944C133.792 78.5944 133.792 78.6013 133.786 78.6013C133.502 78.7539 133.218 78.8787 133.052 78.8717C132.976 78.8717 132.934 78.8509 132.893 78.8163C132.858 78.7816 132.824 78.7123 132.817 78.5875V78.5043C132.817 77.908 133.218 76.6183 133.529 75.5158C133.855 74.351 134.076 73.3872 134.249 72.4095C134.422 71.4319 134.547 70.4404 134.644 69.5806C134.741 68.7208 134.803 67.9789 134.837 67.3271C134.872 66.6754 134.886 66.1207 134.893 65.5382C134.893 65.3094 134.9 65.0737 134.9 64.8449C134.9 64.4913 134.9 64.1515 134.886 63.8326C134.872 63.3125 134.844 62.8688 134.796 62.3349C134.747 61.801 134.678 61.1631 134.574 60.5529C134.471 59.9427 134.332 59.3742 134.187 58.8611C134.042 58.348 133.882 57.8973 133.654 57.405C133.426 56.9127 133.128 56.3788 132.761 55.8657C132.395 55.3526 131.965 54.8534 131.571 54.4513C131.177 54.056 130.817 53.7579 130.478 53.5013C130.138 53.2448 129.813 53.0298 129.453 52.8288C129.087 52.6277 128.685 52.4335 128.18 52.2741C127.675 52.1146 127.087 51.9759 126.671 51.7471C126.256 51.5252 125.979 51.2063 125.668 50.7071C125.426 50.3257 125.163 49.8473 124.941 49.5145C124.872 49.4105 124.803 49.3203 124.748 49.251C124.644 49.14 124.554 49.0707 124.436 49.0707C124.346 49.0707 124.27 49.1262 124.228 49.1955C124.187 49.2648 124.159 49.3411 124.145 49.4313C124.132 49.5214 124.125 49.6185 124.125 49.7225C124.125 49.9582 124.152 50.2148 124.187 50.4366C124.235 50.7487 124.284 50.9705 124.284 51.1716C124.284 51.3727 124.242 51.546 124.062 51.7471C123.882 51.9413 123.543 52.1562 123.197 52.3711C122.851 52.5861 122.505 52.801 122.173 53.0368C121.841 53.2725 121.516 53.5221 121.163 53.8619C120.81 54.2086 120.429 54.6385 120.132 55.0614C119.834 55.4844 119.62 55.9004 119.453 56.3095C119.287 56.7186 119.163 57.1277 119.059 57.5298C118.962 57.9389 118.879 58.3549 118.831 58.8403C118.81 59.083 118.789 59.3395 118.789 59.6169C118.789 59.8942 118.803 60.1854 118.844 60.4836C118.927 61.0729 119.1 61.697 119.37 62.1962C119.64 62.6954 120.007 63.0768 120.381 63.3403C120.754 63.6037 121.142 63.7563 121.571 63.8117C121.682 63.8256 121.792 63.8326 121.91 63.8326C122.235 63.8326 122.575 63.7771 122.934 63.6731C123.384 63.5344 123.869 63.3056 124.374 62.8688C124.415 62.8341 124.45 62.8133 124.491 62.7786C125.045 62.2725 125.626 61.5236 126.007 60.7956C126.395 60.0676 126.574 59.3742 126.692 58.8264C126.803 58.2787 126.851 57.8626 126.879 57.4119C126.9 57.0722 126.907 56.7186 126.907 56.3927C126.907 56.2818 126.907 56.1708 126.9 56.0737C126.893 55.6716 126.865 55.3804 126.844 55.0961C126.831 54.9297 126.824 54.7702 126.824 54.6315C126.824 54.5345 126.831 54.4513 126.837 54.3819C126.865 54.2224 126.9 54.1878 126.962 54.1531C127.01 54.1254 127.073 54.1115 127.163 54.1115L127.28 54.1184C127.329 54.1254 127.384 54.1392 127.44 54.1462C127.44 54.1115 127.44 54.0768 127.446 54.0422C127.599 54.0699 127.772 54.1115 127.979 54.2016C128.256 54.3195 128.568 54.5137 128.886 54.7563C129.204 55.006 129.516 55.311 129.806 55.6924C130.104 56.0737 130.374 56.5383 130.616 57.0583C130.858 57.5784 131.066 58.1608 131.253 58.7918C131.433 59.4227 131.592 60.0953 131.696 60.8164C131.806 61.5444 131.869 62.321 131.924 63.1045C131.979 63.888 132.014 64.6646 132 65.5521C131.979 66.4396 131.903 67.4242 131.799 68.4157C131.696 69.4003 131.571 70.378 131.391 71.3972C131.211 72.4165 130.976 73.4773 130.734 74.455C130.491 75.4326 130.235 76.334 129.924 77.2285C129.619 78.1229 129.26 79.0104 128.886 79.8979C128.505 80.7924 128.111 81.6938 127.668 82.5189C127.225 83.344 126.747 84.0998 126.201 84.8763C125.647 85.6529 125.031 86.4572 124.388 87.1991C123.744 87.948 123.087 88.6413 121.945 89.7715C120.803 90.9017 119.177 92.4618 118.111 93.5227C117.038 94.5835 116.519 95.1521 115.986 95.7622C115.447 96.3724 114.886 97.038 114.402 97.6274C113.91 98.2168 113.495 98.7437 113.184 99.1875C112.865 99.6382 112.658 100.013 112.429 100.415C112.208 100.81 111.966 101.233 111.772 101.684L111.301 103.05C111.177 103.493 111.094 103.895 111.031 104.325C110.969 104.755 110.948 105.213 110.962 105.65C110.983 106.08 111.045 106.489 111.17 106.856C111.287 107.224 111.453 107.556 111.647 107.82C111.834 108.083 112.049 108.285 112.291 108.423C112.533 108.562 112.803 108.652 113.087 108.694C113.363 108.735 113.661 108.749 113.966 108.707C114.277 108.666 114.602 108.59 114.934 108.458C115.274 108.326 115.62 108.153 115.993 107.931C116.007 107.924 116.021 107.91 116.035 107.903C116.395 107.688 116.768 107.432 117.163 107.12C117.578 106.794 118.014 106.412 118.498 105.941C118.983 105.469 119.509 104.915 120.028 104.305C120.54 103.694 121.045 103.043 121.516 102.405C121.986 101.767 122.429 101.15 122.948 100.318C123.467 99.4856 124.069 98.4456 124.568 97.5442C125.066 96.6428 125.46 95.8801 125.848 95.1174C126.242 94.3547 126.623 93.592 126.976 92.857C127.322 92.122 127.64 91.4079 128.076 90.3817C128.519 89.3624 129.087 88.0242 129.509 87.0466C129.931 86.0689 130.201 85.438 130.498 84.8347C130.796 84.2315 131.121 83.6421 131.453 83.1637C131.786 82.6853 132.125 82.3178 132.484 81.9711C132.844 81.6244 133.225 81.3055 133.585 81.0212C133.945 80.7369 134.277 80.5012 134.623 80.2516C134.969 79.995 135.322 79.7385 135.702 79.4472C136.083 79.163 136.484 78.8579 136.914 78.532C137.343 78.213 137.792 77.8733 138.201 77.5682C138.609 77.2631 138.969 76.9927 139.301 76.75C139.633 76.5074 139.931 76.2924 140.173 76.1191C140.408 75.9457 140.581 75.8209 140.747 75.7516C140.837 75.7169 140.893 75.6961 140.948 75.6822C140.955 75.6822 140.962 75.6822 140.976 75.6822C140.969 75.6892 140.962 75.6892 140.962 75.6961C140.997 75.6892 141.024 75.6822 141.038 75.6753C141.1 75.6684 141.17 75.6684 141.211 75.6753C141.336 75.6822 141.426 75.7169 141.509 75.7793C141.599 75.8417 141.689 75.9319 141.779 76.1052C141.869 76.2716 141.958 76.5212 142.131 77.1869C142.298 77.8456 142.547 78.9133 142.824 80.1545C143.107 81.3956 143.426 82.7962 143.827 84.2592C144.221 85.7153 144.699 87.2269 145.197 88.676C145.695 90.1251 146.215 91.5049 146.789 92.9333C147.363 94.3616 148 95.8454 148.644 97.2668C149.287 98.6952 149.931 100.068 150.595 101.372C151.259 102.675 151.938 103.916 152.498 104.97C153.059 106.024 153.502 106.891 153.952 107.751C154.401 108.61 154.858 109.456 155.322 110.254C155.785 111.044 156.242 111.779 156.706 112.479C157.169 113.187 157.633 113.852 158.118 114.511C158.602 115.163 159.093 115.801 159.661 116.501C160.228 117.194 160.858 117.957 161.522 118.706C162.187 119.455 162.879 120.197 163.626 120.932C164.381 121.667 165.19 122.408 165.875 122.991C166.567 123.573 167.142 123.989 167.682 124.371C168.221 124.745 168.733 125.078 169.225 125.362C169.716 125.646 170.187 125.875 170.65 126.069C171.114 126.271 171.578 126.437 172.041 126.562C172.505 126.687 172.976 126.777 173.585 126.825C174.201 126.874 174.962 126.881 175.682 126.818C176.401 126.756 177.086 126.624 177.661 126.479C178.235 126.333 178.706 126.167 179.322 125.959C179.938 125.75 180.706 125.501 181.502 125.23C182.304 124.96 183.142 124.669 183.958 124.398C184.782 124.135 185.591 123.885 186.443 123.657C187.294 123.428 188.2 123.206 189.239 123.026C190.284 122.845 191.467 122.707 192.553 122.616C193.64 122.526 194.63 122.478 195.619 122.478C196.609 122.478 197.598 122.526 198.56 122.589C199.522 122.658 200.456 122.741 201.363 122.859C202.27 122.984 203.135 123.136 203.951 123.331C204.768 123.525 205.529 123.754 206.242 124.01C206.955 124.267 207.619 124.551 208.263 124.856C208.906 125.161 209.522 125.487 210.124 125.875C210.733 126.264 211.321 126.728 211.875 127.2C212.422 127.678 212.927 128.177 213.356 128.683C213.785 129.19 214.138 129.703 214.47 130.237C214.802 130.77 215.121 131.318 215.411 131.942C215.702 132.566 215.972 133.267 216.18 134.036C216.387 134.806 216.546 135.645 216.671 136.352C216.802 137.059 216.906 137.642 217.058 138.252C217.211 138.855 217.411 139.493 217.619 140.055C217.827 140.616 218.048 141.102 218.304 141.601C218.56 142.1 218.844 142.606 219.148 143.05C219.46 143.494 219.799 143.882 220.083 144.201C220.373 144.513 220.616 144.763 220.899 145.005C221.19 145.248 221.515 145.491 221.875 145.726C222.235 145.955 222.629 146.177 223.038 146.364C223.446 146.552 223.868 146.704 224.387 146.857C224.913 147.009 225.543 147.155 226.242 147.238C226.941 147.321 227.716 147.342 228.415 147.321C229.114 147.307 229.737 147.252 230.394 147.169C231.051 147.086 231.75 146.981 232.685 146.801C233.619 146.621 234.782 146.357 235.882 146.094C236.982 145.824 238.027 145.546 239.134 145.248C240.242 144.943 241.411 144.617 242.629 144.277C243.847 143.945 245.107 143.612 246.38 143.3C247.653 142.988 248.948 142.69 250.117 142.454C251.287 142.218 252.339 142.045 253.294 141.913C254.256 141.781 255.121 141.684 255.979 141.629C256.837 141.573 257.681 141.545 258.463 141.539C259.252 141.525 259.979 141.532 260.74 141.559C261.501 141.587 262.269 141.649 263.017 141.747C263.764 141.837 264.477 141.955 265.141 142.093C265.806 142.232 266.422 142.384 266.996 142.558C267.57 142.731 268.103 142.911 268.581 143.078C269.058 143.244 269.48 143.397 269.972 143.57C270.456 143.743 271.01 143.945 271.494 144.132C271.979 144.319 272.38 144.492 273.017 144.659C273.646 144.832 274.511 145.005 275.293 145.075C276.075 145.144 276.781 145.116 277.342 145.033C277.902 144.95 278.318 144.811 278.615 144.7C278.913 144.589 279.086 144.513 279.3 144.437C279.515 144.361 279.764 144.284 280.089 144.236C280.415 144.187 280.823 144.166 281.217 144.222C281.605 144.277 281.979 144.395 282.505 144.582C283.03 144.77 283.709 145.012 284.38 145.241C285.058 145.47 285.736 145.678 286.387 145.893C287.037 146.108 287.667 146.323 288.235 146.524C288.795 146.718 289.293 146.891 289.709 147.044C290.131 147.189 290.47 147.3 290.85 147.418C291.231 147.536 291.66 147.654 292.006 147.751C292.352 147.848 292.615 147.911 292.885 147.966C293.155 148.015 293.446 148.042 293.716 148.035C293.985 148.035 294.235 148.001 294.456 147.904C294.608 147.834 294.733 147.73 294.83 147.619C294.871 147.578 294.92 147.529 294.947 147.488C295.044 147.328 295.065 147.183 295.03 147.009C294.906 146.843 294.823 146.663 294.671 146.489ZM124.049 59.3326C124.042 59.3464 124.035 59.3603 124.028 59.3811C123.979 59.5337 123.931 59.6931 123.869 59.8387C123.682 60.3102 123.46 60.7332 123.204 61.0937C122.948 61.4474 122.664 61.7386 122.36 61.9119C122.055 62.0853 121.737 62.1407 121.488 62.0714C121.246 62.0021 121.073 61.794 120.955 61.5652C120.837 61.3364 120.782 61.0729 120.768 60.7193C120.754 60.3588 120.775 59.9011 120.865 59.395C120.948 58.8888 121.094 58.3411 121.301 57.8349C121.509 57.3287 121.765 56.878 122.014 56.5036C122.263 56.1292 122.491 55.838 122.72 55.5745C122.941 55.311 123.156 55.0753 123.419 54.8257C123.682 54.5761 124.014 54.3889 124.194 54.3472C124.222 54.3403 124.429 54.2502 124.512 54.9643C124.554 55.3388 124.554 55.8449 124.54 56.3719C124.519 56.8919 124.478 57.4327 124.395 57.9389C124.318 58.4312 124.201 58.9027 124.049 59.3326ZM128.069 53.6747C128.028 53.6677 127.979 53.6539 127.938 53.6539C128 53.6608 128.035 53.6677 128.069 53.6747ZM126.768 54.4027L126.664 54.3888L126.768 54.4027ZM126.159 88.3154C126.152 88.364 126.132 88.4264 126.104 88.5096C125.979 88.9048 125.668 89.7161 125.315 90.5134C125.149 90.8948 124.969 91.2692 124.782 91.6436C124.782 91.6436 124.782 91.6436 124.782 91.6367C124.581 92.0458 124.367 92.4618 124.132 92.8917C123.689 93.7099 123.19 94.5766 122.72 95.3323C122.256 96.0881 121.82 96.7399 121.357 97.4263C120.893 98.1128 120.395 98.8269 119.806 99.6174C119.606 99.8878 119.391 100.158 119.184 100.429C119.073 100.574 118.983 100.706 118.865 100.852C118.201 101.718 117.44 102.661 116.768 103.174C116.097 103.687 115.516 103.778 115.128 103.597C114.734 103.417 114.533 102.98 114.492 102.488C114.457 101.996 114.581 101.455 114.803 100.859C115.017 100.269 115.315 99.6243 115.703 98.9864C116.083 98.3554 116.554 97.7245 116.997 97.1767C117.447 96.629 117.876 96.1505 118.339 95.6582C118.803 95.1659 119.301 94.6598 119.813 94.1467C120.325 93.6405 120.851 93.1274 121.357 92.6282C121.862 92.122 122.36 91.6298 122.803 91.2137C123.246 90.7977 123.64 90.4649 124.159 89.9865C124.678 89.508 125.336 88.8979 125.696 88.572C125.709 88.5581 125.723 88.5512 125.737 88.5373L125.73 88.5443C125.765 88.5096 125.806 88.468 125.841 88.4403C126.104 88.2184 126.194 88.149 126.159 88.3154Z" fill="#BF9425"/>
<path d="M111.475 107.825L111.558 107.766L111.475 107.825Z" fill="#BF9425"/>
<path d="M236.303 139.079C235.68 139.342 235.098 139.592 234.469 139.869C233.874 140.133 233.23 140.424 232.628 140.666C232.836 140.59 233.036 140.521 233.258 140.431C233.894 140.174 234.593 139.862 235.223 139.578C235.86 139.294 236.434 139.044 237.057 138.788C237.68 138.524 238.358 138.247 239.002 137.991C239.271 137.88 239.541 137.776 239.811 137.672C239.258 137.88 238.759 138.074 238.247 138.275C237.604 138.538 236.925 138.816 236.303 139.079Z" fill="#BF9425"/>
<path d="M251.432 99.9715C251.39 99.9365 251.349 99.9014 251.3 99.8594C251.349 99.9014 251.39 99.9365 251.432 99.9715Z" fill="#BF9425"/>
<path d="M243.895 106.047C243.936 106.089 243.971 106.144 244.019 106.186C243.971 106.144 243.936 106.096 243.895 106.047Z" fill="#BF9425"/>
<path d="M186.067 95.2482C186.344 95.2621 186.773 95.2621 187.216 95.2066C187.652 95.158 188.102 95.0609 188.42 94.9083C188.531 94.8527 188.628 94.7972 188.711 94.7279C188.863 94.6099 188.974 94.4851 189.036 94.3602C189.133 94.1659 189.133 93.9925 189.091 93.8329C189.057 93.6733 188.98 93.5415 188.849 93.4305C188.718 93.3126 188.538 93.2224 188.316 93.1808C188.095 93.1391 187.839 93.1461 187.541 93.2363C187.506 93.2432 187.472 93.264 187.437 93.2779C187.16 93.375 186.863 93.5415 186.572 93.8121C186.247 94.1174 185.922 94.5614 185.749 94.8042C185.583 95.0539 185.562 95.1094 185.61 95.1511C185.659 95.1996 185.79 95.2343 186.067 95.2482Z" fill="#BF9425"/>
<path d="M165.985 98.617C165.383 98.6864 164.843 98.6933 164.393 98.6448C163.943 98.5962 163.584 98.4853 163.314 98.3813C163.037 98.2772 162.85 98.1732 162.629 98.0207C162.407 97.8681 162.144 97.6601 161.86 97.6116C161.736 97.5908 161.604 97.5977 161.48 97.6254C161.307 97.667 161.141 97.7433 160.988 97.8612C160.725 98.0692 160.511 98.3882 160.324 98.7418C160.137 99.0955 159.985 99.5046 159.881 99.9622C159.777 100.42 159.736 100.933 159.791 101.273C159.847 101.613 159.992 101.786 160.206 101.689C160.296 101.647 160.4 101.543 160.525 101.398C160.691 101.196 160.878 100.898 161.113 100.448C161.251 100.205 161.348 100.059 161.445 99.9553C161.542 99.8513 161.639 99.7889 161.757 99.775C161.798 99.775 161.847 99.7819 161.895 99.7889C161.978 99.8027 162.075 99.8305 162.186 99.8721C162.525 100.004 162.988 100.219 163.667 100.344C164.345 100.461 165.231 100.489 166.248 100.323C166.753 100.24 167.293 100.115 167.763 99.9969C168.234 99.879 168.629 99.7681 168.871 99.7611C169.113 99.7473 169.196 99.8374 169.168 99.9761C169.141 100.115 169.009 100.302 168.864 100.545C168.712 100.787 168.545 101.079 168.366 101.425C168.186 101.765 167.985 102.16 167.812 102.556C167.473 103.353 167.258 104.178 167.203 104.969C167.175 105.364 167.182 105.752 167.272 106.154C167.362 106.556 167.535 106.973 167.722 107.292C167.916 107.61 168.123 107.832 168.338 108.02C168.552 108.207 168.767 108.366 169.044 108.512C169.321 108.664 169.646 108.81 170.075 108.942C170.497 109.074 171.016 109.185 171.584 109.233C172.151 109.289 172.774 109.282 173.411 109.219C174.047 109.157 174.705 109.039 175.327 108.872C175.95 108.706 176.539 108.484 177.078 108.241C177.383 108.103 177.66 107.957 177.93 107.805C178.615 107.423 179.196 107.014 179.673 106.633C180.684 105.828 181.286 105.142 182.033 104.345C182.532 103.811 183.092 103.228 183.307 103.207C183.341 103.207 183.362 103.221 183.383 103.242C183.583 103.062 183.743 102.937 183.84 102.93C183.95 102.923 183.971 103.055 183.964 103.311C183.964 103.568 183.936 103.942 183.95 104.365C183.964 104.781 184.006 105.232 184.109 105.648C184.22 106.057 184.393 106.432 184.601 106.751C184.808 107.077 185.051 107.354 185.334 107.604C185.618 107.853 185.95 108.075 186.317 108.262C186.684 108.443 187.078 108.588 187.48 108.692C187.881 108.796 188.296 108.859 188.739 108.893C189.189 108.928 189.666 108.935 190.179 108.893C190.691 108.852 191.224 108.755 191.763 108.609C192.303 108.463 192.85 108.269 193.334 108.047C193.404 108.02 193.466 107.978 193.528 107.95C193.743 107.832 193.95 107.701 194.151 107.562C195.002 106.986 195.819 106.258 196.559 105.482C196.933 105.093 197.286 104.684 197.639 104.234C197.992 103.776 198.345 103.277 198.621 102.854C198.891 102.424 199.085 102.077 199.265 101.737C199.625 101.051 199.936 100.399 200.165 99.9137C200.282 99.671 200.372 99.4699 200.573 99.3936C200.649 99.3659 200.746 99.359 200.843 99.359C201.286 99.3659 201.95 99.6294 202.552 99.8721C202.926 100.018 203.272 100.163 203.625 100.323C203.978 100.482 204.331 100.656 204.746 100.871C205.161 101.079 205.639 101.321 206.13 101.592C206.621 101.862 207.134 102.16 207.597 102.472C208.061 102.784 208.49 103.117 208.864 103.45C209.237 103.783 209.556 104.116 209.791 104.393C210.026 104.677 210.172 104.899 210.289 105.156C210.518 105.662 210.608 106.258 210.414 106.716C210.317 106.945 210.151 107.139 209.895 107.312C209.383 107.659 208.511 107.916 207.659 107.992C207.23 108.027 206.808 108.013 206.379 107.943C205.95 107.867 205.514 107.735 205.099 107.569C204.691 107.402 204.303 107.208 203.971 107.021C203.639 106.834 203.362 106.661 203.085 106.473C202.808 106.293 202.531 106.106 202.234 105.919C201.936 105.738 201.625 105.551 201.362 105.447C201.106 105.336 200.905 105.301 200.691 105.281C200.497 105.267 200.289 105.274 200.082 105.322C200.054 105.329 200.019 105.329 199.992 105.336C199.756 105.405 199.535 105.551 199.41 105.766C199.286 105.988 199.265 106.279 199.307 106.557C199.348 106.834 199.452 107.083 199.618 107.298C199.777 107.513 200.006 107.701 200.241 107.86C201.175 108.512 202.248 108.831 203.445 109.08C203.749 109.143 204.054 109.205 204.552 109.261C205.044 109.323 205.729 109.393 206.407 109.42C207.085 109.448 207.756 109.441 208.435 109.427C209.12 109.413 209.812 109.399 210.49 109.358C211.168 109.316 211.826 109.247 212.469 109.164C214.379 108.9 216.082 108.456 217.653 107.909C218.178 107.721 218.684 107.527 219.244 107.264C219.383 107.194 219.528 107.118 219.673 107.049C219.971 106.931 220.261 106.813 220.58 106.661C221.133 106.397 221.736 106.071 222.22 105.773C222.497 105.6 222.739 105.44 222.947 105.295C223.009 105.329 223.064 105.378 223.12 105.468C223.216 105.627 223.306 105.898 223.445 106.231C223.583 106.563 223.777 106.973 223.999 107.326C224.22 107.68 224.476 107.985 224.753 108.241C225.306 108.748 225.943 109.06 226.573 109.247C226.891 109.337 227.203 109.399 227.618 109.455C228.033 109.51 228.559 109.552 229.099 109.545C229.646 109.538 230.22 109.483 230.732 109.393C231.244 109.295 231.694 109.157 232.116 109.025C232.538 108.886 232.933 108.748 233.403 108.526C233.562 108.449 233.742 108.352 233.915 108.262C234.178 108.165 234.441 108.068 234.732 107.929C235.203 107.708 235.742 107.409 236.338 107.042C236.829 106.744 237.355 106.404 237.839 106.134C237.943 106.099 238.054 106.071 238.137 106.05C238.455 105.995 238.621 106.05 238.753 106.14C239.023 106.328 239.189 106.654 239.5 107.097C239.659 107.319 239.86 107.569 240.102 107.818C240.351 108.068 240.649 108.325 240.981 108.533C241.313 108.741 241.68 108.907 242.068 109.039C242.455 109.171 242.863 109.261 243.334 109.33C243.805 109.393 244.331 109.434 244.891 109.406C245.452 109.386 246.033 109.295 246.628 109.122C247.092 108.983 247.555 108.775 247.998 108.54C248.116 108.477 248.241 108.422 248.358 108.352C248.905 108.02 249.41 107.61 249.805 107.264C250.199 106.917 250.476 106.626 250.725 106.335C251.223 105.745 251.625 105.128 251.901 104.657C252.04 104.421 252.151 104.22 252.227 104.074C252.31 103.928 252.358 103.845 252.427 103.79C252.504 103.734 252.6 103.707 252.739 103.72C252.76 103.72 252.78 103.734 252.801 103.734C252.933 103.762 253.085 103.818 253.313 103.928C253.569 104.053 253.908 104.247 254.22 104.372C254.531 104.497 254.815 104.546 255.126 104.559C255.625 104.58 256.192 104.497 256.732 104.137C257.182 103.838 257.597 103.332 257.936 102.528C257.957 102.479 257.984 102.438 258.005 102.382C257.798 102.549 257.597 102.687 257.403 102.805C256.891 103.117 256.427 103.263 255.978 103.353C255.818 103.388 255.666 103.408 255.438 103.402C255.209 103.395 254.919 103.353 254.642 103.27C254.372 103.187 254.123 103.062 253.881 102.895C253.638 102.729 253.403 102.514 253.223 102.327C253.043 102.14 252.919 101.987 252.884 101.779C252.85 101.578 252.891 101.321 252.953 101.079C253.016 100.836 253.085 100.6 253.147 100.274C253.209 99.9553 253.258 99.5392 253.244 99.144C253.23 98.7418 253.154 98.3535 253.05 97.986C252.946 97.6185 252.808 97.2787 252.642 96.9806C252.476 96.6893 252.275 96.4467 252.061 96.2386C251.853 96.0306 251.625 95.8711 251.355 95.7741C251.113 95.6908 250.836 95.67 250.566 95.7463C250.531 95.7533 250.49 95.7602 250.455 95.7741C250.151 95.885 249.874 96.1346 249.694 96.3357C249.507 96.5437 249.424 96.7032 249.348 96.8627C249.32 96.9182 249.299 96.9667 249.272 97.0153C249.223 97.1193 249.168 97.2094 249.113 97.2579C249.03 97.3273 248.926 97.2995 248.545 97.2787C248.164 97.2579 247.507 97.2371 246.912 97.2718C246.324 97.2995 245.798 97.3828 245.334 97.4798C244.87 97.5769 244.469 97.6948 244.081 97.8612C243.971 97.9028 243.867 97.9513 243.763 98.0068C243.486 98.1386 243.23 98.2772 243.036 98.3882C242.767 98.5477 242.621 98.6517 242.434 98.7834C241.915 99.1579 241.133 99.7265 240.102 101.231C238.455 104.019 236.261 105.454 234.87 106.196C234.69 106.293 234.517 106.383 234.365 106.459C233.715 106.778 233.383 106.91 232.919 107.077C232.462 107.243 231.874 107.444 231.334 107.576C230.787 107.708 230.289 107.763 229.832 107.784C229.376 107.805 228.953 107.791 228.552 107.735C228.151 107.68 227.763 107.569 227.383 107.402C227.002 107.229 226.628 106.993 226.358 106.778C226.088 106.57 225.929 106.39 225.791 106.231C225.652 106.071 225.542 105.926 225.431 105.711C225.099 105.08 224.781 103.824 225.092 102.119C225.196 101.55 225.369 100.933 225.646 100.108C225.929 99.2757 226.317 98.2426 226.697 97.2094C227.078 96.1762 227.459 95.15 227.777 94.3526C228.095 93.5552 228.344 92.9796 228.635 92.6468C228.857 92.3972 229.099 92.2793 229.348 92.21C229.424 92.1892 229.507 92.1684 229.583 92.1545C229.908 92.0851 230.22 92.0574 230.607 92.0574C230.995 92.0574 231.452 92.0921 231.888 92.1475C232.317 92.203 232.718 92.2862 233.099 92.3902C233.479 92.4943 233.839 92.6191 234.123 92.6676C234.407 92.7161 234.614 92.6815 234.794 92.6121C234.912 92.5636 235.016 92.4943 235.071 92.4041C235.099 92.3625 235.126 92.314 235.133 92.2585C235.147 92.099 235.03 91.891 234.808 91.7384C234.58 91.5859 234.248 91.4819 233.936 91.4125C233.625 91.3432 233.341 91.3016 233.002 91.2531C232.663 91.2045 232.268 91.149 231.908 91.1144C231.549 91.0797 231.216 91.0658 230.711 91.0658C230.206 91.0658 229.521 91.0728 229.23 90.8439C228.94 90.6151 229.037 90.1505 229.154 89.6513C229.272 89.152 229.403 88.6112 229.514 88.0426C229.632 87.474 229.729 86.8638 229.735 86.4824C229.735 86.0941 229.652 85.9346 229.535 85.8445C229.473 85.796 229.403 85.7682 229.327 85.7682C229.265 85.7613 229.203 85.7682 229.14 85.789C228.988 85.8445 228.815 85.9762 228.642 86.2397C228.476 86.5032 228.31 86.8915 228.158 87.3215C228.005 87.7514 227.86 88.209 227.729 88.6251C227.597 89.0411 227.473 89.3947 227.313 89.79C227.147 90.1852 226.947 90.6082 226.697 90.8717C226.642 90.9341 226.58 90.9896 226.518 91.0381C226.317 91.1976 226.102 91.2808 225.902 91.3432C225.639 91.4195 225.417 91.4472 225.099 91.4819C224.781 91.5165 224.372 91.5651 223.929 91.6414C223.486 91.7176 223.023 91.8286 222.559 91.9534C222.206 92.0505 221.86 92.1614 221.576 92.2793C221.493 92.314 221.41 92.3486 221.341 92.3764C221.03 92.522 220.857 92.6676 220.781 92.8548C220.704 93.0351 220.725 93.2501 220.94 93.3749C221.154 93.4997 221.569 93.5344 222.012 93.4373C222.455 93.3402 222.94 93.1044 223.362 92.945C223.791 92.7785 224.158 92.6815 224.49 92.6399C224.822 92.5983 225.12 92.6191 225.369 92.6745C225.625 92.73 225.839 92.8271 225.957 93.049C226.068 93.2709 226.082 93.6106 225.978 94.1307C225.874 94.6507 225.652 95.3441 225.424 96.0237C225.196 96.7032 224.954 97.362 224.718 98.0138C224.49 98.6656 224.268 99.3035 223.902 100.156C223.528 101.009 223.002 102.07 222.379 102.902C221.763 103.741 221.043 104.351 220.462 104.781C220.033 105.1 219.68 105.315 219.355 105.503C219.237 105.572 219.12 105.634 219.002 105.69C218.573 105.912 218.172 106.092 217.736 106.251C217.306 106.404 216.843 106.536 216.428 106.64C216.012 106.744 215.632 106.827 215.237 106.875C214.836 106.924 214.421 106.931 214.137 106.882C213.853 106.827 213.694 106.716 213.59 106.605C213.286 106.265 213.514 105.926 213.369 105.378C213.32 105.197 213.23 104.996 213.057 104.719C212.884 104.449 212.628 104.116 212.282 103.734C211.936 103.353 211.493 102.93 210.884 102.452C210.275 101.973 209.493 101.432 208.732 100.988C207.971 100.545 207.23 100.198 206.497 99.8721C205.763 99.5462 205.044 99.2411 204.296 98.936C203.549 98.6239 202.774 98.305 202.137 98.0762C201.493 97.8473 200.988 97.7017 200.587 97.6254C200.31 97.5769 200.089 97.5561 199.916 97.563C199.833 97.57 199.756 97.5769 199.687 97.5908C199.493 97.6463 199.397 97.7641 199.279 98.0207C199.161 98.2703 199.016 98.6586 198.822 99.1301C198.628 99.6016 198.379 100.156 198.179 100.6C197.978 101.044 197.819 101.377 197.611 101.737C197.403 102.105 197.14 102.493 196.871 102.875C196.594 103.256 196.303 103.623 195.943 104.026C195.583 104.428 195.154 104.872 194.628 105.288C194.109 105.711 193.493 106.113 193.009 106.39C193.009 106.39 193.002 106.39 193.002 106.397C192.518 106.674 192.165 106.82 191.777 106.931C191.39 107.042 190.974 107.111 190.559 107.16C190.151 107.201 189.75 107.222 189.362 107.215C188.974 107.201 188.594 107.16 188.255 107.097C187.916 107.028 187.618 106.938 187.307 106.806C186.995 106.674 186.67 106.501 186.352 106.244C186.033 105.988 185.729 105.641 185.577 105.177C185.417 104.719 185.41 104.143 185.438 103.623C185.466 103.103 185.528 102.646 185.66 102.105C185.784 101.571 185.978 100.954 186.13 100.385C186.276 99.8166 186.386 99.2966 186.421 98.8042C186.455 98.305 186.421 97.8335 186.255 97.5422C186.102 97.2787 185.846 97.1747 185.611 97.2025C185.59 97.2025 185.57 97.2025 185.549 97.2025C185.293 97.251 185.071 97.4521 184.884 97.6809C184.698 97.9097 184.538 98.1663 184.345 98.4991C184.151 98.832 183.923 99.2341 183.75 99.5323C183.577 99.8305 183.445 100.018 183.265 100.295C183.078 100.572 182.843 100.94 182.545 101.349C182.255 101.758 181.909 102.202 181.494 102.68C181.078 103.166 180.601 103.693 180.033 104.192C179.473 104.691 178.829 105.17 178.165 105.586C177.957 105.711 177.757 105.835 177.542 105.946C177.071 106.203 176.601 106.425 176.123 106.591C175.445 106.827 174.767 106.938 174.165 106.986C173.563 107.028 173.03 107 172.552 106.945C172.068 106.889 171.639 106.806 171.258 106.667C170.878 106.529 170.552 106.335 170.289 106.05C170.02 105.766 169.812 105.399 169.701 104.934C169.597 104.469 169.59 103.915 169.66 103.367C169.729 102.819 169.874 102.285 170.158 101.606C170.442 100.926 170.864 100.101 171.148 99.5254C171.431 98.9568 171.584 98.6517 171.625 98.3119C171.667 97.9722 171.59 97.5977 171.348 97.459C171.113 97.3203 170.712 97.4105 170.4 97.5076C170.089 97.6046 169.86 97.7017 169.459 97.8473C169.065 97.986 168.497 98.1663 167.874 98.3188C167.258 98.4229 166.587 98.5477 165.985 98.617ZM221.39 106.106C220.967 106.362 220.469 106.64 219.985 106.882C220.289 106.716 220.594 106.543 220.857 106.383C221.341 106.078 221.722 105.808 222.026 105.613C222.261 105.461 222.434 105.371 222.587 105.322C222.573 105.329 222.566 105.329 222.559 105.336C222.255 105.53 221.881 105.801 221.39 106.106ZM250.614 97.1609C250.677 97.1193 250.753 97.0915 250.829 97.0777C250.822 97.0846 250.822 97.0915 250.815 97.0985C250.808 97.0985 250.808 97.1054 250.801 97.1054C250.808 97.1054 250.808 97.0985 250.815 97.0985C250.843 97.0846 250.877 97.0707 250.905 97.0569C250.926 97.0499 250.953 97.043 250.981 97.0361C251.009 97.0291 251.043 97.0291 251.078 97.0361C251.119 97.043 251.168 97.043 251.216 97.0707C251.389 97.1609 251.604 97.3897 251.763 97.7087C251.922 98.0276 252.033 98.4367 252.081 98.7904C252.081 98.8181 252.081 98.832 252.088 98.8597C252.123 99.1787 252.116 99.4422 252.095 99.6363C252.074 99.8443 252.04 99.9761 251.978 100.066C251.964 100.087 251.943 100.108 251.922 100.122C251.86 100.17 251.777 100.177 251.645 100.115C251.812 100.288 251.971 100.42 252.109 100.496C252.102 100.531 252.095 100.572 252.081 100.6C252.061 100.649 252.047 100.704 252.019 100.746C251.943 100.857 251.839 100.919 251.618 100.801C251.431 100.704 251.154 100.468 250.919 100.156C250.884 100.108 250.843 100.066 250.808 100.011C250.69 99.8374 250.594 99.6502 250.504 99.4491C250.434 99.2272 250.379 99.0123 250.337 98.8042C250.303 98.617 250.268 98.4437 250.227 98.2842C250.227 98.194 250.227 98.1108 250.227 98.0276C250.241 97.8543 250.261 97.7017 250.296 97.5838C250.379 97.3412 250.483 97.2441 250.614 97.1609ZM244.407 99.4491C244.697 99.2688 245.009 99.0955 245.341 98.9429C245.376 98.929 245.403 98.9152 245.438 98.9082C245.486 98.8874 245.535 98.8736 245.583 98.8528C245.68 98.8112 245.777 98.7765 245.881 98.7418C245.922 98.728 245.964 98.7141 246.012 98.7072C245.929 98.7557 245.832 98.7973 245.749 98.8528C245.459 99.04 245.189 99.2341 244.905 99.4907C244.863 99.5254 244.829 99.5739 244.787 99.6086C244.877 99.5392 244.967 99.463 245.064 99.4006C245.32 99.2203 245.597 99.0539 245.895 98.9082C246.158 98.7765 246.434 98.6725 246.711 98.5962C246.587 98.6309 246.455 98.6725 246.331 98.721C246.462 98.6725 246.594 98.6309 246.718 98.5962C246.746 98.5893 246.773 98.5754 246.801 98.5685C247.106 98.4922 247.403 98.4575 247.659 98.4437C247.915 98.4229 248.137 98.4229 248.351 98.4159C248.573 98.409 248.787 98.3951 248.919 98.5546C249.05 98.7072 249.092 99.0331 249.147 99.3659C249.203 99.6918 249.272 100.025 249.431 100.413C249.521 100.635 249.639 100.864 249.77 101.086C249.77 101.086 249.77 101.086 249.77 101.092C249.874 101.259 249.985 101.425 250.102 101.564C250.379 101.897 250.704 102.119 250.863 102.292C250.891 102.32 250.905 102.348 250.926 102.368C250.974 102.438 250.995 102.5 251.002 102.576C251.002 102.583 251.002 102.583 251.002 102.59C251.002 102.66 250.988 102.743 250.953 102.84C250.87 103.083 250.69 103.443 250.448 103.824C250.206 104.213 249.888 104.622 249.583 104.982C249.279 105.336 248.974 105.62 248.649 105.891C248.421 106.085 248.171 106.251 247.929 106.397C247.846 106.446 247.77 106.501 247.687 106.543C247.666 106.55 247.652 106.563 247.632 106.577C247.604 106.591 247.583 106.598 247.562 106.605C247.576 106.605 247.583 106.598 247.597 106.598C247.604 106.598 247.611 106.591 247.618 106.591C247.514 106.647 247.417 106.709 247.313 106.758C246.94 106.931 246.58 107.028 246.241 107.097C245.908 107.174 245.597 107.229 245.272 107.229C244.946 107.236 244.607 107.187 244.268 107.063C243.922 106.938 243.569 106.744 243.251 106.473C242.933 106.203 242.656 105.87 242.441 105.516C242.234 105.163 242.088 104.781 242.012 104.414C241.936 104.046 241.922 103.679 241.95 103.297C241.978 102.916 242.054 102.514 242.192 102.126C242.331 101.744 242.531 101.37 242.773 101.03C243.023 100.683 243.306 100.364 243.583 100.108C243.846 99.8374 244.116 99.6363 244.407 99.4491ZM234.981 107.631C235.576 107.271 236.22 106.848 236.774 106.557C236.905 106.487 237.023 106.432 237.14 106.376C236.621 106.661 236.047 107.028 235.514 107.361C234.919 107.721 234.379 108.027 233.908 108.248C233.902 108.248 233.895 108.255 233.895 108.255C234.241 108.068 234.594 107.867 234.981 107.631ZM162.054 99.6225C162.033 99.6433 162.006 99.6571 161.985 99.6849C162.006 99.6502 162.026 99.6363 162.054 99.6225Z" fill="#BF9425"/>
<path d="M247.086 106.734C246.948 106.783 246.802 106.818 246.67 106.852C246.795 106.824 246.934 106.783 247.066 106.741C247.073 106.741 247.08 106.741 247.086 106.734Z" fill="#BF9425"/>
<path d="M123.293 90.8769C123.397 90.7727 123.501 90.6754 123.605 90.5781C123.599 90.5851 123.599 90.5851 123.592 90.592C123.501 90.6824 123.397 90.7796 123.293 90.8769Z" fill="#BF9425"/>
<path d="M356.587 106.318C355.978 106.311 355.536 106.63 355.024 106.852C352.477 107.934 350.484 108.53 348.041 106.533C344.581 103.711 346.961 101.173 348.262 98.2955C349.681 95.1474 351.141 92.0201 352.608 88.8928C352.954 88.1578 353.37 87.4575 353.577 86.6462C353.653 86.3619 353.57 86.2024 353.321 86.0637C352.871 85.8071 352.518 85.7309 352.228 85.7794C351.314 85.925 351.051 87.298 350.629 88.2202C349.854 89.9122 349.024 91.7636 348.304 93.5803C346.809 97.3456 345.584 101.097 342.823 104.314C342.048 105.216 341.293 105.909 340.352 106.436C339.861 106.714 339.314 106.949 338.684 107.144C336.684 107.761 333.709 106.367 335.868 105.063C336.844 104.474 337.785 103.982 338.747 103.489C339.003 103.357 339.266 103.226 339.522 103.094C339.902 102.9 340.29 102.699 340.678 102.484C340.816 102.407 340.975 102.331 341.134 102.248C341.605 102.012 342.145 101.763 342.664 101.485C344.179 100.674 345.466 99.6824 343.875 98.5313C342.421 97.4842 340.165 97.8518 338.11 98.8295C335.958 99.8557 334.02 101.562 333.453 103.038C332.975 104.273 333.259 105.299 332.082 106.034C331.979 106.103 331.861 106.166 331.729 106.228C330.774 106.679 330.207 106.852 329.3 107.067C326.858 107.65 324.996 107.636 323.529 105.59C321.252 102.414 325.951 97.9974 319.356 97.5744C316.906 97.4149 314.851 97.6853 312.989 98.5729C311.695 99.1901 310.491 100.105 309.314 101.395C305.827 105.209 307.314 109.349 312.595 109.251C314.74 109.21 316.574 108.704 318.373 107.775C319.093 107.497 319.799 107.15 320.498 106.741C321.702 106.603 322.339 108.059 323.266 108.579C325.868 110.042 328.657 108.662 329.653 108.274C329.93 108.163 330.235 108.01 330.553 107.851C330.719 107.781 330.871 107.719 330.989 107.671C331.204 107.587 331.432 107.476 331.667 107.352C332.352 107.13 332.989 107.157 333.418 107.892C334.975 109.758 338.511 109.12 341.162 107.657C342.006 107.192 342.761 106.644 343.335 106.069C343.681 105.722 343.985 105.535 344.269 105.445C345.799 104.959 346.581 107.657 347.771 108.399C349.688 109.584 351.39 109.584 353.473 109.099C354.179 108.933 354.816 108.725 355.397 108.371C355.736 108.163 356.062 107.913 356.373 107.587C356.76 107.178 357.446 106.325 356.587 106.318ZM341.612 99.4882C341.577 99.4952 341.536 99.5021 341.501 99.509H341.508C341.543 99.5021 341.577 99.4952 341.612 99.4882ZM338.996 100.369C339.024 100.355 339.058 100.341 339.093 100.32C339.162 100.286 339.231 100.251 339.307 100.223C339.314 100.223 339.321 100.216 339.328 100.216C339.356 100.202 339.39 100.189 339.425 100.175C339.501 100.14 339.584 100.105 339.667 100.071C339.702 100.057 339.736 100.043 339.771 100.029C339.882 99.9875 339.992 99.9459 340.103 99.9043C340.11 99.9043 340.117 99.8973 340.131 99.8973H340.138C340.262 99.8557 340.387 99.8141 340.511 99.7725C340.532 99.7656 340.546 99.7586 340.567 99.7586C340.691 99.724 340.809 99.6824 340.927 99.6546C340.934 99.6546 340.941 99.6477 340.954 99.6477C341.072 99.613 341.19 99.5853 341.3 99.5645C341.307 99.5645 341.321 99.5576 341.328 99.5576C341.439 99.5298 341.55 99.509 341.653 99.4951C341.695 99.4882 341.729 99.4813 341.764 99.4813C341.806 99.4743 341.847 99.4743 341.882 99.4743C341.916 99.4743 341.944 99.4674 341.979 99.4674C342.013 99.4674 342.048 99.4674 342.075 99.4743C342.103 99.4743 342.124 99.4743 342.145 99.4813C342.172 99.4882 342.193 99.4951 342.214 99.5021C342.228 99.509 342.248 99.516 342.262 99.5229C342.276 99.5368 342.29 99.5506 342.297 99.5645C342.304 99.5714 342.311 99.5853 342.318 99.5922C342.325 99.613 342.318 99.6338 342.311 99.6616C342.311 99.6754 342.311 99.6824 342.304 99.6962C342.283 99.7378 342.255 99.7864 342.214 99.8419C342.027 100.071 341.778 100.293 341.494 100.508C341.342 100.625 341.176 100.736 341.01 100.847C340.996 100.861 340.975 100.868 340.961 100.882C340.809 100.986 340.65 101.083 340.491 101.187C340.477 101.194 340.456 101.208 340.442 101.215C340.096 101.43 339.75 101.631 339.439 101.818C339.307 101.894 339.183 101.971 339.065 102.047C338.968 102.109 338.857 102.172 338.733 102.241C338.484 102.38 338.2 102.525 337.909 102.65C337.909 102.65 337.909 102.65 337.902 102.65C337.771 102.706 337.646 102.754 337.522 102.803C337.453 102.824 337.39 102.851 337.328 102.865C337.307 102.872 337.293 102.879 337.273 102.879C337.19 102.9 337.107 102.921 337.03 102.928C337.024 102.928 337.017 102.928 337.01 102.928C336.947 102.934 336.892 102.934 336.844 102.928C336.83 102.928 336.816 102.921 336.802 102.921C336.754 102.907 336.705 102.893 336.678 102.858C336.678 102.858 336.678 102.851 336.671 102.851C336.643 102.824 336.636 102.775 336.629 102.726C336.629 102.713 336.629 102.699 336.629 102.678C336.636 102.616 336.643 102.546 336.678 102.456C336.899 101.887 337.321 101.478 337.854 101.09C337.702 101.201 337.556 101.312 337.425 101.43C337.584 101.291 337.757 101.152 337.951 101.021C337.958 101.014 337.965 101.007 337.972 101.007C338.159 100.875 338.366 100.743 338.581 100.612C338.442 100.695 338.318 100.778 338.186 100.861C338.359 100.743 338.539 100.632 338.733 100.514C338.816 100.466 338.899 100.417 338.996 100.369ZM341.48 100.494C341.37 100.584 341.252 100.667 341.127 100.75C341.252 100.667 341.37 100.584 341.48 100.494ZM319.64 107.06C319.792 106.963 319.93 106.901 320.069 106.845C319.64 107.109 319.211 107.345 318.781 107.56C319.065 107.4 319.356 107.241 319.64 107.06ZM314.705 100.14C315.038 99.9805 315.377 99.828 315.723 99.7032C315.716 99.7032 315.716 99.7101 315.709 99.7101C315.647 99.7378 315.591 99.7725 315.536 99.8003C315.882 99.62 316.235 99.4535 316.588 99.3079C316.768 99.2386 316.948 99.1762 317.127 99.1138C317.238 99.0791 317.342 99.0306 317.453 99.0028C317.653 98.9404 317.847 98.9057 318.048 98.8572C318.152 98.8364 318.249 98.8017 318.352 98.7809C318.65 98.7255 318.948 98.6908 319.238 98.6769C319.384 98.67 319.515 98.67 319.647 98.67C319.674 98.67 319.695 98.6769 319.723 98.6769C319.82 98.6839 319.923 98.6839 320.013 98.6977C320.041 98.6977 320.062 98.7047 320.089 98.7116C320.172 98.7255 320.255 98.7324 320.339 98.7532C320.359 98.7601 320.38 98.7671 320.401 98.7671C320.477 98.7879 320.553 98.8017 320.622 98.8295C320.636 98.8364 320.657 98.8433 320.671 98.8503C320.74 98.878 320.809 98.8988 320.871 98.9335C320.892 98.9404 320.906 98.9543 320.92 98.9612C320.975 98.989 321.031 99.0236 321.079 99.0583C321.093 99.0652 321.1 99.0791 321.114 99.086C321.162 99.1207 321.211 99.1623 321.252 99.2039C321.266 99.2178 321.273 99.2317 321.287 99.2455C321.321 99.2871 321.363 99.3287 321.39 99.3703C321.404 99.3911 321.411 99.405 321.425 99.4258C321.453 99.4674 321.473 99.509 321.494 99.5576C321.501 99.5784 321.508 99.5992 321.515 99.6269C321.529 99.6685 321.55 99.717 321.563 99.7586C321.57 99.7864 321.577 99.8141 321.577 99.8488C321.584 99.8904 321.598 99.932 321.598 99.9805C321.605 100.015 321.605 100.057 321.605 100.098C321.605 100.133 321.612 100.175 321.612 100.209C321.612 100.258 321.605 100.313 321.598 100.362C321.598 100.39 321.598 100.417 321.591 100.452C321.584 100.514 321.57 100.584 321.557 100.653C321.55 100.674 321.55 100.688 321.55 100.709C321.529 100.792 321.508 100.875 321.48 100.965C321.48 100.965 321.48 100.965 321.48 100.972C321.1 102.123 319.999 103.496 318.588 104.522C318.698 104.439 318.809 104.363 318.913 104.28C318.671 104.474 318.415 104.654 318.152 104.821C317.854 105.015 317.55 105.195 317.231 105.348C316.747 105.59 316.242 105.771 315.73 105.895C316.235 105.777 316.74 105.59 317.231 105.348C317.224 105.355 317.217 105.355 317.211 105.361C317.204 105.361 317.204 105.368 317.197 105.368C316.954 105.486 316.705 105.59 316.456 105.68C316.595 105.639 316.733 105.597 316.871 105.549C315.66 106.214 314.311 106.623 313.024 106.513C307.916 106.055 310.712 102.075 314.705 100.14Z" fill="#BF9425"/>
<path d="M310.428 92.5208C310.656 91.9522 310.85 91.3698 311.002 90.7735C311.141 90.2534 311.238 89.7195 311.307 89.1786C311.376 88.6447 311.411 88.1108 311.418 87.5769C311.425 87.0014 311.397 86.4259 311.342 85.8503C311.265 85.1362 311.134 84.4289 310.954 83.7424C310.746 82.945 310.463 82.1753 310.117 81.4265C309.895 80.955 309.653 80.4973 309.383 80.0466C308.843 79.1591 308.22 78.3339 307.515 77.5712C306.774 76.7669 305.944 76.0388 305.037 75.3662C304.622 75.0611 304.193 74.7699 303.757 74.4717C303.432 74.2568 303.106 74.0349 302.802 73.7991C302.643 73.6813 302.49 73.5495 302.359 73.4108C302.262 73.3068 302.172 73.2028 302.117 73.0849C302.061 72.9809 302.027 72.87 302.02 72.759C302.02 72.6689 302.041 72.5788 302.082 72.4956C302.117 72.4331 302.158 72.3777 302.22 72.3291C302.234 72.3153 302.248 72.3083 302.262 72.2945C302.338 72.239 302.407 72.1905 302.483 72.1489C302.933 71.8784 303.404 71.6427 303.881 71.4208C304.304 71.2197 304.739 71.0325 305.175 70.8522C306.137 70.45 307.113 70.0687 308.068 69.6388C308.511 69.4377 308.947 69.2227 309.376 69.0008C309.535 68.9176 309.694 68.8344 309.854 68.7512C310.622 68.3213 311.348 67.829 312.027 67.2812C312.781 66.671 313.473 65.9984 314.096 65.2565C314.705 64.5423 315.245 63.7657 315.708 62.9406C315.93 62.5453 316.137 62.1362 316.324 61.7202C316.573 61.1585 316.788 60.583 316.954 59.9936C317.155 59.3072 317.307 58.5999 317.404 57.8857C317.501 57.1715 317.549 56.4504 317.556 55.7223C317.611 54.4673 317.501 53.24 317.245 52.0612C317.023 51.0558 316.691 50.085 316.255 49.1697C315.736 48.088 315.079 47.0896 314.29 46.202C313.688 45.5225 313.009 44.9054 312.276 44.3714C311.348 43.7058 310.324 43.1649 309.231 42.7905C308.677 42.5964 308.11 42.4507 307.535 42.3398C306.656 42.1734 305.771 42.0971 304.878 42.111C304.096 42.1248 303.314 42.2081 302.539 42.3398C301.854 42.4577 301.182 42.6172 300.511 42.8113C299.259 43.1719 298.041 43.6295 296.85 44.1704C296.394 44.3784 295.944 44.6072 295.501 44.836C294.802 45.1966 294.11 45.571 293.439 45.9801C292.31 46.6596 291.217 47.4016 290.158 48.1921C288.809 49.1975 287.515 50.2722 286.276 51.4094C284.484 53.0666 282.823 54.8556 281.307 56.7624C280.65 57.5945 280.02 58.4543 279.425 59.3349C278.968 60.0144 278.532 60.7078 278.124 61.4151C277.75 62.06 277.411 62.7187 277.079 63.3982C276.657 64.258 276.248 65.1456 275.833 66.0331C275.646 66.4283 275.459 66.8305 275.245 67.2049C275.134 67.3991 275.01 67.5932 274.871 67.7527C274.843 67.7805 274.816 67.8013 274.795 67.829C274.698 67.9261 274.601 68.0093 274.49 68.0578C274.435 68.0856 274.38 68.0994 274.317 68.1064C274.262 68.1133 274.2 68.1133 274.138 68.0994C274.006 68.0786 273.875 68.0301 273.743 67.9677C273.605 67.9053 273.466 67.8359 273.328 67.7666C273.189 67.6973 273.037 67.6349 272.892 67.5794C272.712 67.517 272.532 67.4754 272.345 67.4476C272.082 67.406 271.819 67.406 271.556 67.4338C271.279 67.4546 271.01 67.517 270.74 67.6071C270.65 67.6349 270.56 67.6765 270.477 67.7111C270.435 67.725 270.394 67.7389 270.352 67.7597C270.172 67.8429 270.006 67.933 269.84 68.044C269.729 68.1133 269.619 68.1965 269.508 68.2797C269.342 68.4115 269.183 68.5501 269.03 68.6957C268.615 69.0771 268.214 69.4793 267.805 69.8815C267.542 70.1449 267.279 70.4084 267.003 70.6442C266.767 70.8522 266.518 71.0325 266.255 71.192C266.214 71.2197 266.172 71.2474 266.131 71.2752C265.93 71.3931 265.715 71.4832 265.501 71.5525C265.314 71.608 265.127 71.6427 264.94 71.6565C264.643 71.6773 264.345 71.6496 264.041 71.5733C263.819 71.5179 263.605 71.4416 263.383 71.3584C263.12 71.2544 262.85 71.1226 262.574 70.9978C262.255 70.8591 261.937 70.7135 261.612 70.6165C261.577 70.6026 261.542 70.6026 261.508 70.5887C261.425 70.5679 261.349 70.5402 261.273 70.5332C261.169 70.5194 261.072 70.5263 261.003 70.5679C260.975 70.5818 260.954 70.6026 260.94 70.6234C260.933 70.6373 260.927 70.6511 260.927 70.665C260.92 70.7066 260.927 70.7551 260.94 70.8106C260.968 70.8938 261.023 70.977 261.086 71.0602C261.19 71.192 261.314 71.3237 261.453 71.4485C261.598 71.5803 261.757 71.7189 261.909 71.8438C262.165 72.0518 262.428 72.239 262.698 72.4123C263.183 72.7313 263.681 72.9809 264.193 73.1473C264.705 73.3138 265.224 73.397 265.743 73.3623C265.937 73.3554 266.131 73.3276 266.318 73.2791C266.629 73.2097 266.933 73.0849 267.224 72.9324C267.279 72.9047 267.335 72.863 267.39 72.8284C267.632 72.6828 267.861 72.5233 268.089 72.343C268.421 72.0795 268.754 71.7883 269.086 71.5109C269.383 71.2682 269.681 71.0325 269.999 70.8314C270.165 70.7274 270.345 70.6373 270.525 70.561C270.553 70.5471 270.58 70.5332 270.615 70.5263C270.747 70.4778 270.878 70.4431 271.016 70.4292C271.162 70.4084 271.3 70.4084 271.446 70.4292C271.681 70.4639 271.895 70.5471 272.089 70.6927C272.165 70.7482 272.228 70.8037 272.29 70.873C272.442 71.0325 272.553 71.2128 272.629 71.4139C272.705 71.6149 272.747 71.8299 272.767 72.0518C272.781 72.239 272.774 72.4331 272.76 72.6204C272.733 72.9116 272.691 73.1959 272.636 73.4802C272.532 74.0141 272.394 74.5341 272.234 75.0542C272.068 75.595 271.882 76.1359 271.688 76.6698C271.383 77.5088 271.065 78.3478 270.74 79.1799C270.518 79.7415 270.304 80.3032 270.089 80.8648C269.854 81.475 269.625 82.0921 269.397 82.7093C269.044 83.6661 268.705 84.63 268.38 85.6007C268.158 86.2594 267.937 86.9251 267.722 87.5838C267.411 88.5407 267.113 89.5045 266.823 90.4684C266.657 91.0161 266.497 91.5639 266.338 92.1117C266.061 93.1033 265.798 94.1017 265.556 95.1002C265.425 95.648 265.293 96.2027 265.183 96.7575C265.058 97.3538 264.947 97.9432 264.843 98.5395C264.733 99.1913 264.636 99.85 264.553 100.509C264.456 101.299 264.373 102.097 264.304 102.908C264.262 103.386 264.228 103.865 264.207 104.364C264.186 104.745 264.172 105.134 264.179 105.522C264.179 105.883 264.2 106.243 264.248 106.59C264.318 107.034 264.449 107.457 264.657 107.796C264.774 107.984 264.913 108.143 265.086 108.254C265.162 108.302 265.252 108.344 265.342 108.365C265.432 108.393 265.522 108.393 265.612 108.393C265.785 108.379 265.958 108.316 266.117 108.226C266.193 108.185 266.262 108.136 266.331 108.081C266.401 108.025 266.463 107.97 266.532 107.907C266.705 107.741 266.871 107.547 267.016 107.353C267.21 107.089 267.39 106.812 267.556 106.527C267.84 106.042 268.089 105.543 268.324 105.044C268.497 104.676 268.657 104.309 268.809 103.934C269.1 103.234 269.376 102.533 269.646 101.819C269.965 100.973 270.269 100.113 270.567 99.2537C270.809 98.5533 271.037 97.8461 271.259 97.1388C271.612 96.0363 271.944 94.9338 272.255 93.8175C272.567 92.7011 272.864 91.5847 273.134 90.4614C273.459 89.1024 273.75 87.7364 273.999 86.3635C274.179 85.3442 274.338 84.3179 274.47 83.2848C274.629 82.0367 274.747 80.7816 274.843 79.5266C274.926 78.4588 274.996 77.3979 275.079 76.33C275.162 75.2137 275.266 74.0973 275.404 72.9948C275.487 72.3846 275.577 71.7814 275.702 71.1781C275.833 70.5263 275.992 69.8815 276.193 69.2435C276.338 68.7651 276.511 68.2866 276.698 67.8221C276.885 67.3575 277.093 66.8929 277.321 66.4422C277.57 65.936 277.84 65.4368 278.131 64.9445C278.47 64.3551 278.837 63.7796 279.21 63.211C279.667 62.5245 280.151 61.8519 280.643 61.1863C281.238 60.3958 281.854 59.6192 282.484 58.8634C282.892 58.378 283.307 57.8996 283.722 57.4281C284.144 56.9566 284.573 56.492 285.009 56.0344C285.466 55.5559 285.93 55.0844 286.407 54.6198C286.899 54.1414 287.397 53.6699 287.909 53.2122C288.746 52.4495 289.612 51.7145 290.49 51.0072C291.169 50.4664 291.854 49.9463 292.56 49.4471C293.176 49.0103 293.798 48.5873 294.442 48.1851C295.155 47.7413 295.895 47.3184 296.65 46.9439C296.698 46.9162 296.753 46.8954 296.802 46.8746C297.404 46.5834 298.013 46.313 298.636 46.0772C299.196 45.8692 299.764 45.6889 300.345 45.5433C300.836 45.4254 301.335 45.3283 301.833 45.2729C302.677 45.1758 303.521 45.1688 304.359 45.2729C304.954 45.3491 305.549 45.4809 306.124 45.6612C306.594 45.8137 307.051 46.0009 307.494 46.2297C307.964 46.4655 308.421 46.7429 308.85 47.0618C309.224 47.3253 309.57 47.6165 309.909 47.9286C310.248 48.2406 310.566 48.5665 310.871 48.9062C311.265 49.35 311.625 49.8146 311.957 50.3069C312.248 50.7368 312.511 51.1806 312.753 51.6382C312.989 52.1028 313.203 52.5743 313.376 53.0666C313.57 53.6005 313.722 54.1483 313.84 54.71C313.944 55.2092 314.006 55.7154 314.04 56.2285C314.061 56.5613 314.068 56.8942 314.054 57.2201C314.04 57.6777 313.999 58.1284 313.93 58.586C313.861 59.0368 313.757 59.4875 313.625 59.9243C313.563 60.1393 313.487 60.3611 313.411 60.5761C313.238 61.0337 313.03 61.4844 312.788 61.9074C312.629 62.1917 312.456 62.4691 312.269 62.7325C312.054 63.0446 311.819 63.3427 311.57 63.627C311.258 63.9807 310.926 64.3204 310.58 64.6394C310.393 64.8058 310.207 64.9653 310.013 65.1248C309.563 65.4923 309.092 65.832 308.615 66.1579C307.992 66.574 307.348 66.9553 306.691 67.309C306.643 67.3367 306.594 67.3644 306.539 67.3922C306.151 67.6002 305.75 67.7943 305.348 67.9815C304.926 68.1826 304.504 68.3699 304.075 68.5571C303.411 68.8483 302.746 69.1395 302.082 69.4515C301.861 69.5556 301.646 69.6665 301.432 69.7774C301.286 69.8468 301.141 69.9161 301.002 69.9924C300.587 70.2143 300.179 70.4639 299.812 70.7551C299.466 71.0186 299.155 71.3098 298.885 71.6427C298.677 71.8992 298.497 72.1766 298.366 72.4748C298.269 72.6966 298.193 72.9255 298.144 73.1543C298.096 73.39 298.075 73.6327 298.082 73.8685C298.096 74.2914 298.179 74.7006 298.331 75.0958C298.525 75.602 298.816 76.0665 299.169 76.5034C299.376 76.7599 299.611 77.0026 299.861 77.2453C300.352 77.7307 300.878 78.1814 301.411 78.6252C301.957 79.0759 302.511 79.5196 303.058 79.9704C303.328 80.1922 303.591 80.4141 303.847 80.6429C304.297 81.0382 304.733 81.4612 305.134 81.9049C305.404 82.1962 305.66 82.5012 305.895 82.8202C306.089 83.0837 306.269 83.3541 306.435 83.6384C306.601 83.9227 306.746 84.207 306.878 84.5121C307.044 84.9004 307.182 85.2956 307.293 85.7047C307.376 86.0168 307.431 86.3427 307.48 86.6616C307.521 86.9875 307.549 87.3134 307.556 87.6393C307.563 87.986 307.549 88.3258 307.515 88.6725C307.48 89.0122 307.432 89.352 307.369 89.6918C307.293 90.087 307.196 90.4753 307.079 90.8567C307.009 91.0924 306.926 91.3212 306.836 91.5501C306.753 91.7719 306.656 91.9938 306.566 92.2157C306.345 92.7219 306.096 93.2073 305.833 93.6857C305.556 94.1711 305.265 94.6426 304.954 95.1002C304.656 95.5301 304.345 95.9531 304.02 96.3622C303.688 96.7852 303.342 97.2012 302.982 97.6034C302.525 98.1165 302.054 98.6158 301.57 99.1011C301.196 99.4686 300.823 99.8292 300.435 100.183C300.034 100.55 299.618 100.911 299.196 101.265C298.532 101.819 297.854 102.346 297.148 102.832C296.587 103.227 296.013 103.601 295.432 103.948C295.044 104.184 294.643 104.385 294.234 104.593C294.103 104.662 293.978 104.738 293.847 104.808C293.3 105.078 292.733 105.328 292.158 105.543C291.515 105.792 290.864 106.007 290.2 106.201C289.321 106.451 288.435 106.645 287.528 106.798C286.968 106.888 286.394 106.964 285.826 107.02C285.355 107.068 284.892 107.103 284.421 107.117C283.646 107.138 282.871 107.11 282.11 107.006C281.888 106.978 281.667 106.936 281.452 106.888C281.224 106.832 281.003 106.77 280.788 106.68C280.622 106.611 280.463 106.52 280.311 106.416C280.221 106.354 280.138 106.285 280.054 106.208C279.944 106.097 279.847 105.973 279.764 105.841C279.667 105.681 279.598 105.508 279.556 105.335C279.501 105.127 279.487 104.912 279.494 104.697C279.508 104.53 279.535 104.357 279.584 104.198C279.632 104.031 279.702 103.879 279.785 103.726C279.909 103.49 280.068 103.268 280.248 103.06C280.428 102.852 280.636 102.651 280.85 102.471C281.086 102.27 281.342 102.09 281.598 101.916C281.875 101.729 282.165 101.556 282.456 101.396C282.767 101.223 283.086 101.057 283.411 100.904C283.729 100.751 284.048 100.613 284.373 100.481C285.21 100.141 286.061 99.85 286.926 99.6004C287.958 99.3022 289.009 99.0457 290.061 98.8168C291.411 98.5187 292.76 98.2483 294.117 97.9501C294.809 97.7975 295.494 97.6381 296.186 97.4439C296.394 97.3884 296.608 97.3191 296.823 97.2428C297.023 97.1735 297.224 97.0903 297.411 96.9863C297.473 96.9516 297.528 96.9169 297.577 96.8823C297.584 96.8753 297.584 96.8684 297.591 96.8615C297.646 96.8199 297.695 96.7713 297.715 96.7228C297.722 96.702 297.729 96.6812 297.729 96.6604C297.729 96.6465 297.722 96.6257 297.715 96.6118C297.701 96.5841 297.674 96.5564 297.639 96.5356C297.577 96.494 297.494 96.4593 297.404 96.4316C297.079 96.3275 296.705 96.2859 296.324 96.2582C295.757 96.2235 295.169 96.2374 294.58 96.2651C294.241 96.2859 293.909 96.3067 293.57 96.3345C292.836 96.39 292.124 96.4524 291.418 96.5286C290.857 96.591 290.304 96.6604 289.75 96.7367C289.016 96.8407 288.283 96.9655 287.549 97.118C286.172 97.3954 284.809 97.7559 283.48 98.2136C282.747 98.4701 282.013 98.7475 281.314 99.0734C281.044 99.1982 280.788 99.3438 280.525 99.4756C279.909 99.7945 279.314 100.141 278.76 100.55C278.283 100.897 277.833 101.285 277.439 101.715C277.238 101.93 277.051 102.159 276.885 102.402C276.691 102.686 276.532 102.984 276.414 103.31C276.317 103.574 276.241 103.851 276.207 104.128C276.158 104.489 276.158 104.849 276.214 105.203C276.276 105.584 276.394 105.959 276.58 106.306C276.698 106.541 276.843 106.756 277.01 106.964C277.196 107.2 277.411 107.415 277.639 107.609C278.144 108.039 278.712 108.372 279.335 108.615C279.771 108.788 280.227 108.92 280.698 109.01C281.127 109.1 281.563 109.155 281.999 109.204C282.823 109.287 283.646 109.308 284.47 109.273C285.722 109.232 286.961 109.093 288.186 108.864C289.715 108.58 291.224 108.178 292.698 107.658C294.186 107.138 295.632 106.507 297.037 105.785C297.307 105.647 297.577 105.508 297.84 105.369C299.653 104.378 301.376 103.227 302.982 101.93C304.546 100.661 305.999 99.2537 307.279 97.7005C308.041 96.7783 308.746 95.8075 309.355 94.7813C309.743 94.0324 310.117 93.2905 310.428 92.5208ZM268.089 97.6173C268.283 96.3899 268.56 95.1557 268.809 93.9492C269.21 92.0285 269.709 90.1771 270.186 88.305C270.664 86.4328 271.169 84.5745 271.646 82.7093C271.708 82.4804 271.764 82.2447 271.819 82.0159V82.0228C272.234 80.3656 272.636 78.6668 273.224 77.1829C273.349 76.857 273.404 76.8847 273.411 77.072C273.432 77.4395 273.3 78.438 273.252 78.8124C273.189 79.277 273.12 79.7346 273.044 80.1992C272.913 81.0382 272.767 81.8703 272.601 82.6954C272.221 84.6092 271.833 86.5299 271.411 88.4298C271.397 88.506 271.369 88.5962 271.349 88.7002C271.349 88.7141 271.342 88.7279 271.342 88.7418C271.314 88.8527 271.286 88.9776 271.252 89.1162C271.252 89.1301 271.245 89.137 271.245 89.1509C271.176 89.4352 271.093 89.775 271.003 90.1494C270.996 90.1841 270.982 90.2187 270.975 90.2603C270.933 90.4406 270.885 90.6278 270.837 90.822C270.83 90.8567 270.816 90.8983 270.809 90.9329C270.698 91.3628 270.587 91.8205 270.463 92.2989C270.456 92.3128 270.456 92.3336 270.449 92.3475C270.387 92.5971 270.318 92.8467 270.255 93.0963C270.255 93.1033 270.248 93.1171 270.248 93.1241C269.695 95.225 269.044 97.4925 268.539 98.7614C268.567 98.699 268.594 98.6296 268.615 98.5603C268.421 99.0665 268.248 99.4548 268.103 99.642C268.096 99.6489 268.096 99.6489 268.089 99.6558C268.075 99.6697 268.068 99.6836 268.055 99.6974C267.515 100.315 267.992 98.2552 268.089 97.6173Z" fill="#BF9425"/>
</svg>
