<svg width="721" height="280" viewBox="0 0 721 280" fill="none" xmlns="http://www.w3.org/2000/svg">
<path d="M261.438 205H260.125L255.109 187.375C254.693 185.927 254.38 184.74 254.172 183.812C254.005 184.719 253.766 185.76 253.453 186.938C253.151 188.115 251.474 194.135 248.422 205H247.078L240.797 182.156H242.469L246.469 196.875C246.625 197.469 246.771 198.021 246.906 198.531C247.042 199.031 247.161 199.505 247.266 199.953C247.38 200.391 247.479 200.818 247.562 201.234C247.656 201.641 247.74 202.052 247.812 202.469C248.062 201.052 248.594 198.901 249.406 196.016L253.312 182.156H255.078L259.656 198.062C260.188 199.896 260.568 201.375 260.797 202.5C260.932 201.75 261.104 200.953 261.312 200.109C261.531 199.266 263.141 193.281 266.141 182.156H267.75L261.438 205ZM284.281 205H271.797V182.156H284.281V183.625H273.391V192.266H283.672V193.734H273.391V203.531H284.281V205ZM308.766 196.938H299.484L296.297 205H294.531L303.719 182.062H304.734L313.734 205H311.938L308.766 196.938ZM300.062 195.5H308.234L305.125 187.266C304.865 186.62 304.552 185.724 304.188 184.578C303.906 185.578 303.599 186.484 303.266 187.297L300.062 195.5ZM330.734 188.719C330.734 190.927 329.984 192.62 328.484 193.797C326.984 194.974 324.859 195.562 322.109 195.562H318.578V205H316.984V182.156H322.578C328.016 182.156 330.734 184.344 330.734 188.719ZM318.578 194.188H321.719C324.292 194.188 326.151 193.766 327.297 192.922C328.443 192.068 329.016 190.688 329.016 188.781C329.016 187.021 328.474 185.719 327.391 184.875C326.307 184.021 324.63 183.594 322.359 183.594H318.578V194.188ZM349.453 188.719C349.453 190.927 348.703 192.62 347.203 193.797C345.703 194.974 343.578 195.562 340.828 195.562H337.297V205H335.703V182.156H341.297C346.734 182.156 349.453 184.344 349.453 188.719ZM337.297 194.188H340.438C343.01 194.188 344.87 193.766 346.016 192.922C347.161 192.068 347.734 190.688 347.734 188.781C347.734 187.021 347.193 185.719 346.109 184.875C345.026 184.021 343.349 183.594 341.078 183.594H337.297V194.188ZM356.016 195.047V205H354.422V182.156H359.859C362.693 182.156 364.786 182.682 366.141 183.734C367.495 184.776 368.172 186.349 368.172 188.453C368.172 189.984 367.766 191.276 366.953 192.328C366.151 193.38 364.927 194.135 363.281 194.594L369.484 205H367.578L361.688 195.047H356.016ZM356.016 193.672H360.375C362.302 193.672 363.797 193.245 364.859 192.391C365.922 191.526 366.453 190.255 366.453 188.578C366.453 186.839 365.932 185.573 364.891 184.781C363.849 183.99 362.151 183.594 359.797 183.594H356.016V193.672ZM385.938 205H373.453V182.156H385.938V183.625H375.047V192.266H385.328V193.734H375.047V203.531H385.938V205ZM400.859 183.266C397.995 183.266 395.74 184.182 394.094 186.016C392.448 187.849 391.625 190.359 391.625 193.547C391.625 196.807 392.401 199.339 393.953 201.141C395.505 202.943 397.724 203.844 400.609 203.844C402.526 203.844 404.286 203.599 405.891 203.109V204.516C404.38 205.047 402.495 205.312 400.234 205.312C397.026 205.312 394.5 204.276 392.656 202.203C390.812 200.13 389.891 197.234 389.891 193.516C389.891 191.193 390.328 189.146 391.203 187.375C392.089 185.604 393.354 184.24 395 183.281C396.656 182.312 398.578 181.828 400.766 181.828C402.995 181.828 404.99 182.245 406.75 183.078L406.109 184.516C404.443 183.682 402.693 183.266 400.859 183.266ZM410.984 205V182.156H412.578V205H410.984ZM430.047 196.938H420.766L417.578 205H415.812L425 182.062H426.016L435.016 205H433.219L430.047 196.938ZM421.344 195.5H429.516L426.406 187.266C426.146 186.62 425.833 185.724 425.469 184.578C425.188 185.578 424.88 186.484 424.547 187.297L421.344 195.5ZM444.219 205H442.609V183.656H435.188V182.156H451.641V183.656H444.219V205ZM467.531 205H455.047V182.156H467.531V183.625H456.641V192.266H466.922V193.734H456.641V203.531H467.531V205ZM486.266 194.656L492.953 182.156H494.672L487.062 196.172V205H485.422V196.297L477.781 182.156H479.609L486.266 194.656ZM517.125 193.547C517.125 197.172 516.219 200.042 514.406 202.156C512.594 204.26 510.094 205.312 506.906 205.312C503.729 205.312 501.234 204.26 499.422 202.156C497.609 200.042 496.703 197.161 496.703 193.516C496.703 189.88 497.615 187.021 499.438 184.938C501.271 182.844 503.771 181.797 506.938 181.797C510.125 181.797 512.62 182.849 514.422 184.953C516.224 187.047 517.125 189.911 517.125 193.547ZM498.438 193.547C498.438 196.818 499.167 199.349 500.625 201.141C502.083 202.922 504.177 203.812 506.906 203.812C509.656 203.812 511.755 202.927 513.203 201.156C514.661 199.385 515.391 196.849 515.391 193.547C515.391 190.255 514.661 187.734 513.203 185.984C511.755 184.224 509.667 183.344 506.938 183.344C504.219 183.344 502.12 184.229 500.641 186C499.172 187.771 498.438 190.286 498.438 193.547ZM539.188 182.156V196.938C539.188 199.562 538.427 201.615 536.906 203.094C535.385 204.573 533.266 205.312 530.547 205.312C527.901 205.312 525.833 204.573 524.344 203.094C522.865 201.604 522.125 199.531 522.125 196.875V182.156H523.734V196.938C523.734 199.135 524.344 200.849 525.562 202.078C526.781 203.297 528.505 203.906 530.734 203.906C532.911 203.906 534.599 203.307 535.797 202.109C536.995 200.901 537.594 199.229 537.594 197.094V182.156H539.188ZM547.016 195.047V205H545.422V182.156H550.859C553.693 182.156 555.786 182.682 557.141 183.734C558.495 184.776 559.172 186.349 559.172 188.453C559.172 189.984 558.766 191.276 557.953 192.328C557.151 193.38 555.927 194.135 554.281 194.594L560.484 205H558.578L552.688 195.047H547.016ZM547.016 193.672H551.375C553.302 193.672 554.797 193.245 555.859 192.391C556.922 191.526 557.453 190.255 557.453 188.578C557.453 186.839 556.932 185.573 555.891 184.781C554.849 183.99 553.151 183.594 550.797 183.594H547.016V193.672ZM582.516 183.266C579.651 183.266 577.396 184.182 575.75 186.016C574.104 187.849 573.281 190.359 573.281 193.547C573.281 196.807 574.057 199.339 575.609 201.141C577.161 202.943 579.38 203.844 582.266 203.844C584.182 203.844 585.943 203.599 587.547 203.109V204.516C586.036 205.047 584.151 205.312 581.891 205.312C578.682 205.312 576.156 204.276 574.312 202.203C572.469 200.13 571.547 197.234 571.547 193.516C571.547 191.193 571.984 189.146 572.859 187.375C573.745 185.604 575.01 184.24 576.656 183.281C578.312 182.312 580.234 181.828 582.422 181.828C584.651 181.828 586.646 182.245 588.406 183.078L587.766 184.516C586.099 183.682 584.349 183.266 582.516 183.266ZM609.188 205H607.578V193.766H594.234V205H592.641V182.156H594.234V192.297H607.578V182.156H609.188V205ZM634.875 193.547C634.875 197.172 633.969 200.042 632.156 202.156C630.344 204.26 627.844 205.312 624.656 205.312C621.479 205.312 618.984 204.26 617.172 202.156C615.359 200.042 614.453 197.161 614.453 193.516C614.453 189.88 615.365 187.021 617.188 184.938C619.021 182.844 621.521 181.797 624.688 181.797C627.875 181.797 630.37 182.849 632.172 184.953C633.974 187.047 634.875 189.911 634.875 193.547ZM616.188 193.547C616.188 196.818 616.917 199.349 618.375 201.141C619.833 202.922 621.927 203.812 624.656 203.812C627.406 203.812 629.505 202.927 630.953 201.156C632.411 199.385 633.141 196.849 633.141 193.547C633.141 190.255 632.411 187.734 630.953 185.984C629.505 184.224 627.417 183.344 624.688 183.344C621.969 183.344 619.87 184.229 618.391 186C616.922 187.771 616.188 190.286 616.188 193.547ZM640.141 205V182.156H641.734V205H640.141ZM657.953 183.266C655.089 183.266 652.833 184.182 651.188 186.016C649.542 187.849 648.719 190.359 648.719 193.547C648.719 196.807 649.495 199.339 651.047 201.141C652.599 202.943 654.818 203.844 657.703 203.844C659.62 203.844 661.38 203.599 662.984 203.109V204.516C661.474 205.047 659.589 205.312 657.328 205.312C654.12 205.312 651.594 204.276 649.75 202.203C647.906 200.13 646.984 197.234 646.984 193.516C646.984 191.193 647.422 189.146 648.297 187.375C649.182 185.604 650.448 184.24 652.094 183.281C653.75 182.312 655.672 181.828 657.859 181.828C660.089 181.828 662.083 182.245 663.844 183.078L663.203 184.516C661.536 183.682 659.786 183.266 657.953 183.266ZM680.562 205H668.078V182.156H680.562V183.625H669.672V192.266H679.953V193.734H669.672V203.531H680.562V205Z" fill="#F1F2F2"/>
<path d="M210.071 227.537C210.065 235.18 208.39 242.729 205.163 249.658C201.937 256.587 197.236 262.727 191.391 267.651C185.545 272.575 178.695 276.164 171.319 278.166C163.942 280.168 156.218 280.536 148.685 279.244C141.152 277.952 133.992 275.031 127.704 270.684C121.417 266.338 116.155 260.672 112.284 254.081C108.414 247.49 106.029 240.134 105.296 232.526C104.563 224.918 105.5 217.242 108.042 210.034C108.042 210.01 108.042 210.01 108.065 209.987L105.054 210.034C79.2146 210.075 54.2745 200.548 35.0432 183.289C32.1284 180.702 29.3698 177.943 26.7818 175.028C9.53664 155.786 0 130.856 0 105.017C0 79.1779 9.53664 54.2479 26.7818 35.0057C29.3698 32.091 32.1284 29.3324 35.0432 26.7444C54.2745 9.48604 79.2146 -0.0410755 105.054 0.000133126V35.0057C92.7652 34.9871 80.6892 38.2154 70.0488 44.3639C59.4177 50.5332 50.5843 59.3747 44.4247 70.0113C38.2799 80.6544 35.0449 92.7274 35.0449 105.017C35.0449 117.306 38.2799 129.38 44.4247 140.023C50.5788 150.657 59.414 159.493 70.0488 165.647C80.6831 171.813 92.7618 175.05 105.054 175.028H157.563C163.524 175.021 169.444 176.031 175.066 178.015C176.396 178.482 177.703 179.019 178.986 179.579C188.249 183.712 196.115 190.442 201.632 198.953C207.149 207.465 210.081 217.393 210.071 227.537Z" fill="url(#logoL0_linear)"/>
<path d="M175.066 17.5022C175.074 20.164 174.467 22.7917 173.292 25.1801C171.407 29.0432 168.165 32.0774 164.186 33.7041C160.207 35.3308 155.769 35.4363 151.717 34.0005C147.665 32.5647 144.283 29.688 142.216 25.9189C140.149 22.1498 139.542 17.7518 140.509 13.5634C141.477 9.37499 143.952 5.68911 147.462 3.20845C150.973 0.727779 155.274 -0.374181 159.545 0.112645C163.816 0.599471 167.759 2.64104 170.621 5.84813C173.483 9.05522 175.066 13.2035 175.066 17.5022Z" fill="url(#logoL1_linear)"/>
<path d="M97.1796 132.066C92.9483 132.066 89.2777 131.403 86.1679 130.078C83.1091 128.752 80.7641 127.018 79.1327 124.877C77.5013 122.684 76.6347 120.339 76.5327 117.84C76.5327 117.433 76.6857 117.076 76.9915 116.77C77.3484 116.413 77.7562 116.234 78.2151 116.234H82.115C83.0837 116.234 83.7464 116.744 84.1033 117.764C84.5621 119.905 85.8621 121.741 88.0032 123.271C90.1954 124.8 93.2542 125.565 97.1796 125.565C101.411 125.565 104.597 124.826 106.738 123.347C108.88 121.818 109.95 119.702 109.95 116.999C109.95 115.266 109.415 113.863 108.344 112.793C107.325 111.722 105.795 110.779 103.756 109.963C101.717 109.147 98.6581 108.127 94.5797 106.904C90.6032 105.782 87.4424 104.584 85.0974 103.309C82.7523 102.034 80.9935 100.454 79.8209 98.5671C78.6484 96.6806 78.0621 94.3097 78.0621 91.4544C78.0621 88.701 78.8013 86.2281 80.2797 84.0357C81.8092 81.8432 83.9758 80.1351 86.7797 78.9114C89.5836 77.6367 92.9228 76.9994 96.7973 76.9994C100.774 76.9994 104.189 77.7132 107.044 79.1408C109.899 80.5175 112.066 82.2766 113.544 84.4181C115.023 86.5595 115.813 88.701 115.915 90.8425C115.915 91.2504 115.762 91.6073 115.456 91.9132C115.201 92.2192 114.819 92.3721 114.309 92.3721H110.256C109.185 92.3721 108.523 91.8878 108.268 90.919C107.962 88.7775 106.764 87.0184 104.674 85.6418C102.584 84.2141 99.9581 83.5003 96.7973 83.5003C93.3306 83.5003 90.6032 84.1631 88.615 85.4888C86.6268 86.8145 85.6327 88.7775 85.6327 91.3779C85.6327 93.1115 86.0915 94.5391 87.0091 95.6608C87.9777 96.7826 89.4307 97.7768 91.3679 98.6436C93.3052 99.4594 96.1345 100.403 99.8561 101.473C104.189 102.646 107.605 103.87 110.103 105.145C112.601 106.368 114.462 107.923 115.685 109.81C116.909 111.645 117.521 113.991 117.521 116.846C117.521 121.588 115.685 125.31 112.015 128.013C108.344 130.715 103.399 132.066 97.1796 132.066Z" fill="url(#logoL2_linear)"/>
<path d="M152.243 131.301C151.734 131.301 151.3 131.148 150.943 130.842C150.638 130.485 150.485 130.052 150.485 129.542V79.5997C150.485 79.0389 150.638 78.6055 150.943 78.2995C151.3 77.9426 151.734 77.7642 152.243 77.7642H156.143C156.704 77.7642 157.138 77.9426 157.443 78.2995C157.8 78.6055 157.979 79.0389 157.979 79.5997V100.709H184.284V79.5997C184.284 79.0389 184.437 78.6055 184.743 78.2995C185.1 77.9426 185.533 77.7642 186.043 77.7642H189.943C190.504 77.7642 190.937 77.9426 191.243 78.2995C191.6 78.6055 191.779 79.0389 191.779 79.5997V129.542C191.779 130.052 191.6 130.485 191.243 130.842C190.886 131.148 190.453 131.301 189.943 131.301H186.043C185.533 131.301 185.1 131.148 184.743 130.842C184.437 130.485 184.284 130.052 184.284 129.542V107.592H157.979V129.542C157.979 130.052 157.8 130.485 157.443 130.842C157.087 131.148 156.653 131.301 156.143 131.301H152.243Z" fill="url(#logoL3_linear)"/>
<path d="M229.774 131.301C229.264 131.301 228.831 131.148 228.474 130.842C228.168 130.485 228.015 130.052 228.015 129.542V79.5997C228.015 79.0389 228.168 78.6055 228.474 78.2995C228.831 77.9426 229.264 77.7642 229.774 77.7642H261.356C261.866 77.7642 262.274 77.9426 262.58 78.2995C262.937 78.6055 263.115 79.0389 263.115 79.5997V82.506C263.115 83.0159 262.962 83.4493 262.656 83.8062C262.35 84.1121 261.917 84.2651 261.356 84.2651H235.356V101.015H259.674C260.184 101.015 260.591 101.193 260.897 101.55C261.254 101.856 261.433 102.289 261.433 102.85V105.68C261.433 106.19 261.254 106.623 260.897 106.98C260.591 107.286 260.184 107.439 259.674 107.439H235.356V124.8H261.968C262.529 124.8 262.962 124.953 263.268 125.259C263.574 125.565 263.727 125.998 263.727 126.559V129.542C263.727 130.052 263.548 130.485 263.191 130.842C262.886 131.148 262.478 131.301 261.968 131.301H229.774Z" fill="url(#logoL4_linear)"/>
<path d="M299.09 131.301C298.58 131.301 298.147 131.148 297.79 130.842C297.484 130.485 297.331 130.052 297.331 129.542V79.5232C297.331 79.0134 297.484 78.6055 297.79 78.2995C298.147 77.9426 298.58 77.7642 299.09 77.7642H303.143C303.653 77.7642 304.061 77.9426 304.366 78.2995C304.723 78.6055 304.902 79.0134 304.902 79.5232V124.647H330.29C330.851 124.647 331.284 124.826 331.59 125.183C331.947 125.489 332.125 125.922 332.125 126.483V129.542C332.125 130.052 331.947 130.485 331.59 130.842C331.233 131.148 330.8 131.301 330.29 131.301H299.09Z" fill="url(#logoL5_linear)"/>
<path d="M365.12 131.301C364.61 131.301 364.177 131.148 363.82 130.842C363.514 130.485 363.361 130.052 363.361 129.542V79.5232C363.361 79.0134 363.514 78.6055 363.82 78.2995C364.177 77.9426 364.61 77.7642 365.12 77.7642H369.173C369.683 77.7642 370.091 77.9426 370.397 78.2995C370.753 78.6055 370.932 79.0134 370.932 79.5232V124.647H396.32C396.881 124.647 397.314 124.826 397.62 125.183C397.977 125.489 398.155 125.922 398.155 126.483V129.542C398.155 130.052 397.977 130.485 397.62 130.842C397.263 131.148 396.83 131.301 396.32 131.301H365.12Z" fill="url(#logoL6_linear)"/>
<path d="M431.609 131.301C431.099 131.301 430.691 131.148 430.385 130.842C430.08 130.536 429.927 130.128 429.927 129.619V79.4468C429.927 78.9369 430.08 78.529 430.385 78.2231C430.691 77.9171 431.099 77.7642 431.609 77.7642H433.062C433.572 77.7642 433.98 77.9171 434.285 78.2231C434.591 78.529 434.744 78.9369 434.744 79.4468V126.712H461.126C461.687 126.712 462.121 126.865 462.426 127.171C462.732 127.477 462.885 127.911 462.885 128.471V129.619C462.885 130.128 462.707 130.536 462.35 130.842C462.044 131.148 461.636 131.301 461.126 131.301H431.609Z" fill="url(#logoL7_linear)"/>
<path d="M512.064 132.066C498.962 132.066 492.233 125.03 491.876 110.957C491.825 109.428 491.799 107.286 491.799 104.533C491.799 101.779 491.825 99.6379 491.876 98.1082C492.08 91.1739 493.966 85.9222 497.535 82.3531C501.103 78.7839 505.946 76.9994 512.064 76.9994C518.182 76.9994 523.025 78.7839 526.593 82.3531C530.162 85.9222 532.048 91.1739 532.252 98.1082C532.354 101.168 532.405 103.309 532.405 104.533C532.405 105.756 532.354 107.898 532.252 110.957C531.895 125.03 525.166 132.066 512.064 132.066ZM512.064 127.477C516.652 127.477 520.297 126.1 522.999 123.347C525.752 120.543 527.23 116.285 527.434 110.575C527.536 107.515 527.587 105.501 527.587 104.533C527.587 103.564 527.536 101.55 527.434 98.4907C527.23 92.78 525.752 88.5481 522.999 85.7947C520.246 82.9904 516.601 81.5882 512.064 81.5882C507.527 81.5882 503.882 82.9904 501.129 85.7947C498.376 88.5481 496.897 92.78 496.693 98.4907C496.642 100.02 496.617 102.034 496.617 104.533C496.617 107.031 496.642 109.045 496.693 110.575C496.897 116.285 498.35 120.543 501.052 123.347C503.805 126.1 507.476 127.477 512.064 127.477Z" fill="url(#logoL8_linear)"/>
<path d="M585.866 132.066C579.493 132.066 574.548 130.23 571.031 126.559C567.513 122.888 565.652 117.968 565.448 111.798C565.397 110.269 565.372 107.847 565.372 104.533C565.372 101.218 565.397 98.7966 565.448 97.267C565.652 91.0974 567.513 86.1771 571.031 82.506C574.548 78.8349 579.493 76.9994 585.866 76.9994C590.199 76.9994 593.844 77.8152 596.801 79.4468C599.758 81.0784 601.95 83.0159 603.378 85.2594C604.856 87.4518 605.646 89.4149 605.748 91.1484V91.3014C605.748 91.7093 605.595 92.0407 605.289 92.2957C604.983 92.5506 604.601 92.6781 604.142 92.6781H602.46C602.001 92.6781 601.67 92.5761 601.466 92.3721C601.262 92.1682 601.058 91.7603 600.854 91.1484C599.987 88.4461 598.305 86.1771 595.807 84.3416C593.36 82.506 590.046 81.5882 585.866 81.5882C581.125 81.5882 577.378 82.8884 574.625 85.4888C571.923 88.0892 570.47 92.1427 570.266 97.6494C570.215 99.179 570.19 101.473 570.19 104.533C570.19 107.592 570.215 109.886 570.266 111.416C570.47 116.923 571.923 120.976 574.625 123.577C577.378 126.177 581.125 127.477 585.866 127.477C590.607 127.477 594.431 126.126 597.336 123.424C600.242 120.721 601.695 116.719 601.695 111.416V107.515H588.389C587.88 107.515 587.472 107.363 587.166 107.057C586.86 106.7 586.707 106.266 586.707 105.756V104.686C586.707 104.176 586.86 103.768 587.166 103.462C587.472 103.105 587.88 102.927 588.389 102.927H604.754C605.315 102.927 605.748 103.08 606.054 103.385C606.36 103.691 606.513 104.125 606.513 104.686V111.416C606.513 115.495 605.697 119.09 604.066 122.2C602.434 125.31 600.064 127.732 596.954 129.466C593.844 131.199 590.148 132.066 585.866 132.066Z" fill="url(#logoL9_linear)"/>
<path d="M642.917 131.301C642.408 131.301 642 131.148 641.694 130.842C641.388 130.536 641.235 130.128 641.235 129.619V79.4468C641.235 78.9369 641.388 78.529 641.694 78.2231C642 77.9171 642.408 77.7642 642.917 77.7642H644.37C644.88 77.7642 645.288 77.9171 645.594 78.2231C645.9 78.529 646.053 78.9369 646.053 79.4468V129.619C646.053 130.128 645.9 130.536 645.594 130.842C645.288 131.148 644.88 131.301 644.37 131.301H642.917Z" fill="url(#logoL10_linear)"/>
<path d="M680.004 131.301C679.596 131.301 679.239 131.148 678.933 130.842C678.627 130.536 678.474 130.179 678.474 129.772C678.474 129.415 678.576 129.083 678.78 128.777L696.598 104.074L679.468 80.2881C679.264 79.9821 679.162 79.6507 679.162 79.2938C679.162 78.8859 679.315 78.529 679.621 78.2231C679.927 77.9171 680.284 77.7642 680.692 77.7642H682.527C683.19 77.7642 683.776 78.1466 684.286 78.9114L699.656 100.326L714.721 78.9114C715.282 78.1466 715.868 77.7642 716.48 77.7642H718.162C718.57 77.7642 718.927 77.9171 719.233 78.2231C719.539 78.529 719.692 78.8859 719.692 79.2938C719.692 79.6507 719.59 79.9821 719.386 80.2881L702.486 104.227L720.227 128.777C720.431 129.083 720.533 129.415 720.533 129.772C720.533 130.179 720.38 130.536 720.074 130.842C719.768 131.148 719.411 131.301 719.003 131.301H717.168C716.556 131.301 715.97 130.919 715.409 130.154L699.427 108.051L683.445 130.154C682.935 130.919 682.349 131.301 681.686 131.301H680.004Z" fill="url(#logoL11_linear)"/>
<defs>
<linearGradient id="logoL0_linear" x1="105.036" y1="0" x2="105.036" y2="280" gradientUnits="userSpaceOnUse">
<stop stop-color="#5040B6"/>
<stop offset="1" stop-color="#3D80D4"/>
</linearGradient>
<linearGradient id="logoL1_linear" x1="157.563" y1="0" x2="157.563" y2="35.0056" gradientUnits="userSpaceOnUse">
<stop stop-color="#5040B6"/>
<stop offset="1" stop-color="#3D80D4"/>
</linearGradient>
<linearGradient id="logoL2_linear" x1="398.533" y1="76.9994" x2="398.533" y2="132.066" gradientUnits="userSpaceOnUse">
<stop stop-color="#5040B6"/>
<stop offset="1" stop-color="#3D80D4"/>
</linearGradient>
<linearGradient id="logoL3_linear" x1="398.533" y1="76.9994" x2="398.533" y2="132.066" gradientUnits="userSpaceOnUse">
<stop stop-color="#5040B6"/>
<stop offset="1" stop-color="#3D80D4"/>
</linearGradient>
<linearGradient id="logoL4_linear" x1="398.533" y1="76.9994" x2="398.533" y2="132.066" gradientUnits="userSpaceOnUse">
<stop stop-color="#5040B6"/>
<stop offset="1" stop-color="#3D80D4"/>
</linearGradient>
<linearGradient id="logoL5_linear" x1="398.533" y1="76.9994" x2="398.533" y2="132.066" gradientUnits="userSpaceOnUse">
<stop stop-color="#5040B6"/>
<stop offset="1" stop-color="#3D80D4"/>
</linearGradient>
<linearGradient id="logoL6_linear" x1="398.533" y1="76.9994" x2="398.533" y2="132.066" gradientUnits="userSpaceOnUse">
<stop stop-color="#5040B6"/>
<stop offset="1" stop-color="#3D80D4"/>
</linearGradient>
<linearGradient id="logoL7_linear" x1="398.533" y1="76.9994" x2="398.533" y2="132.066" gradientUnits="userSpaceOnUse">
<stop stop-color="#5040B6"/>
<stop offset="1" stop-color="#3D80D4"/>
</linearGradient>
<linearGradient id="logoL8_linear" x1="398.533" y1="76.9994" x2="398.533" y2="132.066" gradientUnits="userSpaceOnUse">
<stop stop-color="#5040B6"/>
<stop offset="1" stop-color="#3D80D4"/>
</linearGradient>
<linearGradient id="logoL9_linear" x1="398.533" y1="76.9994" x2="398.533" y2="132.066" gradientUnits="userSpaceOnUse">
<stop stop-color="#5040B6"/>
<stop offset="1" stop-color="#3D80D4"/>
</linearGradient>
<linearGradient id="logoL10_linear" x1="398.533" y1="76.9994" x2="398.533" y2="132.066" gradientUnits="userSpaceOnUse">
<stop stop-color="#5040B6"/>
<stop offset="1" stop-color="#3D80D4"/>
</linearGradient>
<linearGradient id="logoL11_linear" x1="398.533" y1="76.9994" x2="398.533" y2="132.066" gradientUnits="userSpaceOnUse">
<stop stop-color="#5040B6"/>
<stop offset="1" stop-color="#3D80D4"/>
</linearGradient>
</defs>
</svg>
