<svg width="165" height="64" viewBox="0 0 165 64" fill="none" xmlns="http://www.w3.org/2000/svg">
<path d="M48.0163 52.0084C48.0148 53.7554 47.6319 55.481 46.8944 57.0647C46.1569 58.6484 45.0826 60.052 43.7464 61.1775C42.4103 62.303 40.8445 63.1232 39.1585 63.5808C37.4725 64.0385 35.707 64.1226 33.9851 63.8272C32.2633 63.5318 30.6267 62.8641 29.1896 61.8707C27.7525 60.8773 26.5497 59.5821 25.665 58.0757C24.7804 56.5692 24.2352 54.8878 24.0677 53.1488C23.9002 51.4099 24.1144 49.6553 24.6952 48.0077C24.6952 48.0024 24.6952 48.0024 24.7005 47.997L24.0124 48.0077C18.1062 48.0171 12.4056 45.8395 8.00986 41.8947C7.34364 41.3032 6.7131 40.6727 6.12156 40.0064C2.1798 35.6082 0 29.9099 0 24.0039C0 18.0978 2.1798 12.3995 6.12156 8.00131C6.7131 7.33509 7.34364 6.70455 8.00986 6.11301C12.4056 2.16824 18.1062 -0.00938869 24.0124 3.04287e-05V8.00131C21.2035 7.99704 18.4433 8.73494 16.0111 10.1403C13.5812 11.5504 11.5621 13.5714 10.1542 16.0026C8.74969 18.4353 8.01027 21.1948 8.01027 24.0039C8.01027 26.8129 8.74969 29.5725 10.1542 32.0052C11.5609 34.436 13.5803 36.4554 16.0111 37.8621C18.4419 39.2715 21.2027 40.0114 24.0124 40.0064H36.0143C37.377 40.0049 38.73 40.2358 40.015 40.6892C40.319 40.7959 40.6178 40.9186 40.9111 41.0466C43.0284 41.9913 44.8264 43.5295 46.0874 45.475C47.3484 47.4206 48.0184 49.6899 48.0163 52.0084Z" fill="url(#paint0_linear)"/>
<path d="M40.015 4.00076C40.0169 4.60916 39.8781 5.20978 39.6096 5.7557C39.1786 6.6387 38.4377 7.33221 37.5282 7.70403C36.6187 8.07584 35.6042 8.09996 34.6781 7.77178C33.752 7.4436 32.979 6.78608 32.5065 5.92457C32.0341 5.06305 31.8952 4.0578 32.1163 3.10045C32.3375 2.1431 32.9032 1.30061 33.7057 0.733603C34.5081 0.166594 35.4912 -0.085283 36.4674 0.0259916C37.4436 0.137266 38.3448 0.603909 38.999 1.33696C39.6533 2.07001 40.0149 3.0182 40.015 4.00076Z" fill="url(#paint1_linear)"/>
<path d="M22.2127 30.1866C21.2455 30.1866 20.4066 30.0351 19.6957 29.7321C18.9966 29.4291 18.4606 29.0329 18.0877 28.5434C17.7148 28.0422 17.5167 27.5061 17.4934 26.9351C17.4934 26.8419 17.5284 26.7603 17.5983 26.6903C17.6798 26.6088 17.7731 26.568 17.8779 26.568H18.7694C18.9908 26.568 19.1422 26.6845 19.2238 26.9176C19.3287 27.4071 19.6258 27.8266 20.1152 28.1763C20.6163 28.5259 21.3155 28.7007 22.2127 28.7007C23.1799 28.7007 23.9082 28.5317 24.3976 28.1938C24.887 27.8441 25.1317 27.3605 25.1317 26.7428C25.1317 26.3465 25.0093 26.026 24.7646 25.7813C24.5316 25.5366 24.182 25.321 23.7159 25.1345C23.2498 24.948 22.5506 24.7149 21.6184 24.4352C20.7095 24.1788 19.9871 23.905 19.451 23.6136C18.915 23.3222 18.513 22.961 18.245 22.5298C17.977 22.0985 17.843 21.5566 17.843 20.904C17.843 20.2746 18.0119 19.7094 18.3499 19.2083C18.6995 18.7071 19.1947 18.3167 19.8356 18.037C20.4765 17.7457 21.2397 17.6 22.1253 17.6C23.0342 17.6 23.8149 17.7631 24.4675 18.0895C25.12 18.4041 25.6153 18.8062 25.9532 19.2957C26.2911 19.7852 26.4717 20.2746 26.495 20.7641C26.495 20.8574 26.4601 20.9389 26.3902 21.0089C26.3319 21.0788 26.2445 21.1138 26.128 21.1138H25.2016C24.9569 21.1138 24.8054 21.003 24.7471 20.7816C24.6772 20.2921 24.4034 19.89 23.9256 19.5754C23.4479 19.2491 22.8478 19.0859 22.1253 19.0859C21.3329 19.0859 20.7095 19.2374 20.2551 19.5404C19.8006 19.8434 19.5734 20.2921 19.5734 20.8865C19.5734 21.2827 19.6783 21.6091 19.888 21.8655C20.1094 22.1219 20.4415 22.3491 20.8843 22.5472C21.3271 22.7337 21.9738 22.9493 22.8245 23.194C23.8149 23.4621 24.5957 23.7418 25.1666 24.0332C25.7376 24.3129 26.1629 24.6683 26.4426 25.0995C26.7223 25.5191 26.8621 26.0552 26.8621 26.7078C26.8621 27.7917 26.4426 28.6424 25.6036 29.2601C24.7646 29.8778 23.6343 30.1866 22.2127 30.1866Z" fill="url(#paint2_linear)"/>
<path d="M34.7987 30.0118C34.6822 30.0118 34.5832 29.9769 34.5016 29.9069C34.4317 29.8254 34.3967 29.7263 34.3967 29.6098V18.1943C34.3967 18.0661 34.4317 17.9671 34.5016 17.8972C34.5832 17.8156 34.6822 17.7748 34.7987 17.7748H35.6901C35.8183 17.7748 35.9174 17.8156 35.9873 17.8972C36.0689 17.9671 36.1096 18.0661 36.1096 18.1943V23.0192H42.1224V18.1943C42.1224 18.0661 42.1573 17.9671 42.2272 17.8972C42.3088 17.8156 42.4079 17.7748 42.5244 17.7748H43.4158C43.544 17.7748 43.643 17.8156 43.713 17.8972C43.7945 17.9671 43.8353 18.0661 43.8353 18.1943V29.6098C43.8353 29.7263 43.7945 29.8254 43.713 29.9069C43.6314 29.9769 43.5323 30.0118 43.4158 30.0118H42.5244C42.4079 30.0118 42.3088 29.9769 42.2272 29.9069C42.1573 29.8254 42.1224 29.7263 42.1224 29.6098V24.5926H36.1096V29.6098C36.1096 29.7263 36.0689 29.8254 35.9873 29.9069C35.9057 29.9769 35.8067 30.0118 35.6901 30.0118H34.7987Z" fill="url(#paint3_linear)"/>
<path d="M52.52 30.0118C52.4035 30.0118 52.3044 29.9769 52.2228 29.9069C52.1529 29.8254 52.118 29.7263 52.118 29.6098V18.1943C52.118 18.0661 52.1529 17.9671 52.2228 17.8972C52.3044 17.8156 52.4035 17.7748 52.52 17.7748H59.7388C59.8553 17.7748 59.9485 17.8156 60.0184 17.8972C60.1 17.9671 60.1408 18.0661 60.1408 18.1943V18.8586C60.1408 18.9752 60.1058 19.0742 60.0359 19.1558C59.966 19.2258 59.8669 19.2607 59.7388 19.2607H53.7959V23.0892H59.3542C59.4707 23.0892 59.564 23.13 59.6339 23.2115C59.7155 23.2815 59.7562 23.3805 59.7562 23.5087V24.1555C59.7562 24.2721 59.7155 24.3711 59.6339 24.4527C59.564 24.5226 59.4707 24.5576 59.3542 24.5576H53.7959V28.5259H59.8786C60.0068 28.5259 60.1058 28.5609 60.1757 28.6308C60.2456 28.7007 60.2806 28.7998 60.2806 28.928V29.6098C60.2806 29.7263 60.2398 29.8254 60.1583 29.9069C60.0883 29.9769 59.9951 30.0118 59.8786 30.0118H52.52Z" fill="url(#paint4_linear)"/>
<path d="M68.3636 30.0118C68.2471 30.0118 68.1481 29.9769 68.0665 29.9069C67.9966 29.8254 67.9616 29.7263 67.9616 29.6098V18.1769C67.9616 18.0603 67.9966 17.9671 68.0665 17.8972C68.1481 17.8156 68.2471 17.7748 68.3636 17.7748H69.29C69.4065 17.7748 69.4998 17.8156 69.5697 17.8972C69.6512 17.9671 69.692 18.0603 69.692 18.1769V28.4909H75.495C75.6232 28.4909 75.7222 28.5317 75.7922 28.6133C75.8737 28.6832 75.9145 28.7823 75.9145 28.9105V29.6098C75.9145 29.7263 75.8737 29.8254 75.7922 29.9069C75.7106 29.9769 75.6115 30.0118 75.495 30.0118H68.3636Z" fill="url(#paint5_linear)"/>
<path d="M83.4562 30.0118C83.3397 30.0118 83.2407 29.9769 83.1591 29.9069C83.0892 29.8254 83.0542 29.7263 83.0542 29.6098V18.1769C83.0542 18.0603 83.0892 17.9671 83.1591 17.8972C83.2407 17.8156 83.3397 17.7748 83.4562 17.7748H84.3826C84.4991 17.7748 84.5924 17.8156 84.6623 17.8972C84.7438 17.9671 84.7846 18.0603 84.7846 18.1769V28.4909H90.5876C90.7158 28.4909 90.8148 28.5317 90.8848 28.6133C90.9663 28.6832 91.0071 28.7823 91.0071 28.9105V29.6098C91.0071 29.7263 90.9663 29.8254 90.8848 29.9069C90.8032 29.9769 90.7041 30.0118 90.5876 30.0118H83.4562Z" fill="url(#paint6_linear)"/>
<path d="M98.6537 30.0118C98.5372 30.0118 98.444 29.9769 98.374 29.9069C98.3041 29.837 98.2692 29.7438 98.2692 29.6272V18.1594C98.2692 18.0428 98.3041 17.9496 98.374 17.8797C98.444 17.8098 98.5372 17.7748 98.6537 17.7748H98.9858C99.1023 17.7748 99.1955 17.8098 99.2655 17.8797C99.3354 17.9496 99.3703 18.0428 99.3703 18.1594V28.9629H105.401C105.529 28.9629 105.628 28.9979 105.698 29.0678C105.768 29.1378 105.803 29.2368 105.803 29.365V29.6272C105.803 29.7438 105.762 29.837 105.68 29.9069C105.61 29.9769 105.517 30.0118 105.401 30.0118H98.6537Z" fill="url(#paint7_linear)"/>
<path d="M117.043 30.1866C114.049 30.1866 112.511 28.5783 112.429 25.3618C112.417 25.0121 112.411 24.5226 112.411 23.8933C112.411 23.264 112.417 22.7745 112.429 22.4249C112.476 20.8399 112.907 19.6395 113.722 18.8237C114.538 18.0079 115.645 17.6 117.043 17.6C118.442 17.6 119.549 18.0079 120.364 18.8237C121.18 19.6395 121.611 20.8399 121.658 22.4249C121.681 23.1241 121.693 23.6136 121.693 23.8933C121.693 24.173 121.681 24.6625 121.658 25.3618C121.576 28.5783 120.038 30.1866 117.043 30.1866ZM117.043 29.1378C118.092 29.1378 118.925 28.8231 119.543 28.1938C120.172 27.5528 120.51 26.5796 120.557 25.2743C120.58 24.5751 120.592 24.1147 120.592 23.8933C120.592 23.6719 120.58 23.2115 120.557 22.5123C120.51 21.207 120.172 20.2397 119.543 19.6103C118.914 18.9694 118.08 18.6489 117.043 18.6489C116.006 18.6489 115.173 18.9694 114.544 19.6103C113.915 20.2397 113.577 21.207 113.53 22.5123C113.518 22.8619 113.513 23.3222 113.513 23.8933C113.513 24.4644 113.518 24.9247 113.53 25.2743C113.577 26.5796 113.909 27.5528 114.526 28.1938C115.156 28.8231 115.995 29.1378 117.043 29.1378Z" fill="url(#paint8_linear)"/>
<path d="M133.912 30.1866C132.456 30.1866 131.326 29.7671 130.522 28.928C129.717 28.0889 129.292 26.9642 129.246 25.554C129.234 25.2044 129.228 24.6508 129.228 23.8933C129.228 23.1358 129.234 22.5822 129.246 22.2326C129.292 20.8224 129.717 19.6978 130.522 18.8586C131.326 18.0195 132.456 17.6 133.912 17.6C134.903 17.6 135.736 17.7864 136.412 18.1594C137.088 18.5323 137.589 18.9752 137.915 19.488C138.253 19.9891 138.434 20.4378 138.457 20.834V20.869C138.457 20.9622 138.422 21.038 138.352 21.0963C138.282 21.1545 138.195 21.1837 138.09 21.1837H137.705C137.6 21.1837 137.525 21.1604 137.478 21.1138C137.432 21.0671 137.385 20.9739 137.338 20.834C137.14 20.2164 136.756 19.6978 136.185 19.2782C135.625 18.8586 134.868 18.6489 133.912 18.6489C132.829 18.6489 131.972 18.946 131.343 19.5404C130.725 20.1348 130.393 21.0613 130.347 22.32C130.335 22.6696 130.329 23.194 130.329 23.8933C130.329 24.5926 130.335 25.117 130.347 25.4666C130.393 26.7253 130.725 27.6518 131.343 28.2462C131.972 28.8406 132.829 29.1378 133.912 29.1378C134.996 29.1378 135.87 28.8289 136.534 28.2112C137.198 27.5936 137.531 26.6787 137.531 25.4666V24.5751H134.489C134.373 24.5751 134.279 24.5401 134.21 24.4702C134.14 24.3886 134.105 24.2896 134.105 24.173V23.9283C134.105 23.8117 134.14 23.7185 134.21 23.6486C134.279 23.567 134.373 23.5262 134.489 23.5262H138.23C138.358 23.5262 138.457 23.5612 138.527 23.6311C138.597 23.701 138.632 23.8001 138.632 23.9283V25.4666C138.632 26.399 138.445 27.2206 138.072 27.9315C137.7 28.6424 137.158 29.196 136.447 29.5923C135.736 29.9885 134.891 30.1866 133.912 30.1866Z" fill="url(#paint9_linear)"/>
<path d="M146.953 30.0118C146.836 30.0118 146.743 29.9769 146.673 29.9069C146.603 29.837 146.568 29.7438 146.568 29.6272V18.1594C146.568 18.0428 146.603 17.9496 146.673 17.8797C146.743 17.8098 146.836 17.7748 146.953 17.7748H147.285C147.401 17.7748 147.495 17.8098 147.565 17.8797C147.634 17.9496 147.669 18.0428 147.669 18.1594V29.6272C147.669 29.7438 147.634 29.837 147.565 29.9069C147.495 29.9769 147.401 30.0118 147.285 30.0118H146.953Z" fill="url(#paint10_linear)"/>
<path d="M155.43 30.0118C155.336 30.0118 155.255 29.9769 155.185 29.9069C155.115 29.837 155.08 29.7554 155.08 29.6622C155.08 29.5806 155.103 29.5049 155.15 29.4349L159.223 23.7884L155.307 18.3517C155.261 18.2818 155.237 18.206 155.237 18.1244C155.237 18.0312 155.272 17.9496 155.342 17.8797C155.412 17.8098 155.494 17.7748 155.587 17.7748H156.006C156.158 17.7748 156.292 17.8622 156.408 18.037L159.922 22.9318L163.365 18.037C163.493 17.8622 163.627 17.7748 163.767 17.7748H164.152C164.245 17.7748 164.326 17.8098 164.396 17.8797C164.466 17.9496 164.501 18.0312 164.501 18.1244C164.501 18.206 164.478 18.2818 164.431 18.3517L160.568 23.8234L164.623 29.4349C164.67 29.5049 164.693 29.5806 164.693 29.6622C164.693 29.7554 164.658 29.837 164.589 29.9069C164.519 29.9769 164.437 30.0118 164.344 30.0118H163.924C163.785 30.0118 163.65 29.9244 163.522 29.7496L159.869 24.6975L156.216 29.7496C156.1 29.9244 155.966 30.0118 155.814 30.0118H155.43Z" fill="url(#paint11_linear)"/>
<defs>
<linearGradient id="paint0_linear" x1="24.0081" y1="0" x2="24.0081" y2="64" gradientUnits="userSpaceOnUse">
<stop stop-color="#5040B6"/>
<stop offset="1" stop-color="#3D80D4"/>
</linearGradient>
<linearGradient id="paint1_linear" x1="36.0143" y1="0.000244141" x2="36.0143" y2="8.00153" gradientUnits="userSpaceOnUse">
<stop stop-color="#5040B6"/>
<stop offset="1" stop-color="#3D80D4"/>
</linearGradient>
<linearGradient id="paint2_linear" x1="91.0934" y1="17.6" x2="91.0934" y2="30.1866" gradientUnits="userSpaceOnUse">
<stop stop-color="#5040B6"/>
<stop offset="1" stop-color="#3D80D4"/>
</linearGradient>
<linearGradient id="paint3_linear" x1="91.0934" y1="17.6" x2="91.0934" y2="30.1866" gradientUnits="userSpaceOnUse">
<stop stop-color="#5040B6"/>
<stop offset="1" stop-color="#3D80D4"/>
</linearGradient>
<linearGradient id="paint4_linear" x1="91.0934" y1="17.6" x2="91.0934" y2="30.1866" gradientUnits="userSpaceOnUse">
<stop stop-color="#5040B6"/>
<stop offset="1" stop-color="#3D80D4"/>
</linearGradient>
<linearGradient id="paint5_linear" x1="91.0934" y1="17.6" x2="91.0934" y2="30.1866" gradientUnits="userSpaceOnUse">
<stop stop-color="#5040B6"/>
<stop offset="1" stop-color="#3D80D4"/>
</linearGradient>
<linearGradient id="paint6_linear" x1="91.0934" y1="17.6" x2="91.0934" y2="30.1866" gradientUnits="userSpaceOnUse">
<stop stop-color="#5040B6"/>
<stop offset="1" stop-color="#3D80D4"/>
</linearGradient>
<linearGradient id="paint7_linear" x1="91.0934" y1="17.6" x2="91.0934" y2="30.1866" gradientUnits="userSpaceOnUse">
<stop stop-color="#5040B6"/>
<stop offset="1" stop-color="#3D80D4"/>
</linearGradient>
<linearGradient id="paint8_linear" x1="91.0934" y1="17.6" x2="91.0934" y2="30.1866" gradientUnits="userSpaceOnUse">
<stop stop-color="#5040B6"/>
<stop offset="1" stop-color="#3D80D4"/>
</linearGradient>
<linearGradient id="paint9_linear" x1="91.0934" y1="17.6" x2="91.0934" y2="30.1866" gradientUnits="userSpaceOnUse">
<stop stop-color="#5040B6"/>
<stop offset="1" stop-color="#3D80D4"/>
</linearGradient>
<linearGradient id="paint10_linear" x1="91.0934" y1="17.6" x2="91.0934" y2="30.1866" gradientUnits="userSpaceOnUse">
<stop stop-color="#5040B6"/>
<stop offset="1" stop-color="#3D80D4"/>
</linearGradient>
<linearGradient id="paint11_linear" x1="91.0934" y1="17.6" x2="91.0934" y2="30.1866" gradientUnits="userSpaceOnUse">
<stop stop-color="#5040B6"/>
<stop offset="1" stop-color="#3D80D4"/>
</linearGradient>
</defs>
</svg>
