<svg width="1674" height="963" viewBox="0 0 1674 963" fill="none" xmlns="http://www.w3.org/2000/svg">
<g filter="url(#filter0_f_12_9)">
<path d="M5 950C95.9584 946.923 130.866 940.519 190.214 928.248C319.774 890.705 369.871 859.171 450.395 798.821C544.713 709.67 591.907 651.375 662.067 526.917C678.923 456.876 685.636 417.699 676.399 348.548C632.873 279.801 598.988 254.559 515.44 241.961C409.113 276.447 367.448 312.956 321.407 405.104C276.024 511.636 264.111 572.156 282.82 682.446C350.151 812.827 395.182 835.751 479.059 852.114C621.458 845.456 698.214 832.297 820.822 765.105C940.779 694.673 1001.05 648.634 1095.33 554.107C1169.92 458.705 1188.44 396.359 1202.27 277.853C1193.93 195.838 1173.95 158.627 1095.33 116.886C997.441 123.834 954.705 150.746 901.301 241.961C854.893 316.696 837.127 360.527 838.461 446.433C836.871 532.267 847.663 578.476 881.457 658.519C929.588 739.294 962.457 778.9 1057.85 814.048C1184.65 806.236 1247.72 788.474 1334.57 713.987C1422.73 638.321 1463.85 591.726 1502.14 491.026C1527.74 432.423 1538.52 405.104 1560.57 293.079C1582.62 181.055 1592.54 19 1592.54 19M1592.54 19L1491.12 131.025M1592.54 19L1662 131.025" stroke="black" stroke-width="18"/>
<path d="M5 950C95.9584 946.923 130.866 940.519 190.214 928.248C319.774 890.705 369.871 859.171 450.395 798.821C544.713 709.67 591.907 651.375 662.067 526.917C678.923 456.876 685.636 417.699 676.399 348.548C632.873 279.801 598.988 254.559 515.44 241.961C409.113 276.447 367.448 312.956 321.407 405.104C276.024 511.636 264.111 572.156 282.82 682.446C350.151 812.827 395.182 835.751 479.059 852.114C621.458 845.456 698.214 832.297 820.822 765.105C940.779 694.673 1001.05 648.634 1095.33 554.107C1169.92 458.705 1188.44 396.359 1202.27 277.853C1193.93 195.838 1173.95 158.627 1095.33 116.886C997.441 123.834 954.705 150.746 901.301 241.961C854.893 316.696 837.127 360.527 838.461 446.433C836.871 532.267 847.663 578.476 881.457 658.519C929.588 739.294 962.457 778.9 1057.85 814.048C1184.65 806.236 1247.72 788.474 1334.57 713.987C1422.73 638.321 1463.85 591.726 1502.14 491.026C1527.74 432.423 1538.52 405.104 1560.57 293.079C1582.62 181.055 1592.54 19 1592.54 19M1592.54 19L1491.12 131.025M1592.54 19L1662 131.025" stroke="url(#paint0_linear_12_9)" stroke-width="18"/>
</g>
<defs>
<filter id="filter0_f_12_9" x="0.695679" y="0.0987549" width="1672.95" height="962.896" filterUnits="userSpaceOnUse" color-interpolation-filters="sRGB">
<feFlood flood-opacity="0" result="BackgroundImageFix"/>
<feBlend mode="normal" in="SourceGraphic" in2="BackgroundImageFix" result="shape"/>
<feGaussianBlur stdDeviation="2" result="effect1_foregroundBlur_12_9"/>
</filter>
<linearGradient id="paint0_linear_12_9" x1="833.5" y1="19" x2="833.5" y2="950" gradientUnits="userSpaceOnUse">
<stop/>
<stop offset="1" stop-color="#FFEB36"/>
</linearGradient>
</defs>
</svg>
