<svg width="117" height="118" viewBox="0 0 117 118" fill="none" xmlns="http://www.w3.org/2000/svg">
<path d="M3.45703 57.7148C2.96875 57.4805 2.72461 56.9922 2.72461 56.25C2.72461 55.5078 3.32031 53.9258 4.51172 51.5039C5.70312 49.0625 6.64062 47.8418 7.32422 47.8418C7.71484 47.8418 8.32031 48.1152 9.14062 48.6621C9.96094 49.1895 10.9082 49.834 11.9824 50.5957C13.0762 51.3574 14.2578 52.1094 15.5273 52.8516C18.6133 54.6875 21.6113 55.6055 24.5215 55.6055C25.9668 55.6055 27.002 55.3125 27.627 54.7266C28.252 54.1406 28.5645 53.5547 28.5645 52.9688C28.5645 52.3633 28.2324 51.6895 27.5684 50.9473C26.9043 50.1855 26.0352 49.4043 24.9609 48.6035C23.9062 47.8027 22.7344 46.9629 21.4453 46.084C20.1562 45.1855 18.8672 44.2383 17.5781 43.2422C16.2891 42.2461 15.1172 41.25 14.0625 40.2539C11.6602 37.9883 10.459 35.7812 10.459 33.6328C10.459 32.1094 10.8594 30.7324 11.6602 29.502C12.4805 28.2715 13.5156 27.2754 14.7656 26.5137C16.0352 25.752 17.4707 25.1172 19.0723 24.6094C21.9434 23.6719 24.9023 23.2031 27.9492 23.2031C28.7891 23.2031 29.4141 23.3301 29.8242 23.584C30.2344 23.8379 30.4395 24.1309 30.4395 24.4629C30.4395 24.7949 30.293 25.3027 30 25.9863C29.707 26.6504 29.5605 27.2461 29.5605 27.7734C29.5605 28.3008 29.9121 28.9746 30.6152 29.7949C31.3379 30.6152 32.2656 31.4551 33.3984 32.3145C34.5312 33.1738 35.7812 34.0918 37.1484 35.0684C38.5156 36.0449 39.8828 37.0801 41.25 38.1738C42.6172 39.2676 43.8672 40.3809 45 41.5137C47.5586 44.0723 48.8379 46.5527 48.8379 48.9551C48.8379 51.3379 48.2129 53.3301 46.9629 54.9316C45.7324 56.5332 44.0137 57.7734 41.8066 58.6523C39.5996 59.5312 37.1777 60.166 34.541 60.5566C31.9043 60.9668 28.6914 61.1719 24.9023 61.1719C21.1133 61.1719 16.9336 60.7812 12.3633 60C7.8125 59.1992 4.84375 58.4375 3.45703 57.7148ZM51.9727 29.0332C49.4141 25.9863 46.2402 23.7207 42.4512 22.2363C38.6816 20.7324 34.7461 19.9805 30.6445 19.9805C23.125 19.9805 15.8789 21.3965 8.90625 24.2285C7.96875 24.5996 7.30469 24.7852 6.91406 24.7852C6.13281 24.7852 5.74219 24.4141 5.74219 23.6719C5.74219 23.0664 6.25977 22.3438 7.29492 21.5039C8.34961 20.6641 9.85352 19.8047 11.8066 18.9258C13.7793 18.0273 16.0059 17.1973 18.4863 16.4355C24.1504 14.6973 30.2246 13.8281 36.709 13.8281C46.2988 13.8281 53.5352 15.1758 58.418 17.8711C58.6914 18.0273 58.8086 18.4961 58.7695 19.2773C58.75 20.0391 58.3984 21.2207 57.7148 22.8223C57.0312 24.4238 56.2012 25.9082 55.2246 27.2754C54.2676 28.6426 53.4473 29.3262 52.7637 29.3262C52.5879 29.1309 52.3242 29.0332 51.9727 29.0332ZM88.4473 27.8027C87.2559 29.7168 85.3027 35 82.5879 43.6523C83.2324 43.6914 84.1895 43.7109 85.459 43.7109C89.3652 43.7109 92.6562 42.373 95.332 39.6973C98.0273 37.0215 99.375 33.5449 99.375 29.2676C99.375 23.0176 95.6152 19.8926 88.0957 19.8926C85.127 19.8926 82.2559 20.1074 79.4824 20.5371C76.7285 20.9668 74.5508 21.4355 72.9492 21.9434C71.3477 22.4512 69.873 22.9199 68.5254 23.3496C67.1777 23.7793 66.2891 23.9941 65.8594 23.9941C64.8828 23.9941 64.3945 23.6426 64.3945 22.9395C64.3945 22.2363 65.0586 21.5234 66.3867 20.8008C67.7344 20.0586 69.2676 19.3457 70.9863 18.6621C72.7051 17.959 74.834 17.2266 77.373 16.4648C83.1348 14.707 89.375 13.8281 96.0938 13.8281C104.961 13.8281 110.996 15.8008 114.199 19.7461C115.938 21.875 116.807 24.4434 116.807 27.4512C116.807 33.1543 114.434 37.8613 109.688 41.5723C105.645 44.7363 100.391 46.748 93.9258 47.6074C92.0312 47.8613 89.8633 47.9883 87.4219 47.9883C85 47.9883 82.9883 47.8223 81.3867 47.4902C80.5664 50.127 79.9219 52.1387 79.4531 53.5254C79.0039 54.9121 78.4961 56.0254 77.9297 56.8652C77.3633 57.7051 76.7578 58.3691 76.1133 58.8574C75.4883 59.3457 74.6875 59.7168 73.7109 59.9707C72.168 60.3809 70.1074 60.5859 67.5293 60.5859C64.9707 60.5859 62.5391 60.3027 60.2344 59.7363C57.9297 59.1699 56.1035 58.4766 54.7559 57.6562C53.3887 56.8359 52.7051 56.0352 52.7051 55.2539C52.7051 54.8047 52.9004 54.4434 53.291 54.1699C53.6816 53.8965 54.1309 53.7598 54.6387 53.7598C56.4355 53.7598 57.7637 53.4766 58.623 52.9102C59.502 52.3242 60.3418 51.25 61.1426 49.6875C61.9629 48.125 62.7734 46.3086 63.5742 44.2383C64.3945 42.1484 65.1562 40.2148 65.8594 38.4375C66.5625 36.6406 67.3633 34.8145 68.2617 32.959C70.2344 28.8965 72.5684 26.2305 75.2637 24.9609C76.5723 24.3359 78.2812 23.8574 80.3906 23.5254C82.5 23.1738 84.1504 22.998 85.3418 22.998C86.5527 22.998 87.334 23.0176 87.6855 23.0566C88.0566 23.0762 88.4277 23.1348 88.7988 23.2324C89.541 23.4277 89.9121 23.8379 89.9121 24.4629C89.9121 24.8926 89.8242 25.293 89.6484 25.6641C89.4922 26.0156 89.0918 26.7285 88.4473 27.8027Z" fill="white"/>
<path d="M10.6904 87.9697V97.2832H14.9072C16.4678 97.2832 17.6742 96.8792 18.5264 96.0713C19.3786 95.2633 19.8047 94.1123 19.8047 92.6182C19.8047 91.1351 19.3786 89.9896 18.5264 89.1816C17.6742 88.3737 16.4678 87.9697 14.9072 87.9697H10.6904ZM7.33691 85.2139H14.9072C17.6852 85.2139 19.7826 85.8447 21.1992 87.1064C22.627 88.3571 23.3408 90.1943 23.3408 92.6182C23.3408 95.0641 22.627 96.9124 21.1992 98.1631C19.7826 99.4137 17.6852 100.039 14.9072 100.039H10.6904V110H7.33691V85.2139ZM33.9492 88.5176L29.4004 100.853H38.5146L33.9492 88.5176ZM32.0566 85.2139H35.8584L45.3047 110H41.8184L39.5605 103.642H28.3877L26.1299 110H22.5938L32.0566 85.2139ZM60.6943 98.3789C61.4137 98.6224 62.111 99.1426 62.7861 99.9395C63.4723 100.736 64.1585 101.832 64.8447 103.227L68.248 110H64.6455L61.4746 103.642C60.6556 101.981 59.8587 100.88 59.084 100.338C58.3203 99.7956 57.2744 99.5244 55.9463 99.5244H52.2939V110H48.9404V85.2139H56.5107C59.3441 85.2139 61.458 85.806 62.8525 86.9902C64.2471 88.1745 64.9443 89.9619 64.9443 92.3525C64.9443 93.9131 64.5791 95.208 63.8486 96.2373C63.1292 97.2666 62.0778 97.9805 60.6943 98.3789ZM52.2939 87.9697V96.7686H56.5107C58.1266 96.7686 59.3441 96.3978 60.1631 95.6562C60.9932 94.9036 61.4082 93.8024 61.4082 92.3525C61.4082 90.9027 60.9932 89.8125 60.1631 89.082C59.3441 88.3405 58.1266 87.9697 56.5107 87.9697H52.2939ZM66.6543 85.2139H87.6221V88.0361H78.8232V110H75.4531V88.0361H66.6543V85.2139ZM105.734 86.0273V89.2979C104.462 88.6891 103.261 88.2354 102.132 87.9365C101.003 87.6377 99.9128 87.4883 98.8613 87.4883C97.0352 87.4883 95.624 87.8424 94.6279 88.5508C93.6429 89.2591 93.1504 90.2663 93.1504 91.5723C93.1504 92.668 93.4769 93.498 94.1299 94.0625C94.7939 94.6159 96.0446 95.0641 97.8818 95.4072L99.9072 95.8223C102.409 96.2982 104.251 97.1393 105.436 98.3457C106.631 99.541 107.229 101.146 107.229 103.16C107.229 105.562 106.421 107.382 104.805 108.622C103.2 109.862 100.842 110.481 97.7324 110.481C96.5592 110.481 95.3086 110.349 93.9805 110.083C92.6634 109.817 91.2965 109.424 89.8799 108.904V105.451C91.2412 106.215 92.5749 106.79 93.8809 107.178C95.1868 107.565 96.4707 107.759 97.7324 107.759C99.6471 107.759 101.125 107.382 102.165 106.63C103.205 105.877 103.726 104.804 103.726 103.409C103.726 102.192 103.349 101.24 102.597 100.554C101.855 99.8675 100.632 99.3529 98.9277 99.0098L96.8857 98.6113C94.3844 98.1133 92.5749 97.333 91.457 96.2705C90.3392 95.208 89.7803 93.7305 89.7803 91.8379C89.7803 89.6465 90.5495 87.9199 92.0879 86.6582C93.6374 85.3965 95.7679 84.7656 98.4795 84.7656C99.6416 84.7656 100.826 84.8708 102.032 85.0811C103.239 85.2913 104.473 85.6068 105.734 86.0273Z" fill="white"/>
</svg>
