<svg width="32" height="32" viewBox="0 0 32 32" fill="none" xmlns="http://www.w3.org/2000/svg">
<path d="M32 16C32 24.8366 24.8366 32 16 32C7.16344 32 0 24.8366 0 16C0 7.16344 7.16344 0 16 0C24.8366 0 32 7.16344 32 16Z" fill="url(#paint0_linear)"/>
<path d="M15.9987 11.4905C13.5127 11.4905 11.4902 13.5133 11.4902 15.9993C11.4902 18.4853 13.5127 20.5082 15.9987 20.5082C18.4843 20.5082 20.5071 18.4857 20.5071 15.9993C20.5071 13.5129 18.4843 11.4905 15.9987 11.4905Z" fill="#F1F2F2"/>
<path d="M15.9979 10.1664C15.512 10.1664 15.1182 9.77259 15.1182 9.28711V7.87969C15.1182 7.39381 15.512 7 15.9979 7C16.4837 7 16.8775 7.39381 16.8775 7.87969V9.28711C16.8775 9.77259 16.4833 10.1664 15.9979 10.1664Z" fill="#F1F2F2"/>
<path d="M15.9979 21.8329C15.512 21.8329 15.1182 22.2267 15.1182 22.7126V24.1196C15.1182 24.6059 15.512 24.9997 15.9979 24.9997C16.4837 24.9997 16.8775 24.6059 16.8775 24.1196V22.7126C16.8775 22.2267 16.4833 21.8329 15.9979 21.8329Z" fill="#F1F2F2"/>
<path d="M20.1246 11.8761C19.7814 11.5326 19.7814 10.9757 20.1246 10.6321L21.1199 9.63686C21.463 9.29367 22.0203 9.29367 22.3639 9.63686C22.7074 9.98044 22.7074 10.5377 22.3639 10.8809L21.3686 11.8761C21.0254 12.2197 20.4686 12.2197 20.1246 11.8761Z" fill="#F1F2F2"/>
<path d="M11.8747 20.1253C11.5312 19.7814 10.9743 19.7814 10.6307 20.1253L9.63547 21.1202C9.29228 21.4634 9.29188 22.021 9.63547 22.3642C9.97905 22.7074 10.5363 22.7074 10.8795 22.3642L11.8747 21.3685C12.2183 21.0254 12.2183 20.4681 11.8747 20.1253Z" fill="#F1F2F2"/>
<path d="M21.833 16.0009C21.833 15.515 22.2268 15.1212 22.7127 15.1212H24.1201C24.606 15.1212 24.9998 15.515 24.9998 16.0009C24.9998 16.4868 24.606 16.8802 24.1201 16.8802H22.7127C22.2268 16.8802 21.833 16.4868 21.833 16.0009Z" fill="#F1F2F2"/>
<path d="M10.1664 16.0009C10.1664 15.515 9.77259 15.1212 9.28671 15.1212H7.87969C7.39381 15.1212 7 15.515 7 16.0009C7 16.4868 7.39381 16.8802 7.87969 16.8802H9.28711C9.77259 16.8802 10.1664 16.4868 10.1664 16.0009Z" fill="#F1F2F2"/>
<path d="M20.1249 20.1263C20.4685 19.7832 21.0257 19.7832 21.3689 20.1263L22.3642 21.1216C22.7077 21.4644 22.7077 22.022 22.3642 22.3652C22.0206 22.7084 21.4637 22.7084 21.1202 22.3652L20.1249 21.3699C19.7813 21.0264 19.7813 20.4695 20.1249 20.1263Z" fill="#F1F2F2"/>
<path d="M11.8749 11.876C12.2185 11.5325 12.2185 10.9756 11.8749 10.632L10.8796 9.63716C10.536 9.29357 9.9792 9.29357 9.63562 9.63716C9.29203 9.98034 9.29203 10.5376 9.63562 10.8808L10.6309 11.876C10.9745 12.22 11.5313 12.22 11.8749 11.876Z" fill="#F1F2F2"/>
<defs>
<linearGradient id="paint0_linear" x1="16" y1="0" x2="16" y2="32" gradientUnits="userSpaceOnUse">
<stop stop-color="#1D62F0"/>
<stop offset="1" stop-color="#19D5FD"/>
</linearGradient>
</defs>
</svg>
