<?xml version="1.0" standalone="no"?>
<!DOCTYPE svg PUBLIC "-//W3C//DTD SVG 20010904//EN"
 "http://www.w3.org/TR/2001/REC-SVG-20010904/DTD/svg10.dtd">
<svg version="1.0" xmlns="http://www.w3.org/2000/svg"
 width="50.000000pt" height="50.000000pt" viewBox="0 0 50.000000 50.000000"
 preserveAspectRatio="xMidYMid meet">

<g transform="translate(0.000000,50.000000) scale(0.100000,-0.100000)"
fill="#fff" stroke="none">
<path d="M172 418 c-20 -20 -14 -43 13 -44 14 -1 25 2 25 7 0 5 -10 9 -22 9
-40 0 -8 14 36 16 36 1 46 -2 54 -20 11 -21 11 -21 11 0 1 30 -18 44 -64 44
-23 0 -46 -5 -53 -12z"/>
<path d="M245 380 c4 -6 11 -8 16 -5 14 9 11 15 -7 15 -8 0 -12 -5 -9 -10z"/>
<path d="M176 346 c14 -36 104 -35 104 1 0 13 -2 13 -16 2 -21 -18 -43 -18
-71 -2 -19 11 -22 11 -17 -1z"/>
<path d="M190 205 c-1 -5 -3 -33 -5 -61 -3 -39 0 -51 11 -51 14 0 18 8 29 66
l7 35 14 -25 c7 -13 13 -37 14 -53 0 -21 4 -27 16 -22 9 3 17 6 18 6 3 0 -4
69 -9 95 -3 16 -12 20 -50 20 -25 0 -45 -4 -45 -10z"/>
<path d="M181 72 c-10 -18 -9 -23 4 -28 25 -10 37 9 21 31 -13 18 -14 18 -25
-3z"/>
<path d="M275 79 c-9 -14 12 -29 43 -29 26 0 29 15 5 24 -10 3 -23 8 -30 12
-6 3 -14 0 -18 -7z"/>
</g>
</svg>
