<svg width="35" height="48" viewBox="0 0 35 48" fill="none" xmlns="http://www.w3.org/2000/svg">
    <path fill-rule="evenodd" clip-rule="evenodd" d="M0 17.3837C0 7.79832 7.79832 0 17.3838 0C26.9692 0 34.7674 7.79832 34.7676 17.3837C34.7676 29.2795 19.2108 46.7431 18.5485 47.4808C17.9275 48.1725 16.8413 48.1737 16.2191 47.4808C15.5568 46.7431 0 29.2795 0 17.3837Z" fill="url(#paint0_linear)"/>
    <path fill-rule="evenodd" clip-rule="evenodd" d="M21.9261 26.9974H21.9149C21.5774 26.9817 21.2435 26.9206 20.9218 26.8156L20.908 26.8104C20.565 26.6663 20.2432 26.4746 19.9518 26.2407L19.9381 26.2276C19.6667 25.9557 19.4323 25.648 19.2411 25.3127C19.1671 25.1741 19.1026 25.0305 19.048 24.8828C18.9996 24.7541 18.944 24.6284 18.8814 24.5062C18.88 24.5034 18.8783 24.5008 18.8763 24.4984V24.4931C18.6995 24.2237 18.4799 23.986 18.2265 23.7897C18.1407 23.7216 18.0437 23.6569 17.9484 23.5966C17.5563 23.3515 17.1018 23.2299 16.642 23.2471H16.6334C16.5151 23.2562 16.3975 23.2735 16.2814 23.2987L16.2646 23.3018C16.1964 23.3146 16.1341 23.3263 16.0857 23.3328C15.8325 23.3738 15.272 23.4586 14.9922 23.4839C14.5666 23.511 14.1397 23.511 13.7141 23.4839H13.7012C13.3543 23.4347 13.0104 23.3656 12.6711 23.2768C12.3407 23.1887 12.0219 23.0602 11.7218 22.8941L11.7081 22.8863C11.6278 22.825 11.5531 22.7566 11.4849 22.6818C11.4141 22.6001 11.334 22.5273 11.2463 22.4651L11.2368 22.459C11.1098 22.392 10.9774 22.3361 10.8411 22.2921C10.5836 22.2003 10.3261 22.1051 10.1639 21.9574C9.96442 21.7648 9.82173 21.5194 9.75184 21.2488C9.72051 21.1001 9.70668 20.9482 9.71063 20.7962L9.71053 20.7918C9.70368 20.5138 9.69521 20.1697 9.53896 20.0098C9.48186 19.9485 9.40927 19.9044 9.32917 19.8824C9.24906 19.8603 9.16454 19.8612 9.08488 19.8848C8.91741 19.9335 8.75337 19.9936 8.5939 20.0648L8.5733 20.0718C8.28484 20.1592 7.97763 20.1592 7.68918 20.0718L7.66085 20.0605C7.50978 19.9836 7.38446 19.8307 7.23939 19.6533L7.23897 19.6528L7.23896 19.6528C7.09398 19.4755 6.91558 19.2574 6.70634 19.1404C6.63338 19.1019 6.55956 19.0609 6.4866 19.0172C6.35391 18.9357 6.21694 18.8616 6.0763 18.7952C5.88317 18.7079 5.69261 18.6109 5.5072 18.5078L5.48574 18.4964L5.48145 18.492C5.20495 18.2149 4.98525 17.8846 4.8351 17.5204V17.5012C4.79037 17.2358 4.73076 16.9732 4.65656 16.7148C4.62828 16.6194 4.57727 16.5327 4.50806 16.4623C4.40188 16.3675 4.31599 16.2515 4.2557 16.1215V16.1101C4.16675 15.7814 4.19161 15.4315 4.32609 15.1193C4.38846 14.9579 4.45942 14.7983 4.53896 14.6404C4.70101 14.3244 4.83876 13.996 4.95098 13.6583C5.0748 13.2759 5.22333 12.9023 5.39562 12.5399L5.40077 12.5294C5.6261 12.125 5.91029 11.7576 6.24368 11.4398C6.42305 11.2386 6.62767 11.0623 6.85227 10.9155C6.99647 10.8168 7.02995 10.7853 7.08403 10.6857L7.09261 10.6665C7.27373 10.3283 7.52179 9.86525 7.93124 9.60661C8.13871 9.47504 8.47843 9.35205 8.80854 9.23254L8.81793 9.22914C9.03708 9.15586 9.25201 9.07009 9.46171 8.97225C9.86906 8.73556 10.2516 8.45713 10.6033 8.14129C10.6284 8.11684 10.6617 8.08011 10.699 8.03896L10.6991 8.03894L10.6991 8.03892L10.6991 8.03889C10.7231 8.0124 10.7488 7.98409 10.775 7.95605C10.8083 7.92046 10.8354 7.88918 10.8594 7.86146L10.8595 7.86141L10.8595 7.86139L10.8595 7.86137L10.8595 7.86136L10.8595 7.86135C10.8838 7.83331 10.9049 7.80893 10.9261 7.78741C11.0775 7.61955 11.2402 7.46248 11.4128 7.31732L11.4282 7.30596C11.6202 7.17872 11.8226 7.06878 12.0334 6.97742C12.2517 6.88154 12.477 6.80295 12.7072 6.74237L12.7329 6.73713C12.9795 6.71178 13.228 6.71178 13.4746 6.73713H13.4832C13.7044 6.77154 13.9229 6.82176 14.1372 6.88742C14.2128 6.91276 14.3089 6.95295 14.4025 6.99577C14.496 7.03858 14.6248 7.09276 14.6952 7.11373C14.8496 7.15605 15.0077 7.18297 15.1673 7.19411H15.4179C15.5878 7.18737 15.756 7.158 15.9184 7.10674C16.0215 7.07466 16.123 7.03704 16.2222 6.99402C16.2986 6.95994 16.4188 6.89528 16.5347 6.83237L16.5433 6.82768C16.6908 6.7479 16.8415 6.66635 16.951 6.62179C17.1728 6.52722 17.4052 6.46033 17.6428 6.42257H17.66C17.8759 6.41104 18.0923 6.43404 18.3012 6.49072L18.3295 6.50121C18.5097 6.58658 18.6799 6.6924 18.8368 6.81664L18.8548 6.83237C18.9563 6.93893 19.0647 7.03847 19.1793 7.13033C19.2097 7.1555 19.2435 7.17609 19.2797 7.19149C19.4106 7.24213 19.5532 7.25276 19.69 7.22208C19.7739 7.20394 19.8565 7.18 19.9372 7.15043C19.9822 7.13452 20.0365 7.11358 20.0949 7.09105L20.1518 7.06916C20.2917 7.01412 20.4359 6.95819 20.5372 6.92936C20.7324 6.86499 20.9339 6.82251 21.1381 6.80266H21.1664C21.3812 6.81833 21.5929 6.8639 21.7956 6.9381L21.8093 6.94334C22.0087 7.03677 22.1975 7.15191 22.3724 7.28673L22.3836 7.29635C22.4814 7.38556 22.5703 7.4845 22.6488 7.59168C22.6823 7.63362 22.7235 7.69741 22.7673 7.76644C22.8152 7.84918 22.8713 7.92676 22.9347 7.99799C23.048 8.09585 23.3166 8.20857 23.5355 8.29944L23.5687 8.31344C23.6783 8.35972 23.781 8.40311 23.8583 8.44361C24.0462 8.5406 24.5836 8.8438 24.8171 9.07885C24.9459 9.23046 25.063 9.39201 25.1673 9.56205L25.3201 9.78923C25.4196 9.93165 25.5553 10.1256 25.6385 10.2209C25.7484 10.3458 26.0986 10.6883 26.2626 10.8325C26.5274 11.061 26.7793 11.3046 27.0171 11.5621C27.1767 11.7762 27.3202 12.0022 27.4462 12.2384L27.454 12.2533L27.9922 13.5316C28.0145 13.5858 28.0359 13.6408 28.0565 13.6968C28.1126 13.8748 28.1875 14.0462 28.2797 14.2079C28.4039 14.3872 28.5479 14.5514 28.7089 14.6972L28.7707 14.7584C28.9072 14.9122 29.1999 15.2337 29.3432 15.3893L29.3492 15.3963C29.4928 15.5699 29.6209 15.7561 29.7321 15.9528L29.7415 15.9729C29.8409 16.2166 29.9056 16.4735 29.9338 16.7357V16.7524C29.9383 17.0468 29.9048 17.3405 29.8342 17.6261C29.8207 17.6758 29.8003 17.7328 29.7787 17.7936C29.7687 17.8215 29.7584 17.8503 29.7484 17.8795C29.7088 17.9731 29.6758 18.0695 29.6497 18.1679C29.6148 18.3994 29.639 18.6362 29.7201 18.8555C29.7776 19.0087 29.8426 19.1589 29.9149 19.3055C30.0369 19.566 30.1391 19.8356 30.2205 20.112L30.2265 20.1409C30.2565 20.3986 30.2565 20.659 30.2265 20.9168V20.9325C30.18 21.1554 30.1047 21.3711 30.0025 21.5738L29.9922 21.5931C29.8049 21.8725 29.5907 22.1321 29.3527 22.3681C29.1542 22.5573 28.9383 22.7267 28.708 22.874C28.5418 22.9646 28.3669 23.0378 28.1862 23.0925C28.0985 23.1161 27.9885 23.1391 27.8706 23.1638L27.8705 23.1638L27.8704 23.1638L27.8703 23.1638L27.8702 23.1638L27.8188 23.1746L27.8132 23.1758C27.4652 23.2473 26.9903 23.3449 26.8016 23.4962C26.6488 23.6185 26.5098 23.9409 26.3879 24.2258C26.3191 24.4011 26.2362 24.5703 26.1398 24.7317C26.011 24.923 25.6626 25.1782 25.5226 25.2656C25.3827 25.3529 25.0256 25.6098 24.872 25.7356C24.7364 25.8457 24.5226 25.9882 24.3501 26.1026L24.2291 26.1839C23.9578 26.3661 23.6758 26.531 23.3844 26.6776L23.3656 26.6863C22.911 26.8503 22.4381 26.9557 21.9578 27L21.9261 26.9974ZM5.07201 14.3468C5.07201 14.3468 4.75442 14.9384 4.63167 15.2547C4.56569 15.4062 4.53289 15.5705 4.53553 15.7361C4.54156 15.9177 4.61629 16.0899 4.74411 16.2167C4.80608 16.2747 4.8619 16.3391 4.91064 16.409L4.92266 16.4282L4.92952 16.45C4.99991 16.6746 5.05999 16.9044 5.10892 17.1351C5.18652 17.5035 5.35859 17.8445 5.60763 18.1233L5.6145 18.1312C5.66005 18.1814 5.71341 18.2236 5.77244 18.2561C5.98188 18.368 6.20162 18.4711 6.41622 18.5628L6.44454 18.5785C6.58036 18.6698 6.72075 18.7538 6.86514 18.8302C7.13553 18.9814 7.32952 19.2181 7.50034 19.4279L7.51064 19.4401C7.62208 19.5765 7.76963 19.6775 7.93578 19.7311C8.10193 19.7847 8.27969 19.7886 8.44797 19.7424C8.45541 19.7424 8.46209 19.7393 8.46876 19.7362C8.4721 19.7346 8.47544 19.7331 8.47887 19.7319C8.72566 19.6237 8.98204 19.5397 9.24454 19.4812C9.24454 19.4812 9.2763 19.4768 9.2866 19.4768C9.30046 19.4782 9.31422 19.4806 9.3278 19.4838C9.50385 19.534 9.66279 19.6329 9.78703 19.7695C10.0349 20.0262 10.0445 20.4488 10.0522 20.7895L10.0523 20.7901C10.0495 20.9137 10.0596 21.0373 10.0823 21.1588C10.1353 21.3662 10.2438 21.5547 10.3956 21.7032C10.5029 21.8002 10.739 21.8875 10.9561 21.9653C11.1134 22.0158 11.2657 22.081 11.4111 22.1602C11.5274 22.2358 11.6331 22.3272 11.7252 22.4319C11.8219 22.5319 11.9349 22.6141 12.0591 22.6748C12.2818 22.784 12.514 22.8717 12.7527 22.9369C13.0351 23.0103 13.3244 23.0706 13.6111 23.1161C13.6923 23.1293 13.7743 23.1378 13.8566 23.1414C14.2235 23.1596 14.5911 23.1573 14.9578 23.1344C15.2239 23.1108 15.7741 23.0269 16.0282 22.9867C16.0789 22.9798 16.1424 22.9675 16.2102 22.9544C16.3447 22.9244 16.4813 22.9054 16.6188 22.8976C16.9409 22.8861 17.263 22.9238 17.5741 23.0095L17.5999 23.0191C17.9947 23.1991 18.3609 23.4379 18.6866 23.7277L18.6952 23.7356C18.8681 23.9121 19.0242 24.1049 19.1613 24.3114L19.1664 24.3193C19.2404 24.4586 19.3052 24.6028 19.3604 24.7509C19.4098 24.8825 19.4671 25.0109 19.5321 25.1354C19.587 25.2315 19.6454 25.325 19.7038 25.415C20.0311 25.8889 20.4842 26.258 21.0102 26.4792L21.0196 26.4836H21.0308H21.0394C21.1159 26.5084 21.1931 26.5298 21.2711 26.5479C21.1833 26.4971 21.0965 26.4446 21.0105 26.3906L20.9865 26.3723C20.7911 26.195 20.621 25.9909 20.4809 25.7659L20.4706 25.7458C20.3635 25.5092 20.2989 25.255 20.28 24.9952V24.9672C20.3014 24.7098 20.3556 24.4563 20.4414 24.2132C20.4593 24.1598 20.4883 24.0929 20.521 24.0174L20.521 24.0173C20.5338 23.9877 20.5472 23.9568 20.5607 23.9248L20.5779 23.8864C20.6706 23.6822 20.7304 23.4642 20.7547 23.2406V23.2319C20.7628 23.1155 20.7628 22.9988 20.7547 22.8824V22.8221C20.7536 22.7342 20.7452 22.6465 20.7298 22.56V22.5434C20.7048 22.3267 20.6559 22.1136 20.5839 21.9081C20.5612 21.8518 20.5385 21.797 20.5165 21.7448C20.4085 21.7213 20.2991 21.7047 20.1888 21.6949C20.115 21.6949 19.9897 21.7001 19.8695 21.7089L19.8514 21.7102L19.8514 21.7102C19.7602 21.7167 19.6736 21.7229 19.6052 21.7237H19.6009C19.4087 21.762 19.2214 21.8227 19.0429 21.9046C18.9276 21.9576 18.8095 22.0043 18.6893 22.0444C18.3023 22.153 17.8973 22.1777 17.5004 22.1169C17.2665 22.0814 17.0366 22.0229 16.8137 21.9422C16.7227 21.8989 16.6344 21.8499 16.5494 21.7954C16.5125 21.7727 16.479 21.7526 16.4524 21.7377C16.3124 21.6677 16.1672 21.6092 16.018 21.563C15.8512 21.527 15.6819 21.5045 15.5116 21.4957C15.3602 21.4887 15.2086 21.5046 15.0618 21.5429C14.927 21.6184 14.7992 21.7061 14.6798 21.805C14.6476 21.8324 14.6069 21.8475 14.5648 21.8475C14.5228 21.8475 14.4821 21.8324 14.4498 21.805C14.4309 21.7883 14.4158 21.7676 14.4057 21.7443C14.3955 21.721 14.3904 21.6958 14.3908 21.6703C14.3912 21.6448 14.3971 21.6197 14.408 21.5968C14.419 21.5739 14.4347 21.5537 14.4541 21.5376C14.5986 21.4183 14.7541 21.3136 14.9185 21.2248L14.9356 21.2152L14.9545 21.21C15.1413 21.1591 15.3347 21.1376 15.5279 21.1462C15.7192 21.1565 15.9095 21.1819 16.097 21.2222L16.1125 21.2266C16.2841 21.2804 16.4512 21.3485 16.612 21.4301C16.6431 21.4474 16.6747 21.4667 16.7087 21.4873L16.7088 21.4874L16.7253 21.4974C16.7943 21.5416 16.8657 21.5819 16.9391 21.618C17.1367 21.6905 17.3408 21.7435 17.5485 21.7762C17.8967 21.829 18.2519 21.8072 18.5914 21.7124C18.7428 21.6599 18.8907 21.5978 19.0343 21.5263L19.0524 21.5193C19.2158 21.4583 19.3841 21.4118 19.5554 21.3803H19.5854C19.6489 21.3803 19.7468 21.3733 19.8429 21.3664C19.9619 21.3551 20.0814 21.3502 20.2009 21.3515C20.2509 21.3556 20.3009 21.3609 20.3506 21.3675L20.3425 21.3495C20.3232 21.3069 20.3094 21.2766 20.3032 21.2615L20.1152 20.9723C20.0783 20.9216 20.0371 20.8692 19.9925 20.8185C19.9431 20.7627 19.8888 20.7115 19.8303 20.6656C19.6576 20.5263 19.4573 20.4267 19.2431 20.3738C19.1458 20.3539 19.0475 20.3393 18.9487 20.3301C18.9048 20.3283 18.863 20.3101 18.8314 20.279C18.7997 20.2479 18.7804 20.2061 18.777 20.1615C18.7762 20.1368 18.7806 20.1122 18.7898 20.0893C18.799 20.0665 18.8128 20.0458 18.8304 20.0288C18.848 20.0118 18.869 19.9988 18.8919 19.9906C18.9148 19.9825 18.9391 19.9793 18.9633 19.9815C19.0812 19.9917 19.1984 20.0086 19.3144 20.0321C19.4567 20.0666 19.5958 20.114 19.7298 20.1737L19.7487 20.1842C19.8933 20.2729 20.0301 20.3744 20.1573 20.4874L20.1667 20.4961C20.2519 20.5832 20.3303 20.677 20.4011 20.7766L20.6114 21.1025L20.6147 21.1096C20.6296 21.1414 20.6907 21.2714 20.7698 21.4536C20.8454 21.4749 20.9201 21.4991 20.994 21.5263C21.3056 21.6451 21.6549 21.7814 21.6549 21.7814C21.6695 21.7866 22.0747 21.9387 22.2086 22.0042C22.3986 22.0938 22.5829 22.1954 22.7605 22.3083C22.8611 22.3824 22.9577 22.462 23.0498 22.5468L23.1111 22.6001C23.1924 22.6708 23.2722 22.7403 23.3339 22.7836C23.4963 22.8492 23.6661 22.8936 23.8395 22.9156C23.9588 22.9326 24.0798 22.9326 24.1991 22.9156C24.3932 22.8307 24.5715 22.7125 24.7262 22.5661C24.8266 22.4385 24.9219 22.3039 25.0103 22.1659C25.0332 22.1278 25.069 22.0996 25.1109 22.0866C25.1528 22.0735 25.1979 22.0766 25.2378 22.0951C25.2593 22.1061 25.2782 22.1216 25.2935 22.1406C25.3087 22.1596 25.3198 22.1816 25.3261 22.2053C25.3324 22.2289 25.3338 22.2537 25.3301 22.2779C25.3264 22.3021 25.3178 22.3253 25.3047 22.3459C25.2062 22.5012 25.0996 22.6512 24.9854 22.795L24.9691 22.8142C24.7766 22.9966 24.5533 23.1419 24.3099 23.2432L24.2953 23.2511H24.2747C24.1942 23.2656 24.1127 23.2738 24.0309 23.2756C23.951 23.2756 23.8713 23.2694 23.7923 23.2572C23.586 23.2302 23.3841 23.1761 23.1914 23.0964L23.1614 23.0807C23.0449 22.996 22.9334 22.9044 22.8275 22.8063L22.8163 22.7965L22.8162 22.7964C22.727 22.7183 22.6361 22.6385 22.5751 22.5958C22.4107 22.4919 22.2402 22.3985 22.0644 22.3162C21.9631 22.2663 21.6489 22.1466 21.5365 22.1038C21.5365 22.1038 21.2319 21.9853 20.9388 21.8736C21.006 22.0768 21.0525 22.2866 21.0775 22.4997C21.0962 22.6023 21.1065 22.7064 21.1084 22.8107C21.1084 22.871 21.1135 22.9287 21.1195 22.9855V23.0615C21.1164 23.274 21.0875 23.4853 21.0337 23.6906C20.9895 23.8217 20.9379 23.9501 20.8792 24.0751C20.8363 24.173 20.7933 24.2743 20.7702 24.3372C20.747 24.4001 20.7333 24.4482 20.7178 24.5041C20.6117 24.8629 20.6339 25.2483 20.7805 25.592V25.5972V25.6033C20.9657 25.8923 21.218 26.1303 21.5152 26.2962C21.6869 26.3941 21.8646 26.485 22.0431 26.5697C22.0664 26.5798 22.0871 26.5946 22.1041 26.6131C22.212 26.6054 22.3196 26.5913 22.4265 26.571L22.5338 26.5491C22.973 26.4515 23.3929 26.2793 23.7759 26.0397C23.8557 25.9899 23.9338 25.9392 24.0119 25.8877L24.1355 25.8047L24.1378 25.8031C24.2938 25.6993 24.5078 25.5569 24.6299 25.4552C24.8016 25.318 25.1578 25.0585 25.3166 24.9597C25.4754 24.861 25.7501 24.6452 25.8317 24.5228C25.9159 24.3794 25.9885 24.2292 26.0488 24.0737L26.0518 24.0668C26.1968 23.7308 26.3464 23.384 26.5638 23.2087C26.8214 23.006 27.3218 22.902 27.7261 22.819L27.7465 22.8148C27.8711 22.7893 27.9882 22.7653 28.0737 22.7421C28.222 22.6955 28.3657 22.635 28.5029 22.5612C28.7154 22.4322 28.9154 22.283 29.1003 22.1156C29.2605 21.957 29.4088 21.7864 29.5441 21.6053C29.7038 21.3904 29.8155 21.1426 29.8711 20.8792V20.874V20.8608V20.8539C29.9106 20.5028 29.8661 20.1473 29.7415 19.8176C29.6952 19.6961 29.6445 19.5764 29.5896 19.4593C29.4764 19.2299 29.3803 18.9921 29.302 18.7481L29.2952 18.721C29.2643 18.516 29.2643 18.3073 29.2952 18.1023C29.3247 17.9811 29.3638 17.8625 29.4119 17.7476L29.4203 17.7257C29.4486 17.6524 29.4767 17.5794 29.4892 17.5318C29.5029 17.4793 29.5192 17.4007 29.5312 17.3343C29.6016 16.9634 29.5752 16.5802 29.4548 16.2228C29.4437 16.1888 29.4308 16.1556 29.418 16.1225L29.4179 16.1224C29.416 16.1175 29.4137 16.1129 29.411 16.1084C29.3528 16.0067 29.2895 15.9081 29.2213 15.813C29.1442 15.7066 29.0608 15.6051 28.9716 15.509C28.8196 15.3438 28.6162 15.1193 28.5063 14.9961L28.4565 14.9463C28.276 14.7821 28.1153 14.5967 27.9776 14.394C27.8713 14.211 27.785 14.0168 27.7201 13.8147L27.6917 13.7369L27.2411 12.6666C27.1404 12.4243 27.0183 12.1918 26.8763 11.9719C26.8359 11.9075 26.7918 11.8457 26.7441 11.7867C26.5176 11.5436 26.2784 11.3131 26.0274 11.0964C25.866 10.9557 25.4986 10.5983 25.3707 10.4524C25.2785 10.3467 25.1468 10.1607 25.038 10.007L25.038 10.0069L25.0379 10.0068L25.0379 10.0068L25.0274 9.99195L25.019 9.97992C24.9887 9.93647 24.9608 9.89639 24.9372 9.86437L24.9312 9.85476C24.8198 9.66998 24.6962 9.49308 24.5613 9.32525C24.3896 9.15662 23.9407 8.884 23.6883 8.75293C23.6145 8.71536 23.5055 8.66555 23.3896 8.62099L23.3782 8.61616C23.1312 8.51165 22.8542 8.39441 22.7029 8.26362C22.6122 8.17141 22.5334 8.06775 22.4686 7.95517L22.4675 7.95356L22.4596 7.94106L22.4518 7.94484C22.4292 7.95516 22.4046 7.96037 22.3798 7.9601H22.0854C21.9215 7.96102 21.7578 7.9724 21.5953 7.99418C21.3396 8.03082 21.0972 8.13272 20.8906 8.29039C20.8869 8.29223 20.8836 8.29492 20.8811 8.29825C20.8038 8.38099 20.7355 8.47212 20.6777 8.57C20.6416 8.63305 20.614 8.70064 20.5957 8.77091C20.7901 8.74697 20.9854 8.73195 21.1811 8.72588H21.6472C21.6903 8.72447 21.7324 8.73874 21.7661 8.76612C21.7998 8.79351 21.8227 8.83222 21.8309 8.8753C21.8345 8.90028 21.8327 8.92576 21.8257 8.94998C21.8187 8.9742 21.8066 8.99659 21.7903 9.0156C21.774 9.03462 21.7538 9.04981 21.7312 9.06013C21.7086 9.07046 21.684 9.07566 21.6592 9.07539H21.1845C20.9094 9.08554 20.6352 9.11474 20.3639 9.16277C20.2394 9.18507 20.1162 9.21424 19.9948 9.25015C19.6179 9.3562 19.2751 9.56144 19.0008 9.84519L18.9957 9.85043V9.8548C18.8304 10.0765 18.704 10.3258 18.6223 10.5914V10.5975C18.5527 10.8158 18.5084 11.0416 18.4901 11.2703C18.4858 11.3376 18.4824 11.4058 18.4815 11.473V11.9527C18.4812 11.9775 18.4756 12.002 18.4653 12.0244C18.4549 12.0468 18.44 12.0668 18.4215 12.0829C18.4029 12.099 18.3813 12.1109 18.3579 12.1179C18.3345 12.1248 18.3099 12.1266 18.2858 12.1231C18.2436 12.115 18.2056 12.0918 18.1786 12.0577C18.1517 12.0236 18.1377 11.9808 18.139 11.937V11.4678C18.1422 11.2654 18.1605 11.0635 18.194 10.864V10.8518C18.2512 10.6144 18.3231 10.3809 18.4094 10.1528L18.4163 10.1379C18.5056 9.95763 18.6117 9.78647 18.733 9.62675L18.7433 9.61364C18.9346 9.40693 19.1568 9.23234 19.4017 9.09637L19.4146 9.09025C19.6793 8.97268 19.9556 8.88427 20.2387 8.82648C20.2391 8.8202 20.2398 8.81392 20.2408 8.80767C20.2581 8.69339 20.2904 8.58201 20.3369 8.4765L20.3429 8.46515C20.4256 8.30933 20.5293 8.16609 20.6511 8.03962L20.67 8.02214C20.8677 7.8711 21.0904 7.75718 21.3275 7.68574L21.3446 7.68137C21.5895 7.63506 21.838 7.61137 22.0871 7.61059H22.1967C22.1288 7.54563 22.0549 7.48719 21.9759 7.43615C21.9304 7.40732 21.8849 7.37936 21.8385 7.35314C21.7219 7.28696 21.5972 7.23672 21.4677 7.20373C21.4119 7.18975 21.3553 7.17751 21.296 7.16878C21.1973 7.15305 21.0969 7.15305 20.9982 7.16878C20.8704 7.18951 20.7444 7.22048 20.6214 7.2614C20.5316 7.28677 20.3944 7.33999 20.2713 7.38776L20.2591 7.39246C20.1733 7.42567 20.0952 7.45625 20.0359 7.47984C19.8696 7.54065 19.6967 7.58084 19.5209 7.59955H19.5055H19.49C19.332 7.58677 19.178 7.54254 19.0368 7.46935L19.0111 7.45363C18.9009 7.36875 18.7954 7.27774 18.6952 7.18101C18.619 7.10449 18.536 7.03545 18.4471 6.9748L18.399 6.94421C18.2494 6.84776 18.0799 6.78794 17.9038 6.76946H17.8729C17.7358 6.76034 17.5982 6.77331 17.4651 6.80791C17.3694 6.83106 17.275 6.85973 17.1826 6.89376C17.3868 7.01158 17.5807 7.14703 17.7624 7.29866L17.7855 7.32225C17.9177 7.48348 18.0098 7.67467 18.0542 7.87972L18.0516 7.92865C18.0405 8.11397 17.9993 8.29614 17.9298 8.46777C17.8655 8.61124 17.7909 8.74968 17.7066 8.88194C17.666 8.94433 17.6006 9.0238 17.5367 9.10152L17.5298 9.11C17.4791 9.17116 17.4276 9.23407 17.3984 9.27514C17.3544 9.33718 17.2431 9.51889 17.1694 9.63916L17.1694 9.63918L17.1203 9.71902L17.1152 9.72688C16.9533 9.96329 16.8048 10.2089 16.6705 10.4626C16.583 10.6634 16.5101 10.8704 16.4525 11.0821C16.4123 11.2198 16.3802 11.3599 16.3564 11.5015V11.5207C16.3475 11.6402 16.3559 11.7603 16.3813 11.8772C16.3967 11.9445 16.413 12.0109 16.4319 12.0756C16.445 12.1165 16.4436 12.1607 16.4279 12.2007C16.4122 12.2406 16.3832 12.2736 16.3461 12.294C16.3221 12.3062 16.2956 12.3125 16.2688 12.3124C16.2318 12.3124 16.1957 12.3003 16.166 12.2778C16.1363 12.2553 16.1146 12.2236 16.104 12.1874C16.0688 12.0625 16.0388 11.9358 16.0182 11.8082V11.7899C16.0096 11.689 16.0096 11.5875 16.0182 11.4867V11.4736C16.0285 11.4098 16.0619 11.2228 16.0619 11.2228V11.2097C16.141 10.9015 16.2425 10.5998 16.3658 10.3071C16.5068 10.0396 16.6627 9.78053 16.8328 9.53115L16.8657 9.47769C16.9305 9.37221 17.0656 9.15205 17.122 9.07155C17.1581 9.02 17.2122 8.95446 17.2697 8.88543C17.3272 8.81641 17.3916 8.73689 17.4225 8.69058C17.4961 8.57477 17.5612 8.45357 17.6173 8.32797C17.6517 8.24317 17.6787 8.15545 17.698 8.06583C17.7126 8.00026 17.7126 7.93219 17.698 7.86661C17.6633 7.72502 17.5837 7.59907 17.4714 7.50836C17.2959 7.36949 17.109 7.2464 16.9126 7.1405C16.876 7.12245 16.8466 7.09241 16.829 7.05538C16.782 7.08025 16.7332 7.10656 16.6851 7.13257L16.6847 7.13276L16.6844 7.13292L16.6844 7.13296L16.6763 7.13732L16.6388 7.15761C16.516 7.22396 16.4192 7.27632 16.3372 7.31207C16.1354 7.39824 15.9266 7.46636 15.7132 7.51566H15.696C15.5079 7.5394 15.3181 7.54787 15.1287 7.541C14.9438 7.52856 14.7607 7.49753 14.5819 7.44838C14.4677 7.41004 14.3557 7.36542 14.2463 7.3147C14.1604 7.27712 14.0703 7.2378 14.0128 7.21858L13.9329 7.19499C13.5946 7.0956 13.2426 7.05339 12.8909 7.07004H12.884C12.8014 7.07493 12.7196 7.08959 12.6402 7.11373C12.4726 7.16381 12.308 7.22422 12.1475 7.2946H12.1424C11.7852 7.45243 11.4637 7.68355 11.1982 7.97352C11.1878 7.98414 11.1777 7.99515 11.1678 8.00603L11.1536 8.02158C11.1214 8.05432 11.0821 8.09928 11.0419 8.14538L11.0111 8.18061L10.999 8.19441C10.936 8.2669 10.8723 8.34009 10.8222 8.38857C10.4478 8.72716 10.0392 9.02445 9.60334 9.27545C9.37991 9.381 9.15062 9.47319 8.91664 9.55156L8.90605 9.5554L8.90605 9.5554C8.59347 9.66866 8.27173 9.78525 8.09518 9.8967C7.79046 10.0889 7.59132 10.4271 7.38274 10.8177C7.30549 11.0081 7.17673 11.0964 7.02737 11.1986C6.82345 11.3321 6.63809 11.4928 6.4763 11.6766L6.46686 11.6862C6.42823 11.7229 6.39047 11.7605 6.3527 11.7989C5.96091 12.1824 5.66079 12.6523 5.47544 13.1725C5.34669 13.5631 5.09004 14.2892 5.09004 14.2892L5.07201 14.3468ZM12.8187 16.0883C12.7841 16.0665 12.7516 16.0414 12.7216 16.0131C12.66 15.9548 12.6105 15.8845 12.5762 15.8063C12.5165 15.648 12.4666 15.486 12.4269 15.3214C12.396 15.1824 12.359 14.9264 12.341 14.7971C12.3334 14.7439 12.3297 14.6901 12.3299 14.6363V13.4803V13.4585C12.3013 13.222 12.2475 12.9893 12.1693 12.7647L12.1651 12.7533C12.1094 12.6438 12.0481 12.5373 11.9814 12.4344C11.9667 12.4109 11.9468 12.3913 11.9232 12.3772C11.8997 12.3632 11.8731 12.355 11.8459 12.3535C11.8186 12.3519 11.7913 12.3571 11.7664 12.3684C11.7414 12.3797 11.7195 12.397 11.7024 12.4187C11.6798 12.4487 11.667 12.4852 11.666 12.523C11.6649 12.5608 11.6755 12.598 11.6964 12.6293C11.8064 12.8016 11.8865 12.992 11.9333 13.192L11.9436 13.2365C11.9726 13.3823 11.9867 13.5308 11.9857 13.6795V14.7123C12.0069 14.942 12.0416 15.1702 12.0895 15.3956C12.1332 15.5795 12.1889 15.7602 12.256 15.9365C12.2959 16.0294 12.3491 16.1148 12.4134 16.1903C12.3778 16.2011 12.3423 16.2123 12.3069 16.2239C12.009 16.3374 11.7183 16.4696 11.4365 16.6197C11.384 16.6485 11.3318 16.6779 11.2799 16.708C11.2737 16.701 11.267 16.6945 11.2597 16.6885L11.2597 16.6885L11.2596 16.6885L11.2596 16.6885L11.2596 16.6885C11.22 16.6561 11.0227 16.4945 10.9369 16.4456C10.7772 16.3423 10.6119 16.2483 10.4416 16.1643L10.1283 16.0192C10.1067 16.0092 10.0833 16.0039 10.0595 16.0036C10.0358 16.0033 10.0122 16.008 9.99037 16.0175C9.96851 16.0269 9.94881 16.0409 9.93251 16.0585C9.91622 16.0761 9.90369 16.0969 9.89572 16.1197C9.88264 16.1631 9.88584 16.2099 9.90471 16.2511C9.92358 16.2922 9.95677 16.3248 9.99787 16.3425L10.2949 16.4797C10.4537 16.5584 10.6081 16.6459 10.7575 16.7418C10.7956 16.7651 10.8884 16.8359 10.9689 16.8989C10.8623 16.9679 10.7575 17.0397 10.6545 17.1143L10.6451 17.1221C10.4422 17.2925 10.2496 17.4751 10.0683 17.6691C9.93808 17.8135 9.8203 17.969 9.71621 18.1338L9.36097 17.7759C9.23321 17.6391 9.08901 17.5193 8.93178 17.4194L8.91204 17.4097L8.89144 17.401C8.71524 17.3462 8.53537 17.3044 8.35324 17.2761C8.10575 17.215 7.87507 17.0976 7.67856 16.9327C7.61848 16.8811 7.56183 16.8269 7.50689 16.7693L7.36526 16.5858C7.30681 16.4915 7.25628 16.3925 7.21419 16.2896L7.16183 16.1087C7.12065 15.8796 7.10338 15.6468 7.11033 15.414C7.12179 15.2516 7.14271 15.0899 7.17299 14.93C7.17764 14.8998 7.1823 14.8711 7.18654 14.845C7.1909 14.8181 7.19483 14.7939 7.19788 14.7736C7.20217 14.7482 7.2099 14.7089 7.21848 14.6661C7.21969 14.6593 7.22143 14.6525 7.22317 14.6456C7.22639 14.6328 7.22964 14.62 7.22964 14.6075C7.23476 14.5612 7.22159 14.5147 7.19301 14.4782C7.16444 14.4418 7.12281 14.4183 7.07728 14.4131C7.03175 14.4079 6.98605 14.4213 6.95023 14.4504C6.91441 14.4795 6.89141 14.5219 6.88629 14.5682L6.87716 14.6137L6.87716 14.6137C6.86936 14.652 6.86231 14.6866 6.85796 14.7176C6.85196 14.7605 6.84337 14.8138 6.83307 14.8723C6.80014 15.0481 6.77778 15.2258 6.76612 15.4044C6.75742 15.7008 6.78423 15.9972 6.84595 16.2869L6.85196 16.3097C6.92571 16.5172 7.02739 16.7134 7.1541 16.8925L7.16354 16.9056C7.33408 17.1054 7.53213 17.279 7.75153 17.4211L7.76955 17.4316C7.93188 17.5104 8.10154 17.5724 8.27599 17.6168H8.2923C8.42363 17.637 8.55374 17.6647 8.682 17.6998L8.84251 17.7759C8.94169 17.8468 9.0337 17.9276 9.11719 18.017L9.54637 18.4469L9.54733 18.4479C9.50149 18.5407 9.45795 18.6348 9.41677 18.7299C9.39819 18.7721 9.3968 18.82 9.41288 18.8633C9.42897 18.9065 9.46123 18.9415 9.50261 18.9606C9.52471 18.9708 9.5487 18.9762 9.57299 18.9763C9.605 18.9756 9.63619 18.9659 9.66304 18.9481C9.68989 18.9304 9.71132 18.9053 9.72493 18.8758C9.77385 18.7657 9.91291 18.4616 9.97557 18.3646C10.0755 18.2023 10.1904 18.0502 10.3189 17.9103C10.3922 17.8322 10.4668 17.7562 10.543 17.6822C10.7385 17.4929 10.9521 17.324 11.1807 17.1781C11.3172 17.0898 11.4571 17.0077 11.5979 16.9299C11.8639 16.7882 12.1383 16.6633 12.4193 16.5559C12.637 16.4847 12.8601 16.4321 13.0863 16.3986C13.2262 16.3794 13.6571 16.3925 13.8116 16.3986C13.8342 16.3996 13.8567 16.396 13.8778 16.388C13.899 16.3801 13.9184 16.368 13.935 16.3524C13.9516 16.3368 13.965 16.3181 13.9745 16.2972C13.9839 16.2764 13.9893 16.2538 13.9902 16.2309C13.9911 16.2079 13.9875 16.185 13.9797 16.1635C13.9719 16.1419 13.96 16.1221 13.9447 16.1053C13.9294 16.0884 13.911 16.0747 13.8905 16.0651C13.87 16.0555 13.8479 16.0501 13.8254 16.0491C13.5634 16.0351 13.301 16.0351 13.0391 16.0491C12.9653 16.0604 12.8918 16.0734 12.8187 16.0883ZM13.3869 13.6032C13.3577 13.6032 13.329 13.5957 13.3035 13.5813C13.2779 13.567 13.2564 13.5462 13.241 13.521C13.1406 13.3583 13.0588 13.1845 12.9972 13.0029L12.9912 12.9828C12.9537 12.8093 12.9427 12.631 12.9586 12.4541C12.9617 12.3203 12.9717 12.1867 12.9886 12.054C13.0021 11.95 13.0542 11.635 13.0643 11.5743L13.0659 11.5646L13.0683 11.5486C13.0719 11.5257 13.0787 11.4808 13.0874 11.4264C13.084 11.4241 13.0806 11.4217 13.0773 11.4191C12.976 11.3579 12.7923 11.2496 12.7296 11.2208C12.5978 11.1539 12.4619 11.0955 12.3228 11.046C12.2089 11.003 12.0905 10.9737 11.97 10.9586H11.9631C11.6429 10.918 11.3179 10.9695 11.0249 11.1072H11.0198C10.9831 11.125 10.9476 11.1452 10.9133 11.1675C10.8661 11.1998 10.8189 11.233 10.7743 11.2679C10.5276 11.4623 10.3638 11.7457 10.3168 12.0596V12.0683C10.2902 12.2765 10.2509 12.4828 10.1992 12.6861L10.1923 12.7062L10.1846 12.7237C10.0963 12.8934 9.98021 13.0464 9.84123 13.1763L9.8275 13.1876C9.66904 13.3074 9.49365 13.4019 9.30732 13.4681L9.29187 13.4734C9.07075 13.5285 8.8447 13.5607 8.6172 13.5695H8.59917C8.36939 13.5697 8.1399 13.553 7.91247 13.5197C7.81977 13.5031 7.60518 13.4402 7.58114 13.4323C7.53744 13.4193 7.50058 13.3892 7.47869 13.3486C7.4568 13.3079 7.45166 13.2601 7.46441 13.2156C7.47715 13.1711 7.50675 13.1336 7.54667 13.1113C7.58659 13.089 7.63357 13.0838 7.67728 13.0968C7.76312 13.1221 7.91505 13.1658 7.96741 13.1745C8.18039 13.2051 8.39524 13.2203 8.61033 13.22C8.78506 13.2134 8.95886 13.1909 9.12964 13.1527C9.17795 13.1421 9.22532 13.1275 9.27127 13.109C9.34811 13.0769 9.42243 13.039 9.49359 12.9954C9.57747 12.9448 9.65282 12.8807 9.71677 12.8058L9.73136 12.7883C9.74014 12.7772 9.74866 12.7659 9.75691 12.7544C9.66111 12.7366 9.56599 12.715 9.47177 12.6897C9.35159 12.6469 9.23644 12.5906 9.12842 12.522C9.02792 12.4585 8.94307 12.3724 8.88042 12.2703C8.81777 12.1682 8.77898 12.0528 8.76705 11.9331L8.7413 11.7522C8.7166 11.5806 8.70426 11.4074 8.70439 11.234V11.1667C8.70303 11.123 8.71707 11.0802 8.74399 11.0461C8.77091 11.012 8.80892 10.9887 8.85117 10.9806C8.87571 10.977 8.90074 10.9788 8.92453 10.9859C8.94832 10.993 8.97032 11.0053 8.989 11.0219C9.00768 11.0385 9.0226 11.0591 9.03274 11.0821C9.04288 11.1051 9.048 11.1301 9.04773 11.1554V11.2358C9.04789 11.3907 9.05879 11.5455 9.08035 11.6989L9.09151 11.7749C9.10579 11.8895 9.1432 11.9999 9.20138 12.0991C9.22796 12.1495 9.26519 12.1934 9.31039 12.2275C9.39599 12.2821 9.48724 12.327 9.5825 12.3612C9.6194 12.3746 9.77538 12.4039 9.90749 12.4263C9.91126 12.4108 9.91464 12.3951 9.91762 12.3794C9.94252 12.2606 9.96226 12.14 9.97771 12.0211C10.0087 11.8009 10.0754 11.5874 10.1751 11.3894L10.1949 11.3562C10.3549 11.1636 10.543 10.9974 10.7526 10.8633C10.727 10.8187 10.6139 10.6194 10.5744 10.5291C10.5263 10.4319 10.4877 10.33 10.4594 10.225V10.2032C10.4448 10.0991 10.4448 9.99352 10.4594 9.88949L10.468 9.85279C10.4937 9.78114 10.5238 9.71036 10.5538 9.64134C10.5729 9.60069 10.606 9.56866 10.6469 9.5514C10.6878 9.53414 10.7335 9.53288 10.7753 9.54784C10.7974 9.5567 10.8175 9.57014 10.8342 9.58732C10.851 9.6045 10.8641 9.62504 10.8726 9.64763C10.8812 9.67022 10.885 9.69438 10.8839 9.71856C10.8828 9.74275 10.8768 9.76644 10.8662 9.78813L10.8623 9.79606C10.8582 9.80419 10.854 9.81257 10.8508 9.82046C10.803 9.92022 10.7837 10.0316 10.795 10.142C10.8164 10.2218 10.8451 10.2993 10.8808 10.3736V10.3814C10.9057 10.4382 10.9967 10.6025 11.0525 10.6934C11.0563 10.7 11.0596 10.7068 11.0624 10.7139C11.1879 10.6658 11.3171 10.6284 11.449 10.6021H11.467C11.7194 10.5795 11.9737 10.5933 12.2223 10.6432H12.2378C12.4569 10.7114 12.6698 10.7992 12.8738 10.9053C12.935 10.9333 13.0629 11.0087 13.1531 11.0625C13.1872 10.9172 13.2931 10.5694 13.3362 10.4375C13.38 10.3038 13.4779 10.088 13.5423 9.94729L13.5466 9.9368C13.6331 9.76312 13.7291 9.59451 13.8341 9.43176C13.9339 9.27693 14.0414 9.12732 14.156 8.98351L14.162 8.97652C14.2592 8.87332 14.3627 8.77643 14.4719 8.68643C14.536 8.63572 14.7011 8.52488 14.7557 8.48817L14.7557 8.48816L14.7714 8.4776C14.8095 8.45449 14.855 8.44729 14.8982 8.45751C14.9414 8.46773 14.979 8.49457 15.0032 8.53241C15.0274 8.57025 15.0363 8.61616 15.0279 8.66051C15.0196 8.70486 14.9948 8.7442 14.9586 8.77031C14.8993 8.80963 14.7354 8.91973 14.6865 8.95992C14.5173 9.10161 14.3678 9.26591 14.2418 9.44836C14.2096 9.49399 14.1806 9.53835 14.1556 9.57672C14.1447 9.59346 14.1345 9.60905 14.1251 9.62312C14.0294 9.7721 13.9414 9.92609 13.8616 10.0845L13.8573 10.095C13.7998 10.2208 13.7036 10.4314 13.665 10.5493C13.6264 10.6673 13.5208 11.0229 13.4882 11.154C13.4707 11.2253 13.4456 11.3716 13.4257 11.488L13.4257 11.488C13.4164 11.5428 13.4081 11.5909 13.4023 11.6214C13.4023 11.6235 13.3951 11.6683 13.3851 11.7305L13.3849 11.7314L13.3848 11.732L13.3848 11.7324L13.3848 11.7325C13.3656 11.851 13.3366 12.0308 13.3277 12.1003C13.3118 12.2208 13.3027 12.3422 13.3002 12.4638V12.4847C13.2815 12.7205 13.3288 12.9568 13.4367 13.1663C13.4633 13.2205 13.4925 13.2729 13.5225 13.3244C13.5462 13.3594 13.5571 13.4016 13.5535 13.4438C13.5499 13.4861 13.532 13.5257 13.5028 13.556C13.4713 13.586 13.43 13.6028 13.3869 13.6032ZM18.8528 14.4558V13.7416C18.8641 13.4877 18.8928 13.2348 18.9387 12.985V12.9762C19.0023 12.7121 19.0939 12.4558 19.2116 12.2117L19.2168 12.202C19.3491 11.9665 19.5056 11.746 19.6837 11.5441C19.8544 11.3666 20.0452 11.2102 20.252 11.0784L20.2734 11.0661C20.5047 10.963 20.7414 10.8732 20.9825 10.797C21.0231 10.7829 21.0673 10.784 21.1072 10.8C21.1472 10.816 21.1802 10.8459 21.2005 10.8844C21.2111 10.9071 21.2167 10.9318 21.2171 10.9569C21.2174 10.982 21.2125 11.0068 21.2025 11.0298C21.1926 11.0528 21.1779 11.0733 21.1595 11.09C21.1411 11.1066 21.1193 11.1191 21.0958 11.1264C21.0022 11.1553 20.9095 11.1867 20.8177 11.2199C20.4872 11.3356 20.1867 11.5259 19.9387 11.7765L19.9344 11.7818V11.787C19.6207 12.1437 19.3966 12.5724 19.2812 13.0365V13.0435C19.2792 13.0501 19.2778 13.0568 19.2769 13.0636C19.2348 13.2898 19.2081 13.5187 19.1971 13.7486V14.4835C19.1972 14.4988 19.1954 14.514 19.1917 14.5287C19.3649 14.5751 19.5359 14.6294 19.7044 14.6915H19.713C19.9328 14.7871 20.1474 14.8947 20.3559 15.0139C20.5275 15.1205 21.0022 15.4683 21.022 15.4831C21.0513 15.5047 21.0732 15.5353 21.0845 15.5704C21.0957 15.6055 21.0958 15.6433 21.0846 15.6784C21.0735 15.7135 21.0517 15.7441 21.0224 15.7659C20.9931 15.7876 20.9578 15.7994 20.9215 15.7994L20.9275 15.8003C20.8912 15.8004 20.8557 15.7888 20.8263 15.7671C20.825 15.7671 20.7848 15.7377 20.7243 15.6936L20.7241 15.6935L20.7241 15.6935C20.5746 15.5844 20.3017 15.3855 20.1893 15.3171C20.0783 15.253 19.9639 15.1924 19.846 15.1353C19.6725 15.0503 19.4929 14.979 19.3087 14.9221C19.1859 14.8837 19.0623 14.8496 18.9378 14.8208H18.9327C18.6034 14.7606 18.2657 14.7665 17.9387 14.8383C17.9036 14.846 17.8684 14.8544 17.8322 14.863L17.767 14.8785C17.5747 14.9371 17.3875 15.0119 17.2074 15.1021C17.0958 15.1572 16.7894 15.3721 16.6803 15.4516C16.6619 15.4649 16.6411 15.4743 16.6191 15.4794C16.5971 15.4845 16.5743 15.4851 16.5521 15.4812C16.5298 15.4773 16.5086 15.469 16.4895 15.4567C16.4704 15.4444 16.4539 15.4285 16.4409 15.4097C16.4278 15.3909 16.4186 15.3698 16.4136 15.3474C16.4086 15.325 16.408 15.3018 16.4119 15.2791C16.4157 15.2565 16.4239 15.2348 16.4359 15.2154C16.4479 15.196 16.4636 15.1792 16.4821 15.1659C16.6674 15.0306 16.8594 14.9049 17.0572 14.7893C17.2558 14.6893 17.4626 14.6069 17.6752 14.5429C17.9137 14.48 18.1568 14.4374 18.4022 14.4153H18.4228C18.5668 14.4207 18.7104 14.4342 18.8528 14.4558ZM20.0314 13.6395C19.9881 13.6396 19.9464 13.6231 19.9146 13.5933C19.8828 13.5635 19.8632 13.5226 19.8597 13.4787C19.846 13.3086 19.846 13.1376 19.8597 12.9675C19.8597 12.9675 19.8597 12.9492 19.8649 12.9431C19.87 12.937 19.8709 12.9195 19.8709 12.9195C19.9136 12.8066 19.9714 12.7001 20.0425 12.6032C20.1091 12.5029 20.1932 12.4158 20.2906 12.3463L20.3207 12.3288C20.4379 12.2771 20.5659 12.2558 20.6932 12.2668H20.7146C20.8181 12.2893 20.9173 12.3289 21.0082 12.3839C21.0632 12.4155 21.1485 12.478 21.2216 12.5316L21.2382 12.5438L21.2812 12.5752L21.6082 12.7937C21.6795 12.8365 21.8391 12.9247 21.9138 12.9606L21.9825 12.9929C22.1081 13.0477 22.2459 13.0676 22.3816 13.0506C22.4448 13.0425 22.5076 13.0308 22.5696 13.0156H22.5807C22.7114 12.993 22.8396 12.9576 22.9636 12.9099H22.9679C22.9958 12.8911 23.0228 12.871 23.0488 12.8498C23.0501 12.8093 23.0527 12.7688 23.0568 12.7284L23.0611 12.7013C23.128 12.4454 23.2248 12.1987 23.3495 11.9664C23.408 11.8433 23.4716 11.7228 23.5401 11.6052C23.5355 11.5718 23.529 11.5386 23.5207 11.5057C23.5121 11.4725 23.5026 11.4402 23.4923 11.407C23.4498 11.2726 23.3922 11.1436 23.3207 11.0225C23.1688 10.8229 22.9757 10.6597 22.755 10.5446C22.6841 10.5056 22.6131 10.4714 22.5388 10.4355L22.4915 10.4126C22.4506 10.3946 22.4176 10.3621 22.3986 10.321C22.3796 10.28 22.376 10.2334 22.3885 10.1898C22.3963 10.1669 22.4088 10.1458 22.4251 10.1281C22.4415 10.1103 22.4612 10.0962 22.4832 10.0866C22.5052 10.0771 22.5289 10.0723 22.5528 10.0726C22.5767 10.073 22.6002 10.0783 22.6219 10.0885C22.8048 10.1733 22.983 10.2681 23.1558 10.3724L23.1713 10.3829C23.3339 10.5072 23.4784 10.6543 23.6005 10.8198L23.6099 10.8338C23.6831 10.9559 23.7445 11.0849 23.7932 11.2189C23.8071 11.1996 23.8214 11.1786 23.8362 11.1564C23.9418 11.0026 24.086 10.7929 24.3143 10.7195C24.5428 10.6287 24.7937 10.6138 25.0311 10.6767H25.0457C25.2401 10.7483 25.4197 10.8561 25.5753 10.9948L25.589 11.0096C25.7124 11.1482 25.8101 11.3084 25.8774 11.4823L25.8826 11.4963C25.9317 11.6653 25.9639 11.8389 25.9787 12.0145V12.4968C26.0037 12.6338 26.0405 12.7683 26.0886 12.8987C26.166 13.0716 26.2604 13.2361 26.3701 13.3898C26.5998 13.6734 26.8485 13.9406 27.1143 14.1893L27.1144 14.1893L27.1144 14.1894C27.2003 14.2769 27.6294 14.7136 27.8242 14.9416C27.9799 15.1128 28.1211 15.2969 28.2465 15.4921L28.2534 15.5043C28.3602 15.7029 28.4295 15.9202 28.4577 16.1448V16.1614V16.1789C28.4454 16.3717 28.3936 16.5598 28.3057 16.7311L28.2886 16.7582C28.1932 16.8827 28.0751 16.9874 27.9409 17.0667L27.9229 17.0763C27.7448 17.1553 27.5597 17.2167 27.3701 17.2598C27.2321 17.297 27.0927 17.3285 26.9522 17.3543C26.9415 17.3678 26.9289 17.3797 26.9148 17.3895C26.8049 17.4663 26.4856 17.739 26.471 17.9661C26.4539 18.0868 26.469 18.21 26.5148 18.3226C26.53 18.3593 26.5426 18.3969 26.5526 18.4354C26.5935 18.5696 26.6416 18.7015 26.6968 18.8303C26.7508 18.9632 26.8163 19.091 26.8925 19.2121C26.9647 19.3052 27.0491 19.3878 27.1431 19.4577C27.286 19.5388 27.4333 19.6114 27.5843 19.6753C27.6208 19.6911 27.6507 19.7192 27.6691 19.7549C27.6875 19.7906 27.6932 19.8317 27.6852 19.8712C27.6772 19.9107 27.6561 19.9462 27.6253 19.9716C27.5946 19.9971 27.5561 20.0109 27.5165 20.0108H27.5157C27.4923 20.0106 27.4692 20.0055 27.4479 19.9959C27.2735 19.9227 27.1043 19.8375 26.9414 19.7408C26.8191 19.6505 26.7098 19.5432 26.617 19.4219L26.611 19.407C26.521 19.2687 26.4435 19.1225 26.3792 18.9701C26.3177 18.8237 26.2647 18.6737 26.2204 18.521C26.2136 18.4976 26.2056 18.4745 26.1964 18.452C26.1312 18.2912 26.1079 18.1161 26.1285 17.9434C26.1398 17.77 26.2266 17.6076 26.3307 17.4725C25.9833 17.5526 25.8895 17.6153 25.8414 17.6713C25.6899 17.9042 25.5657 18.1543 25.4714 18.4166C25.4649 18.4427 25.4527 18.4668 25.4357 18.4871C25.3483 18.6403 25.2498 18.7866 25.1411 18.9249L25.1273 18.9406C25.0222 19.0505 24.9026 19.1449 24.772 19.2211L24.7574 19.229C24.6085 19.298 24.4532 19.3519 24.2939 19.3898C24.2285 19.4071 24.0871 19.435 23.9813 19.456L23.9811 19.456C23.9106 19.47 23.8559 19.4808 23.8501 19.4833C23.8404 19.4849 23.8307 19.4857 23.8209 19.4859C23.7754 19.4902 23.73 19.4759 23.6949 19.4461C23.6597 19.4164 23.6376 19.3736 23.6333 19.3273C23.6291 19.2809 23.6432 19.2348 23.6724 19.199C23.7016 19.1632 23.7436 19.1407 23.7891 19.1364L23.8806 19.1181L23.8806 19.1181C23.993 19.0958 24.1529 19.064 24.214 19.049C24.3502 19.0165 24.483 18.9708 24.6106 18.9127C24.7613 18.8191 24.8902 18.6933 24.9883 18.5439C25.0403 18.4649 25.0923 18.3781 25.1405 18.2975L25.1405 18.2975L25.1406 18.2974L25.1406 18.2973L25.1406 18.2973L25.1557 18.2722C25.1578 18.2685 25.1601 18.2649 25.1625 18.2614C25.2319 18.0752 25.4268 17.5839 25.595 17.4284C25.7469 17.2877 26.0671 17.1733 26.5736 17.0789L26.6182 17.0684C26.6649 17.0555 26.7125 17.0468 26.7607 17.0422C26.9367 17.0147 27.1112 16.9779 27.2834 16.9321C27.4502 16.894 27.6131 16.8401 27.7701 16.7713C27.8587 16.7177 27.9372 16.6485 28.0019 16.5669C28.0611 16.4474 28.0969 16.3175 28.1075 16.1841C28.0834 16.0107 28.0293 15.843 27.9478 15.6887C27.8324 15.5113 27.7033 15.3435 27.5615 15.1872C27.413 15.0124 27.0963 14.6847 26.8688 14.4532C26.593 14.1936 26.3349 13.915 26.0963 13.6196L26.0903 13.6117C25.9648 13.4361 25.8572 13.2478 25.7693 13.0499L25.765 13.0394C25.7061 12.8823 25.6618 12.72 25.6328 12.5545V12.5239V12.0503C25.62 11.9023 25.593 11.756 25.5521 11.6134C25.5004 11.4854 25.4278 11.3673 25.3375 11.2639C25.2182 11.1591 25.0812 11.0771 24.9332 11.0219C24.7666 10.9789 24.5909 10.9905 24.4311 11.0551L24.4156 11.0612C24.3001 11.0955 24.2003 11.2395 24.1187 11.3572L24.1143 11.3635C24.0851 11.4063 24.0577 11.4465 24.0285 11.4823C23.985 11.5443 23.9431 11.6074 23.9028 11.6716C23.9073 11.7059 23.911 11.7403 23.9138 11.7748V11.7967V11.8185C23.8969 11.919 23.8716 12.0178 23.8382 12.1139L23.8276 12.1448C23.8089 12.1987 23.7905 12.2518 23.7739 12.3061C23.7229 12.4723 23.6603 12.6347 23.5867 12.7919L23.5687 12.8216C23.5149 12.8938 23.4555 12.9612 23.3912 13.0233C23.3969 13.0895 23.4073 13.1554 23.4225 13.2203C23.4666 13.3709 23.5241 13.5171 23.5942 13.6572C23.6807 13.8067 23.7767 13.9503 23.8817 14.0871C23.9195 14.1378 23.9864 14.2112 24.0534 14.2819C24.1293 14.361 24.2006 14.4444 24.2671 14.5318L24.2748 14.5441C24.3515 14.6733 24.3943 14.8204 24.3993 14.9713V14.9932C24.3874 15.1264 24.3356 15.2527 24.2508 15.3549L24.2328 15.3733C24.1239 15.4714 24.0092 15.5628 23.8894 15.6468C23.8709 15.6608 23.8498 15.671 23.8274 15.6765C23.805 15.6821 23.7817 15.683 23.7589 15.6792C23.7361 15.6754 23.7143 15.667 23.6948 15.6544C23.6753 15.6418 23.6585 15.6254 23.6454 15.606C23.6322 15.5867 23.6231 15.5648 23.6185 15.5418C23.6138 15.5188 23.6138 15.495 23.6184 15.472C23.623 15.449 23.6321 15.4271 23.6452 15.4077C23.6583 15.3884 23.6751 15.3719 23.6946 15.3593C23.799 15.2855 23.8993 15.2059 23.995 15.1208C24.0283 15.0775 24.0494 15.0259 24.056 14.9713C24.0517 14.8864 24.0276 14.8037 23.9856 14.7302C23.9461 14.676 23.8731 14.5965 23.8027 14.5205C23.7324 14.4444 23.6585 14.3623 23.6122 14.2994C23.4971 14.1501 23.3922 13.9931 23.298 13.8293L23.292 13.8188C23.211 13.6544 23.1452 13.4827 23.0954 13.3059C23.091 13.2871 23.0868 13.2683 23.0829 13.2494C22.9411 13.3038 22.7945 13.3443 22.6451 13.3704C22.4912 13.4071 22.3337 13.4262 22.1756 13.4272H22.1576H22.137C22.0085 13.3974 21.8841 13.3523 21.7661 13.2926C21.6846 13.2533 21.5138 13.1589 21.4279 13.1074L21.0391 12.8452L21.0144 12.8273C20.9539 12.7833 20.8772 12.7275 20.8374 12.7045C20.7811 12.6697 20.7196 12.6444 20.6554 12.6294C20.6018 12.6268 20.5482 12.6371 20.4992 12.6594C20.4502 12.6817 20.4069 12.7154 20.373 12.7578C20.3566 12.777 20.3414 12.7971 20.3275 12.8181C20.2455 12.9355 20.2014 13.076 20.2013 13.2201C20.2013 13.3013 20.2013 13.3826 20.2108 13.463C20.2143 13.5091 20.1998 13.5547 20.1704 13.5899C20.1409 13.6252 20.099 13.6471 20.0537 13.6508L20.0314 13.6395ZM17.4932 18.4161C17.4798 18.3234 17.4648 18.21 17.4609 18.147C17.4433 17.9879 17.4433 17.8273 17.4609 17.6682L17.4652 17.6455C17.5011 17.4998 17.559 17.3606 17.6369 17.2331L17.6558 17.2077C17.7466 17.1073 17.8527 17.0223 17.97 16.9561L18.0009 16.9421C18.0903 16.9131 18.1819 16.8915 18.2747 16.8774C18.2982 16.8739 18.3223 16.8753 18.3452 16.8818C18.3682 16.8882 18.3896 16.8994 18.4081 16.9146C18.4266 16.9299 18.4418 16.949 18.4526 16.9705C18.4635 16.9921 18.4698 17.0158 18.4712 17.04C18.4718 17.0852 18.456 17.129 18.4269 17.1632C18.3978 17.1973 18.3574 17.2194 18.3133 17.2252C18.1718 17.2461 18.0404 17.3121 17.9382 17.4139L17.921 17.4323C17.8417 17.564 17.7979 17.7147 17.794 17.8692C17.7923 17.9482 17.7957 18.0274 17.8043 18.106V18.1182C17.8043 18.1822 17.8338 18.3728 17.8521 18.4867L17.9159 18.5L17.9239 18.5017L17.924 18.5017L17.924 18.5017C18.1327 18.5461 18.414 18.606 18.5699 18.6267C18.7708 18.6537 19.2429 18.6878 19.4678 18.6878H19.4679C19.6928 18.6878 20.103 18.6878 20.3073 18.6651C20.5362 18.6426 21.1307 18.5484 21.3829 18.5084C21.4531 18.4973 21.4968 18.4904 21.4987 18.4904C21.5215 18.4851 21.5451 18.4847 21.5681 18.4891C21.5911 18.4935 21.613 18.5026 21.6323 18.5159C21.6517 18.5292 21.6683 18.5464 21.6809 18.5664C21.6935 18.5865 21.702 18.6089 21.7058 18.6324C21.7096 18.6559 21.7087 18.6799 21.703 18.703C21.6974 18.7261 21.6872 18.7478 21.673 18.7667C21.6588 18.7857 21.641 18.8014 21.6206 18.8131C21.6003 18.8248 21.5777 18.8321 21.5545 18.8346L21.5366 18.8376L21.5366 18.8376C21.4043 18.8593 20.6239 18.9877 20.3425 19.0155C20.1227 19.04 19.697 19.04 19.4678 19.04H19.4678C19.2249 19.04 18.7382 19.0041 18.5236 18.9762C18.3586 18.9543 18.0921 18.8978 17.8704 18.8508L17.8438 18.8451L17.6532 18.8049C17.6057 18.7952 17.5582 18.786 17.5106 18.7772C17.3803 18.7785 17.2502 18.7889 17.1213 18.8085C16.916 18.8412 16.7147 18.8957 16.5205 18.9711C16.3048 19.1216 16.1385 19.3347 16.0432 19.5827C16.0389 19.5927 16.0351 19.6028 16.0313 19.6125L16.0313 19.6125L16.0313 19.6125L16.0269 19.6238C15.9857 19.7487 15.9093 20.148 15.8836 20.2861C15.8763 20.3277 15.8545 20.3653 15.8222 20.3918C15.7898 20.4183 15.7491 20.432 15.7076 20.4303H15.6767C15.6545 20.4262 15.6333 20.4176 15.6143 20.4052C15.5953 20.3927 15.5789 20.3766 15.5661 20.3577C15.5533 20.3387 15.5442 20.3174 15.5395 20.295C15.5348 20.2725 15.5344 20.2493 15.5385 20.2267L15.5399 20.2191L15.5399 20.2191L15.5399 20.219C15.5552 20.137 15.6402 19.6812 15.6973 19.5111C15.7563 19.3477 15.8351 19.1924 15.9316 19.0488L15.9402 19.0375C16.0424 18.9098 16.1613 18.7972 16.2937 18.7028C15.8005 18.7569 15.3162 18.879 14.8541 19.0662L14.7863 19.0941C14.7004 19.1291 14.5794 19.1815 14.4515 19.2392L14.3896 19.2667L14.3895 19.2667L14.3895 19.2667C14.1972 19.3521 14.0072 19.4365 13.8669 19.4838H13.8584C13.5687 19.5678 13.2751 19.6366 12.9785 19.69C12.812 19.7207 12.6431 19.7365 12.4738 19.7372C12.4026 19.7372 12.3305 19.7372 12.2592 19.7294L12.2257 19.7232C12.0576 19.675 11.8934 19.6133 11.7348 19.5389C11.6942 19.5207 11.6616 19.4879 11.6434 19.4468C11.6252 19.4056 11.6225 19.3591 11.636 19.3161C11.6443 19.2933 11.657 19.2725 11.6736 19.2551C11.6901 19.2376 11.71 19.2238 11.732 19.2146C11.7541 19.2054 11.7778 19.201 11.8016 19.2016C11.8254 19.2022 11.8488 19.2079 11.8704 19.2182C12.1554 19.3529 12.4716 19.4043 12.7837 19.3667C12.8266 19.3606 12.8695 19.3545 12.9124 19.3467C13.0541 19.3213 13.1966 19.2916 13.3373 19.2593C13.61 19.1932 13.8769 19.1044 14.1353 18.994C14.0559 18.9002 13.988 18.7967 13.9333 18.6858L13.9178 18.6203C13.911 18.5013 13.911 18.3819 13.9178 18.2629C13.9188 18.2398 13.9243 18.2171 13.934 18.1962C13.9436 18.1752 13.9573 18.1565 13.9741 18.1409C13.991 18.1254 14.0107 18.1135 14.0321 18.1057C14.0536 18.098 14.0763 18.0947 14.099 18.096C14.1444 18.0987 14.1869 18.1197 14.2171 18.1542C14.2474 18.1888 14.2629 18.2342 14.2603 18.2804V18.311C14.2554 18.4024 14.2685 18.494 14.2991 18.5801C14.3296 18.6663 14.3768 18.7453 14.438 18.8125C14.4482 18.8235 14.457 18.8356 14.4643 18.8487C14.5345 18.818 14.5987 18.7906 14.6515 18.7691C14.9592 18.6419 15.2742 18.534 15.5948 18.4458H15.6069C15.9792 18.3713 16.3571 18.3298 16.7365 18.3217H16.7545C17.002 18.3418 17.2485 18.3733 17.4932 18.4161Z" fill="white"/>
    <g filter="url(#filter0_f)">
        <ellipse cx="7.08796" cy="14.1764" rx="0.360494" ry="0.361608" fill="white"/>
    </g>
    <g filter="url(#filter1_f)">
        <ellipse cx="9.88018" cy="15.8042" rx="0.360494" ry="0.361608" fill="white"/>
    </g>
    <g filter="url(#filter2_f)">
        <ellipse cx="11.7729" cy="12.2324" rx="0.360494" ry="0.361608" fill="white"/>
    </g>
    <g filter="url(#filter3_f)">
        <ellipse cx="7.44806" cy="13.0008" rx="0.360494" ry="0.361608" fill="white"/>
    </g>
    <g filter="url(#filter4_f)">
        <ellipse cx="8.88862" cy="10.7862" rx="0.360494" ry="0.361608" fill="white"/>
    </g>
    <g filter="url(#filter5_f)">
        <ellipse cx="10.7829" cy="9.38535" rx="0.360494" ry="0.361608" fill="white"/>
    </g>
    <g filter="url(#filter6_f)">
        <ellipse cx="16.2786" cy="12.0972" rx="0.360494" ry="0.361608" fill="white"/>
    </g>
    <g filter="url(#filter7_f)">
        <ellipse cx="21.1476" cy="15.5777" rx="0.360494" ry="0.361608" fill="white"/>
    </g>
    <g filter="url(#filter8_f)">
        <ellipse cx="18.3086" cy="11.9164" rx="0.360494" ry="0.361608" fill="white"/>
    </g>
    <g filter="url(#filter9_f)">
        <ellipse cx="21.9131" cy="8.79783" rx="0.360494" ry="0.361608" fill="white"/>
    </g>
    <g filter="url(#filter10_f)">
        <ellipse cx="21.2364" cy="10.7416" rx="0.360494" ry="0.361608" fill="white"/>
    </g>
    <g filter="url(#filter11_f)">
        <ellipse cx="20.064" cy="13.4985" rx="0.360494" ry="0.361608" fill="white"/>
    </g>
    <g filter="url(#filter12_f)">
        <ellipse cx="16.4142" cy="15.1707" rx="0.360494" ry="0.361608" fill="white"/>
    </g>
    <g filter="url(#filter13_f)">
        <ellipse cx="18.5331" cy="16.7082" rx="0.360494" ry="0.361608" fill="white"/>
    </g>
    <g filter="url(#filter14_f)">
        <ellipse cx="14.0725" cy="17.7467" rx="0.360494" ry="0.361608" fill="white"/>
    </g>
    <g filter="url(#filter15_f)">
        <ellipse cx="11.6388" cy="18.9222" rx="0.360494" ry="0.361608" fill="white"/>
    </g>
    <g filter="url(#filter16_f)">
        <ellipse cx="15.6487" cy="20.188" rx="0.360494" ry="0.361608" fill="white"/>
    </g>
    <g filter="url(#filter17_f)">
        <ellipse cx="14.3875" cy="21.4538" rx="0.360494" ry="0.361608" fill="white"/>
    </g>
    <g filter="url(#filter18_f)">
        <ellipse cx="18.7591" cy="19.8263" rx="0.360494" ry="0.361608" fill="white"/>
    </g>
    <g filter="url(#filter19_f)">
        <ellipse cx="25.2931" cy="21.7248" rx="0.360494" ry="0.361608" fill="white"/>
    </g>
    <g filter="url(#filter20_f)">
        <ellipse cx="23.5345" cy="19.0128" rx="0.360494" ry="0.361608" fill="white"/>
    </g>
    <g filter="url(#filter21_f)">
        <ellipse cx="27.7705" cy="19.6007" rx="0.360494" ry="0.361608" fill="white"/>
    </g>
    <g filter="url(#filter22_f)">
        <ellipse cx="23.6249" cy="15.397" rx="0.360494" ry="0.361608" fill="white"/>
    </g>
    <defs>
        <filter id="filter0_f" x="2.72746" y="9.81482" width="8.72099" height="8.72322" filterUnits="userSpaceOnUse" color-interpolation-filters="sRGB">
            <feFlood flood-opacity="0" result="BackgroundImageFix"/>
            <feBlend mode="normal" in="SourceGraphic" in2="BackgroundImageFix" result="shape"/>
            <feGaussianBlur stdDeviation="2" result="effect1_foregroundBlur"/>
        </filter>
        <filter id="filter1_f" x="5.51968" y="11.4426" width="8.72099" height="8.72322" filterUnits="userSpaceOnUse" color-interpolation-filters="sRGB">
            <feFlood flood-opacity="0" result="BackgroundImageFix"/>
            <feBlend mode="normal" in="SourceGraphic" in2="BackgroundImageFix" result="shape"/>
            <feGaussianBlur stdDeviation="2" result="effect1_foregroundBlur"/>
        </filter>
        <filter id="filter2_f" x="7.41238" y="7.87079" width="8.72099" height="8.72322" filterUnits="userSpaceOnUse" color-interpolation-filters="sRGB">
            <feFlood flood-opacity="0" result="BackgroundImageFix"/>
            <feBlend mode="normal" in="SourceGraphic" in2="BackgroundImageFix" result="shape"/>
            <feGaussianBlur stdDeviation="2" result="effect1_foregroundBlur"/>
        </filter>
        <filter id="filter3_f" x="3.08757" y="8.63916" width="8.72099" height="8.72322" filterUnits="userSpaceOnUse" color-interpolation-filters="sRGB">
            <feFlood flood-opacity="0" result="BackgroundImageFix"/>
            <feBlend mode="normal" in="SourceGraphic" in2="BackgroundImageFix" result="shape"/>
            <feGaussianBlur stdDeviation="2" result="effect1_foregroundBlur"/>
        </filter>
        <filter id="filter4_f" x="4.52812" y="6.42462" width="8.72099" height="8.72322" filterUnits="userSpaceOnUse" color-interpolation-filters="sRGB">
            <feFlood flood-opacity="0" result="BackgroundImageFix"/>
            <feBlend mode="normal" in="SourceGraphic" in2="BackgroundImageFix" result="shape"/>
            <feGaussianBlur stdDeviation="2" result="effect1_foregroundBlur"/>
        </filter>
        <filter id="filter5_f" x="6.42242" y="5.02374" width="8.72099" height="8.72322" filterUnits="userSpaceOnUse" color-interpolation-filters="sRGB">
            <feFlood flood-opacity="0" result="BackgroundImageFix"/>
            <feBlend mode="normal" in="SourceGraphic" in2="BackgroundImageFix" result="shape"/>
            <feGaussianBlur stdDeviation="2" result="effect1_foregroundBlur"/>
        </filter>
        <filter id="filter6_f" x="11.9181" y="7.7356" width="8.72099" height="8.72322" filterUnits="userSpaceOnUse" color-interpolation-filters="sRGB">
            <feFlood flood-opacity="0" result="BackgroundImageFix"/>
            <feBlend mode="normal" in="SourceGraphic" in2="BackgroundImageFix" result="shape"/>
            <feGaussianBlur stdDeviation="2" result="effect1_foregroundBlur"/>
        </filter>
        <filter id="filter7_f" x="16.7871" y="11.2161" width="8.72099" height="8.72322" filterUnits="userSpaceOnUse" color-interpolation-filters="sRGB">
            <feFlood flood-opacity="0" result="BackgroundImageFix"/>
            <feBlend mode="normal" in="SourceGraphic" in2="BackgroundImageFix" result="shape"/>
            <feGaussianBlur stdDeviation="2" result="effect1_foregroundBlur"/>
        </filter>
        <filter id="filter8_f" x="13.9481" y="7.55481" width="8.72099" height="8.72322" filterUnits="userSpaceOnUse" color-interpolation-filters="sRGB">
            <feFlood flood-opacity="0" result="BackgroundImageFix"/>
            <feBlend mode="normal" in="SourceGraphic" in2="BackgroundImageFix" result="shape"/>
            <feGaussianBlur stdDeviation="2" result="effect1_foregroundBlur"/>
        </filter>
        <filter id="filter9_f" x="17.5526" y="4.43622" width="8.72099" height="8.72322" filterUnits="userSpaceOnUse" color-interpolation-filters="sRGB">
            <feFlood flood-opacity="0" result="BackgroundImageFix"/>
            <feBlend mode="normal" in="SourceGraphic" in2="BackgroundImageFix" result="shape"/>
            <feGaussianBlur stdDeviation="2" result="effect1_foregroundBlur"/>
        </filter>
        <filter id="filter10_f" x="16.8759" y="6.37994" width="8.72099" height="8.72322" filterUnits="userSpaceOnUse" color-interpolation-filters="sRGB">
            <feFlood flood-opacity="0" result="BackgroundImageFix"/>
            <feBlend mode="normal" in="SourceGraphic" in2="BackgroundImageFix" result="shape"/>
            <feGaussianBlur stdDeviation="2" result="effect1_foregroundBlur"/>
        </filter>
        <filter id="filter11_f" x="15.7035" y="9.1369" width="8.72099" height="8.72322" filterUnits="userSpaceOnUse" color-interpolation-filters="sRGB">
            <feFlood flood-opacity="0" result="BackgroundImageFix"/>
            <feBlend mode="normal" in="SourceGraphic" in2="BackgroundImageFix" result="shape"/>
            <feGaussianBlur stdDeviation="2" result="effect1_foregroundBlur"/>
        </filter>
        <filter id="filter12_f" x="12.0537" y="10.8091" width="8.72099" height="8.72322" filterUnits="userSpaceOnUse" color-interpolation-filters="sRGB">
            <feFlood flood-opacity="0" result="BackgroundImageFix"/>
            <feBlend mode="normal" in="SourceGraphic" in2="BackgroundImageFix" result="shape"/>
            <feGaussianBlur stdDeviation="2" result="effect1_foregroundBlur"/>
        </filter>
        <filter id="filter13_f" x="14.1726" y="12.3466" width="8.72099" height="8.72322" filterUnits="userSpaceOnUse" color-interpolation-filters="sRGB">
            <feFlood flood-opacity="0" result="BackgroundImageFix"/>
            <feBlend mode="normal" in="SourceGraphic" in2="BackgroundImageFix" result="shape"/>
            <feGaussianBlur stdDeviation="2" result="effect1_foregroundBlur"/>
        </filter>
        <filter id="filter14_f" x="9.71204" y="13.3851" width="8.72099" height="8.72322" filterUnits="userSpaceOnUse" color-interpolation-filters="sRGB">
            <feFlood flood-opacity="0" result="BackgroundImageFix"/>
            <feBlend mode="normal" in="SourceGraphic" in2="BackgroundImageFix" result="shape"/>
            <feGaussianBlur stdDeviation="2" result="effect1_foregroundBlur"/>
        </filter>
        <filter id="filter15_f" x="7.27834" y="14.5605" width="8.72099" height="8.72322" filterUnits="userSpaceOnUse" color-interpolation-filters="sRGB">
            <feFlood flood-opacity="0" result="BackgroundImageFix"/>
            <feBlend mode="normal" in="SourceGraphic" in2="BackgroundImageFix" result="shape"/>
            <feGaussianBlur stdDeviation="2" result="effect1_foregroundBlur"/>
        </filter>
        <filter id="filter16_f" x="11.2882" y="15.8264" width="8.72099" height="8.72322" filterUnits="userSpaceOnUse" color-interpolation-filters="sRGB">
            <feFlood flood-opacity="0" result="BackgroundImageFix"/>
            <feBlend mode="normal" in="SourceGraphic" in2="BackgroundImageFix" result="shape"/>
            <feGaussianBlur stdDeviation="2" result="effect1_foregroundBlur"/>
        </filter>
        <filter id="filter17_f" x="10.027" y="17.0922" width="8.72099" height="8.72322" filterUnits="userSpaceOnUse" color-interpolation-filters="sRGB">
            <feFlood flood-opacity="0" result="BackgroundImageFix"/>
            <feBlend mode="normal" in="SourceGraphic" in2="BackgroundImageFix" result="shape"/>
            <feGaussianBlur stdDeviation="2" result="effect1_foregroundBlur"/>
        </filter>
        <filter id="filter18_f" x="14.3986" y="15.4647" width="8.72099" height="8.72322" filterUnits="userSpaceOnUse" color-interpolation-filters="sRGB">
            <feFlood flood-opacity="0" result="BackgroundImageFix"/>
            <feBlend mode="normal" in="SourceGraphic" in2="BackgroundImageFix" result="shape"/>
            <feGaussianBlur stdDeviation="2" result="effect1_foregroundBlur"/>
        </filter>
        <filter id="filter19_f" x="20.9326" y="17.3632" width="8.72099" height="8.72322" filterUnits="userSpaceOnUse" color-interpolation-filters="sRGB">
            <feFlood flood-opacity="0" result="BackgroundImageFix"/>
            <feBlend mode="normal" in="SourceGraphic" in2="BackgroundImageFix" result="shape"/>
            <feGaussianBlur stdDeviation="2" result="effect1_foregroundBlur"/>
        </filter>
        <filter id="filter20_f" x="19.174" y="14.6512" width="8.72099" height="8.72322" filterUnits="userSpaceOnUse" color-interpolation-filters="sRGB">
            <feFlood flood-opacity="0" result="BackgroundImageFix"/>
            <feBlend mode="normal" in="SourceGraphic" in2="BackgroundImageFix" result="shape"/>
            <feGaussianBlur stdDeviation="2" result="effect1_foregroundBlur"/>
        </filter>
        <filter id="filter21_f" x="23.41" y="15.2391" width="8.72099" height="8.72322" filterUnits="userSpaceOnUse" color-interpolation-filters="sRGB">
            <feFlood flood-opacity="0" result="BackgroundImageFix"/>
            <feBlend mode="normal" in="SourceGraphic" in2="BackgroundImageFix" result="shape"/>
            <feGaussianBlur stdDeviation="2" result="effect1_foregroundBlur"/>
        </filter>
        <filter id="filter22_f" x="19.2644" y="11.0354" width="8.72099" height="8.72322" filterUnits="userSpaceOnUse" color-interpolation-filters="sRGB">
            <feFlood flood-opacity="0" result="BackgroundImageFix"/>
            <feBlend mode="normal" in="SourceGraphic" in2="BackgroundImageFix" result="shape"/>
            <feGaussianBlur stdDeviation="2" result="effect1_foregroundBlur"/>
        </filter>
        <linearGradient id="paint0_linear" x1="5.75458" y1="21.1446" x2="29.9122" y2="21.2825" gradientUnits="userSpaceOnUse">
            <stop stop-color="#3B80D4"/>
            <stop offset="1" stop-color="#5040B6"/>
        </linearGradient>
    </defs>
</svg>
