<svg width="24" height="24" viewBox="0 0 24 24" fill="none" xmlns="http://www.w3.org/2000/svg">
<g clip-path="url(#clip0)">
<path d="M5.10707 16.606C5.14262 16.5704 5.18087 16.5394 5.2211 16.5126C4.35557 15.2182 3.85057 13.6624 3.85057 11.9884C3.85057 7.73887 7.10337 4.24963 11.2549 3.87322C11.2543 3.86179 11.2531 3.85051 11.2531 3.83899V0.012207C4.97371 0.39798 0 5.61192 0 11.9884C0 14.722 0.914655 17.2416 2.45377 19.2593L5.10707 16.606Z" fill="#F1F2F2"/>
<path d="M12.7469 3.83874C12.7469 3.85031 12.7456 3.86155 12.7451 3.87298C16.8966 4.24938 20.1495 7.73862 20.1495 11.9882C20.1495 13.6731 19.6381 15.2385 18.7621 16.5379C18.7895 16.5587 18.8163 16.5807 18.8413 16.6057L21.5238 19.2883C23.0765 17.2658 24 14.735 24 11.9882C24 5.61167 19.0263 0.39769 12.7469 0.0119629V3.83874Z" fill="#F1F2F2"/>
<path d="M20.5258 20.4027L17.8175 17.6945C16.3385 19.2021 14.2787 20.1377 12 20.1377C9.70813 20.1377 7.63765 19.1912 6.15693 17.6683L3.45558 20.3697C3.44837 20.3769 3.44055 20.3831 3.43311 20.39C5.61087 22.6103 8.64428 23.9883 12 23.9883C15.3424 23.9883 18.365 22.6213 20.5409 20.4165C20.536 20.4118 20.5306 20.4077 20.5258 20.4027Z" fill="#F1F2F2"/>
<path d="M10.9502 8.07632V14.7435H13.0498V8.07632C13.0498 7.84115 12.8592 7.65051 12.624 7.65051H11.376C11.1408 7.65051 10.9502 7.84115 10.9502 8.07632Z" fill="#F1F2F2"/>
<path d="M7.35693 12.3148V14.3176C7.35693 14.5528 7.54757 14.7434 7.78274 14.7434H9.45653V12.3148C9.45653 12.0797 9.26589 11.889 9.03072 11.889H7.78274C7.54757 11.889 7.35693 12.0797 7.35693 12.3148Z" fill="#F1F2F2"/>
<path d="M14.5439 11.6284V14.7435H16.2177C16.4529 14.7435 16.6435 14.5529 16.6435 14.3177V11.6284C16.6435 11.3933 16.4529 11.2026 16.2177 11.2026H14.9698C14.7346 11.2026 14.5439 11.3933 14.5439 11.6284Z" fill="#F1F2F2"/>
</g>
<defs>
<clipPath id="clip0">
<rect width="24" height="24" fill="white"/>
</clipPath>
</defs>
</svg>
