<svg width="24" height="24" viewBox="0 0 24 24" fill="none" xmlns="http://www.w3.org/2000/svg">
<g clip-path="url(#clip0)">
<path d="M20.4486 4.88377C20.1634 3.74194 19.5259 2.70642 18.6227 1.93078C17.5879 1.04217 16.2678 0.552846 14.9054 0.552846C13.8832 0.552846 12.9042 0.816424 12.04 1.32C11.1249 0.483096 9.92498 0.0129395 8.66414 0.0129395C5.95978 0.0129395 3.74944 2.16877 3.66122 4.85199C2.7263 5.11331 1.87978 5.64525 1.23267 6.38724C0.437813 7.29877 0 8.46605 0 9.67406C0 12.4342 2.2455 14.6797 5.00564 14.6797H18.9944C21.7545 14.6797 24 12.4342 24 9.67406C24 7.46105 22.5322 5.51696 20.4486 4.88377Z" fill="#F1F2F2"/>
<path d="M7.54688 16.0861V17.4244H5.05795C4.75102 16.3437 3.75591 15.5496 2.57812 15.5496C1.15655 15.5496 0 16.7061 0 18.1277C0 19.5493 1.15655 20.7058 2.57812 20.7058C3.756 20.7058 4.75116 19.9115 5.05805 18.8307H8.25C8.63813 18.8307 8.95312 18.5161 8.95312 18.1275V16.0861H7.54688Z" fill="#F1F2F2"/>
<path d="M12.7031 18.9291V16.0862H11.2969V18.9291C10.2161 19.236 9.42188 20.2311 9.42188 21.409C9.42188 22.8306 10.5784 23.9871 12 23.9871C13.4216 23.9871 14.5781 22.8306 14.5781 21.409C14.5781 20.2311 13.7839 19.236 12.7031 18.9291Z" fill="#F1F2F2"/>
<path d="M21.4219 15.5496C20.2441 15.5496 19.249 16.3437 18.942 17.4244H16.4531V16.0861H15.0469V18.1275C15.0469 18.5161 15.3619 18.8307 15.75 18.8307H18.942C19.2488 19.9115 20.244 20.7058 21.4219 20.7058C22.8435 20.7058 24 19.5493 24 18.1277C24 16.7061 22.8435 15.5496 21.4219 15.5496Z" fill="#F1F2F2"/>
</g>
<defs>
<clipPath id="clip0">
<rect width="24" height="24" fill="white"/>
</clipPath>
</defs>
</svg>
